M48
; DRILL file {KiCad 8.0.6} date 2024-12-30T11:18:59+0200
; FORMAT={-:-/ absolute / inch / decimal}
; #@! TF.CreationDate,2024-12-30T11:18:59+02:00
; #@! TF.GenerationSoftware,Kicad,Pcbnew,8.0.6
; #@! TF.FileFunction,Plated,1,2,PTH
FMAT,2
INCH
; #@! TA.AperFunction,Plated,PTH,ViaDrill
T1C0.0118
; #@! TA.AperFunction,Plated,PTH,ViaDrill
T2C0.0157
; #@! TA.AperFunction,Plated,PTH,ComponentDrill
T3C0.0236
; #@! TA.AperFunction,Plated,PTH,ComponentDrill
T4C0.0280
; #@! TA.AperFunction,Plated,PTH,ComponentDrill
T5C0.0315
; #@! TA.AperFunction,Plated,PTH,ComponentDrill
T6C0.0354
; #@! TA.AperFunction,Plated,PTH,ComponentDrill
T7C0.0394
; #@! TA.AperFunction,Plated,PTH,ComponentDrill
T8C0.0433
; #@! TA.AperFunction,Plated,PTH,ComponentDrill
T9C0.0472
; #@! TA.AperFunction,Plated,PTH,ComponentDrill
T10C0.0512
; #@! TA.AperFunction,Plated,PTH,ComponentDrill
T11C0.0551
; #@! TA.AperFunction,Plated,PTH,ComponentDrill
T12C0.0630
%
G90
G05
T1
X5.0197Y-2.8602
X5.3209Y-2.565
X5.3209Y-2.7047
X5.4744Y-2.5256
X5.4764Y-2.3563
X5.5197Y-2.9272
X5.8002Y-2.4222
X5.8297Y-2.4498
X5.8858Y-2.1988
X6.0846Y-3.0787
X6.0943Y-2.5888
X6.0945Y-2.4882
X6.3386Y-3.0787
X6.5175Y-3.099
X6.5276Y-3.0354
X6.5748Y-2.8819
T2
X5.7264Y-2.6791
T3
X4.6322Y-4.129
X4.829Y-4.1782
T4
X3.2343Y-5.0728
X3.2972Y-4.872
X6.1122Y-4.6339
X6.1752Y-4.4331
X6.3701Y-4.6267
X6.4331Y-4.4259
T5
X3.8763Y-4.1359
X4.2529Y-2.5738
X4.4668Y-4.1359
X4.5529Y-2.5738
X5.0Y-2.2028
X5.0676Y-3.4383
X5.0984Y-2.2028
X5.2283Y-2.2028
X5.3268Y-2.2028
X5.3676Y-3.4383
X5.5969Y-3.4349
X5.8969Y-3.4349
X6.127Y-3.5173
X6.127Y-3.8173
X6.1457Y-4.023
X6.1457Y-4.223
X6.1654Y-3.3006
X6.227Y-3.5173
X6.227Y-3.8173
X6.2441Y-3.3006
X6.276Y-2.0717
X6.276Y-2.2646
X6.3789Y-3.5179
X6.3789Y-3.8179
X6.4016Y-4.0198
X6.4016Y-4.2198
X6.4171Y-3.2992
X6.4789Y-3.5179
X6.4789Y-3.8179
X6.4959Y-3.2992
T6
X4.3527Y-2.4045
X4.4527Y-2.4045
X5.1625Y-3.2788
X5.2625Y-3.2788
X5.7066Y-3.2716
X5.8066Y-3.2716
X6.3954Y-2.8348
X6.4954Y-2.8348
T7
X3.0472Y-3.434
X3.2441Y-4.5788
X3.4409Y-4.5788
X3.6378Y-3.434
X5.6776Y-2.0047
X5.7776Y-2.0047
X5.8776Y-2.0047
X5.9776Y-2.0047
X6.0776Y-2.0047
X6.2366Y-2.4844
X6.3366Y-2.4844
X6.4366Y-2.4844
T8
X4.1853Y-2.9233
X4.5869Y-2.9233
X5.0598Y-1.9843
X5.1598Y-1.9843
X5.2598Y-1.9843
T9
X3.5335Y-4.9272
X3.8335Y-4.9272
X3.8782Y-4.5552
X4.8782Y-4.5552
T10
X5.0633Y-3.6292
X5.0633Y-4.567
X5.3633Y-3.6292
X5.3633Y-4.4292
X5.6102Y-3.6299
X5.6102Y-4.5677
X5.9102Y-3.6299
X5.9102Y-4.4299
T11
X4.2846Y-4.9626
X4.4846Y-4.9626
X4.6846Y-4.9626
X4.8846Y-4.9626
X5.0846Y-4.9626
X5.2846Y-4.9626
X5.4846Y-4.9626
X5.6846Y-4.9626
X5.8846Y-4.9626
X6.0846Y-4.9626
T12
X4.0357Y-3.5218
X4.0357Y-3.821
X4.7365Y-3.4218
M30
