%TF.GenerationSoftware,KiCad,Pcbnew,8.0.6*%
%TF.CreationDate,2024-12-30T11:18:50+02:00*%
%TF.ProjectId,project,70726f6a-6563-4742-9e6b-696361645f70,rev?*%
%TF.SameCoordinates,Original*%
%TF.FileFunction,Copper,L2,Bot*%
%TF.FilePolarity,Positive*%
%FSLAX46Y46*%
G04 Gerber Fmt 4.6, Leading zero omitted, Abs format (unit mm)*
G04 Created by KiCad (PCBNEW 8.0.6) date 2024-12-30 11:18:50*
%MOMM*%
%LPD*%
G01*
G04 APERTURE LIST*
G04 Aperture macros list*
%AMRoundRect*
0 Rectangle with rounded corners*
0 $1 Rounding radius*
0 $2 $3 $4 $5 $6 $7 $8 $9 X,Y pos of 4 corners*
0 Add a 4 corners polygon primitive as box body*
4,1,4,$2,$3,$4,$5,$6,$7,$8,$9,$2,$3,0*
0 Add four circle primitives for the rounded corners*
1,1,$1+$1,$2,$3*
1,1,$1+$1,$4,$5*
1,1,$1+$1,$6,$7*
1,1,$1+$1,$8,$9*
0 Add four rect primitives between the rounded corners*
20,1,$1+$1,$2,$3,$4,$5,0*
20,1,$1+$1,$4,$5,$6,$7,0*
20,1,$1+$1,$6,$7,$8,$9,0*
20,1,$1+$1,$8,$9,$2,$3,0*%
G04 Aperture macros list end*
%TA.AperFunction,ComponentPad*%
%ADD10R,1.800000X1.800000*%
%TD*%
%TA.AperFunction,ComponentPad*%
%ADD11C,1.800000*%
%TD*%
%TA.AperFunction,ComponentPad*%
%ADD12R,1.600000X1.600000*%
%TD*%
%TA.AperFunction,ComponentPad*%
%ADD13O,1.600000X1.600000*%
%TD*%
%TA.AperFunction,ComponentPad*%
%ADD14C,1.600000*%
%TD*%
%TA.AperFunction,ComponentPad*%
%ADD15C,1.270000*%
%TD*%
%TA.AperFunction,ComponentPad*%
%ADD16RoundRect,0.249999X-0.790001X-1.550001X0.790001X-1.550001X0.790001X1.550001X-0.790001X1.550001X0*%
%TD*%
%TA.AperFunction,ComponentPad*%
%ADD17O,2.080000X3.600000*%
%TD*%
%TA.AperFunction,ComponentPad*%
%ADD18C,3.000000*%
%TD*%
%TA.AperFunction,ComponentPad*%
%ADD19R,1.700000X1.700000*%
%TD*%
%TA.AperFunction,ComponentPad*%
%ADD20O,1.700000X1.700000*%
%TD*%
%TA.AperFunction,ComponentPad*%
%ADD21R,2.000000X1.700000*%
%TD*%
%TA.AperFunction,ComponentPad*%
%ADD22O,2.000000X1.700000*%
%TD*%
%TA.AperFunction,ComponentPad*%
%ADD23R,1.905000X2.000000*%
%TD*%
%TA.AperFunction,ComponentPad*%
%ADD24O,1.905000X2.000000*%
%TD*%
%TA.AperFunction,ComponentPad*%
%ADD25C,2.400000*%
%TD*%
%TA.AperFunction,ComponentPad*%
%ADD26O,2.400000X2.400000*%
%TD*%
%TA.AperFunction,ComponentPad*%
%ADD27RoundRect,0.500000X0.500000X-0.500000X0.500000X0.500000X-0.500000X0.500000X-0.500000X-0.500000X0*%
%TD*%
%TA.AperFunction,ComponentPad*%
%ADD28C,2.000000*%
%TD*%
%TA.AperFunction,ComponentPad*%
%ADD29R,1.600000X2.400000*%
%TD*%
%TA.AperFunction,ComponentPad*%
%ADD30O,1.600000X2.400000*%
%TD*%
%TA.AperFunction,ComponentPad*%
%ADD31C,1.500000*%
%TD*%
%TA.AperFunction,SMDPad,CuDef*%
%ADD32RoundRect,0.175000X-0.175000X0.825000X-0.175000X-0.825000X0.175000X-0.825000X0.175000X0.825000X0*%
%TD*%
%TA.AperFunction,SMDPad,CuDef*%
%ADD33RoundRect,0.100000X0.637500X0.100000X-0.637500X0.100000X-0.637500X-0.100000X0.637500X-0.100000X0*%
%TD*%
%TA.AperFunction,SMDPad,CuDef*%
%ADD34RoundRect,0.250000X-0.337500X-0.475000X0.337500X-0.475000X0.337500X0.475000X-0.337500X0.475000X0*%
%TD*%
%TA.AperFunction,SMDPad,CuDef*%
%ADD35RoundRect,0.250000X-0.350000X-0.450000X0.350000X-0.450000X0.350000X0.450000X-0.350000X0.450000X0*%
%TD*%
%TA.AperFunction,SMDPad,CuDef*%
%ADD36RoundRect,0.250000X0.350000X0.450000X-0.350000X0.450000X-0.350000X-0.450000X0.350000X-0.450000X0*%
%TD*%
%TA.AperFunction,SMDPad,CuDef*%
%ADD37RoundRect,0.250000X-0.400000X-0.625000X0.400000X-0.625000X0.400000X0.625000X-0.400000X0.625000X0*%
%TD*%
%TA.AperFunction,SMDPad,CuDef*%
%ADD38RoundRect,0.250000X0.337500X0.475000X-0.337500X0.475000X-0.337500X-0.475000X0.337500X-0.475000X0*%
%TD*%
%TA.AperFunction,SMDPad,CuDef*%
%ADD39RoundRect,0.250000X-0.475000X0.337500X-0.475000X-0.337500X0.475000X-0.337500X0.475000X0.337500X0*%
%TD*%
%TA.AperFunction,ViaPad*%
%ADD40C,0.600000*%
%TD*%
%TA.AperFunction,ViaPad*%
%ADD41C,0.700000*%
%TD*%
%TA.AperFunction,Conductor*%
%ADD42C,2.000000*%
%TD*%
%TA.AperFunction,Conductor*%
%ADD43C,0.500000*%
%TD*%
%TA.AperFunction,Conductor*%
%ADD44C,0.200000*%
%TD*%
%TA.AperFunction,Conductor*%
%ADD45C,0.300000*%
%TD*%
G04 APERTURE END LIST*
D10*
%TO.P,D3,1,K*%
%TO.N,Net-(D3-K)*%
X131127500Y-83282500D03*
D11*
%TO.P,D3,2,A*%
%TO.N,Net-(D3-A)*%
X133667500Y-83282500D03*
%TD*%
D12*
%TO.P,D6,1,K*%
%TO.N,+12V*%
X136337500Y-87332500D03*
D13*
%TO.P,D6,2,A*%
%TO.N,Net-(D3-K)*%
X128717500Y-87332500D03*
%TD*%
D10*
%TO.P,D2,1,K*%
%TO.N,Net-(D2-K)*%
X110558750Y-61073750D03*
D11*
%TO.P,D2,2,A*%
%TO.N,Net-(D2-A)*%
X113098750Y-61073750D03*
%TD*%
D14*
%TO.P,RV1,1*%
%TO.N,220 \u043A\u043E\u043C\u043F. \u0432\u044B\u0445\u043E\u0434 (L)*%
X122657500Y-106127500D03*
%TO.P,RV1,2*%
%TO.N,220 \u0432\u0445\u043E\u0434 (L)*%
X117657500Y-104877500D03*
%TD*%
D15*
%TO.P,F1,1*%
%TO.N,220 \u0432\u0445\u043E\u0434 (N)*%
X82150000Y-128850000D03*
%TO.P,F1,2*%
%TO.N,Net-(PS1-AC{slash}L)*%
X83750000Y-123750000D03*
%TD*%
D16*
%TO.P,J3,1,Pin_1*%
%TO.N,220 \u0432\u0445\u043E\u0434 (L)*%
X108830000Y-126050000D03*
D17*
%TO.P,J3,2,Pin_2*%
%TO.N,220 \u0432\u0445\u043E\u0434 (N)*%
X113910000Y-126050000D03*
%TO.P,J3,3,Pin_3*%
%TO.N,220 \u043A\u043E\u043C\u043F. \u0432\u044B\u0445\u043E\u0434 (L)*%
X118990000Y-126050000D03*
%TO.P,J3,4,Pin_4*%
%TO.N,220 \u0442\u0435\u043D \u043F\u043E\u0434\u0434\u043E\u043D \u0432\u044B\u0445\u043E\u0434 (L)*%
X124070000Y-126050000D03*
%TO.P,J3,5,Pin_5*%
%TO.N,220 \u0442\u0435\u043D \u043A\u043E\u043C\u043F. \u0432\u044B\u0445\u043E\u0434 (L)*%
X129150000Y-126050000D03*
%TO.P,J3,6,Pin_6*%
%TO.N,220 \u043A\u043E\u043C\u043F. \u0432\u0445\u043E\u0434 (L)*%
X134230000Y-126050000D03*
%TO.P,J3,7,Pin_7*%
%TO.N,220 4\u0445 \u0445\u043E\u0434\u043E\u0432\u043E\u0439 \u0432\u0445\u043E\u0434 (L)*%
X139310000Y-126050000D03*
%TO.P,J3,8,Pin_8*%
%TO.N,NTC \u0442\u0435\u043C\u043F. \u043A\u043E\u043C\u043F\u0440\u0435\u0441\u0441\u043E\u0440*%
X144390000Y-126050000D03*
%TO.P,J3,9,Pin_9*%
%TO.N,NTC \u0442\u0435\u043C\u043F. \u0432\u043D\u0435\u0448\u043D\u044F\u044F*%
X149470000Y-126050000D03*
%TO.P,J3,10,Pin_10*%
%TO.N,GND*%
X154550000Y-126050000D03*
%TD*%
D14*
%TO.P,R23,1*%
%TO.N,Net-(F3-Pad2)*%
X162600000Y-107182500D03*
D13*
%TO.P,R23,2*%
%TO.N,Net-(R23-Pad2)*%
X162600000Y-102102500D03*
%TD*%
D18*
%TO.P,K2,13*%
%TO.N,220 \u0442\u0435\u043D \u043F\u043E\u0434\u0434\u043E\u043D \u0432\u044B\u0445\u043E\u0434 (L)*%
X136227500Y-112502500D03*
%TO.P,K2,14*%
%TO.N,220 \u0432\u0445\u043E\u0434 (L)*%
X128607500Y-116002500D03*
%TO.P,K2,A1*%
%TO.N,+12V*%
X136227500Y-92182500D03*
%TO.P,K2,A2*%
%TO.N,Net-(D3-K)*%
X128607500Y-92182500D03*
%TD*%
D12*
%TO.P,C10,1*%
%TO.N,+3V3*%
X135300000Y-55950000D03*
D14*
%TO.P,C10,2*%
%TO.N,GND*%
X132800000Y-55950000D03*
%TD*%
D15*
%TO.P,F3,1*%
%TO.N,220 4\u0445 \u0445\u043E\u0434\u043E\u0432\u043E\u0439 \u0432\u0445\u043E\u0434 (L)*%
X161800000Y-117517500D03*
%TO.P,F3,2*%
%TO.N,Net-(F3-Pad2)*%
X163400000Y-112417500D03*
%TD*%
D19*
%TO.P,J2,1,Pin_1*%
%TO.N,+3V3*%
X144210000Y-50920000D03*
D20*
%TO.P,J2,2,Pin_2*%
%TO.N,Net-(J2-Pin_2)*%
X146750000Y-50920000D03*
%TO.P,J2,3,Pin_3*%
%TO.N,Net-(J2-Pin_3)*%
X149290000Y-50920000D03*
%TO.P,J2,4,Pin_4*%
%TO.N,Net-(J2-Pin_4)*%
X151830000Y-50920000D03*
%TO.P,J2,5,Pin_5*%
%TO.N,GND*%
X154370000Y-50920000D03*
%TD*%
D21*
%TO.P,PS1,1,AC/L*%
%TO.N,Net-(PS1-AC{slash}L)*%
X82400000Y-116302500D03*
D22*
%TO.P,PS1,2,AC/N*%
%TO.N,Net-(PS1-AC{slash}N)*%
X87400000Y-116302500D03*
%TO.P,PS1,3,-Vout*%
%TO.N,GND*%
X77400000Y-87222500D03*
%TO.P,PS1,4,+Vout*%
%TO.N,+12V*%
X92400000Y-87222500D03*
%TD*%
D23*
%TO.P,U3,1,VI*%
%TO.N,+12V*%
X128520000Y-50400000D03*
D24*
%TO.P,U3,2,GND*%
%TO.N,GND*%
X131060000Y-50400000D03*
%TO.P,U3,3,VO*%
%TO.N,+3V3*%
X133600000Y-50400000D03*
%TD*%
D12*
%TO.P,D7,1,K*%
%TO.N,+12V*%
X149782500Y-87247500D03*
D13*
%TO.P,D7,2,A*%
%TO.N,Net-(D4-K)*%
X142162500Y-87247500D03*
%TD*%
D12*
%TO.P,C13,1*%
%TO.N,\u043A\u043E\u043C\u043F\u0440\u0435\u0441\u0441\u043E\u0440 \u0441\u0442\u0430\u0442\u0443\u0441*%
X156600000Y-83835000D03*
D14*
%TO.P,C13,2*%
%TO.N,GND*%
X158600000Y-83835000D03*
%TD*%
D12*
%TO.P,D5,1,K*%
%TO.N,+12V*%
X115643750Y-65373750D03*
D13*
%TO.P,D5,2,A*%
%TO.N,Net-(D2-K)*%
X108023750Y-65373750D03*
%TD*%
D15*
%TO.P,F2,1*%
%TO.N,220 \u043A\u043E\u043C\u043F. \u0432\u0445\u043E\u0434 (L)*%
X155250000Y-117700000D03*
%TO.P,F2,2*%
%TO.N,Net-(F2-Pad2)*%
X156850000Y-112600000D03*
%TD*%
D19*
%TO.P,J1,1,Pin_1*%
%TO.N,Net-(J1-Pin_1)*%
X158410000Y-63105000D03*
D20*
%TO.P,J1,2,Pin_2*%
%TO.N,Net-(J1-Pin_2)*%
X160950000Y-63105000D03*
%TO.P,J1,3,Pin_3*%
%TO.N,GND*%
X163490000Y-63105000D03*
%TD*%
D25*
%TO.P,TH1,1*%
%TO.N,220 \u0432\u0445\u043E\u0434 (L)*%
X97370000Y-125150000D03*
D26*
%TO.P,TH1,2*%
%TO.N,Net-(PS1-AC{slash}N)*%
X89750000Y-125150000D03*
%TD*%
D14*
%TO.P,R22,1*%
%TO.N,Net-(F2-Pad2)*%
X156100000Y-107265000D03*
D13*
%TO.P,R22,2*%
%TO.N,Net-(R22-Pad2)*%
X156100000Y-102185000D03*
%TD*%
D25*
%TO.P,R21,1*%
%TO.N,Net-(C11-Pad2)*%
X98507500Y-115702500D03*
D26*
%TO.P,R21,2*%
%TO.N,220 \u043A\u043E\u043C\u043F. \u0432\u044B\u0445\u043E\u0434 (L)*%
X123907500Y-115702500D03*
%TD*%
D18*
%TO.P,K1,11*%
%TO.N,220 \u043A\u043E\u043C\u043F. \u0432\u044B\u0445\u043E\u0434 (L)*%
X120307500Y-86912500D03*
%TO.P,K1,12*%
%TO.N,unconnected-(K1-Pad12)*%
X102507500Y-97052500D03*
%TO.P,K1,14*%
%TO.N,220 \u0432\u0445\u043E\u0434 (L)*%
X102507500Y-89452500D03*
D27*
%TO.P,K1,A1*%
%TO.N,+12V*%
X116507500Y-74252500D03*
D28*
%TO.P,K1,A2*%
%TO.N,Net-(D2-K)*%
X106307500Y-74252500D03*
%TD*%
D14*
%TO.P,C11,1*%
%TO.N,220 \u0432\u0445\u043E\u0434 (L)*%
X113457500Y-105052500D03*
D13*
%TO.P,C11,2*%
%TO.N,Net-(C11-Pad2)*%
X98457500Y-105052500D03*
%TD*%
D29*
%TO.P,U5,1*%
%TO.N,Net-(R23-Pad2)*%
X162025000Y-96975000D03*
D30*
%TO.P,U5,2*%
%TO.N,220 \u0432\u0445\u043E\u0434 (N)*%
X164565000Y-96975000D03*
%TO.P,U5,3*%
%TO.N,GND*%
X164565000Y-89355000D03*
%TO.P,U5,4*%
%TO.N,4\u0445 \u0445\u043E\u0434\u043E\u0432\u043E\u0439 \u0441\u0442\u0430\u0442\u0443\u0441*%
X162025000Y-89355000D03*
%TD*%
D31*
%TO.P,Y1,1,1*%
%TO.N,Net-(U2-PF1)*%
X159410000Y-57520000D03*
%TO.P,Y1,2,2*%
%TO.N,Net-(U2-PF0)*%
X159410000Y-52620000D03*
%TD*%
D12*
%TO.P,C14,1*%
%TO.N,4\u0445 \u0445\u043E\u0434\u043E\u0432\u043E\u0439 \u0441\u0442\u0430\u0442\u0443\u0441*%
X162994888Y-83800000D03*
D14*
%TO.P,C14,2*%
%TO.N,GND*%
X164994888Y-83800000D03*
%TD*%
D12*
%TO.P,C8,1*%
%TO.N,+12V*%
X127000000Y-55950000D03*
D14*
%TO.P,C8,2*%
%TO.N,GND*%
X129500000Y-55950000D03*
%TD*%
D10*
%TO.P,D1,1,K*%
%TO.N,Net-(D1-K)*%
X162442500Y-72005000D03*
D11*
%TO.P,D1,2,A*%
%TO.N,Net-(D1-A)*%
X164982500Y-72005000D03*
%TD*%
D29*
%TO.P,U4,1*%
%TO.N,Net-(R22-Pad2)*%
X155625000Y-96960000D03*
D30*
%TO.P,U4,2*%
%TO.N,220 \u0432\u0445\u043E\u0434 (N)*%
X158165000Y-96960000D03*
%TO.P,U4,3*%
%TO.N,GND*%
X158165000Y-89340000D03*
%TO.P,U4,4*%
%TO.N,\u043A\u043E\u043C\u043F\u0440\u0435\u0441\u0441\u043E\u0440 \u0441\u0442\u0430\u0442\u0443\u0441*%
X155625000Y-89340000D03*
%TD*%
D18*
%TO.P,K3,13*%
%TO.N,220 \u0442\u0435\u043D \u043A\u043E\u043C\u043F. \u0432\u044B\u0445\u043E\u0434 (L)*%
X150120000Y-112520000D03*
%TO.P,K3,14*%
%TO.N,220 \u0432\u0445\u043E\u0434 (L)*%
X142500000Y-116020000D03*
%TO.P,K3,A1*%
%TO.N,+12V*%
X150120000Y-92200000D03*
%TO.P,K3,A2*%
%TO.N,Net-(D4-K)*%
X142500000Y-92200000D03*
%TD*%
D10*
%TO.P,D4,1,K*%
%TO.N,Net-(D4-K)*%
X144947500Y-83097500D03*
D11*
%TO.P,D4,2,A*%
%TO.N,Net-(D4-A)*%
X147487500Y-83097500D03*
%TD*%
D32*
%TO.P,Q4,1,G*%
%TO.N,Net-(Q4-G)*%
X140172500Y-79697500D03*
%TO.P,Q4,2,S*%
%TO.N,GND*%
X142072500Y-79697500D03*
%TO.P,Q4,3,D*%
%TO.N,Net-(D4-K)*%
X141122500Y-83097500D03*
%TD*%
D33*
%TO.P,U2,1,BOOT0*%
%TO.N,Net-(U2-BOOT0)*%
X152260000Y-54270000D03*
%TO.P,U2,2,PF0*%
%TO.N,Net-(U2-PF0)*%
X152260000Y-54920000D03*
%TO.P,U2,3,PF1*%
%TO.N,Net-(U2-PF1)*%
X152260000Y-55570000D03*
%TO.P,U2,4,NRST*%
%TO.N,Net-(J2-Pin_4)*%
X152260000Y-56220000D03*
%TO.P,U2,5,VDDA*%
%TO.N,VDDA*%
X152260000Y-56870000D03*
%TO.P,U2,6,PA0*%
%TO.N,NTC \u0442\u0435\u043C\u043F. \u0432\u043D\u0435\u0448\u043D\u044F\u044F*%
X152260000Y-57520000D03*
%TO.P,U2,7,PA1*%
%TO.N,NTC \u0442\u0435\u043C\u043F. \u043A\u043E\u043C\u043F\u0440\u0435\u0441\u0441\u043E\u0440*%
X152260000Y-58170000D03*
%TO.P,U2,8,PA2*%
%TO.N,Net-(J1-Pin_2)*%
X152260000Y-58820000D03*
%TO.P,U2,9,PA3*%
%TO.N,Net-(J1-Pin_1)*%
X152260000Y-59470000D03*
%TO.P,U2,10,PA4*%
%TO.N,Net-(U2-PA4)*%
X152260000Y-60120000D03*
%TO.P,U2,11,PA5*%
%TO.N,\u0422\u0415\u041D \u043F\u043E\u0434\u0434\u043E\u043D \u0443\u043F\u0440.*%
X146535000Y-60120000D03*
%TO.P,U2,12,PA6*%
%TO.N,\u043A\u043E\u043C\u043F\u0440\u0435\u0441\u0441\u043E\u0440 \u0443\u043F\u0440.*%
X146535000Y-59470000D03*
%TO.P,U2,13,PA7*%
%TO.N,\u0422\u0415\u041D \u043A\u043E\u043C\u043F\u0440\u0435\u0441\u0441\u043E\u0440 \u0443\u043F\u0440.*%
X146535000Y-58820000D03*
%TO.P,U2,14,PB1*%
%TO.N,unconnected-(U2-PB1-Pad14)*%
X146535000Y-58170000D03*
%TO.P,U2,15,VSS*%
%TO.N,GND*%
X146535000Y-57520000D03*
%TO.P,U2,16,VDD*%
%TO.N,+3V3*%
X146535000Y-56870000D03*
%TO.P,U2,17,PA9*%
%TO.N,\u043A\u043E\u043C\u043F\u0440\u0435\u0441\u0441\u043E\u0440 \u0441\u0442\u0430\u0442\u0443\u0441*%
X146535000Y-56220000D03*
%TO.P,U2,18,PA10*%
%TO.N,4\u0445 \u0445\u043E\u0434\u043E\u0432\u043E\u0439 \u0441\u0442\u0430\u0442\u0443\u0441*%
X146535000Y-55570000D03*
%TO.P,U2,19,PA13*%
%TO.N,Net-(J2-Pin_3)*%
X146535000Y-54920000D03*
%TO.P,U2,20,PA14*%
%TO.N,Net-(J2-Pin_2)*%
X146535000Y-54270000D03*
%TD*%
D34*
%TO.P,C12,1*%
%TO.N,NTC \u0442\u0435\u043C\u043F. \u0432\u043D\u0435\u0448\u043D\u044F\u044F*%
X151062500Y-122750000D03*
%TO.P,C12,2*%
%TO.N,GND*%
X153137500Y-122750000D03*
%TD*%
D35*
%TO.P,R1,1*%
%TO.N,+3V3*%
X149060000Y-48070000D03*
%TO.P,R1,2*%
%TO.N,Net-(U2-BOOT0)*%
X151060000Y-48070000D03*
%TD*%
D34*
%TO.P,C7,1*%
%TO.N,+12V*%
X127112500Y-53500000D03*
%TO.P,C7,2*%
%TO.N,GND*%
X129187500Y-53500000D03*
%TD*%
D36*
%TO.P,R11,1*%
%TO.N,+12V*%
X167000000Y-75350000D03*
%TO.P,R11,2*%
%TO.N,Net-(D1-A)*%
X165000000Y-75350000D03*
%TD*%
D34*
%TO.P,C3,1*%
%TO.N,Net-(U2-PF1)*%
X162072500Y-57520000D03*
%TO.P,C3,2*%
%TO.N,GND*%
X164147500Y-57520000D03*
%TD*%
D35*
%TO.P,R10,1*%
%TO.N,Net-(Q1-G)*%
X161410000Y-66205000D03*
%TO.P,R10,2*%
%TO.N,GND*%
X163410000Y-66205000D03*
%TD*%
%TO.P,R20,1*%
%TO.N,Net-(Q4-G)*%
X140172500Y-76947500D03*
%TO.P,R20,2*%
%TO.N,GND*%
X142172500Y-76947500D03*
%TD*%
D36*
%TO.P,R12,1*%
%TO.N,\u043A\u043E\u043C\u043F\u0440\u0435\u0441\u0441\u043E\u0440 \u0443\u043F\u0440.*%
X142650000Y-61950000D03*
%TO.P,R12,2*%
%TO.N,Net-(Q2-G)*%
X140650000Y-61950000D03*
%TD*%
D32*
%TO.P,Q1,1,G*%
%TO.N,Net-(Q1-G)*%
X158210000Y-70155000D03*
%TO.P,Q1,2,S*%
%TO.N,GND*%
X160110000Y-70155000D03*
%TO.P,Q1,3,D*%
%TO.N,Net-(D1-K)*%
X159160000Y-73555000D03*
%TD*%
D36*
%TO.P,R16,1*%
%TO.N,+12V*%
X138027500Y-83232500D03*
%TO.P,R16,2*%
%TO.N,Net-(D3-A)*%
X136027500Y-83232500D03*
%TD*%
D35*
%TO.P,R9,1*%
%TO.N,Net-(U2-PA4)*%
X157510000Y-66205000D03*
%TO.P,R9,2*%
%TO.N,Net-(Q1-G)*%
X159510000Y-66205000D03*
%TD*%
%TO.P,R25,1*%
%TO.N,+3V3*%
X161000000Y-80265000D03*
%TO.P,R25,2*%
%TO.N,4\u0445 \u0445\u043E\u0434\u043E\u0432\u043E\u0439 \u0441\u0442\u0430\u0442\u0443\u0441*%
X163000000Y-80265000D03*
%TD*%
D37*
%TO.P,R7,1*%
%TO.N,VDDA*%
X149660000Y-63255000D03*
%TO.P,R7,2*%
%TO.N,NTC \u0442\u0435\u043C\u043F. \u043A\u043E\u043C\u043F\u0440\u0435\u0441\u0441\u043E\u0440*%
X152760000Y-63255000D03*
%TD*%
D36*
%TO.P,R15,1*%
%TO.N,+12V*%
X117998750Y-61073750D03*
%TO.P,R15,2*%
%TO.N,Net-(D2-A)*%
X115998750Y-61073750D03*
%TD*%
D38*
%TO.P,C9,1*%
%TO.N,+3V3*%
X134937500Y-53500000D03*
%TO.P,C9,2*%
%TO.N,GND*%
X132862500Y-53500000D03*
%TD*%
D39*
%TO.P,C4,1*%
%TO.N,+3V3*%
X140800000Y-54112500D03*
%TO.P,C4,2*%
%TO.N,GND*%
X140800000Y-56187500D03*
%TD*%
D32*
%TO.P,Q3,1,G*%
%TO.N,Net-(Q3-G)*%
X126677500Y-79882500D03*
%TO.P,Q3,2,S*%
%TO.N,GND*%
X128577500Y-79882500D03*
%TO.P,Q3,3,D*%
%TO.N,Net-(D3-K)*%
X127627500Y-83282500D03*
%TD*%
D34*
%TO.P,C15,1*%
%TO.N,NTC \u0442\u0435\u043C\u043F. \u043A\u043E\u043C\u043F\u0440\u0435\u0441\u0441\u043E\u0440*%
X145812500Y-122750000D03*
%TO.P,C15,2*%
%TO.N,GND*%
X147887500Y-122750000D03*
%TD*%
D35*
%TO.P,R19,1*%
%TO.N,Net-(Q3-G)*%
X126677500Y-77152500D03*
%TO.P,R19,2*%
%TO.N,GND*%
X128677500Y-77152500D03*
%TD*%
D36*
%TO.P,R17,1*%
%TO.N,+12V*%
X151922500Y-83097500D03*
%TO.P,R17,2*%
%TO.N,Net-(D4-A)*%
X149922500Y-83097500D03*
%TD*%
%TO.P,R13,1*%
%TO.N,\u0422\u0415\u041D \u043F\u043E\u0434\u0434\u043E\u043D \u0443\u043F\u0440.*%
X142650000Y-64100000D03*
%TO.P,R13,2*%
%TO.N,Net-(Q3-G)*%
X140650000Y-64100000D03*
%TD*%
D35*
%TO.P,R18,1*%
%TO.N,Net-(Q2-G)*%
X106078750Y-54118750D03*
%TO.P,R18,2*%
%TO.N,GND*%
X108078750Y-54118750D03*
%TD*%
%TO.P,R2,1*%
%TO.N,Net-(U2-BOOT0)*%
X153060000Y-48070000D03*
%TO.P,R2,2*%
%TO.N,GND*%
X155060000Y-48070000D03*
%TD*%
D36*
%TO.P,R14,1*%
%TO.N,\u0422\u0415\u041D \u043A\u043E\u043C\u043F\u0440\u0435\u0441\u0441\u043E\u0440 \u0443\u043F\u0440.*%
X142610000Y-59800000D03*
%TO.P,R14,2*%
%TO.N,Net-(Q4-G)*%
X140610000Y-59800000D03*
%TD*%
D34*
%TO.P,C6,1*%
%TO.N,VDDA*%
X149572500Y-68105000D03*
%TO.P,C6,2*%
%TO.N,GND*%
X151647500Y-68105000D03*
%TD*%
D37*
%TO.P,R8,1*%
%TO.N,VDDA*%
X149660000Y-65755000D03*
%TO.P,R8,2*%
%TO.N,NTC \u0442\u0435\u043C\u043F. \u0432\u043D\u0435\u0448\u043D\u044F\u044F*%
X152760000Y-65755000D03*
%TD*%
D34*
%TO.P,C1,1*%
%TO.N,Net-(U2-PF0)*%
X162122500Y-52620000D03*
%TO.P,C1,2*%
%TO.N,GND*%
X164197500Y-52620000D03*
%TD*%
D35*
%TO.P,R24,1*%
%TO.N,+3V3*%
X154550000Y-80250000D03*
%TO.P,R24,2*%
%TO.N,\u043A\u043E\u043C\u043F\u0440\u0435\u0441\u0441\u043E\u0440 \u0441\u0442\u0430\u0442\u0443\u0441*%
X156550000Y-80250000D03*
%TD*%
D32*
%TO.P,Q2,1,G*%
%TO.N,Net-(Q2-G)*%
X106126250Y-57673750D03*
%TO.P,Q2,2,S*%
%TO.N,GND*%
X108026250Y-57673750D03*
%TO.P,Q2,3,D*%
%TO.N,Net-(D2-K)*%
X107076250Y-61073750D03*
%TD*%
D40*
%TO.N,\u043A\u043E\u043C\u043F\u0440\u0435\u0441\u0441\u043E\u0440 \u0441\u0442\u0430\u0442\u0443\u0441*%
X147325000Y-61525000D03*
%TO.N,GND*%
X135150000Y-65150000D03*
X135150000Y-68700000D03*
%TO.N,4\u0445 \u0445\u043E\u0434\u043E\u0432\u043E\u0439 \u0441\u0442\u0430\u0442\u0443\u0441*%
X148075000Y-62225000D03*
%TO.N,+3V3*%
X154550000Y-78200000D03*
X161000000Y-78200000D03*
%TO.N,+12V*%
X167000000Y-73200000D03*
D41*
%TO.N,VDDA*%
X145450000Y-68050000D03*
D40*
%TO.N,NTC \u0442\u0435\u043C\u043F. \u043A\u043E\u043C\u043F\u0440\u0435\u0441\u0441\u043E\u0440*%
X165800000Y-77100000D03*
X154800000Y-63200000D03*
%TO.N,NTC \u0442\u0435\u043C\u043F. \u0432\u043D\u0435\u0448\u043D\u044F\u044F*%
X154795000Y-65755000D03*
X165543358Y-78713778D03*
%TO.N,Net-(J2-Pin_4)*%
X149500000Y-55850000D03*
%TO.N,Net-(Q3-G)*%
X139050000Y-64150000D03*
X127500000Y-72650000D03*
%TO.N,Net-(Q4-G)*%
X139100000Y-59850000D03*
X140200000Y-74350000D03*
%TD*%
D42*
%TO.N,220 \u043A\u043E\u043C\u043F. \u0432\u044B\u0445\u043E\u0434 (L)*%
X123907500Y-115702500D02*
X123907500Y-107377500D01*
X123907500Y-107377500D02*
X122657500Y-106127500D01*
%TO.N,Net-(C11-Pad2)*%
X98507500Y-115702500D02*
X98507500Y-105102500D01*
X98507500Y-105102500D02*
X98457500Y-105052500D01*
%TO.N,220 \u043A\u043E\u043C\u043F. \u0432\u044B\u0445\u043E\u0434 (L)*%
X118990000Y-126050000D02*
X118990000Y-120620000D01*
X118990000Y-120620000D02*
X123907500Y-115702500D01*
X120307500Y-86912500D02*
X120307500Y-96032500D01*
X120307500Y-96032500D02*
X122657500Y-98382500D01*
X122657500Y-98382500D02*
X122657500Y-106127500D01*
%TO.N,220 \u0432\u0445\u043E\u0434 (L)*%
X113457500Y-105052500D02*
X117482500Y-105052500D01*
X117482500Y-105052500D02*
X117657500Y-104877500D01*
X102507500Y-89452500D02*
X113457500Y-100402500D01*
X113457500Y-100402500D02*
X113457500Y-105052500D01*
X108830000Y-126050000D02*
X108830000Y-109680000D01*
X108830000Y-109680000D02*
X113457500Y-105052500D01*
%TO.N,220 \u0442\u0435\u043D \u043F\u043E\u0434\u0434\u043E\u043D \u0432\u044B\u0445\u043E\u0434 (L)*%
X124070000Y-126050000D02*
X124070000Y-125855000D01*
X124070000Y-125855000D02*
X136227500Y-113697500D01*
X136227500Y-113697500D02*
X136227500Y-112502500D01*
%TO.N,220 \u0442\u0435\u043D \u043A\u043E\u043C\u043F. \u0432\u044B\u0445\u043E\u0434 (L)*%
X129150000Y-126050000D02*
X135525000Y-119675000D01*
X135525000Y-119675000D02*
X145045000Y-119675000D01*
X145045000Y-119675000D02*
X150120000Y-114600000D01*
X150120000Y-114600000D02*
X150120000Y-112520000D01*
D43*
%TO.N,Net-(R23-Pad2)*%
X162025000Y-96975000D02*
X162025000Y-101527500D01*
X162025000Y-101527500D02*
X162600000Y-102102500D01*
%TO.N,Net-(R22-Pad2)*%
X155625000Y-96960000D02*
X155625000Y-101710000D01*
X155625000Y-101710000D02*
X156100000Y-102185000D01*
%TO.N,GND*%
X154550000Y-126050000D02*
X159700000Y-126050000D01*
X159700000Y-126050000D02*
X166900000Y-118850000D01*
X166900000Y-118850000D02*
X166900000Y-91950000D01*
X154550000Y-126050000D02*
X154550000Y-124162500D01*
X154550000Y-124162500D02*
X153137500Y-122750000D01*
X147887500Y-122750000D02*
X147887500Y-121637500D01*
X147887500Y-121637500D02*
X148475000Y-121050000D01*
X148475000Y-121050000D02*
X152550000Y-121050000D01*
X152550000Y-121050000D02*
X153137500Y-121637500D01*
X153137500Y-121637500D02*
X153137500Y-122750000D01*
D44*
%TO.N,\u043A\u043E\u043C\u043F\u0440\u0435\u0441\u0441\u043E\u0440 \u0441\u0442\u0430\u0442\u0443\u0441*%
X147810000Y-56505000D02*
X147525000Y-56220000D01*
X147525000Y-56220000D02*
X146535000Y-56220000D01*
D43*
X156275000Y-84160000D02*
X156600000Y-83835000D01*
X155625000Y-89340000D02*
X155625000Y-84260000D01*
D44*
X147325000Y-61525000D02*
X147810000Y-61040000D01*
X147810000Y-61040000D02*
X147810000Y-56505000D01*
X156600000Y-83835000D02*
X156600000Y-80300000D01*
X156600000Y-80300000D02*
X156550000Y-80250000D01*
%TO.N,GND*%
X163490000Y-66125000D02*
X163410000Y-66205000D01*
X163490000Y-63105000D02*
X163490000Y-66125000D01*
D45*
X146535000Y-57520000D02*
X144570000Y-57520000D01*
D44*
%TO.N,4\u0445 \u0445\u043E\u0434\u043E\u0432\u043E\u0439 \u0441\u0442\u0430\u0442\u0443\u0441*%
X162994888Y-80270112D02*
X163000000Y-80265000D01*
X148310000Y-61990000D02*
X148310000Y-56155000D01*
X147725000Y-55570000D02*
X146535000Y-55570000D01*
D43*
X162675000Y-84325000D02*
X163200000Y-83800000D01*
D44*
X148075000Y-62225000D02*
X148310000Y-61990000D01*
X148310000Y-56155000D02*
X147725000Y-55570000D01*
X162994888Y-83800000D02*
X162994888Y-80270112D01*
D43*
X162025000Y-89355000D02*
X162025000Y-84425000D01*
D42*
%TO.N,220 \u0432\u0445\u043E\u0434 (L)*%
X142372500Y-115997500D02*
X142402500Y-116027500D01*
D44*
%TO.N,Net-(U2-PF0)*%
X157510000Y-54920000D02*
X159410000Y-53020000D01*
X159410000Y-53020000D02*
X159410000Y-52620000D01*
X152260000Y-54920000D02*
X157510000Y-54920000D01*
X159410000Y-52620000D02*
X162122500Y-52620000D01*
%TO.N,Net-(U2-PF1)*%
X159410000Y-57520000D02*
X162072500Y-57520000D01*
X152260000Y-55570000D02*
X157460000Y-55570000D01*
X157460000Y-55570000D02*
X159410000Y-57520000D01*
D42*
%TO.N,Net-(C11-Pad2)*%
X98457500Y-115652500D02*
X98507500Y-115702500D01*
D44*
%TO.N,+3V3*%
X154550000Y-80250000D02*
X154550000Y-78200000D01*
X144210000Y-49770000D02*
X144210000Y-50920000D01*
D43*
X143437500Y-54112500D02*
X144210000Y-53340000D01*
X137150000Y-55950000D02*
X138800000Y-54300000D01*
D44*
X145910000Y-48070000D02*
X144210000Y-49770000D01*
D43*
X140800000Y-54112500D02*
X138987500Y-54112500D01*
D45*
X145370000Y-56870000D02*
X146535000Y-56870000D01*
D43*
X144210000Y-53340000D02*
X144210000Y-50920000D01*
X135300000Y-52100000D02*
X133600000Y-50400000D01*
D45*
X143437500Y-54937500D02*
X145370000Y-56870000D01*
D43*
X140800000Y-54112500D02*
X143437500Y-54112500D01*
X138987500Y-54112500D02*
X138800000Y-54300000D01*
X135300000Y-55950000D02*
X135300000Y-52100000D01*
D45*
X143437500Y-54112500D02*
X143437500Y-54937500D01*
D44*
X161000000Y-80265000D02*
X161000000Y-78200000D01*
X149060000Y-48070000D02*
X145910000Y-48070000D01*
D43*
X135300000Y-55950000D02*
X137150000Y-55950000D01*
%TO.N,+12V*%
X151922500Y-83097500D02*
X151922500Y-85107500D01*
X97110000Y-78050000D02*
X112710000Y-78050000D01*
X127000000Y-55950000D02*
X127000000Y-51920000D01*
X117998750Y-61073750D02*
X117998750Y-63018750D01*
X127000000Y-51920000D02*
X128520000Y-50400000D01*
X167000000Y-75350000D02*
X167000000Y-73200000D01*
X136337500Y-87332500D02*
X136337500Y-92072500D01*
X149782500Y-87247500D02*
X149782500Y-91967500D01*
X138027500Y-83232500D02*
X138027500Y-85642500D01*
X116022500Y-65007500D02*
X116022500Y-73767500D01*
X112710000Y-78050000D02*
X116507500Y-74252500D01*
X92400000Y-82760000D02*
X97110000Y-78050000D01*
X117998750Y-63018750D02*
X115643750Y-65373750D01*
X151922500Y-85107500D02*
X149782500Y-87247500D01*
X116022500Y-73767500D02*
X116507500Y-74252500D01*
X92400000Y-87370000D02*
X92400000Y-82760000D01*
X138027500Y-85642500D02*
X136337500Y-87332500D01*
X149782500Y-91967500D02*
X150022500Y-92207500D01*
X136227500Y-92182500D02*
X136227500Y-93502500D01*
X136337500Y-92072500D02*
X136227500Y-92182500D01*
%TO.N,VDDA*%
X149510000Y-58070000D02*
X149510000Y-68042500D01*
X145555000Y-68105000D02*
X145500000Y-68050000D01*
D44*
X149510000Y-68042500D02*
X149572500Y-68105000D01*
X152260000Y-56870000D02*
X150710000Y-56870000D01*
D43*
X149572500Y-68105000D02*
X145555000Y-68105000D01*
D44*
X150710000Y-56870000D02*
X149510000Y-58070000D01*
D43*
%TO.N,NTC \u0442\u0435\u043C\u043F. \u043A\u043E\u043C\u043F\u0440\u0435\u0441\u0441\u043E\u0440*%
X152760000Y-63255000D02*
X154795000Y-63255000D01*
D44*
X152760000Y-62405000D02*
X151010000Y-60655000D01*
X151010000Y-58455000D02*
X151295000Y-58170000D01*
D43*
X168700000Y-119500000D02*
X157850000Y-130350000D01*
X144390000Y-128290000D02*
X144390000Y-126050000D01*
X146450000Y-130350000D02*
X144390000Y-128290000D01*
X144390000Y-124172500D02*
X145812500Y-122750000D01*
X165800000Y-77100000D02*
X168700000Y-80000000D01*
D44*
X151010000Y-60655000D02*
X151010000Y-58455000D01*
D43*
X154795000Y-63255000D02*
X154800000Y-63250000D01*
X168700000Y-80000000D02*
X168700000Y-119500000D01*
D44*
X152760000Y-63255000D02*
X152760000Y-62405000D01*
D43*
X144390000Y-126050000D02*
X144390000Y-124172500D01*
X157850000Y-130350000D02*
X146450000Y-130350000D01*
D44*
X151295000Y-58170000D02*
X152260000Y-58170000D01*
D43*
%TO.N,NTC \u0442\u0435\u043C\u043F. \u0432\u043D\u0435\u0448\u043D\u044F\u044F*%
X149470000Y-124342500D02*
X151062500Y-122750000D01*
X149470000Y-127335000D02*
X149470000Y-126050000D01*
D44*
X151108751Y-57520000D02*
X150510000Y-58118751D01*
D43*
X157500000Y-129600000D02*
X151735000Y-129600000D01*
X151735000Y-129600000D02*
X149470000Y-127335000D01*
D44*
X152260000Y-57520000D02*
X151108751Y-57520000D01*
X150510000Y-58118751D02*
X150510000Y-61305000D01*
D43*
X167900000Y-81070420D02*
X167900000Y-119200000D01*
X152760000Y-65755000D02*
X154795000Y-65755000D01*
X149470000Y-126050000D02*
X149470000Y-124342500D01*
D44*
X151260000Y-62055000D02*
X151260000Y-64955000D01*
X151260000Y-64955000D02*
X152010000Y-65705000D01*
D43*
X167900000Y-119200000D02*
X157500000Y-129600000D01*
X165543358Y-78713778D02*
X167900000Y-81070420D01*
D44*
X152010000Y-65705000D02*
X152710000Y-65705000D01*
X150510000Y-61305000D02*
X151260000Y-62055000D01*
%TO.N,Net-(J2-Pin_4)*%
X149500000Y-54900000D02*
X151830000Y-52570000D01*
X149870000Y-56220000D02*
X149500000Y-55850000D01*
X149500000Y-55850000D02*
X149500000Y-54900000D01*
X152260000Y-56220000D02*
X149870000Y-56220000D01*
X151830000Y-52570000D02*
X151830000Y-50920000D01*
%TO.N,Net-(D1-A)*%
X164982500Y-72005000D02*
X164982500Y-75290000D01*
D43*
%TO.N,Net-(D2-A)*%
X113098750Y-61073750D02*
X115998750Y-61073750D01*
%TO.N,Net-(D3-A)*%
X135977500Y-83282500D02*
X136027500Y-83232500D01*
X133667500Y-83282500D02*
X135977500Y-83282500D01*
%TO.N,Net-(D4-A)*%
X147487500Y-83097500D02*
X149922500Y-83097500D01*
%TO.N,Net-(D4-K)*%
X141122500Y-83097500D02*
X144947500Y-83097500D01*
X142162500Y-91967500D02*
X142402500Y-92207500D01*
X142162500Y-87247500D02*
X142162500Y-91967500D01*
X141122500Y-83097500D02*
X141122500Y-86207500D01*
X141122500Y-86207500D02*
X142162500Y-87247500D01*
D44*
%TO.N,Net-(D1-K)*%
X162442500Y-72005000D02*
X160892500Y-73555000D01*
X160892500Y-73555000D02*
X159160000Y-73555000D01*
D43*
%TO.N,Net-(D2-K)*%
X107076250Y-64426250D02*
X108023750Y-65373750D01*
X106307500Y-67090000D02*
X106307500Y-74252500D01*
X108023750Y-65373750D02*
X106307500Y-67090000D01*
X107076250Y-61073750D02*
X107076250Y-64426250D01*
X110558750Y-61073750D02*
X107076250Y-61073750D01*
%TO.N,Net-(D3-K)*%
X127627500Y-83282500D02*
X131127500Y-83282500D01*
X127627500Y-83282500D02*
X127627500Y-86242500D01*
X127627500Y-86242500D02*
X128717500Y-87332500D01*
X128717500Y-92072500D02*
X128607500Y-92182500D01*
X128717500Y-87332500D02*
X128717500Y-92072500D01*
%TO.N,Net-(F2-Pad2)*%
X156100000Y-111850000D02*
X156850000Y-112600000D01*
X156100000Y-107265000D02*
X156100000Y-111850000D01*
%TO.N,Net-(F3-Pad2)*%
X162600000Y-107182500D02*
X162600000Y-111617500D01*
X162600000Y-111617500D02*
X163400000Y-112417500D01*
D44*
%TO.N,Net-(J1-Pin_2)*%
X160950000Y-63105000D02*
X160950000Y-62095000D01*
X155825000Y-58820000D02*
X152260000Y-58820000D01*
X158410000Y-61405000D02*
X155825000Y-58820000D01*
X160950000Y-62095000D02*
X160260000Y-61405000D01*
X160260000Y-61405000D02*
X158410000Y-61405000D01*
%TO.N,Net-(J1-Pin_1)*%
X152260000Y-59470000D02*
X154775000Y-59470000D01*
X154775000Y-59470000D02*
X158410000Y-63105000D01*
%TO.N,Net-(J2-Pin_3)*%
X149290000Y-53940000D02*
X148310000Y-54920000D01*
X148310000Y-54920000D02*
X146535000Y-54920000D01*
X149290000Y-50920000D02*
X149290000Y-53940000D01*
%TO.N,Net-(J2-Pin_2)*%
X146750000Y-50920000D02*
X146750000Y-54055000D01*
X146750000Y-54055000D02*
X146535000Y-54270000D01*
D43*
%TO.N,Net-(PS1-AC{slash}N)*%
X89750000Y-125150000D02*
X89790000Y-125110000D01*
D44*
%TO.N,Net-(Q1-G)*%
X158210000Y-68655000D02*
X158210000Y-70155000D01*
X159510000Y-67355000D02*
X158210000Y-68655000D01*
X159510000Y-66205000D02*
X159510000Y-67355000D01*
X159510000Y-66205000D02*
X161410000Y-66205000D01*
D43*
%TO.N,Net-(Q2-G)*%
X114150000Y-50700000D02*
X107050000Y-50700000D01*
X107050000Y-50700000D02*
X106078750Y-51671250D01*
X106078750Y-54118750D02*
X106078750Y-57626250D01*
X106078750Y-51671250D02*
X106078750Y-54118750D01*
X140610000Y-62000000D02*
X125450000Y-62000000D01*
X125450000Y-62000000D02*
X114150000Y-50700000D01*
D44*
X106078750Y-57626250D02*
X106126250Y-57673750D01*
D43*
%TO.N,Net-(Q3-G)*%
X127500000Y-72650000D02*
X126677500Y-73472500D01*
X126677500Y-79882500D02*
X126677500Y-77152500D01*
X126677500Y-73472500D02*
X126677500Y-77152500D01*
X140610000Y-64150000D02*
X139050000Y-64150000D01*
%TO.N,Net-(Q4-G)*%
X140610000Y-59800000D02*
X139150000Y-59800000D01*
X139150000Y-59800000D02*
X139100000Y-59850000D01*
X140172500Y-74377500D02*
X140200000Y-74350000D01*
X140172500Y-76947500D02*
X140172500Y-74377500D01*
X140172500Y-79697500D02*
X140172500Y-76947500D01*
D44*
%TO.N,Net-(U2-BOOT0)*%
X152260000Y-54270000D02*
X152510000Y-54270000D01*
X152510000Y-54270000D02*
X153060000Y-53720000D01*
X153060000Y-53720000D02*
X153060000Y-48070000D01*
X153060000Y-48070000D02*
X151060000Y-48070000D01*
%TO.N,\u043A\u043E\u043C\u043F\u0440\u0435\u0441\u0441\u043E\u0440 \u0443\u043F\u0440.*%
X146535000Y-59470000D02*
X145140000Y-59470000D01*
X145140000Y-59470000D02*
X142610000Y-62000000D01*
%TO.N,\u0422\u0415\u041D \u043F\u043E\u0434\u0434\u043E\u043D \u0443\u043F\u0440.*%
X145780000Y-60120000D02*
X143900000Y-62000000D01*
X143900000Y-62860000D02*
X142610000Y-64150000D01*
X143900000Y-62000000D02*
X143900000Y-62860000D01*
X146535000Y-60120000D02*
X145780000Y-60120000D01*
%TO.N,\u0422\u0415\u041D \u043A\u043E\u043C\u043F\u0440\u0435\u0441\u0441\u043E\u0440 \u0443\u043F\u0440.*%
X143500000Y-59800000D02*
X144480000Y-58820000D01*
X142610000Y-59800000D02*
X143500000Y-59800000D01*
X144480000Y-58820000D02*
X146535000Y-58820000D01*
%TO.N,Net-(U2-PA4)*%
X152260000Y-60120000D02*
X153575000Y-60120000D01*
X156160000Y-64855000D02*
X157510000Y-66205000D01*
X153575000Y-60120000D02*
X156160000Y-62705000D01*
X156160000Y-62705000D02*
X156160000Y-64855000D01*
%TD*%
%TA.AperFunction,Conductor*%
%TO.N,GND*%
G36*
X128229740Y-54410234D02*
G01*
X128255829Y-54440339D01*
X128257681Y-54443341D01*
X128257683Y-54443344D01*
X128381654Y-54567315D01*
X128530875Y-54659356D01*
X128530882Y-54659359D01*
X128692584Y-54712941D01*
X128750029Y-54752713D01*
X128776853Y-54817229D01*
X128777109Y-54841454D01*
X128774526Y-54870974D01*
X129453553Y-55550000D01*
X129447339Y-55550000D01*
X129345606Y-55577259D01*
X129254394Y-55629920D01*
X129179920Y-55704394D01*
X129127259Y-55795606D01*
X129100000Y-55897339D01*
X129100000Y-55903552D01*
X128415799Y-55219351D01*
X128366805Y-55209505D01*
X128316622Y-55160889D01*
X128301981Y-55105366D01*
X128300900Y-55105423D01*
X128300854Y-55105429D01*
X128300853Y-55105426D01*
X128300676Y-55105436D01*
X128300499Y-55102141D01*
X128300499Y-55102128D01*
X128294091Y-55042517D01*
X128292758Y-55038944D01*
X128243797Y-54907671D01*
X128243793Y-54907664D01*
X128157547Y-54792455D01*
X128157544Y-54792452D01*
X128042335Y-54706206D01*
X128042326Y-54706201D01*
X128032164Y-54702411D01*
X127976231Y-54660540D01*
X127951815Y-54595075D01*
X127966667Y-54526802D01*
X127987812Y-54498555D01*
X128042712Y-54443656D01*
X128044752Y-54440347D01*
X128046745Y-54438555D01*
X128047193Y-54437989D01*
X128047289Y-54438065D01*
X128096694Y-54393623D01*
X128165656Y-54382395D01*
X128229740Y-54410234D01*
G37*
%TD.AperFunction*%
%TA.AperFunction,Conductor*%
G36*
X133979156Y-54410236D02*
G01*
X134005242Y-54440339D01*
X134007288Y-54443656D01*
X134131344Y-54567712D01*
X134146982Y-54577358D01*
X134193708Y-54629303D01*
X134204932Y-54698265D01*
X134177091Y-54762348D01*
X134156203Y-54782161D01*
X134142452Y-54792455D01*
X134056206Y-54907664D01*
X134056202Y-54907671D01*
X134005908Y-55042517D01*
X133999501Y-55102116D01*
X133999501Y-55102123D01*
X133999322Y-55105452D01*
X133997847Y-55105372D01*
X133979815Y-55166784D01*
X133927011Y-55212539D01*
X133883522Y-55220029D01*
X133200000Y-55903551D01*
X133200000Y-55897339D01*
X133172741Y-55795606D01*
X133120080Y-55704394D01*
X133045606Y-55629920D01*
X132954394Y-55577259D01*
X132852661Y-55550000D01*
X132846448Y-55550000D01*
X133525472Y-54870974D01*
X133525472Y-54870973D01*
X133516256Y-54864520D01*
X133472631Y-54809943D01*
X133465439Y-54740445D01*
X133496962Y-54678090D01*
X133522284Y-54657407D01*
X133668343Y-54567317D01*
X133792318Y-54443342D01*
X133794165Y-54440348D01*
X133795969Y-54438724D01*
X133796798Y-54437677D01*
X133796976Y-54437818D01*
X133846110Y-54393621D01*
X133915073Y-54382396D01*
X133979156Y-54410236D01*
G37*
%TD.AperFunction*%
%TA.AperFunction,Conductor*%
G36*
X169742539Y-45220185D02*
G01*
X169788294Y-45272989D01*
X169799500Y-45324500D01*
X169799500Y-93076000D01*
X169779815Y-93143039D01*
X169727011Y-93188794D01*
X169675500Y-93200000D01*
X169574500Y-93200000D01*
X169507461Y-93180315D01*
X169461706Y-93127511D01*
X169450500Y-93076000D01*
X169450500Y-79926079D01*
X169421659Y-79781092D01*
X169421658Y-79781091D01*
X169421658Y-79781087D01*
X169408778Y-79749991D01*
X169365087Y-79644511D01*
X169365080Y-79644498D01*
X169282952Y-79521585D01*
X169242030Y-79480663D01*
X169178416Y-79417049D01*
X166553305Y-76791937D01*
X166530656Y-76755864D01*
X166528812Y-76756753D01*
X166525790Y-76750479D01*
X166519501Y-76740469D01*
X166500502Y-76673231D01*
X166520871Y-76606397D01*
X166574140Y-76561184D01*
X166624491Y-76550499D01*
X167400008Y-76550499D01*
X167400016Y-76550498D01*
X167400019Y-76550498D01*
X167456302Y-76544748D01*
X167502797Y-76539999D01*
X167669334Y-76484814D01*
X167818656Y-76392712D01*
X167942712Y-76268656D01*
X168034814Y-76119334D01*
X168089999Y-75952797D01*
X168100500Y-75850009D01*
X168100499Y-74849992D01*
X168089999Y-74747203D01*
X168034814Y-74580666D01*
X167942712Y-74431344D01*
X167818656Y-74307288D01*
X167818655Y-74307287D01*
X167809402Y-74301580D01*
X167762678Y-74249632D01*
X167750500Y-74196042D01*
X167750500Y-73499972D01*
X167757458Y-73459017D01*
X167778606Y-73398579D01*
X167785368Y-73379255D01*
X167785418Y-73378813D01*
X167805565Y-73200003D01*
X167805565Y-73199996D01*
X167785369Y-73020750D01*
X167785368Y-73020745D01*
X167762188Y-72954500D01*
X167725789Y-72850478D01*
X167629816Y-72697738D01*
X167502262Y-72570184D01*
X167491973Y-72563719D01*
X167349523Y-72474211D01*
X167179254Y-72414631D01*
X167179249Y-72414630D01*
X167000004Y-72394435D01*
X166999996Y-72394435D01*
X166820750Y-72414630D01*
X166820745Y-72414631D01*
X166650476Y-72474211D01*
X166505849Y-72565087D01*
X166438612Y-72584087D01*
X166371777Y-72563719D01*
X166326563Y-72510451D01*
X166317326Y-72441195D01*
X166319671Y-72429652D01*
X166323475Y-72414631D01*
X166368634Y-72236305D01*
X166368635Y-72236297D01*
X166387800Y-72005006D01*
X166387800Y-72004993D01*
X166368635Y-71773702D01*
X166368633Y-71773691D01*
X166311657Y-71548699D01*
X166218424Y-71336151D01*
X166091483Y-71141852D01*
X166091480Y-71141849D01*
X166091479Y-71141847D01*
X165934284Y-70971087D01*
X165934279Y-70971083D01*
X165934277Y-70971081D01*
X165751134Y-70828535D01*
X165751128Y-70828531D01*
X165547004Y-70718064D01*
X165546995Y-70718061D01*
X165327484Y-70642702D01*
X165136950Y-70610908D01*
X165098549Y-70604500D01*
X164866451Y-70604500D01*
X164828050Y-70610908D01*
X164637515Y-70642702D01*
X164418004Y-70718061D01*
X164417995Y-70718064D01*
X164213871Y-70828531D01*
X164213865Y-70828535D01*
X164030722Y-70971081D01*
X164030718Y-70971085D01*
X164022366Y-70980158D01*
X163962479Y-71016148D01*
X163892641Y-71014047D01*
X163835025Y-70974522D01*
X163814955Y-70939507D01*
X163786297Y-70862671D01*
X163786293Y-70862664D01*
X163700047Y-70747455D01*
X163700044Y-70747452D01*
X163584835Y-70661206D01*
X163584828Y-70661202D01*
X163449982Y-70610908D01*
X163449983Y-70610908D01*
X163390383Y-70604501D01*
X163390381Y-70604500D01*
X163390373Y-70604500D01*
X163390364Y-70604500D01*
X161494629Y-70604500D01*
X161494623Y-70604501D01*
X161435016Y-70610908D01*
X161300171Y-70661202D01*
X161300164Y-70661206D01*
X161184955Y-70747452D01*
X161184953Y-70747454D01*
X161183265Y-70749710D01*
X161181010Y-70751397D01*
X161178683Y-70753725D01*
X161178348Y-70753390D01*
X161127330Y-70791580D01*
X161057638Y-70796562D01*
X160996316Y-70763076D01*
X160962833Y-70701752D01*
X160960000Y-70675397D01*
X160960000Y-70405000D01*
X160360000Y-70405000D01*
X160360000Y-71653141D01*
X160407561Y-71648821D01*
X160407570Y-71648819D01*
X160564060Y-71600055D01*
X160564064Y-71600053D01*
X160704337Y-71515256D01*
X160704342Y-71515252D01*
X160820250Y-71399344D01*
X160820392Y-71399164D01*
X160820528Y-71399066D01*
X160825556Y-71394039D01*
X160826392Y-71394875D01*
X160877234Y-71358534D01*
X160947018Y-71355084D01*
X161007590Y-71389911D01*
X161039717Y-71451956D01*
X161042000Y-71475641D01*
X161042000Y-72504902D01*
X161022315Y-72571941D01*
X161005681Y-72592583D01*
X160680084Y-72918181D01*
X160618761Y-72951666D01*
X160592403Y-72954500D01*
X160134500Y-72954500D01*
X160067461Y-72934815D01*
X160021706Y-72882011D01*
X160010500Y-72830500D01*
X160010500Y-72675408D01*
X160010500Y-72675406D01*
X160004315Y-72607343D01*
X159955512Y-72450730D01*
X159955511Y-72450727D01*
X159870651Y-72310351D01*
X159870648Y-72310347D01*
X159754652Y-72194351D01*
X159754648Y-72194348D01*
X159614272Y-72109488D01*
X159614263Y-72109485D01*
X159457664Y-72060687D01*
X159457662Y-72060686D01*
X159457657Y-72060685D01*
X159389594Y-72054500D01*
X158930406Y-72054500D01*
X158862343Y-72060685D01*
X158862339Y-72060686D01*
X158862335Y-72060687D01*
X158705736Y-72109485D01*
X158705727Y-72109488D01*
X158565351Y-72194348D01*
X158565347Y-72194351D01*
X158449351Y-72310347D01*
X158449348Y-72310351D01*
X158364488Y-72450727D01*
X158364485Y-72450736D01*
X158320284Y-72592583D01*
X158315685Y-72607343D01*
X158309500Y-72675406D01*
X158309500Y-74434594D01*
X158315685Y-74502657D01*
X158315686Y-74502662D01*
X158315687Y-74502664D01*
X158364485Y-74659263D01*
X158364488Y-74659272D01*
X158449348Y-74799648D01*
X158449351Y-74799652D01*
X158565347Y-74915648D01*
X158565351Y-74915651D01*
X158705727Y-75000511D01*
X158705730Y-75000512D01*
X158862343Y-75049315D01*
X158930406Y-75055500D01*
X158930409Y-75055500D01*
X159389591Y-75055500D01*
X159389594Y-75055500D01*
X159457657Y-75049315D01*
X159614270Y-75000512D01*
X159754653Y-74915648D01*
X159870648Y-74799653D01*
X159902357Y-74747200D01*
X159955511Y-74659272D01*
X159955514Y-74659263D01*
X159961433Y-74640269D01*
X160004315Y-74502657D01*
X160010500Y-74434594D01*
X160010500Y-74279500D01*
X160030185Y-74212461D01*
X160082989Y-74166706D01*
X160134500Y-74155500D01*
X160805831Y-74155500D01*
X160805847Y-74155501D01*
X160813443Y-74155501D01*
X160971554Y-74155501D01*
X160971557Y-74155501D01*
X161124285Y-74114577D01*
X161174404Y-74085639D01*
X161261216Y-74035520D01*
X161373020Y-73923716D01*
X161373020Y-73923714D01*
X161383228Y-73913507D01*
X161383230Y-73913504D01*
X161854916Y-73441818D01*
X161916239Y-73408333D01*
X161942597Y-73405499D01*
X163390371Y-73405499D01*
X163390372Y-73405499D01*
X163449983Y-73399091D01*
X163584831Y-73348796D01*
X163700046Y-73262546D01*
X163786296Y-73147331D01*
X163814619Y-73071393D01*
X163814955Y-73070493D01*
X163856826Y-73014559D01*
X163922290Y-72990141D01*
X163990563Y-73004992D01*
X164022366Y-73029843D01*
X164029802Y-73037920D01*
X164030715Y-73038912D01*
X164030722Y-73038918D01*
X164213865Y-73181464D01*
X164213872Y-73181468D01*
X164213874Y-73181470D01*
X164246433Y-73199090D01*
X164317017Y-73237288D01*
X164366608Y-73286507D01*
X164382000Y-73346343D01*
X164382000Y-74114316D01*
X164362315Y-74181355D01*
X164323098Y-74219853D01*
X164231156Y-74276563D01*
X164181342Y-74307289D01*
X164057289Y-74431342D01*
X163965187Y-74580663D01*
X163965185Y-74580668D01*
X163937349Y-74664670D01*
X163910001Y-74747203D01*
X163910001Y-74747204D01*
X163910000Y-74747204D01*
X163899500Y-74849983D01*
X163899500Y-75850001D01*
X163899501Y-75850019D01*
X163910000Y-75952796D01*
X163910001Y-75952799D01*
X163935303Y-76029154D01*
X163965186Y-76119334D01*
X164057288Y-76268656D01*
X164181344Y-76392712D01*
X164330666Y-76484814D01*
X164497203Y-76539999D01*
X164599991Y-76550500D01*
X164975505Y-76550499D01*
X165042543Y-76570183D01*
X165088298Y-76622987D01*
X165098242Y-76692146D01*
X165080499Y-76740469D01*
X165074211Y-76750475D01*
X165014631Y-76920745D01*
X165014630Y-76920750D01*
X164994435Y-77099996D01*
X164994435Y-77100003D01*
X165014630Y-77279249D01*
X165014631Y-77279254D01*
X165074211Y-77449523D01*
X165170184Y-77602262D01*
X165297737Y-77729815D01*
X165297740Y-77729817D01*
X165306462Y-77735298D01*
X165352753Y-77787633D01*
X165363400Y-77856687D01*
X165335024Y-77920535D01*
X165281444Y-77957332D01*
X165193838Y-77987987D01*
X165041095Y-78083962D01*
X164913542Y-78211515D01*
X164817569Y-78364254D01*
X164757989Y-78534523D01*
X164757988Y-78534528D01*
X164737793Y-78713774D01*
X164737793Y-78713781D01*
X164757988Y-78893027D01*
X164757989Y-78893032D01*
X164817569Y-79063301D01*
X164859596Y-79130186D01*
X164913542Y-79216040D01*
X165041096Y-79343594D01*
X165193836Y-79439567D01*
X165193838Y-79439567D01*
X165193842Y-79439570D01*
X165200114Y-79442591D01*
X165199227Y-79444431D01*
X165235297Y-79467085D01*
X167113181Y-81344969D01*
X167146666Y-81406292D01*
X167149500Y-81432650D01*
X167149500Y-93076000D01*
X167129815Y-93143039D01*
X167077011Y-93188794D01*
X167025500Y-93200000D01*
X156300000Y-93200000D01*
X156299999Y-93200000D01*
X156296270Y-93201544D01*
X156284403Y-93210947D01*
X154648836Y-94224158D01*
X153831777Y-94730315D01*
X153830006Y-94731412D01*
X153764705Y-94750000D01*
X124924000Y-94750000D01*
X124856961Y-94730315D01*
X124811206Y-94677511D01*
X124800000Y-94626000D01*
X124800000Y-92182498D01*
X126601890Y-92182498D01*
X126601890Y-92182501D01*
X126622304Y-92467933D01*
X126683128Y-92747537D01*
X126683130Y-92747543D01*
X126683131Y-92747546D01*
X126745590Y-92915005D01*
X126783135Y-93015666D01*
X126920270Y-93266809D01*
X126920275Y-93266817D01*
X127091754Y-93495887D01*
X127091770Y-93495905D01*
X127294094Y-93698229D01*
X127294112Y-93698245D01*
X127523182Y-93869724D01*
X127523190Y-93869729D01*
X127774333Y-94006864D01*
X127774332Y-94006864D01*
X127774336Y-94006865D01*
X127774339Y-94006867D01*
X128042454Y-94106869D01*
X128042460Y-94106870D01*
X128042462Y-94106871D01*
X128322066Y-94167695D01*
X128322068Y-94167695D01*
X128322072Y-94167696D01*
X128564016Y-94185000D01*
X128607499Y-94188110D01*
X128607500Y-94188110D01*
X128607501Y-94188110D01*
X128648257Y-94185195D01*
X128892928Y-94167696D01*
X128893439Y-94167585D01*
X129172537Y-94106871D01*
X129172537Y-94106870D01*
X129172546Y-94106869D01*
X129440661Y-94006867D01*
X129691815Y-93869726D01*
X129920895Y-93698239D01*
X130123239Y-93495895D01*
X130294726Y-93266815D01*
X130431867Y-93015661D01*
X130531869Y-92747546D01*
X130592696Y-92467928D01*
X130613110Y-92182500D01*
X130592696Y-91897072D01*
X130539933Y-91654526D01*
X130531871Y-91617462D01*
X130531870Y-91617460D01*
X130531869Y-91617454D01*
X130431867Y-91349339D01*
X130304284Y-91115690D01*
X130294729Y-91098190D01*
X130294724Y-91098182D01*
X130123245Y-90869112D01*
X130123229Y-90869094D01*
X129920905Y-90666770D01*
X129920887Y-90666754D01*
X129691817Y-90495275D01*
X129691809Y-90495270D01*
X129532573Y-90408320D01*
X129483168Y-90358914D01*
X129468000Y-90299488D01*
X129468000Y-88459162D01*
X129487685Y-88392123D01*
X129520879Y-88357586D01*
X129556640Y-88332546D01*
X129717545Y-88171641D01*
X129717547Y-88171639D01*
X129848068Y-87985234D01*
X129944239Y-87778996D01*
X130003135Y-87559192D01*
X130022968Y-87332500D01*
X130003135Y-87105808D01*
X129944239Y-86886004D01*
X129848068Y-86679766D01*
X129717547Y-86493361D01*
X129717545Y-86493358D01*
X129556641Y-86332454D01*
X129370234Y-86201932D01*
X129370232Y-86201931D01*
X129163997Y-86105761D01*
X129163988Y-86105758D01*
X128944197Y-86046866D01*
X128944193Y-86046865D01*
X128944192Y-86046865D01*
X128944191Y-86046864D01*
X128944186Y-86046864D01*
X128717502Y-86027032D01*
X128717497Y-86027032D01*
X128550637Y-86041629D01*
X128482137Y-86027862D01*
X128452150Y-86005782D01*
X128414319Y-85967951D01*
X128380834Y-85906628D01*
X128378000Y-85880270D01*
X128378000Y-84495796D01*
X128395882Y-84431647D01*
X128423012Y-84386770D01*
X128471815Y-84230157D01*
X128478000Y-84162094D01*
X128478000Y-84157000D01*
X128497685Y-84089961D01*
X128550489Y-84044206D01*
X128602000Y-84033000D01*
X129603001Y-84033000D01*
X129670040Y-84052685D01*
X129715795Y-84105489D01*
X129727001Y-84157000D01*
X129727001Y-84230376D01*
X129733408Y-84289983D01*
X129783702Y-84424828D01*
X129783706Y-84424835D01*
X129869952Y-84540044D01*
X129869955Y-84540047D01*
X129985164Y-84626293D01*
X129985171Y-84626297D01*
X130120017Y-84676591D01*
X130120016Y-84676591D01*
X130126944Y-84677335D01*
X130179627Y-84683000D01*
X132075372Y-84682999D01*
X132134983Y-84676591D01*
X132269831Y-84626296D01*
X132385046Y-84540046D01*
X132471296Y-84424831D01*
X132485493Y-84386767D01*
X132499955Y-84347993D01*
X132541826Y-84292059D01*
X132607290Y-84267641D01*
X132675563Y-84282492D01*
X132707366Y-84307343D01*
X132714802Y-84315420D01*
X132715715Y-84316412D01*
X132715722Y-84316418D01*
X132898865Y-84458964D01*
X132898871Y-84458968D01*
X132898874Y-84458970D01*
X133102997Y-84569436D01*
X133216987Y-84608568D01*
X133322515Y-84644797D01*
X133322517Y-84644797D01*
X133322519Y-84644798D01*
X133551451Y-84683000D01*
X133551452Y-84683000D01*
X133783548Y-84683000D01*
X133783549Y-84683000D01*
X134012481Y-84644798D01*
X134232003Y-84569436D01*
X134436126Y-84458970D01*
X134458833Y-84441297D01*
X134553886Y-84367314D01*
X134619284Y-84316413D01*
X134776479Y-84145653D01*
X134785781Y-84131415D01*
X134813377Y-84089178D01*
X134866523Y-84043822D01*
X134917185Y-84033000D01*
X134942702Y-84033000D01*
X135009741Y-84052685D01*
X135048239Y-84091901D01*
X135084788Y-84151156D01*
X135208844Y-84275212D01*
X135358166Y-84367314D01*
X135524703Y-84422499D01*
X135627491Y-84433000D01*
X136427508Y-84432999D01*
X136427516Y-84432998D01*
X136427519Y-84432998D01*
X136483802Y-84427248D01*
X136530297Y-84422499D01*
X136696834Y-84367314D01*
X136846156Y-84275212D01*
X136939819Y-84181549D01*
X137001142Y-84148064D01*
X137070834Y-84153048D01*
X137115181Y-84181549D01*
X137208844Y-84275212D01*
X137218091Y-84280916D01*
X137264818Y-84332860D01*
X137277000Y-84386457D01*
X137277000Y-85280269D01*
X137257315Y-85347308D01*
X137240681Y-85367950D01*
X136612950Y-85995681D01*
X136551627Y-86029166D01*
X136525269Y-86032000D01*
X135489629Y-86032000D01*
X135489623Y-86032001D01*
X135430016Y-86038408D01*
X135295171Y-86088702D01*
X135295164Y-86088706D01*
X135179955Y-86174952D01*
X135179952Y-86174955D01*
X135093706Y-86290164D01*
X135093702Y-86290171D01*
X135043408Y-86425017D01*
X135037001Y-86484616D01*
X135037000Y-86484635D01*
X135037000Y-88180370D01*
X135037001Y-88180376D01*
X135043408Y-88239983D01*
X135093702Y-88374828D01*
X135093706Y-88374835D01*
X135179952Y-88490044D01*
X135179955Y-88490047D01*
X135295164Y-88576293D01*
X135295171Y-88576297D01*
X135430016Y-88626591D01*
X135476257Y-88631563D01*
X135540807Y-88658301D01*
X135580655Y-88715694D01*
X135587000Y-88754852D01*
X135587000Y-90200178D01*
X135567315Y-90267217D01*
X135514511Y-90312972D01*
X135506335Y-90316359D01*
X135394344Y-90358130D01*
X135143190Y-90495270D01*
X135143182Y-90495275D01*
X134914112Y-90666754D01*
X134914094Y-90666770D01*
X134711770Y-90869094D01*
X134711754Y-90869112D01*
X134540275Y-91098182D01*
X134540270Y-91098190D01*
X134403135Y-91349333D01*
X134303128Y-91617462D01*
X134242304Y-91897066D01*
X134221890Y-92182498D01*
X134221890Y-92182501D01*
X134242304Y-92467933D01*
X134303128Y-92747537D01*
X134303130Y-92747543D01*
X134303131Y-92747546D01*
X134365590Y-92915005D01*
X134403135Y-93015666D01*
X134540270Y-93266809D01*
X134540275Y-93266817D01*
X134711754Y-93495887D01*
X134711770Y-93495905D01*
X134914094Y-93698229D01*
X134914112Y-93698245D01*
X135143182Y-93869724D01*
X135143190Y-93869729D01*
X135394333Y-94006864D01*
X135394332Y-94006864D01*
X135394336Y-94006865D01*
X135394339Y-94006867D01*
X135662454Y-94106869D01*
X135815450Y-94140151D01*
X135857981Y-94158213D01*
X135872005Y-94167584D01*
X136008587Y-94224158D01*
X136008591Y-94224158D01*
X136008592Y-94224159D01*
X136153579Y-94253000D01*
X136153582Y-94253000D01*
X136301420Y-94253000D01*
X136398962Y-94233596D01*
X136446413Y-94224158D01*
X136582995Y-94167584D01*
X136597013Y-94158216D01*
X136639549Y-94140151D01*
X136792546Y-94106869D01*
X137060661Y-94006867D01*
X137311815Y-93869726D01*
X137540895Y-93698239D01*
X137743239Y-93495895D01*
X137914726Y-93266815D01*
X138051867Y-93015661D01*
X138151869Y-92747546D01*
X138212696Y-92467928D01*
X138233110Y-92182500D01*
X138212696Y-91897072D01*
X138159933Y-91654526D01*
X138151871Y-91617462D01*
X138151870Y-91617460D01*
X138151869Y-91617454D01*
X138051867Y-91349339D01*
X137924284Y-91115690D01*
X137914729Y-91098190D01*
X137914724Y-91098182D01*
X137743245Y-90869112D01*
X137743229Y-90869094D01*
X137540905Y-90666770D01*
X137540887Y-90666754D01*
X137311817Y-90495275D01*
X137311809Y-90495270D01*
X137152573Y-90408320D01*
X137103168Y-90358914D01*
X137088000Y-90299488D01*
X137088000Y-88754851D01*
X137107685Y-88687812D01*
X137160489Y-88642057D01*
X137198747Y-88631561D01*
X137244983Y-88626591D01*
X137379831Y-88576296D01*
X137495046Y-88490046D01*
X137581296Y-88374831D01*
X137631591Y-88239983D01*
X137638000Y-88180373D01*
X137637999Y-87144729D01*
X137657683Y-87077691D01*
X137674318Y-87057049D01*
X138133373Y-86597995D01*
X138610452Y-86120916D01*
X138646178Y-86067447D01*
X138669854Y-86032014D01*
X138669856Y-86032009D01*
X138669862Y-86032001D01*
X138692584Y-85997995D01*
X138749158Y-85861413D01*
X138778000Y-85716418D01*
X138778000Y-84386457D01*
X138797685Y-84319418D01*
X138836907Y-84280916D01*
X138846156Y-84275212D01*
X138970212Y-84151156D01*
X139062314Y-84001834D01*
X139117499Y-83835297D01*
X139128000Y-83732509D01*
X139127999Y-82732492D01*
X139126822Y-82720974D01*
X139117499Y-82629703D01*
X139117498Y-82629700D01*
X139110551Y-82608735D01*
X139062314Y-82463166D01*
X138970212Y-82313844D01*
X138874274Y-82217906D01*
X140272000Y-82217906D01*
X140272000Y-83977094D01*
X140278185Y-84045157D01*
X140278186Y-84045162D01*
X140278187Y-84045164D01*
X140326985Y-84201763D01*
X140326987Y-84201767D01*
X140326988Y-84201770D01*
X140354117Y-84246647D01*
X140372000Y-84310796D01*
X140372000Y-86281418D01*
X140372000Y-86281420D01*
X140371999Y-86281420D01*
X140400840Y-86426407D01*
X140400843Y-86426417D01*
X140457413Y-86562989D01*
X140457414Y-86562991D01*
X140457416Y-86562995D01*
X140470059Y-86581917D01*
X140470117Y-86582003D01*
X140470116Y-86582003D01*
X140539546Y-86685914D01*
X140539552Y-86685921D01*
X140835782Y-86982150D01*
X140869267Y-87043473D01*
X140871629Y-87080637D01*
X140857032Y-87247496D01*
X140857032Y-87247501D01*
X140876864Y-87474186D01*
X140876866Y-87474197D01*
X140935758Y-87693988D01*
X140935761Y-87693997D01*
X141031931Y-87900232D01*
X141031932Y-87900234D01*
X141162454Y-88086641D01*
X141323359Y-88247546D01*
X141359121Y-88272586D01*
X141402747Y-88327162D01*
X141412000Y-88374162D01*
X141412000Y-90453461D01*
X141392315Y-90520500D01*
X141362311Y-90552728D01*
X141186606Y-90684260D01*
X141186594Y-90684270D01*
X140984270Y-90886594D01*
X140984254Y-90886612D01*
X140812775Y-91115682D01*
X140812770Y-91115690D01*
X140675635Y-91366833D01*
X140575628Y-91634962D01*
X140514804Y-91914566D01*
X140494390Y-92199998D01*
X140494390Y-92200001D01*
X140514804Y-92485433D01*
X140575628Y-92765037D01*
X140575630Y-92765043D01*
X140575631Y-92765046D01*
X140631559Y-92914994D01*
X140675635Y-93033166D01*
X140812770Y-93284309D01*
X140812775Y-93284317D01*
X140984254Y-93513387D01*
X140984270Y-93513405D01*
X141186594Y-93715729D01*
X141186612Y-93715745D01*
X141415682Y-93887224D01*
X141415690Y-93887229D01*
X141666833Y-94024364D01*
X141666832Y-94024364D01*
X141666836Y-94024365D01*
X141666839Y-94024367D01*
X141934954Y-94124369D01*
X141934960Y-94124370D01*
X141934962Y-94124371D01*
X142214566Y-94185195D01*
X142214568Y-94185195D01*
X142214572Y-94185196D01*
X142468220Y-94203337D01*
X142499999Y-94205610D01*
X142500000Y-94205610D01*
X142500001Y-94205610D01*
X142528595Y-94203564D01*
X142785428Y-94185196D01*
X142830120Y-94175474D01*
X143065037Y-94124371D01*
X143065037Y-94124370D01*
X143065046Y-94124369D01*
X143333161Y-94024367D01*
X143584315Y-93887226D01*
X143813395Y-93715739D01*
X144015739Y-93513395D01*
X144187226Y-93284315D01*
X144324367Y-93033161D01*
X144424369Y-92765046D01*
X144445659Y-92667179D01*
X144485195Y-92485433D01*
X144485195Y-92485432D01*
X144485196Y-92485428D01*
X144505610Y-92200000D01*
X144504358Y-92182501D01*
X144489876Y-91980010D01*
X144485196Y-91914572D01*
X144424369Y-91634954D01*
X144324367Y-91366839D01*
X144314811Y-91349339D01*
X144187229Y-91115690D01*
X144187224Y-91115682D01*
X144015745Y-90886612D01*
X144015729Y-90886594D01*
X143813405Y-90684270D01*
X143813387Y-90684254D01*
X143584317Y-90512775D01*
X143584309Y-90512770D01*
X143333166Y-90375635D01*
X143333167Y-90375635D01*
X143065038Y-90275628D01*
X143010641Y-90263795D01*
X142949318Y-90230309D01*
X142915834Y-90168986D01*
X142913000Y-90142629D01*
X142913000Y-88374162D01*
X142932685Y-88307123D01*
X142965879Y-88272586D01*
X142986159Y-88258386D01*
X143001639Y-88247547D01*
X143162547Y-88086639D01*
X143293068Y-87900234D01*
X143389239Y-87693996D01*
X143448135Y-87474192D01*
X143467968Y-87247500D01*
X143448135Y-87020808D01*
X143389239Y-86801004D01*
X143293068Y-86594766D01*
X143162547Y-86408361D01*
X143162545Y-86408358D01*
X143001641Y-86247454D01*
X142815234Y-86116932D01*
X142815232Y-86116931D01*
X142608997Y-86020761D01*
X142608988Y-86020758D01*
X142389197Y-85961866D01*
X142389193Y-85961865D01*
X142389192Y-85961865D01*
X142389191Y-85961864D01*
X142389186Y-85961864D01*
X142162502Y-85942032D01*
X142162498Y-85942032D01*
X142007807Y-85955565D01*
X141939307Y-85941798D01*
X141889124Y-85893183D01*
X141873000Y-85832037D01*
X141873000Y-84310796D01*
X141890882Y-84246647D01*
X141918012Y-84201770D01*
X141966815Y-84045157D01*
X141973000Y-83977094D01*
X141973000Y-83972000D01*
X141992685Y-83904961D01*
X142045489Y-83859206D01*
X142097000Y-83848000D01*
X143423001Y-83848000D01*
X143490040Y-83867685D01*
X143535795Y-83920489D01*
X143547001Y-83972000D01*
X143547001Y-84045376D01*
X143553408Y-84104983D01*
X143603702Y-84239828D01*
X143603706Y-84239835D01*
X143689952Y-84355044D01*
X143689955Y-84355047D01*
X143805164Y-84441293D01*
X143805171Y-84441297D01*
X143940017Y-84491591D01*
X143940016Y-84491591D01*
X143946944Y-84492335D01*
X143999627Y-84498000D01*
X145895372Y-84497999D01*
X145954983Y-84491591D01*
X146089831Y-84441296D01*
X146205046Y-84355046D01*
X146291296Y-84239831D01*
X146294100Y-84232314D01*
X146319955Y-84162993D01*
X146361826Y-84107059D01*
X146427290Y-84082641D01*
X146495563Y-84097492D01*
X146527366Y-84122343D01*
X146534802Y-84130420D01*
X146535715Y-84131412D01*
X146535722Y-84131418D01*
X146718865Y-84273964D01*
X146718871Y-84273968D01*
X146718874Y-84273970D01*
X146922997Y-84384436D01*
X147033868Y-84422498D01*
X147142515Y-84459797D01*
X147142517Y-84459797D01*
X147142519Y-84459798D01*
X147371451Y-84498000D01*
X147371452Y-84498000D01*
X147603548Y-84498000D01*
X147603549Y-84498000D01*
X147832481Y-84459798D01*
X148052003Y-84384436D01*
X148256126Y-84273970D01*
X148439284Y-84131413D01*
X148596479Y-83960653D01*
X148620899Y-83923276D01*
X148633377Y-83904178D01*
X148686523Y-83858822D01*
X148737185Y-83848000D01*
X148806862Y-83848000D01*
X148873901Y-83867685D01*
X148912399Y-83906901D01*
X148979788Y-84016156D01*
X149103844Y-84140212D01*
X149253166Y-84232314D01*
X149419703Y-84287499D01*
X149522491Y-84298000D01*
X150322508Y-84297999D01*
X150322516Y-84297998D01*
X150322519Y-84297998D01*
X150400980Y-84289983D01*
X150425297Y-84287499D01*
X150591834Y-84232314D01*
X150741156Y-84140212D01*
X150834819Y-84046549D01*
X150896142Y-84013064D01*
X150965834Y-84018048D01*
X151010181Y-84046549D01*
X151103844Y-84140212D01*
X151113091Y-84145916D01*
X151159818Y-84197860D01*
X151172000Y-84251457D01*
X151172000Y-84745269D01*
X151152315Y-84812308D01*
X151135681Y-84832950D01*
X150057949Y-85910681D01*
X149996626Y-85944166D01*
X149970268Y-85947000D01*
X148934629Y-85947000D01*
X148934623Y-85947001D01*
X148875016Y-85953408D01*
X148740171Y-86003702D01*
X148740164Y-86003706D01*
X148624955Y-86089952D01*
X148624952Y-86089955D01*
X148538706Y-86205164D01*
X148538702Y-86205171D01*
X148488408Y-86340017D01*
X148482001Y-86399616D01*
X148482000Y-86399635D01*
X148482000Y-88095370D01*
X148482001Y-88095376D01*
X148488408Y-88154983D01*
X148538702Y-88289828D01*
X148538706Y-88289835D01*
X148624952Y-88405044D01*
X148624955Y-88405047D01*
X148740164Y-88491293D01*
X148740171Y-88491297D01*
X148875016Y-88541591D01*
X148921257Y-88546563D01*
X148985807Y-88573301D01*
X149025655Y-88630694D01*
X149032000Y-88669852D01*
X149032000Y-90453461D01*
X149012315Y-90520500D01*
X148982311Y-90552728D01*
X148806606Y-90684260D01*
X148806594Y-90684270D01*
X148604270Y-90886594D01*
X148604254Y-90886612D01*
X148432775Y-91115682D01*
X148432770Y-91115690D01*
X148295635Y-91366833D01*
X148195628Y-91634962D01*
X148134804Y-91914566D01*
X148114390Y-92199998D01*
X148114390Y-92200001D01*
X148134804Y-92485433D01*
X148195628Y-92765037D01*
X148195630Y-92765043D01*
X148195631Y-92765046D01*
X148251559Y-92914994D01*
X148295635Y-93033166D01*
X148432770Y-93284309D01*
X148432775Y-93284317D01*
X148604254Y-93513387D01*
X148604270Y-93513405D01*
X148806594Y-93715729D01*
X148806612Y-93715745D01*
X149035682Y-93887224D01*
X149035690Y-93887229D01*
X149286833Y-94024364D01*
X149286832Y-94024364D01*
X149286836Y-94024365D01*
X149286839Y-94024367D01*
X149554954Y-94124369D01*
X149554960Y-94124370D01*
X149554962Y-94124371D01*
X149834566Y-94185195D01*
X149834568Y-94185195D01*
X149834572Y-94185196D01*
X150088220Y-94203337D01*
X150119999Y-94205610D01*
X150120000Y-94205610D01*
X150120001Y-94205610D01*
X150148595Y-94203564D01*
X150405428Y-94185196D01*
X150450120Y-94175474D01*
X150685037Y-94124371D01*
X150685037Y-94124370D01*
X150685046Y-94124369D01*
X150953161Y-94024367D01*
X151204315Y-93887226D01*
X151433395Y-93715739D01*
X151635739Y-93513395D01*
X151807226Y-93284315D01*
X151944367Y-93033161D01*
X152044369Y-92765046D01*
X152065659Y-92667179D01*
X152105195Y-92485433D01*
X152105195Y-92485432D01*
X152105196Y-92485428D01*
X152125610Y-92200000D01*
X152124358Y-92182501D01*
X152109876Y-91980010D01*
X152105196Y-91914572D01*
X152044369Y-91634954D01*
X151944367Y-91366839D01*
X151934811Y-91349339D01*
X151807229Y-91115690D01*
X151807224Y-91115682D01*
X151635745Y-90886612D01*
X151635729Y-90886594D01*
X151433405Y-90684270D01*
X151433387Y-90684254D01*
X151204317Y-90512775D01*
X151204309Y-90512770D01*
X150953166Y-90375635D01*
X150953167Y-90375635D01*
X150685038Y-90275628D01*
X150630641Y-90263795D01*
X150569318Y-90230309D01*
X150535834Y-90168986D01*
X150533000Y-90142629D01*
X150533000Y-88669851D01*
X150552685Y-88602812D01*
X150605489Y-88557057D01*
X150643747Y-88546561D01*
X150689983Y-88541591D01*
X150824831Y-88491296D01*
X150940046Y-88405046D01*
X151026296Y-88289831D01*
X151076591Y-88154983D01*
X151083000Y-88095373D01*
X151082999Y-87059728D01*
X151102683Y-86992690D01*
X151119313Y-86972053D01*
X152505452Y-85585916D01*
X152554686Y-85512229D01*
X152587584Y-85462995D01*
X152644158Y-85326413D01*
X152657468Y-85259499D01*
X152673000Y-85181420D01*
X152673000Y-84251457D01*
X152692685Y-84184418D01*
X152731907Y-84145916D01*
X152741156Y-84140212D01*
X152865212Y-84016156D01*
X152957314Y-83866834D01*
X153012499Y-83700297D01*
X153023000Y-83597509D01*
X153022999Y-82597492D01*
X153022356Y-82591202D01*
X153012499Y-82494703D01*
X153012498Y-82494700D01*
X153001666Y-82462011D01*
X152957314Y-82328166D01*
X152865212Y-82178844D01*
X152741156Y-82054788D01*
X152591834Y-81962686D01*
X152425297Y-81907501D01*
X152425295Y-81907500D01*
X152322510Y-81897000D01*
X151522498Y-81897000D01*
X151522480Y-81897001D01*
X151419703Y-81907500D01*
X151419700Y-81907501D01*
X151253168Y-81962685D01*
X151253163Y-81962687D01*
X151103842Y-82054789D01*
X151010181Y-82148451D01*
X150948858Y-82181936D01*
X150879166Y-82176952D01*
X150834819Y-82148451D01*
X150741157Y-82054789D01*
X150741156Y-82054788D01*
X150591834Y-81962686D01*
X150425297Y-81907501D01*
X150425295Y-81907500D01*
X150322510Y-81897000D01*
X149522498Y-81897000D01*
X149522480Y-81897001D01*
X149419703Y-81907500D01*
X149419700Y-81907501D01*
X149253168Y-81962685D01*
X149253163Y-81962687D01*
X149103842Y-82054789D01*
X148979789Y-82178842D01*
X148955693Y-82217908D01*
X148915267Y-82283451D01*
X148912401Y-82288097D01*
X148860453Y-82334821D01*
X148806862Y-82347000D01*
X148737185Y-82347000D01*
X148670146Y-82327315D01*
X148633377Y-82290822D01*
X148596484Y-82234354D01*
X148596482Y-82234352D01*
X148596479Y-82234347D01*
X148439284Y-82063587D01*
X148439279Y-82063583D01*
X148439277Y-82063581D01*
X148256134Y-81921035D01*
X148256128Y-81921031D01*
X148052004Y-81810564D01*
X148051995Y-81810561D01*
X147832484Y-81735202D01*
X147641950Y-81703408D01*
X147603549Y-81697000D01*
X147371451Y-81697000D01*
X147333050Y-81703408D01*
X147142515Y-81735202D01*
X146923004Y-81810561D01*
X146922995Y-81810564D01*
X146718871Y-81921031D01*
X146718865Y-81921035D01*
X146535722Y-82063581D01*
X146535718Y-82063585D01*
X146527366Y-82072658D01*
X146467479Y-82108648D01*
X146397641Y-82106547D01*
X146340025Y-82067022D01*
X146319955Y-82032007D01*
X146291297Y-81955171D01*
X146291293Y-81955164D01*
X146205047Y-81839955D01*
X146205044Y-81839952D01*
X146089835Y-81753706D01*
X146089828Y-81753702D01*
X145954982Y-81703408D01*
X145954983Y-81703408D01*
X145895383Y-81697001D01*
X145895381Y-81697000D01*
X145895373Y-81697000D01*
X145895364Y-81697000D01*
X143999629Y-81697000D01*
X143999623Y-81697001D01*
X143940016Y-81703408D01*
X143805171Y-81753702D01*
X143805164Y-81753706D01*
X143689955Y-81839952D01*
X143689952Y-81839955D01*
X143603706Y-81955164D01*
X143603702Y-81955171D01*
X143553408Y-82090017D01*
X143547001Y-82149616D01*
X143547000Y-82149635D01*
X143547000Y-82223000D01*
X143527315Y-82290039D01*
X143474511Y-82335794D01*
X143423000Y-82347000D01*
X142097000Y-82347000D01*
X142029961Y-82327315D01*
X141984206Y-82274511D01*
X141973000Y-82223000D01*
X141973000Y-82217908D01*
X141972918Y-82217007D01*
X141966815Y-82149843D01*
X141918012Y-81993230D01*
X141918011Y-81993227D01*
X141833151Y-81852851D01*
X141833148Y-81852847D01*
X141717152Y-81736851D01*
X141717148Y-81736848D01*
X141576772Y-81651988D01*
X141576763Y-81651985D01*
X141420164Y-81603187D01*
X141420162Y-81603186D01*
X141420157Y-81603185D01*
X141352094Y-81597000D01*
X140892906Y-81597000D01*
X140824843Y-81603185D01*
X140824839Y-81603186D01*
X140824835Y-81603187D01*
X140668236Y-81651985D01*
X140668227Y-81651988D01*
X140527851Y-81736848D01*
X140527847Y-81736851D01*
X140411851Y-81852847D01*
X140411848Y-81852851D01*
X140326988Y-81993227D01*
X140326985Y-81993236D01*
X140278187Y-82149835D01*
X140278185Y-82149843D01*
X140272000Y-82217906D01*
X138874274Y-82217906D01*
X138846156Y-82189788D01*
X138753388Y-82132569D01*
X138696836Y-82097687D01*
X138696831Y-82097685D01*
X138695362Y-82097198D01*
X138530297Y-82042501D01*
X138530295Y-82042500D01*
X138427510Y-82032000D01*
X137627498Y-82032000D01*
X137627480Y-82032001D01*
X137524703Y-82042500D01*
X137524700Y-82042501D01*
X137358168Y-82097685D01*
X137358163Y-82097687D01*
X137208842Y-82189789D01*
X137115181Y-82283451D01*
X137053858Y-82316936D01*
X136984166Y-82311952D01*
X136939819Y-82283451D01*
X136846157Y-82189789D01*
X136846156Y-82189788D01*
X136753388Y-82132569D01*
X136696836Y-82097687D01*
X136696831Y-82097685D01*
X136695362Y-82097198D01*
X136530297Y-82042501D01*
X136530295Y-82042500D01*
X136427510Y-82032000D01*
X135627498Y-82032000D01*
X135627480Y-82032001D01*
X135524703Y-82042500D01*
X135524700Y-82042501D01*
X135358168Y-82097685D01*
X135358163Y-82097687D01*
X135208842Y-82189789D01*
X135084789Y-82313842D01*
X135004122Y-82444625D01*
X134952174Y-82491349D01*
X134883211Y-82502572D01*
X134819129Y-82474728D01*
X134794774Y-82447350D01*
X134776481Y-82419350D01*
X134776480Y-82419349D01*
X134776479Y-82419347D01*
X134619284Y-82248587D01*
X134619279Y-82248583D01*
X134619277Y-82248581D01*
X134436134Y-82106035D01*
X134436128Y-82106031D01*
X134232004Y-81995564D01*
X134231995Y-81995561D01*
X134012484Y-81920202D01*
X133821950Y-81888408D01*
X133783549Y-81882000D01*
X133551451Y-81882000D01*
X133513050Y-81888408D01*
X133322515Y-81920202D01*
X133103004Y-81995561D01*
X133102995Y-81995564D01*
X132898871Y-82106031D01*
X132898865Y-82106035D01*
X132715722Y-82248581D01*
X132715718Y-82248585D01*
X132707366Y-82257658D01*
X132647479Y-82293648D01*
X132577641Y-82291547D01*
X132520025Y-82252022D01*
X132499955Y-82217007D01*
X132471297Y-82140171D01*
X132471293Y-82140164D01*
X132385047Y-82024955D01*
X132385044Y-82024952D01*
X132269835Y-81938706D01*
X132269828Y-81938702D01*
X132134982Y-81888408D01*
X132134983Y-81888408D01*
X132075383Y-81882001D01*
X132075381Y-81882000D01*
X132075373Y-81882000D01*
X132075364Y-81882000D01*
X130179629Y-81882000D01*
X130179623Y-81882001D01*
X130120016Y-81888408D01*
X129985171Y-81938702D01*
X129985164Y-81938706D01*
X129869955Y-82024952D01*
X129869952Y-82024955D01*
X129783706Y-82140164D01*
X129783702Y-82140171D01*
X129733408Y-82275017D01*
X129727001Y-82334616D01*
X129727000Y-82334635D01*
X129727000Y-82408000D01*
X129707315Y-82475039D01*
X129654511Y-82520794D01*
X129603000Y-82532000D01*
X128602000Y-82532000D01*
X128534961Y-82512315D01*
X128489206Y-82459511D01*
X128478000Y-82408000D01*
X128478000Y-82402908D01*
X128478000Y-82402906D01*
X128471815Y-82334843D01*
X128423012Y-82178230D01*
X128423011Y-82178227D01*
X128338151Y-82037851D01*
X128338148Y-82037847D01*
X128222152Y-81921851D01*
X128222148Y-81921848D01*
X128081772Y-81836988D01*
X128081763Y-81836985D01*
X127925164Y-81788187D01*
X127925162Y-81788186D01*
X127925157Y-81788185D01*
X127857094Y-81782000D01*
X127397906Y-81782000D01*
X127329843Y-81788185D01*
X127329839Y-81788186D01*
X127329835Y-81788187D01*
X127173236Y-81836985D01*
X127173227Y-81836988D01*
X127032851Y-81921848D01*
X127032847Y-81921851D01*
X126916851Y-82037847D01*
X126916848Y-82037851D01*
X126831988Y-82178227D01*
X126831985Y-82178236D01*
X126783187Y-82334835D01*
X126783185Y-82334843D01*
X126777000Y-82402906D01*
X126777000Y-84162094D01*
X126783185Y-84230157D01*
X126783186Y-84230162D01*
X126783187Y-84230164D01*
X126831985Y-84386763D01*
X126831987Y-84386767D01*
X126831988Y-84386770D01*
X126859117Y-84431647D01*
X126877000Y-84495796D01*
X126877000Y-86316418D01*
X126877000Y-86316420D01*
X126876999Y-86316420D01*
X126905840Y-86461407D01*
X126905843Y-86461417D01*
X126962413Y-86597990D01*
X126962416Y-86597995D01*
X126981845Y-86627074D01*
X127044544Y-86720910D01*
X127044550Y-86720918D01*
X127390782Y-87067150D01*
X127424267Y-87128473D01*
X127426629Y-87165637D01*
X127412032Y-87332496D01*
X127412032Y-87332501D01*
X127431864Y-87559186D01*
X127431866Y-87559197D01*
X127490758Y-87778988D01*
X127490761Y-87778997D01*
X127586931Y-87985232D01*
X127586932Y-87985234D01*
X127717454Y-88171641D01*
X127878359Y-88332546D01*
X127914121Y-88357586D01*
X127957747Y-88412162D01*
X127967000Y-88459162D01*
X127967000Y-90200178D01*
X127947315Y-90267217D01*
X127894511Y-90312972D01*
X127886335Y-90316359D01*
X127774344Y-90358130D01*
X127523190Y-90495270D01*
X127523182Y-90495275D01*
X127294112Y-90666754D01*
X127294094Y-90666770D01*
X127091770Y-90869094D01*
X127091754Y-90869112D01*
X126920275Y-91098182D01*
X126920270Y-91098190D01*
X126783135Y-91349333D01*
X126683128Y-91617462D01*
X126622304Y-91897066D01*
X126601890Y-92182498D01*
X124800000Y-92182498D01*
X124800000Y-82300000D01*
X101250000Y-82300000D01*
X101249999Y-82300000D01*
X96200000Y-87349999D01*
X96200000Y-94575479D01*
X96180315Y-94642518D01*
X96127511Y-94688273D01*
X96075481Y-94699478D01*
X92563235Y-94684783D01*
X92496279Y-94664818D01*
X92459945Y-94628605D01*
X92395668Y-94530220D01*
X92395665Y-94530217D01*
X92395664Y-94530215D01*
X92227244Y-94347262D01*
X92144491Y-94282852D01*
X92103679Y-94226143D01*
X92100004Y-94156370D01*
X92134636Y-94095687D01*
X92144485Y-94087151D01*
X92227244Y-94022738D01*
X92395664Y-93839785D01*
X92531673Y-93631607D01*
X92631563Y-93403881D01*
X92692608Y-93162821D01*
X92699802Y-93076000D01*
X92713143Y-92915005D01*
X92713143Y-92914994D01*
X92692609Y-92667187D01*
X92692607Y-92667175D01*
X92631563Y-92426118D01*
X92531673Y-92198393D01*
X92395666Y-91990217D01*
X92374057Y-91966744D01*
X92227244Y-91807262D01*
X92031009Y-91654526D01*
X92031007Y-91654525D01*
X92031006Y-91654524D01*
X91812311Y-91536172D01*
X91812302Y-91536169D01*
X91577116Y-91455429D01*
X91331835Y-91414500D01*
X91083165Y-91414500D01*
X90837883Y-91455429D01*
X90602697Y-91536169D01*
X90602688Y-91536172D01*
X90383993Y-91654524D01*
X90187757Y-91807261D01*
X90028730Y-91980010D01*
X89968842Y-92016001D01*
X89899004Y-92013900D01*
X89846270Y-91980010D01*
X89769914Y-91897066D01*
X89687244Y-91807262D01*
X89491009Y-91654526D01*
X89491007Y-91654525D01*
X89491006Y-91654524D01*
X89272311Y-91536172D01*
X89272302Y-91536169D01*
X89037116Y-91455429D01*
X88791835Y-91414500D01*
X88543165Y-91414500D01*
X88297883Y-91455429D01*
X88062697Y-91536169D01*
X88062688Y-91536172D01*
X87843993Y-91654524D01*
X87647757Y-91807261D01*
X87488730Y-91980010D01*
X87428842Y-92016001D01*
X87359004Y-92013900D01*
X87306270Y-91980010D01*
X87229914Y-91897066D01*
X87147244Y-91807262D01*
X86951009Y-91654526D01*
X86951007Y-91654525D01*
X86951006Y-91654524D01*
X86732311Y-91536172D01*
X86732302Y-91536169D01*
X86497116Y-91455429D01*
X86251835Y-91414500D01*
X86003165Y-91414500D01*
X85757883Y-91455429D01*
X85522697Y-91536169D01*
X85522688Y-91536172D01*
X85303993Y-91654524D01*
X85107757Y-91807261D01*
X84948730Y-91980010D01*
X84888842Y-92016001D01*
X84819004Y-92013900D01*
X84766270Y-91980010D01*
X84689914Y-91897066D01*
X84607244Y-91807262D01*
X84411009Y-91654526D01*
X84411007Y-91654525D01*
X84411006Y-91654524D01*
X84192311Y-91536172D01*
X84192302Y-91536169D01*
X83957116Y-91455429D01*
X83711835Y-91414500D01*
X83463165Y-91414500D01*
X83217883Y-91455429D01*
X82982697Y-91536169D01*
X82982688Y-91536172D01*
X82763993Y-91654524D01*
X82567757Y-91807261D01*
X82408730Y-91980010D01*
X82348842Y-92016001D01*
X82279004Y-92013900D01*
X82226270Y-91980010D01*
X82149914Y-91897066D01*
X82067244Y-91807262D01*
X81871009Y-91654526D01*
X81871007Y-91654525D01*
X81871006Y-91654524D01*
X81652311Y-91536172D01*
X81652302Y-91536169D01*
X81417116Y-91455429D01*
X81171835Y-91414500D01*
X80923165Y-91414500D01*
X80677883Y-91455429D01*
X80442697Y-91536169D01*
X80442688Y-91536172D01*
X80223993Y-91654524D01*
X80027757Y-91807261D01*
X79868730Y-91980010D01*
X79808842Y-92016001D01*
X79739004Y-92013900D01*
X79686270Y-91980010D01*
X79609914Y-91897066D01*
X79527244Y-91807262D01*
X79331009Y-91654526D01*
X79331007Y-91654525D01*
X79331006Y-91654524D01*
X79112311Y-91536172D01*
X79112302Y-91536169D01*
X78877116Y-91455429D01*
X78631835Y-91414500D01*
X78383165Y-91414500D01*
X78137883Y-91455429D01*
X77902697Y-91536169D01*
X77902688Y-91536172D01*
X77683993Y-91654524D01*
X77487757Y-91807261D01*
X77319333Y-91990217D01*
X77183326Y-92198393D01*
X77083436Y-92426118D01*
X77022392Y-92667175D01*
X77022390Y-92667187D01*
X77001857Y-92914994D01*
X77001857Y-92915005D01*
X77022390Y-93162812D01*
X77022392Y-93162824D01*
X77083436Y-93403881D01*
X77183326Y-93631606D01*
X77319333Y-93839782D01*
X77319336Y-93839785D01*
X77487756Y-94022738D01*
X77570508Y-94087147D01*
X77611321Y-94143857D01*
X77614996Y-94213630D01*
X77580364Y-94274313D01*
X77570514Y-94282848D01*
X77511900Y-94328469D01*
X77487757Y-94347261D01*
X77319333Y-94530217D01*
X77277780Y-94593821D01*
X77224634Y-94639178D01*
X77173971Y-94650000D01*
X72874500Y-94650000D01*
X72807461Y-94630315D01*
X72761706Y-94577511D01*
X72750500Y-94526000D01*
X72750500Y-86972500D01*
X75922769Y-86972500D01*
X76966988Y-86972500D01*
X76934075Y-87029507D01*
X76900000Y-87156674D01*
X76900000Y-87288326D01*
X76934075Y-87415493D01*
X76966988Y-87472500D01*
X75922769Y-87472500D01*
X75933242Y-87538626D01*
X75933242Y-87538629D01*
X75998904Y-87740717D01*
X76095379Y-87930057D01*
X76220272Y-88101959D01*
X76220276Y-88101964D01*
X76370535Y-88252223D01*
X76370540Y-88252227D01*
X76542442Y-88377120D01*
X76731782Y-88473595D01*
X76933870Y-88539257D01*
X77143754Y-88572500D01*
X77150000Y-88572500D01*
X77150000Y-87655512D01*
X77207007Y-87688425D01*
X77334174Y-87722500D01*
X77465826Y-87722500D01*
X77592993Y-87688425D01*
X77650000Y-87655512D01*
X77650000Y-88572500D01*
X77656246Y-88572500D01*
X77866127Y-88539257D01*
X77866130Y-88539257D01*
X78068217Y-88473595D01*
X78257557Y-88377120D01*
X78429459Y-88252227D01*
X78429464Y-88252223D01*
X78579723Y-88101964D01*
X78579727Y-88101959D01*
X78704620Y-87930057D01*
X78801095Y-87740717D01*
X78866757Y-87538629D01*
X78866757Y-87538626D01*
X78877231Y-87472500D01*
X77833012Y-87472500D01*
X77865925Y-87415493D01*
X77900000Y-87288326D01*
X77900000Y-87156674D01*
X77889158Y-87116213D01*
X90899500Y-87116213D01*
X90899500Y-87328787D01*
X90932754Y-87538743D01*
X90996601Y-87735244D01*
X90998444Y-87740914D01*
X91094951Y-87930320D01*
X91219890Y-88102286D01*
X91370213Y-88252609D01*
X91542179Y-88377548D01*
X91542181Y-88377549D01*
X91542184Y-88377551D01*
X91731588Y-88474057D01*
X91933757Y-88539746D01*
X92143713Y-88573000D01*
X92143714Y-88573000D01*
X92656286Y-88573000D01*
X92656287Y-88573000D01*
X92866243Y-88539746D01*
X93068412Y-88474057D01*
X93257816Y-88377551D01*
X93378548Y-88289835D01*
X93429786Y-88252609D01*
X93429788Y-88252606D01*
X93429792Y-88252604D01*
X93580104Y-88102292D01*
X93580106Y-88102288D01*
X93580109Y-88102286D01*
X93705048Y-87930320D01*
X93705047Y-87930320D01*
X93705051Y-87930316D01*
X93801557Y-87740912D01*
X93867246Y-87538743D01*
X93900500Y-87328787D01*
X93900500Y-87116213D01*
X93867246Y-86906257D01*
X93801557Y-86704088D01*
X93705051Y-86514684D01*
X93705049Y-86514681D01*
X93705048Y-86514679D01*
X93580109Y-86342713D01*
X93429786Y-86192390D01*
X93257815Y-86067448D01*
X93257814Y-86067447D01*
X93218205Y-86047265D01*
X93167409Y-85999291D01*
X93150500Y-85936781D01*
X93150500Y-83122230D01*
X93170185Y-83055191D01*
X93186819Y-83034549D01*
X97384549Y-78836819D01*
X97445872Y-78803334D01*
X97472230Y-78800500D01*
X112783920Y-78800500D01*
X112894823Y-78778439D01*
X112928913Y-78771658D01*
X113065495Y-78715084D01*
X113114729Y-78682186D01*
X113188416Y-78632952D01*
X115168884Y-76652483D01*
X125577000Y-76652483D01*
X125577000Y-77652501D01*
X125577001Y-77652519D01*
X125587500Y-77755296D01*
X125587501Y-77755299D01*
X125619040Y-77850476D01*
X125642686Y-77921834D01*
X125734788Y-78071156D01*
X125858844Y-78195212D01*
X125868091Y-78200916D01*
X125914818Y-78252860D01*
X125927000Y-78306457D01*
X125927000Y-78669203D01*
X125909117Y-78733352D01*
X125881988Y-78778228D01*
X125881987Y-78778230D01*
X125833186Y-78934838D01*
X125833185Y-78934841D01*
X125833185Y-78934843D01*
X125827000Y-79002906D01*
X125827000Y-80762094D01*
X125833185Y-80830157D01*
X125833186Y-80830162D01*
X125833187Y-80830164D01*
X125881985Y-80986763D01*
X125881988Y-80986772D01*
X125966848Y-81127148D01*
X125966851Y-81127152D01*
X126082847Y-81243148D01*
X126082851Y-81243151D01*
X126223227Y-81328011D01*
X126223230Y-81328012D01*
X126379843Y-81376815D01*
X126447906Y-81383000D01*
X126447909Y-81383000D01*
X126907091Y-81383000D01*
X126907094Y-81383000D01*
X126975157Y-81376815D01*
X127131770Y-81328012D01*
X127132530Y-81327553D01*
X127272148Y-81243151D01*
X127272147Y-81243151D01*
X127272153Y-81243148D01*
X127388148Y-81127153D01*
X127453325Y-81019336D01*
X127473011Y-80986772D01*
X127473014Y-80986764D01*
X127509376Y-80870075D01*
X127548113Y-80811927D01*
X127612138Y-80783953D01*
X127681124Y-80795034D01*
X127733167Y-80841653D01*
X127746146Y-80870074D01*
X127782445Y-80986562D01*
X127782446Y-80986564D01*
X127867243Y-81126837D01*
X127867247Y-81126842D01*
X127983157Y-81242752D01*
X127983162Y-81242756D01*
X128123434Y-81327552D01*
X128279942Y-81376321D01*
X128279940Y-81376321D01*
X128327499Y-81380642D01*
X128327500Y-81380642D01*
X128327500Y-81380641D01*
X128827500Y-81380641D01*
X128875061Y-81376321D01*
X128875070Y-81376319D01*
X129031560Y-81327555D01*
X129031564Y-81327553D01*
X129171837Y-81242756D01*
X129171842Y-81242752D01*
X129287752Y-81126842D01*
X129287756Y-81126837D01*
X129372552Y-80986565D01*
X129421320Y-80830062D01*
X129427500Y-80762056D01*
X129427500Y-80132500D01*
X128827500Y-80132500D01*
X128827500Y-81380641D01*
X128327500Y-81380641D01*
X128327500Y-78463500D01*
X128347185Y-78396461D01*
X128348294Y-78395500D01*
X128827500Y-78395500D01*
X128827500Y-79632500D01*
X129427499Y-79632500D01*
X129427499Y-79002933D01*
X129421321Y-78934938D01*
X129421318Y-78934927D01*
X129372555Y-78778439D01*
X129372553Y-78778435D01*
X129287756Y-78638162D01*
X129287752Y-78638157D01*
X129180693Y-78531098D01*
X129147208Y-78469775D01*
X129152192Y-78400083D01*
X129194064Y-78344150D01*
X129229370Y-78325711D01*
X129346619Y-78286858D01*
X129346624Y-78286856D01*
X129495845Y-78194815D01*
X129619815Y-78070845D01*
X129711856Y-77921624D01*
X129711858Y-77921619D01*
X129767005Y-77755197D01*
X129767006Y-77755190D01*
X129777499Y-77652486D01*
X129777500Y-77652473D01*
X129777500Y-77402500D01*
X128927500Y-77402500D01*
X128927500Y-78271500D01*
X128907815Y-78338539D01*
X128855011Y-78384294D01*
X128834172Y-78388827D01*
X128827500Y-78395500D01*
X128348294Y-78395500D01*
X128399989Y-78350706D01*
X128420827Y-78346172D01*
X128427500Y-78339500D01*
X128427500Y-76902500D01*
X128927500Y-76902500D01*
X129777499Y-76902500D01*
X129777499Y-76652528D01*
X129777498Y-76652513D01*
X129767005Y-76549802D01*
X129733100Y-76447483D01*
X139072000Y-76447483D01*
X139072000Y-77447501D01*
X139072001Y-77447519D01*
X139082500Y-77550296D01*
X139082501Y-77550299D01*
X139137685Y-77716831D01*
X139137687Y-77716836D01*
X139161344Y-77755190D01*
X139229788Y-77866156D01*
X139353844Y-77990212D01*
X139363091Y-77995916D01*
X139409818Y-78047860D01*
X139422000Y-78101457D01*
X139422000Y-78484203D01*
X139404117Y-78548352D01*
X139376988Y-78593228D01*
X139376987Y-78593230D01*
X139328186Y-78749838D01*
X139328185Y-78749841D01*
X139328185Y-78749843D01*
X139322000Y-78817906D01*
X139322000Y-80577094D01*
X139328185Y-80645157D01*
X139328186Y-80645162D01*
X139328187Y-80645164D01*
X139376985Y-80801763D01*
X139376988Y-80801772D01*
X139461848Y-80942148D01*
X139461851Y-80942152D01*
X139577847Y-81058148D01*
X139577851Y-81058151D01*
X139718227Y-81143011D01*
X139718230Y-81143012D01*
X139874843Y-81191815D01*
X139942906Y-81198000D01*
X139942909Y-81198000D01*
X140402091Y-81198000D01*
X140402094Y-81198000D01*
X140470157Y-81191815D01*
X140626770Y-81143012D01*
X140627530Y-81142553D01*
X140767148Y-81058151D01*
X140767147Y-81058151D01*
X140767153Y-81058148D01*
X140883148Y-80942153D01*
X140891426Y-80928458D01*
X140968011Y-80801772D01*
X140968014Y-80801764D01*
X141004376Y-80685075D01*
X141043113Y-80626927D01*
X141107138Y-80598953D01*
X141176124Y-80610034D01*
X141228167Y-80656653D01*
X141241146Y-80685074D01*
X141277445Y-80801562D01*
X141277446Y-80801564D01*
X141362243Y-80941837D01*
X141362247Y-80941842D01*
X141478157Y-81057752D01*
X141478162Y-81057756D01*
X141618434Y-81142552D01*
X141774942Y-81191321D01*
X141774940Y-81191321D01*
X141822499Y-81195642D01*
X141822500Y-81195642D01*
X141822500Y-81195641D01*
X142322500Y-81195641D01*
X142370061Y-81191321D01*
X142370070Y-81191319D01*
X142526560Y-81142555D01*
X142526564Y-81142553D01*
X142666837Y-81057756D01*
X142666842Y-81057752D01*
X142782752Y-80941842D01*
X142782756Y-80941837D01*
X142867552Y-80801565D01*
X142916320Y-80645062D01*
X142922500Y-80577056D01*
X142922500Y-79947500D01*
X142322500Y-79947500D01*
X142322500Y-81195641D01*
X141822500Y-81195641D01*
X141822500Y-79749983D01*
X153449500Y-79749983D01*
X153449500Y-80750001D01*
X153449501Y-80750019D01*
X153460000Y-80852796D01*
X153460001Y-80852799D01*
X153515185Y-81019331D01*
X153515187Y-81019336D01*
X153539128Y-81058151D01*
X153607288Y-81168656D01*
X153731344Y-81292712D01*
X153880666Y-81384814D01*
X154047203Y-81439999D01*
X154149991Y-81450500D01*
X154950008Y-81450499D01*
X154950016Y-81450498D01*
X154950019Y-81450498D01*
X155006302Y-81444748D01*
X155052797Y-81439999D01*
X155219334Y-81384814D01*
X155368656Y-81292712D01*
X155462319Y-81199049D01*
X155523642Y-81165564D01*
X155593334Y-81170548D01*
X155637681Y-81199049D01*
X155731344Y-81292712D01*
X155880666Y-81384814D01*
X155914500Y-81396025D01*
X155971947Y-81435796D01*
X155998772Y-81500311D01*
X155999500Y-81513732D01*
X155999500Y-82410500D01*
X155979815Y-82477539D01*
X155927011Y-82523294D01*
X155875501Y-82534500D01*
X155752130Y-82534500D01*
X155752123Y-82534501D01*
X155692516Y-82540908D01*
X155557671Y-82591202D01*
X155557664Y-82591206D01*
X155442455Y-82677452D01*
X155442452Y-82677455D01*
X155356206Y-82792664D01*
X155356202Y-82792671D01*
X155305908Y-82927517D01*
X155299501Y-82987116D01*
X155299500Y-82987135D01*
X155299500Y-83508594D01*
X155279815Y-83575633D01*
X155244391Y-83611696D01*
X155146584Y-83677048D01*
X155146580Y-83677051D01*
X155042051Y-83781580D01*
X155042048Y-83781584D01*
X154959919Y-83904498D01*
X154959912Y-83904511D01*
X154903343Y-84041082D01*
X154903340Y-84041092D01*
X154874500Y-84186079D01*
X154874500Y-87814582D01*
X154854815Y-87881621D01*
X154823385Y-87914900D01*
X154777787Y-87948028D01*
X154777782Y-87948032D01*
X154633028Y-88092786D01*
X154512715Y-88258386D01*
X154419781Y-88440776D01*
X154356522Y-88635465D01*
X154324500Y-88837648D01*
X154324500Y-89842351D01*
X154356522Y-90044534D01*
X154419781Y-90239223D01*
X154480368Y-90358130D01*
X154505941Y-90408320D01*
X154512715Y-90421613D01*
X154633028Y-90587213D01*
X154777786Y-90731971D01*
X154932749Y-90844556D01*
X154943390Y-90852287D01*
X155010757Y-90886612D01*
X155125776Y-90945218D01*
X155125778Y-90945218D01*
X155125781Y-90945220D01*
X155230137Y-90979127D01*
X155320465Y-91008477D01*
X155412083Y-91022988D01*
X155522648Y-91040500D01*
X155522649Y-91040500D01*
X155727351Y-91040500D01*
X155727352Y-91040500D01*
X155929534Y-91008477D01*
X156124219Y-90945220D01*
X156306610Y-90852287D01*
X156399590Y-90784732D01*
X156472213Y-90731971D01*
X156472215Y-90731968D01*
X156472219Y-90731966D01*
X156616966Y-90587219D01*
X156616968Y-90587215D01*
X156616971Y-90587213D01*
X156737284Y-90421614D01*
X156737285Y-90421613D01*
X156737287Y-90421610D01*
X156784795Y-90328369D01*
X156832770Y-90277574D01*
X156900591Y-90260779D01*
X156966725Y-90283316D01*
X157005765Y-90328370D01*
X157053140Y-90421349D01*
X157173417Y-90586894D01*
X157173417Y-90586895D01*
X157318104Y-90731582D01*
X157483650Y-90851859D01*
X157665968Y-90944754D01*
X157860578Y-91007988D01*
X157915000Y-91016607D01*
X157915000Y-89655686D01*
X157919394Y-89660080D01*
X158010606Y-89712741D01*
X158112339Y-89740000D01*
X158217661Y-89740000D01*
X158319394Y-89712741D01*
X158410606Y-89660080D01*
X158415000Y-89655686D01*
X158415000Y-91016606D01*
X158469421Y-91007988D01*
X158664031Y-90944754D01*
X158846349Y-90851859D01*
X159011894Y-90731582D01*
X159011895Y-90731582D01*
X159156582Y-90586895D01*
X159156582Y-90586894D01*
X159276859Y-90421349D01*
X159369755Y-90239031D01*
X159432990Y-90044417D01*
X159465000Y-89842317D01*
X159465000Y-89590000D01*
X158480686Y-89590000D01*
X158485080Y-89585606D01*
X158537741Y-89494394D01*
X158565000Y-89392661D01*
X158565000Y-89287339D01*
X158537741Y-89185606D01*
X158485080Y-89094394D01*
X158480686Y-89090000D01*
X159465000Y-89090000D01*
X159465000Y-88837682D01*
X159432990Y-88635582D01*
X159369755Y-88440968D01*
X159276859Y-88258650D01*
X159156582Y-88093105D01*
X159156582Y-88093104D01*
X159011895Y-87948417D01*
X158846349Y-87828140D01*
X158664029Y-87735244D01*
X158469413Y-87672009D01*
X158415000Y-87663390D01*
X158415000Y-89024314D01*
X158410606Y-89019920D01*
X158319394Y-88967259D01*
X158217661Y-88940000D01*
X158112339Y-88940000D01*
X158010606Y-88967259D01*
X157919394Y-89019920D01*
X157915000Y-89024314D01*
X157915000Y-87663390D01*
X157860586Y-87672009D01*
X157665970Y-87735244D01*
X157483650Y-87828140D01*
X157318105Y-87948417D01*
X157318104Y-87948417D01*
X157173417Y-88093104D01*
X157173417Y-88093105D01*
X157053140Y-88258650D01*
X157005765Y-88351629D01*
X156957790Y-88402425D01*
X156889969Y-88419220D01*
X156823834Y-88396682D01*
X156784795Y-88351629D01*
X156763386Y-88309612D01*
X156737287Y-88258390D01*
X156723913Y-88239982D01*
X156616971Y-88092786D01*
X156472217Y-87948032D01*
X156472212Y-87948028D01*
X156426615Y-87914900D01*
X156383949Y-87859571D01*
X156375500Y-87814582D01*
X156375500Y-85259499D01*
X156395185Y-85192460D01*
X156447989Y-85146705D01*
X156499500Y-85135499D01*
X157447871Y-85135499D01*
X157447872Y-85135499D01*
X157507483Y-85129091D01*
X157642331Y-85078796D01*
X157757546Y-84992546D01*
X157764350Y-84983455D01*
X157820280Y-84941584D01*
X157889971Y-84936597D01*
X157934740Y-84956188D01*
X157947512Y-84965130D01*
X157947518Y-84965134D01*
X158153673Y-85061265D01*
X158153682Y-85061269D01*
X158373389Y-85120139D01*
X158373400Y-85120141D01*
X158599998Y-85139966D01*
X158600002Y-85139966D01*
X158826599Y-85120141D01*
X158826610Y-85120139D01*
X159046317Y-85061269D01*
X159046331Y-85061264D01*
X159252478Y-84965136D01*
X159325471Y-84914024D01*
X158646447Y-84235000D01*
X158652661Y-84235000D01*
X158754394Y-84207741D01*
X158845606Y-84155080D01*
X158920080Y-84080606D01*
X158972741Y-83989394D01*
X159000000Y-83887661D01*
X159000000Y-83881447D01*
X159679024Y-84560471D01*
X159730136Y-84487478D01*
X159826264Y-84281331D01*
X159826269Y-84281317D01*
X159885139Y-84061610D01*
X159885141Y-84061599D01*
X159904966Y-83835002D01*
X159904966Y-83834997D01*
X159885141Y-83608400D01*
X159885139Y-83608389D01*
X159826269Y-83388682D01*
X159826264Y-83388668D01*
X159730136Y-83182521D01*
X159730132Y-83182513D01*
X159679025Y-83109526D01*
X159000000Y-83788551D01*
X159000000Y-83782339D01*
X158972741Y-83680606D01*
X158920080Y-83589394D01*
X158845606Y-83514920D01*
X158754394Y-83462259D01*
X158652661Y-83435000D01*
X158646447Y-83435000D01*
X159325472Y-82755974D01*
X159252478Y-82704863D01*
X159046331Y-82608735D01*
X159046317Y-82608730D01*
X158826610Y-82549860D01*
X158826599Y-82549858D01*
X158600002Y-82530034D01*
X158599998Y-82530034D01*
X158373400Y-82549858D01*
X158373389Y-82549860D01*
X158153682Y-82608730D01*
X158153673Y-82608734D01*
X157947512Y-82704868D01*
X157947507Y-82704871D01*
X157934736Y-82713813D01*
X157868529Y-82736138D01*
X157800763Y-82719124D01*
X157764352Y-82686546D01*
X157757546Y-82677454D01*
X157757544Y-82677453D01*
X157757544Y-82677452D01*
X157642335Y-82591206D01*
X157642328Y-82591202D01*
X157507482Y-82540908D01*
X157507483Y-82540908D01*
X157447883Y-82534501D01*
X157447881Y-82534500D01*
X157447873Y-82534500D01*
X157447865Y-82534500D01*
X157324500Y-82534500D01*
X157257461Y-82514815D01*
X157211706Y-82462011D01*
X157200500Y-82410500D01*
X157200500Y-81465638D01*
X157220185Y-81398599D01*
X157259401Y-81360100D01*
X157368656Y-81292712D01*
X157492712Y-81168656D01*
X157584814Y-81019334D01*
X157639999Y-80852797D01*
X157650500Y-80750009D01*
X157650499Y-79764983D01*
X159899500Y-79764983D01*
X159899500Y-80765001D01*
X159899501Y-80765019D01*
X159910000Y-80867796D01*
X159910001Y-80867799D01*
X159965185Y-81034331D01*
X159965187Y-81034336D01*
X159979876Y-81058151D01*
X160057288Y-81183656D01*
X160181344Y-81307712D01*
X160330666Y-81399814D01*
X160497203Y-81454999D01*
X160599991Y-81465500D01*
X161400008Y-81465499D01*
X161400016Y-81465498D01*
X161400019Y-81465498D01*
X161456302Y-81459748D01*
X161502797Y-81454999D01*
X161669334Y-81399814D01*
X161818656Y-81307712D01*
X161912319Y-81214049D01*
X161973642Y-81180564D01*
X162043334Y-81185548D01*
X162087681Y-81214049D01*
X162181344Y-81307712D01*
X162330666Y-81399814D01*
X162330668Y-81399814D01*
X162335484Y-81402785D01*
X162382209Y-81454732D01*
X162394388Y-81508324D01*
X162394388Y-82375500D01*
X162374703Y-82442539D01*
X162321899Y-82488294D01*
X162270389Y-82499500D01*
X162147018Y-82499500D01*
X162147011Y-82499501D01*
X162087404Y-82505908D01*
X161952559Y-82556202D01*
X161952552Y-82556206D01*
X161837343Y-82642452D01*
X161837340Y-82642455D01*
X161751094Y-82757664D01*
X161751090Y-82757671D01*
X161700796Y-82892517D01*
X161694389Y-82952116D01*
X161694388Y-82952135D01*
X161694388Y-83677009D01*
X161674703Y-83744048D01*
X161639279Y-83780111D01*
X161546584Y-83842048D01*
X161546580Y-83842051D01*
X161442051Y-83946580D01*
X161442048Y-83946584D01*
X161359919Y-84069498D01*
X161359912Y-84069511D01*
X161303343Y-84206082D01*
X161303340Y-84206092D01*
X161274500Y-84351079D01*
X161274500Y-87829582D01*
X161254815Y-87896621D01*
X161223385Y-87929900D01*
X161177787Y-87963028D01*
X161177782Y-87963032D01*
X161033028Y-88107786D01*
X160912715Y-88273386D01*
X160819781Y-88455776D01*
X160756522Y-88650465D01*
X160724500Y-88852648D01*
X160724500Y-89857351D01*
X160756522Y-90059534D01*
X160819781Y-90254223D01*
X160912715Y-90436613D01*
X161033028Y-90602213D01*
X161177786Y-90746971D01*
X161322155Y-90851859D01*
X161343390Y-90867287D01*
X161459607Y-90926503D01*
X161525776Y-90960218D01*
X161525778Y-90960218D01*
X161525781Y-90960220D01*
X161630137Y-90994127D01*
X161720465Y-91023477D01*
X161821557Y-91039488D01*
X161922648Y-91055500D01*
X161922649Y-91055500D01*
X162127351Y-91055500D01*
X162127352Y-91055500D01*
X162329534Y-91023477D01*
X162524219Y-90960220D01*
X162706610Y-90867287D01*
X162799590Y-90799732D01*
X162872213Y-90746971D01*
X162872215Y-90746968D01*
X162872219Y-90746966D01*
X163016966Y-90602219D01*
X163016968Y-90602215D01*
X163016971Y-90602213D01*
X163137284Y-90436614D01*
X163137285Y-90436613D01*
X163137287Y-90436610D01*
X163184795Y-90343369D01*
X163232770Y-90292574D01*
X163300591Y-90275779D01*
X163366725Y-90298316D01*
X163405765Y-90343370D01*
X163453140Y-90436349D01*
X163573417Y-90601894D01*
X163573417Y-90601895D01*
X163718104Y-90746582D01*
X163883650Y-90866859D01*
X164065968Y-90959754D01*
X164260578Y-91022988D01*
X164315000Y-91031607D01*
X164315000Y-89670686D01*
X164319394Y-89675080D01*
X164410606Y-89727741D01*
X164512339Y-89755000D01*
X164617661Y-89755000D01*
X164719394Y-89727741D01*
X164810606Y-89675080D01*
X164815000Y-89670686D01*
X164815000Y-91031606D01*
X164869421Y-91022988D01*
X165064031Y-90959754D01*
X165246349Y-90866859D01*
X165411894Y-90746582D01*
X165411895Y-90746582D01*
X165556582Y-90601895D01*
X165556582Y-90601894D01*
X165676859Y-90436349D01*
X165769755Y-90254031D01*
X165832990Y-90059417D01*
X165865000Y-89857317D01*
X165865000Y-89605000D01*
X164880686Y-89605000D01*
X164885080Y-89600606D01*
X164937741Y-89509394D01*
X164965000Y-89407661D01*
X164965000Y-89302339D01*
X164937741Y-89200606D01*
X164885080Y-89109394D01*
X164880686Y-89105000D01*
X165865000Y-89105000D01*
X165865000Y-88852682D01*
X165832990Y-88650582D01*
X165769755Y-88455968D01*
X165676859Y-88273650D01*
X165556582Y-88108105D01*
X165556582Y-88108104D01*
X165411895Y-87963417D01*
X165246349Y-87843140D01*
X165064029Y-87750244D01*
X164869413Y-87687009D01*
X164815000Y-87678390D01*
X164815000Y-89039314D01*
X164810606Y-89034920D01*
X164719394Y-88982259D01*
X164617661Y-88955000D01*
X164512339Y-88955000D01*
X164410606Y-88982259D01*
X164319394Y-89034920D01*
X164315000Y-89039314D01*
X164315000Y-87678390D01*
X164260586Y-87687009D01*
X164065970Y-87750244D01*
X163883650Y-87843140D01*
X163718105Y-87963417D01*
X163718104Y-87963417D01*
X163573417Y-88108104D01*
X163573417Y-88108105D01*
X163453140Y-88273650D01*
X163405765Y-88366629D01*
X163357790Y-88417425D01*
X163289969Y-88434220D01*
X163223834Y-88411682D01*
X163184795Y-88366629D01*
X163167429Y-88332547D01*
X163137287Y-88273390D01*
X163118511Y-88247547D01*
X163016971Y-88107786D01*
X162872217Y-87963032D01*
X162872212Y-87963028D01*
X162826615Y-87929900D01*
X162783949Y-87874571D01*
X162775500Y-87829582D01*
X162775500Y-85224499D01*
X162795185Y-85157460D01*
X162847989Y-85111705D01*
X162899500Y-85100499D01*
X163842759Y-85100499D01*
X163842760Y-85100499D01*
X163902371Y-85094091D01*
X164037219Y-85043796D01*
X164152434Y-84957546D01*
X164159238Y-84948455D01*
X164215168Y-84906584D01*
X164284859Y-84901597D01*
X164329628Y-84921188D01*
X164342400Y-84930130D01*
X164342406Y-84930134D01*
X164548561Y-85026265D01*
X164548570Y-85026269D01*
X164768277Y-85085139D01*
X164768288Y-85085141D01*
X164994886Y-85104966D01*
X164994890Y-85104966D01*
X165221487Y-85085141D01*
X165221498Y-85085139D01*
X165441205Y-85026269D01*
X165441219Y-85026264D01*
X165647366Y-84930136D01*
X165720359Y-84879024D01*
X165041335Y-84200000D01*
X165047549Y-84200000D01*
X165149282Y-84172741D01*
X165240494Y-84120080D01*
X165314968Y-84045606D01*
X165367629Y-83954394D01*
X165394888Y-83852661D01*
X165394888Y-83846447D01*
X166073912Y-84525471D01*
X166125024Y-84452478D01*
X166221152Y-84246331D01*
X166221157Y-84246317D01*
X166280027Y-84026610D01*
X166280029Y-84026599D01*
X166299854Y-83800002D01*
X166299854Y-83799997D01*
X166280029Y-83573400D01*
X166280027Y-83573389D01*
X166221157Y-83353682D01*
X166221152Y-83353668D01*
X166125024Y-83147521D01*
X166125020Y-83147513D01*
X166073913Y-83074526D01*
X165394888Y-83753551D01*
X165394888Y-83747339D01*
X165367629Y-83645606D01*
X165314968Y-83554394D01*
X165240494Y-83479920D01*
X165149282Y-83427259D01*
X165047549Y-83400000D01*
X165041335Y-83400000D01*
X165720360Y-82720974D01*
X165647366Y-82669863D01*
X165441219Y-82573735D01*
X165441205Y-82573730D01*
X165221498Y-82514860D01*
X165221487Y-82514858D01*
X164994890Y-82495034D01*
X164994886Y-82495034D01*
X164768288Y-82514858D01*
X164768277Y-82514860D01*
X164548570Y-82573730D01*
X164548561Y-82573734D01*
X164342400Y-82669868D01*
X164342395Y-82669871D01*
X164329624Y-82678813D01*
X164263417Y-82701138D01*
X164195651Y-82684124D01*
X164159240Y-82651546D01*
X164152434Y-82642454D01*
X164152432Y-82642453D01*
X164152432Y-82642452D01*
X164037223Y-82556206D01*
X164037216Y-82556202D01*
X163902370Y-82505908D01*
X163902371Y-82505908D01*
X163842771Y-82499501D01*
X163842769Y-82499500D01*
X163842761Y-82499500D01*
X163842753Y-82499500D01*
X163719388Y-82499500D01*
X163652349Y-82479815D01*
X163606594Y-82427011D01*
X163595388Y-82375500D01*
X163595388Y-81513291D01*
X163615073Y-81446252D01*
X163663437Y-81404011D01*
X163663187Y-81403605D01*
X163665625Y-81402101D01*
X163666997Y-81400903D01*
X163669323Y-81399817D01*
X163669334Y-81399814D01*
X163818656Y-81307712D01*
X163942712Y-81183656D01*
X164034814Y-81034334D01*
X164089999Y-80867797D01*
X164100500Y-80765009D01*
X164100499Y-79764992D01*
X164098967Y-79749998D01*
X164089999Y-79662203D01*
X164089998Y-79662200D01*
X164080156Y-79632500D01*
X164034814Y-79495666D01*
X163942712Y-79346344D01*
X163818656Y-79222288D01*
X163669334Y-79130186D01*
X163502797Y-79075001D01*
X163502795Y-79075000D01*
X163400010Y-79064500D01*
X162599998Y-79064500D01*
X162599980Y-79064501D01*
X162497203Y-79075000D01*
X162497200Y-79075001D01*
X162330668Y-79130185D01*
X162330663Y-79130187D01*
X162181342Y-79222289D01*
X162087681Y-79315951D01*
X162026358Y-79349436D01*
X161956666Y-79344452D01*
X161912319Y-79315951D01*
X161818657Y-79222289D01*
X161818656Y-79222288D01*
X161669334Y-79130186D01*
X161669332Y-79130185D01*
X161663187Y-79126395D01*
X161664290Y-79124605D01*
X161619649Y-79085290D01*
X161600500Y-79019091D01*
X161600500Y-78782412D01*
X161620185Y-78715373D01*
X161627555Y-78705097D01*
X161629810Y-78702267D01*
X161629816Y-78702262D01*
X161725789Y-78549522D01*
X161785368Y-78379255D01*
X161787058Y-78364256D01*
X161805565Y-78200003D01*
X161805565Y-78199996D01*
X161785369Y-78020750D01*
X161785368Y-78020745D01*
X161763179Y-77957332D01*
X161725789Y-77850478D01*
X161629816Y-77697738D01*
X161502262Y-77570184D01*
X161470612Y-77550297D01*
X161349523Y-77474211D01*
X161179254Y-77414631D01*
X161179249Y-77414630D01*
X161000004Y-77394435D01*
X160999996Y-77394435D01*
X160820750Y-77414630D01*
X160820745Y-77414631D01*
X160650476Y-77474211D01*
X160497737Y-77570184D01*
X160370184Y-77697737D01*
X160274211Y-77850476D01*
X160214631Y-78020745D01*
X160214630Y-78020750D01*
X160194435Y-78199996D01*
X160194435Y-78200003D01*
X160214630Y-78379249D01*
X160214631Y-78379254D01*
X160274211Y-78549523D01*
X160301803Y-78593435D01*
X160357571Y-78682189D01*
X160370185Y-78702263D01*
X160372445Y-78705097D01*
X160373334Y-78707275D01*
X160373889Y-78708158D01*
X160373734Y-78708255D01*
X160398855Y-78769783D01*
X160399500Y-78782412D01*
X160399500Y-79019091D01*
X160379815Y-79086130D01*
X160335731Y-79124641D01*
X160336813Y-79126395D01*
X160330667Y-79130185D01*
X160330666Y-79130186D01*
X160232419Y-79190784D01*
X160181342Y-79222289D01*
X160057289Y-79346342D01*
X159965187Y-79495663D01*
X159965185Y-79495668D01*
X159956597Y-79521585D01*
X159910001Y-79662203D01*
X159910001Y-79662204D01*
X159910000Y-79662204D01*
X159899500Y-79764983D01*
X157650499Y-79764983D01*
X157650499Y-79749992D01*
X157639999Y-79647203D01*
X157584814Y-79480666D01*
X157492712Y-79331344D01*
X157368656Y-79207288D01*
X157243653Y-79130186D01*
X157219336Y-79115187D01*
X157219331Y-79115185D01*
X157217862Y-79114698D01*
X157052797Y-79060001D01*
X157052795Y-79060000D01*
X156950010Y-79049500D01*
X156149998Y-79049500D01*
X156149980Y-79049501D01*
X156047203Y-79060000D01*
X156047200Y-79060001D01*
X155880668Y-79115185D01*
X155880663Y-79115187D01*
X155731342Y-79207289D01*
X155637681Y-79300951D01*
X155576358Y-79334436D01*
X155506666Y-79329452D01*
X155462319Y-79300951D01*
X155368657Y-79207289D01*
X155368656Y-79207288D01*
X155219334Y-79115186D01*
X155219332Y-79115185D01*
X155213187Y-79111395D01*
X155214290Y-79109605D01*
X155169649Y-79070290D01*
X155150500Y-79004091D01*
X155150500Y-78782412D01*
X155170185Y-78715373D01*
X155177555Y-78705097D01*
X155179810Y-78702267D01*
X155179816Y-78702262D01*
X155275789Y-78549522D01*
X155335368Y-78379255D01*
X155337058Y-78364256D01*
X155355565Y-78200003D01*
X155355565Y-78199996D01*
X155335369Y-78020750D01*
X155335368Y-78020745D01*
X155313179Y-77957332D01*
X155275789Y-77850478D01*
X155179816Y-77697738D01*
X155052262Y-77570184D01*
X155020612Y-77550297D01*
X154899523Y-77474211D01*
X154729254Y-77414631D01*
X154729249Y-77414630D01*
X154550004Y-77394435D01*
X154549996Y-77394435D01*
X154370750Y-77414630D01*
X154370745Y-77414631D01*
X154200476Y-77474211D01*
X154047737Y-77570184D01*
X153920184Y-77697737D01*
X153824211Y-77850476D01*
X153764631Y-78020745D01*
X153764630Y-78020750D01*
X153744435Y-78199996D01*
X153744435Y-78200003D01*
X153764630Y-78379249D01*
X153764631Y-78379254D01*
X153824211Y-78549523D01*
X153851803Y-78593435D01*
X153907571Y-78682189D01*
X153920185Y-78702263D01*
X153922445Y-78705097D01*
X153923334Y-78707275D01*
X153923889Y-78708158D01*
X153923734Y-78708255D01*
X153948855Y-78769783D01*
X153949500Y-78782412D01*
X153949500Y-79004091D01*
X153929815Y-79071130D01*
X153885731Y-79109641D01*
X153886813Y-79111395D01*
X153880667Y-79115185D01*
X153880666Y-79115186D01*
X153782419Y-79175784D01*
X153731342Y-79207289D01*
X153607289Y-79331342D01*
X153515187Y-79480663D01*
X153515186Y-79480666D01*
X153460001Y-79647203D01*
X153460001Y-79647204D01*
X153460000Y-79647204D01*
X153449500Y-79749983D01*
X141822500Y-79749983D01*
X141822500Y-78271499D01*
X141842185Y-78204460D01*
X141848075Y-78199356D01*
X142322500Y-78199356D01*
X142322500Y-79447500D01*
X142922499Y-79447500D01*
X142922499Y-78817933D01*
X142916321Y-78749938D01*
X142916318Y-78749927D01*
X142867555Y-78593439D01*
X142867553Y-78593435D01*
X142782756Y-78453162D01*
X142782752Y-78453157D01*
X142661539Y-78331944D01*
X142663672Y-78329810D01*
X142631088Y-78284253D01*
X142627617Y-78214469D01*
X142662426Y-78153887D01*
X142709179Y-78125745D01*
X142841619Y-78081858D01*
X142841624Y-78081856D01*
X142990845Y-77989815D01*
X143114815Y-77865845D01*
X143206856Y-77716624D01*
X143206858Y-77716619D01*
X143262005Y-77550197D01*
X143262006Y-77550190D01*
X143272499Y-77447486D01*
X143272500Y-77447473D01*
X143272500Y-77197500D01*
X142422500Y-77197500D01*
X142422500Y-78072664D01*
X142402815Y-78139703D01*
X142350011Y-78185458D01*
X142334896Y-78188035D01*
X142322500Y-78199356D01*
X141848075Y-78199356D01*
X141894989Y-78158705D01*
X141915826Y-78154171D01*
X141922500Y-78147498D01*
X141922500Y-76697500D01*
X142422500Y-76697500D01*
X143272499Y-76697500D01*
X143272499Y-76447528D01*
X143272498Y-76447513D01*
X143262005Y-76344802D01*
X143206858Y-76178380D01*
X143206856Y-76178375D01*
X143114815Y-76029154D01*
X142990845Y-75905184D01*
X142841624Y-75813143D01*
X142841619Y-75813141D01*
X142675197Y-75757994D01*
X142675190Y-75757993D01*
X142572486Y-75747500D01*
X142422500Y-75747500D01*
X142422500Y-76697500D01*
X141922500Y-76697500D01*
X141922500Y-75747500D01*
X141772527Y-75747500D01*
X141772512Y-75747501D01*
X141669802Y-75757994D01*
X141503380Y-75813141D01*
X141503375Y-75813143D01*
X141354157Y-75905182D01*
X141260534Y-75998805D01*
X141199210Y-76032289D01*
X141129519Y-76027305D01*
X141085172Y-75998804D01*
X140991155Y-75904787D01*
X140981902Y-75899080D01*
X140935178Y-75847132D01*
X140923000Y-75793542D01*
X140923000Y-74728561D01*
X140929959Y-74687606D01*
X140985366Y-74529262D01*
X140985369Y-74529249D01*
X141005565Y-74350003D01*
X141005565Y-74349996D01*
X140985369Y-74170750D01*
X140985368Y-74170745D01*
X140955588Y-74085639D01*
X140925789Y-74000478D01*
X140829816Y-73847738D01*
X140702262Y-73720184D01*
X140661332Y-73694466D01*
X140549523Y-73624211D01*
X140379254Y-73564631D01*
X140379249Y-73564630D01*
X140200004Y-73544435D01*
X140199996Y-73544435D01*
X140020750Y-73564630D01*
X140020745Y-73564631D01*
X139850476Y-73624211D01*
X139697737Y-73720184D01*
X139570184Y-73847737D01*
X139474211Y-74000476D01*
X139414631Y-74170745D01*
X139414630Y-74170750D01*
X139394435Y-74349996D01*
X139394435Y-74350003D01*
X139414630Y-74529249D01*
X139414631Y-74529254D01*
X139414632Y-74529255D01*
X139415042Y-74530428D01*
X139415458Y-74532877D01*
X139416180Y-74536037D01*
X139416002Y-74536077D01*
X139422000Y-74571379D01*
X139422000Y-75793542D01*
X139402315Y-75860581D01*
X139363098Y-75899080D01*
X139353844Y-75904787D01*
X139229789Y-76028842D01*
X139137687Y-76178163D01*
X139137685Y-76178168D01*
X139109849Y-76262170D01*
X139082501Y-76344703D01*
X139082501Y-76344704D01*
X139082500Y-76344704D01*
X139072000Y-76447483D01*
X129733100Y-76447483D01*
X129711858Y-76383380D01*
X129711856Y-76383375D01*
X129619815Y-76234154D01*
X129495845Y-76110184D01*
X129346624Y-76018143D01*
X129346619Y-76018141D01*
X129180197Y-75962994D01*
X129180190Y-75962993D01*
X129077486Y-75952500D01*
X128927500Y-75952500D01*
X128927500Y-76902500D01*
X128427500Y-76902500D01*
X128427500Y-75952500D01*
X128277527Y-75952500D01*
X128277512Y-75952501D01*
X128174802Y-75962994D01*
X128008380Y-76018141D01*
X128008375Y-76018143D01*
X127859157Y-76110182D01*
X127765534Y-76203805D01*
X127704210Y-76237289D01*
X127634519Y-76232305D01*
X127590172Y-76203804D01*
X127496155Y-76109787D01*
X127486902Y-76104080D01*
X127440178Y-76052132D01*
X127428000Y-75998542D01*
X127428000Y-73834728D01*
X127447685Y-73767689D01*
X127464315Y-73747051D01*
X127808059Y-73403306D01*
X127844132Y-73380657D01*
X127843244Y-73378813D01*
X127849515Y-73375792D01*
X127849516Y-73375790D01*
X127849522Y-73375789D01*
X128002262Y-73279816D01*
X128129816Y-73152262D01*
X128225789Y-72999522D01*
X128285368Y-72829255D01*
X128292877Y-72762613D01*
X128305565Y-72650003D01*
X128305565Y-72649996D01*
X128285369Y-72470750D01*
X128285368Y-72470745D01*
X128265733Y-72414631D01*
X128225789Y-72300478D01*
X128129816Y-72147738D01*
X128002262Y-72020184D01*
X127849523Y-71924211D01*
X127679254Y-71864631D01*
X127679249Y-71864630D01*
X127500004Y-71844435D01*
X127499996Y-71844435D01*
X127320750Y-71864630D01*
X127320745Y-71864631D01*
X127150476Y-71924211D01*
X126997737Y-72020184D01*
X126870184Y-72147737D01*
X126774208Y-72300483D01*
X126771186Y-72306758D01*
X126769361Y-72305878D01*
X126746692Y-72341939D01*
X126094545Y-72994086D01*
X126061745Y-73043179D01*
X126061743Y-73043182D01*
X126012419Y-73116999D01*
X126012412Y-73117011D01*
X125955843Y-73253582D01*
X125955840Y-73253592D01*
X125927000Y-73398579D01*
X125927000Y-75998542D01*
X125907315Y-76065581D01*
X125868098Y-76104080D01*
X125858844Y-76109787D01*
X125734789Y-76233842D01*
X125642687Y-76383163D01*
X125642685Y-76383168D01*
X125614849Y-76467170D01*
X125587501Y-76549703D01*
X125587501Y-76549704D01*
X125587500Y-76549704D01*
X125577000Y-76652483D01*
X115168884Y-76652483D01*
X116032049Y-75789317D01*
X116093372Y-75755833D01*
X116119730Y-75752999D01*
X117065528Y-75752999D01*
X117065536Y-75752999D01*
X117184918Y-75742386D01*
X117380549Y-75686409D01*
X117560907Y-75592198D01*
X117718609Y-75463609D01*
X117847198Y-75305907D01*
X117941409Y-75125549D01*
X117997386Y-74929918D01*
X118008000Y-74810537D01*
X118007999Y-73694464D01*
X117997386Y-73575082D01*
X117941409Y-73379451D01*
X117847198Y-73199093D01*
X117761666Y-73094196D01*
X117718609Y-73041390D01*
X117587904Y-72934815D01*
X117560907Y-72912802D01*
X117380549Y-72818591D01*
X117380548Y-72818590D01*
X117380545Y-72818589D01*
X117263329Y-72785050D01*
X117184918Y-72762614D01*
X117184915Y-72762613D01*
X117184913Y-72762613D01*
X117112131Y-72756142D01*
X117065537Y-72752000D01*
X117065533Y-72752000D01*
X116897000Y-72752000D01*
X116829961Y-72732315D01*
X116784206Y-72679511D01*
X116773000Y-72628000D01*
X116773000Y-66610366D01*
X116792685Y-66543327D01*
X116797733Y-66536055D01*
X116815398Y-66512458D01*
X116887546Y-66416081D01*
X116937841Y-66281233D01*
X116944250Y-66221623D01*
X116944249Y-65185978D01*
X116963933Y-65118940D01*
X116980563Y-65098303D01*
X118581702Y-63497166D01*
X118660486Y-63379255D01*
X118663834Y-63374245D01*
X118720408Y-63237663D01*
X118749250Y-63092668D01*
X118749250Y-62227707D01*
X118768935Y-62160668D01*
X118808157Y-62122166D01*
X118817406Y-62116462D01*
X118941462Y-61992406D01*
X119033564Y-61843084D01*
X119088749Y-61676547D01*
X119099250Y-61573759D01*
X119099249Y-60573742D01*
X119088749Y-60470953D01*
X119033564Y-60304416D01*
X118941462Y-60155094D01*
X118817406Y-60031038D01*
X118668084Y-59938936D01*
X118501547Y-59883751D01*
X118501545Y-59883750D01*
X118398760Y-59873250D01*
X117598748Y-59873250D01*
X117598730Y-59873251D01*
X117495953Y-59883750D01*
X117495950Y-59883751D01*
X117329418Y-59938935D01*
X117329413Y-59938937D01*
X117180092Y-60031039D01*
X117086431Y-60124701D01*
X117025108Y-60158186D01*
X116955416Y-60153202D01*
X116911069Y-60124701D01*
X116817407Y-60031039D01*
X116817406Y-60031038D01*
X116668084Y-59938936D01*
X116501547Y-59883751D01*
X116501545Y-59883750D01*
X116398760Y-59873250D01*
X115598748Y-59873250D01*
X115598730Y-59873251D01*
X115495953Y-59883750D01*
X115495950Y-59883751D01*
X115329418Y-59938935D01*
X115329413Y-59938937D01*
X115180092Y-60031039D01*
X115056039Y-60155092D01*
X115031943Y-60194158D01*
X114997031Y-60250761D01*
X114988651Y-60264347D01*
X114936703Y-60311071D01*
X114883112Y-60323250D01*
X114348435Y-60323250D01*
X114281396Y-60303565D01*
X114244627Y-60267072D01*
X114207734Y-60210604D01*
X114207732Y-60210602D01*
X114207729Y-60210597D01*
X114050534Y-60039837D01*
X114050529Y-60039833D01*
X114050527Y-60039831D01*
X113867384Y-59897285D01*
X113867378Y-59897281D01*
X113663254Y-59786814D01*
X113663245Y-59786811D01*
X113443734Y-59711452D01*
X113253200Y-59679658D01*
X113214799Y-59673250D01*
X112982701Y-59673250D01*
X112944300Y-59679658D01*
X112753765Y-59711452D01*
X112534254Y-59786811D01*
X112534245Y-59786814D01*
X112330121Y-59897281D01*
X112330115Y-59897285D01*
X112146972Y-60039831D01*
X112146968Y-60039835D01*
X112138616Y-60048908D01*
X112078729Y-60084898D01*
X112008891Y-60082797D01*
X111951275Y-60043272D01*
X111931205Y-60008257D01*
X111902547Y-59931421D01*
X111902543Y-59931414D01*
X111816297Y-59816205D01*
X111816294Y-59816202D01*
X111701085Y-59729956D01*
X111701078Y-59729952D01*
X111566232Y-59679658D01*
X111566233Y-59679658D01*
X111506633Y-59673251D01*
X111506631Y-59673250D01*
X111506623Y-59673250D01*
X111506614Y-59673250D01*
X109610879Y-59673250D01*
X109610873Y-59673251D01*
X109551266Y-59679658D01*
X109416421Y-59729952D01*
X109416414Y-59729956D01*
X109301205Y-59816202D01*
X109301202Y-59816205D01*
X109214956Y-59931414D01*
X109214952Y-59931421D01*
X109164658Y-60066267D01*
X109158251Y-60125866D01*
X109158250Y-60125885D01*
X109158250Y-60199250D01*
X109138565Y-60266289D01*
X109085761Y-60312044D01*
X109034250Y-60323250D01*
X108050750Y-60323250D01*
X107983711Y-60303565D01*
X107937956Y-60250761D01*
X107926750Y-60199250D01*
X107926750Y-60194158D01*
X107923200Y-60155094D01*
X107920565Y-60126093D01*
X107871762Y-59969480D01*
X107871761Y-59969477D01*
X107786901Y-59829101D01*
X107786898Y-59829097D01*
X107670902Y-59713101D01*
X107670898Y-59713098D01*
X107530522Y-59628238D01*
X107530513Y-59628235D01*
X107373914Y-59579437D01*
X107373912Y-59579436D01*
X107373907Y-59579435D01*
X107305844Y-59573250D01*
X106846656Y-59573250D01*
X106778593Y-59579435D01*
X106778589Y-59579436D01*
X106778585Y-59579437D01*
X106621986Y-59628235D01*
X106621977Y-59628238D01*
X106481601Y-59713098D01*
X106481597Y-59713101D01*
X106365601Y-59829097D01*
X106365598Y-59829101D01*
X106280738Y-59969477D01*
X106280735Y-59969486D01*
X106231937Y-60126085D01*
X106231935Y-60126093D01*
X106225750Y-60194156D01*
X106225750Y-61953344D01*
X106231935Y-62021407D01*
X106231936Y-62021412D01*
X106231937Y-62021414D01*
X106280735Y-62178013D01*
X106280737Y-62178017D01*
X106280738Y-62178020D01*
X106307867Y-62222897D01*
X106325750Y-62287046D01*
X106325750Y-64500168D01*
X106325750Y-64500170D01*
X106325749Y-64500170D01*
X106354590Y-64645157D01*
X106354593Y-64645167D01*
X106411164Y-64781742D01*
X106411165Y-64781744D01*
X106411166Y-64781745D01*
X106430490Y-64810666D01*
X106444062Y-64830977D01*
X106444063Y-64830980D01*
X106493296Y-64904664D01*
X106493302Y-64904671D01*
X106697032Y-65108400D01*
X106730517Y-65169723D01*
X106732879Y-65206887D01*
X106718282Y-65373746D01*
X106718282Y-65373753D01*
X106732879Y-65540611D01*
X106719112Y-65609110D01*
X106697032Y-65639098D01*
X105724549Y-66611581D01*
X105675312Y-66685271D01*
X105642421Y-66734496D01*
X105642414Y-66734508D01*
X105585842Y-66871086D01*
X105585840Y-66871092D01*
X105557000Y-67016079D01*
X105557000Y-72878628D01*
X105537315Y-72945667D01*
X105492022Y-72987679D01*
X105483991Y-72992026D01*
X105353167Y-73093850D01*
X105287757Y-73144761D01*
X105119333Y-73327717D01*
X104983326Y-73535893D01*
X104883436Y-73763618D01*
X104822392Y-74004675D01*
X104822390Y-74004687D01*
X104801857Y-74252494D01*
X104801857Y-74252505D01*
X104822390Y-74500312D01*
X104822392Y-74500324D01*
X104883436Y-74741381D01*
X104983326Y-74969106D01*
X105119333Y-75177282D01*
X105119336Y-75177285D01*
X105287756Y-75360238D01*
X105483991Y-75512974D01*
X105702690Y-75631328D01*
X105937886Y-75712071D01*
X106183165Y-75753000D01*
X106431835Y-75753000D01*
X106677114Y-75712071D01*
X106912310Y-75631328D01*
X107131009Y-75512974D01*
X107327244Y-75360238D01*
X107495664Y-75177285D01*
X107631673Y-74969107D01*
X107731563Y-74741381D01*
X107792608Y-74500321D01*
X107792609Y-74500312D01*
X107813143Y-74252505D01*
X107813143Y-74252494D01*
X107792609Y-74004687D01*
X107792607Y-74004675D01*
X107731563Y-73763618D01*
X107631673Y-73535893D01*
X107495666Y-73327717D01*
X107451569Y-73279815D01*
X107327244Y-73144762D01*
X107131009Y-72992026D01*
X107122977Y-72987679D01*
X107073391Y-72938461D01*
X107058000Y-72878628D01*
X107058000Y-67452229D01*
X107077685Y-67385190D01*
X107094315Y-67364552D01*
X107758402Y-66700464D01*
X107819723Y-66666981D01*
X107856885Y-66664619D01*
X108000116Y-66677150D01*
X108023749Y-66679218D01*
X108023750Y-66679218D01*
X108023752Y-66679218D01*
X108080546Y-66674249D01*
X108250442Y-66659385D01*
X108470246Y-66600489D01*
X108676484Y-66504318D01*
X108862889Y-66373797D01*
X109023797Y-66212889D01*
X109154318Y-66026484D01*
X109250489Y-65820246D01*
X109309385Y-65600442D01*
X109329218Y-65373750D01*
X109327554Y-65354735D01*
X109317467Y-65239435D01*
X109309385Y-65147058D01*
X109256432Y-64949435D01*
X109250491Y-64927261D01*
X109250488Y-64927252D01*
X109205594Y-64830977D01*
X109154318Y-64721016D01*
X109047268Y-64568132D01*
X109023795Y-64534608D01*
X108862891Y-64373704D01*
X108676484Y-64243182D01*
X108676482Y-64243181D01*
X108470247Y-64147011D01*
X108470238Y-64147008D01*
X108250447Y-64088116D01*
X108250443Y-64088115D01*
X108250442Y-64088115D01*
X108250441Y-64088114D01*
X108250436Y-64088114D01*
X108023752Y-64068282D01*
X108023745Y-64068282D01*
X107961555Y-64073722D01*
X107893056Y-64059955D01*
X107842873Y-64011339D01*
X107826750Y-63950194D01*
X107826750Y-62287046D01*
X107844632Y-62222897D01*
X107871762Y-62178020D01*
X107920565Y-62021407D01*
X107926750Y-61953344D01*
X107926750Y-61948250D01*
X107946435Y-61881211D01*
X107999239Y-61835456D01*
X108050750Y-61824250D01*
X109034251Y-61824250D01*
X109101290Y-61843935D01*
X109147045Y-61896739D01*
X109158251Y-61948250D01*
X109158251Y-62021626D01*
X109164658Y-62081233D01*
X109214952Y-62216078D01*
X109214956Y-62216085D01*
X109301202Y-62331294D01*
X109301205Y-62331297D01*
X109416414Y-62417543D01*
X109416421Y-62417547D01*
X109551267Y-62467841D01*
X109551266Y-62467841D01*
X109558194Y-62468585D01*
X109610877Y-62474250D01*
X111506622Y-62474249D01*
X111566233Y-62467841D01*
X111701081Y-62417546D01*
X111816296Y-62331296D01*
X111902546Y-62216081D01*
X111905350Y-62208564D01*
X111931205Y-62139243D01*
X111973076Y-62083309D01*
X112038540Y-62058891D01*
X112106813Y-62073742D01*
X112138616Y-62098593D01*
X112146052Y-62106670D01*
X112146965Y-62107662D01*
X112146972Y-62107668D01*
X112330115Y-62250214D01*
X112330121Y-62250218D01*
X112330124Y-62250220D01*
X112534247Y-62360686D01*
X112642016Y-62397683D01*
X112753765Y-62436047D01*
X112753767Y-62436047D01*
X112753769Y-62436048D01*
X112982701Y-62474250D01*
X112982702Y-62474250D01*
X113214798Y-62474250D01*
X113214799Y-62474250D01*
X113443731Y-62436048D01*
X113663253Y-62360686D01*
X113867376Y-62250220D01*
X113888319Y-62233920D01*
X113960148Y-62178013D01*
X114050534Y-62107663D01*
X114207729Y-61936903D01*
X114227697Y-61906340D01*
X114244627Y-61880428D01*
X114297773Y-61835072D01*
X114348435Y-61824250D01*
X114883112Y-61824250D01*
X114950151Y-61843935D01*
X114988649Y-61883151D01*
X115056038Y-61992406D01*
X115180094Y-62116462D01*
X115329416Y-62208564D01*
X115495953Y-62263749D01*
X115598741Y-62274250D01*
X116398758Y-62274249D01*
X116398766Y-62274248D01*
X116398769Y-62274248D01*
X116455052Y-62268498D01*
X116501547Y-62263749D01*
X116668084Y-62208564D01*
X116817406Y-62116462D01*
X116911069Y-62022799D01*
X116972392Y-61989314D01*
X117042084Y-61994298D01*
X117086431Y-62022799D01*
X117180094Y-62116462D01*
X117189341Y-62122166D01*
X117236068Y-62174110D01*
X117248250Y-62227707D01*
X117248250Y-62656519D01*
X117228565Y-62723558D01*
X117211931Y-62744200D01*
X115919199Y-64036931D01*
X115857876Y-64070416D01*
X115831518Y-64073250D01*
X114795879Y-64073250D01*
X114795873Y-64073251D01*
X114736266Y-64079658D01*
X114601421Y-64129952D01*
X114601414Y-64129956D01*
X114486205Y-64216202D01*
X114486202Y-64216205D01*
X114399956Y-64331414D01*
X114399952Y-64331421D01*
X114349658Y-64466267D01*
X114343251Y-64525866D01*
X114343250Y-64525885D01*
X114343250Y-66221620D01*
X114343251Y-66221626D01*
X114349658Y-66281233D01*
X114399952Y-66416078D01*
X114399956Y-66416085D01*
X114486202Y-66531294D01*
X114486205Y-66531297D01*
X114601414Y-66617543D01*
X114601421Y-66617547D01*
X114646368Y-66634311D01*
X114736267Y-66667841D01*
X114795877Y-66674250D01*
X115148000Y-66674249D01*
X115215039Y-66693933D01*
X115260794Y-66746737D01*
X115272000Y-66798249D01*
X115272000Y-73027157D01*
X115252315Y-73094196D01*
X115244102Y-73105517D01*
X115167805Y-73199087D01*
X115073589Y-73379454D01*
X115028832Y-73535876D01*
X115020605Y-73564631D01*
X115017614Y-73575083D01*
X115017613Y-73575086D01*
X115007000Y-73694466D01*
X115007000Y-74640269D01*
X114987315Y-74707308D01*
X114970681Y-74727950D01*
X112435451Y-77263181D01*
X112374128Y-77296666D01*
X112347770Y-77299500D01*
X97036080Y-77299500D01*
X96891092Y-77328340D01*
X96891082Y-77328343D01*
X96754510Y-77384913D01*
X96754506Y-77384915D01*
X96754505Y-77384916D01*
X96740259Y-77394435D01*
X96740258Y-77394436D01*
X96740257Y-77394435D01*
X96631585Y-77467046D01*
X96631578Y-77467052D01*
X91817050Y-82281580D01*
X91817044Y-82281588D01*
X91767812Y-82355268D01*
X91767813Y-82355269D01*
X91734921Y-82404496D01*
X91734914Y-82404508D01*
X91678342Y-82541086D01*
X91678340Y-82541092D01*
X91649500Y-82686079D01*
X91649500Y-85936781D01*
X91629815Y-86003820D01*
X91581795Y-86047265D01*
X91542185Y-86067447D01*
X91542184Y-86067448D01*
X91370213Y-86192390D01*
X91219890Y-86342713D01*
X91094951Y-86514679D01*
X90998444Y-86704085D01*
X90932753Y-86906260D01*
X90914611Y-87020808D01*
X90899500Y-87116213D01*
X77889158Y-87116213D01*
X77865925Y-87029507D01*
X77833012Y-86972500D01*
X78877231Y-86972500D01*
X78866757Y-86906373D01*
X78866757Y-86906370D01*
X78801095Y-86704282D01*
X78704620Y-86514942D01*
X78579727Y-86343040D01*
X78579723Y-86343035D01*
X78429464Y-86192776D01*
X78429459Y-86192772D01*
X78257557Y-86067879D01*
X78068217Y-85971404D01*
X77866129Y-85905742D01*
X77656246Y-85872500D01*
X77650000Y-85872500D01*
X77650000Y-86789488D01*
X77592993Y-86756575D01*
X77465826Y-86722500D01*
X77334174Y-86722500D01*
X77207007Y-86756575D01*
X77150000Y-86789488D01*
X77150000Y-85872500D01*
X77143754Y-85872500D01*
X76933872Y-85905742D01*
X76933869Y-85905742D01*
X76731782Y-85971404D01*
X76542442Y-86067879D01*
X76370540Y-86192772D01*
X76370535Y-86192776D01*
X76220276Y-86343035D01*
X76220272Y-86343040D01*
X76095379Y-86514942D01*
X75998904Y-86704282D01*
X75933242Y-86906370D01*
X75933242Y-86906373D01*
X75922769Y-86972500D01*
X72750500Y-86972500D01*
X72750500Y-53618733D01*
X104978250Y-53618733D01*
X104978250Y-54618751D01*
X104978251Y-54618769D01*
X104988750Y-54721546D01*
X104988751Y-54721549D01*
X105028484Y-54841454D01*
X105043936Y-54888084D01*
X105136038Y-55037406D01*
X105260094Y-55161462D01*
X105269341Y-55167166D01*
X105316068Y-55219110D01*
X105328250Y-55272707D01*
X105328250Y-56558592D01*
X105322635Y-56595482D01*
X105281935Y-56726091D01*
X105281935Y-56726093D01*
X105275750Y-56794156D01*
X105275750Y-58553344D01*
X105281935Y-58621407D01*
X105281936Y-58621412D01*
X105281937Y-58621414D01*
X105330735Y-58778013D01*
X105330738Y-58778022D01*
X105415598Y-58918398D01*
X105415601Y-58918402D01*
X105531597Y-59034398D01*
X105531601Y-59034401D01*
X105671977Y-59119261D01*
X105671980Y-59119262D01*
X105828593Y-59168065D01*
X105896656Y-59174250D01*
X105896659Y-59174250D01*
X106355841Y-59174250D01*
X106355844Y-59174250D01*
X106423907Y-59168065D01*
X106580520Y-59119262D01*
X106581280Y-59118803D01*
X106720898Y-59034401D01*
X106720897Y-59034401D01*
X106720903Y-59034398D01*
X106836898Y-58918403D01*
X106890026Y-58830518D01*
X106921761Y-58778022D01*
X106921764Y-58778014D01*
X106958126Y-58661325D01*
X106996863Y-58603177D01*
X107060888Y-58575203D01*
X107129874Y-58586284D01*
X107181917Y-58632903D01*
X107194896Y-58661324D01*
X107231195Y-58777812D01*
X107231196Y-58777814D01*
X107315993Y-58918087D01*
X107315997Y-58918092D01*
X107431907Y-59034002D01*
X107431912Y-59034006D01*
X107572184Y-59118802D01*
X107728692Y-59167571D01*
X107728690Y-59167571D01*
X107776249Y-59171892D01*
X107776250Y-59171892D01*
X107776250Y-59171891D01*
X108276250Y-59171891D01*
X108323811Y-59167571D01*
X108323820Y-59167569D01*
X108480310Y-59118805D01*
X108480314Y-59118803D01*
X108620587Y-59034006D01*
X108620592Y-59034002D01*
X108736502Y-58918092D01*
X108736506Y-58918087D01*
X108821302Y-58777815D01*
X108870070Y-58621312D01*
X108876250Y-58553306D01*
X108876250Y-57923750D01*
X108276250Y-57923750D01*
X108276250Y-59171891D01*
X107776250Y-59171891D01*
X107776250Y-57423750D01*
X108276250Y-57423750D01*
X108876249Y-57423750D01*
X108876249Y-56794183D01*
X108870071Y-56726188D01*
X108870068Y-56726177D01*
X108821305Y-56569689D01*
X108821303Y-56569685D01*
X108736506Y-56429412D01*
X108736502Y-56429407D01*
X108620592Y-56313497D01*
X108620587Y-56313493D01*
X108480315Y-56228697D01*
X108323812Y-56179929D01*
X108276250Y-56175606D01*
X108276250Y-57423750D01*
X107776250Y-57423750D01*
X107776250Y-56175607D01*
X107776249Y-56175607D01*
X107728691Y-56179928D01*
X107572184Y-56228697D01*
X107431912Y-56313493D01*
X107431907Y-56313497D01*
X107315997Y-56429407D01*
X107315993Y-56429412D01*
X107231196Y-56569685D01*
X107231195Y-56569687D01*
X107194896Y-56686176D01*
X107156158Y-56744323D01*
X107092133Y-56772297D01*
X107023148Y-56761215D01*
X106971105Y-56714596D01*
X106958126Y-56686175D01*
X106921764Y-56569485D01*
X106921760Y-56569477D01*
X106847133Y-56446026D01*
X106829250Y-56381877D01*
X106829250Y-55272707D01*
X106848935Y-55205668D01*
X106888157Y-55167166D01*
X106897406Y-55161462D01*
X106991425Y-55067442D01*
X107052744Y-55033960D01*
X107122436Y-55038944D01*
X107166784Y-55067445D01*
X107260404Y-55161065D01*
X107409625Y-55253106D01*
X107409630Y-55253108D01*
X107576052Y-55308255D01*
X107576059Y-55308256D01*
X107678769Y-55318749D01*
X107828749Y-55318749D01*
X108328750Y-55318749D01*
X108478722Y-55318749D01*
X108478736Y-55318748D01*
X108581447Y-55308255D01*
X108747869Y-55253108D01*
X108747874Y-55253106D01*
X108897095Y-55161065D01*
X109021065Y-55037095D01*
X109113106Y-54887874D01*
X109113108Y-54887869D01*
X109168255Y-54721447D01*
X109168256Y-54721440D01*
X109178749Y-54618736D01*
X109178750Y-54618723D01*
X109178750Y-54368750D01*
X108328750Y-54368750D01*
X108328750Y-55318749D01*
X107828749Y-55318749D01*
X107828750Y-55318748D01*
X107828750Y-53868750D01*
X108328750Y-53868750D01*
X109178749Y-53868750D01*
X109178749Y-53618778D01*
X109178748Y-53618763D01*
X109168255Y-53516052D01*
X109113108Y-53349630D01*
X109113106Y-53349625D01*
X109021065Y-53200404D01*
X108897095Y-53076434D01*
X108747874Y-52984393D01*
X108747869Y-52984391D01*
X108581447Y-52929244D01*
X108581440Y-52929243D01*
X108478736Y-52918750D01*
X108328750Y-52918750D01*
X108328750Y-53868750D01*
X107828750Y-53868750D01*
X107828750Y-52918750D01*
X107678777Y-52918750D01*
X107678762Y-52918751D01*
X107576052Y-52929244D01*
X107409630Y-52984391D01*
X107409625Y-52984393D01*
X107260407Y-53076432D01*
X107166784Y-53170055D01*
X107105460Y-53203539D01*
X107035769Y-53198555D01*
X106991422Y-53170054D01*
X106897405Y-53076037D01*
X106888152Y-53070330D01*
X106841428Y-53018382D01*
X106829250Y-52964792D01*
X106829250Y-52033480D01*
X106848935Y-51966441D01*
X106865569Y-51945799D01*
X107324549Y-51486819D01*
X107385872Y-51453334D01*
X107412230Y-51450500D01*
X113787770Y-51450500D01*
X113854809Y-51470185D01*
X113875451Y-51486819D01*
X124971580Y-62582948D01*
X124971584Y-62582951D01*
X125094498Y-62665080D01*
X125094511Y-62665087D01*
X125231082Y-62721656D01*
X125231087Y-62721658D01*
X125231091Y-62721658D01*
X125231092Y-62721659D01*
X125376079Y-62750500D01*
X125376082Y-62750500D01*
X125523917Y-62750500D01*
X139565202Y-62750500D01*
X139632241Y-62770185D01*
X139670739Y-62809401D01*
X139698865Y-62855000D01*
X139707289Y-62868657D01*
X139775951Y-62937319D01*
X139809436Y-62998642D01*
X139804452Y-63068334D01*
X139775951Y-63112681D01*
X139707289Y-63181342D01*
X139611395Y-63336813D01*
X139609600Y-63335706D01*
X139570313Y-63380337D01*
X139504092Y-63399500D01*
X139349972Y-63399500D01*
X139309017Y-63392542D01*
X139229254Y-63364631D01*
X139229249Y-63364630D01*
X139050004Y-63344435D01*
X139049996Y-63344435D01*
X138870750Y-63364630D01*
X138870745Y-63364631D01*
X138700476Y-63424211D01*
X138547737Y-63520184D01*
X138420184Y-63647737D01*
X138324211Y-63800476D01*
X138264631Y-63970745D01*
X138264630Y-63970750D01*
X138244435Y-64149996D01*
X138244435Y-64150003D01*
X138264630Y-64329249D01*
X138264631Y-64329254D01*
X138324211Y-64499523D01*
X138391282Y-64606265D01*
X138420184Y-64652262D01*
X138547738Y-64779816D01*
X138700478Y-64875789D01*
X138843333Y-64925776D01*
X138870745Y-64935368D01*
X138870750Y-64935369D01*
X139049996Y-64955565D01*
X139050000Y-64955565D01*
X139050004Y-64955565D01*
X139229249Y-64935369D01*
X139229252Y-64935368D01*
X139229255Y-64935368D01*
X139309017Y-64907457D01*
X139349972Y-64900500D01*
X139565202Y-64900500D01*
X139632241Y-64920185D01*
X139670739Y-64959401D01*
X139707288Y-65018656D01*
X139831344Y-65142712D01*
X139980666Y-65234814D01*
X140147203Y-65289999D01*
X140249991Y-65300500D01*
X141050008Y-65300499D01*
X141050016Y-65300498D01*
X141050019Y-65300498D01*
X141106302Y-65294748D01*
X141152797Y-65289999D01*
X141319334Y-65234814D01*
X141468656Y-65142712D01*
X141562319Y-65049049D01*
X141623642Y-65015564D01*
X141693334Y-65020548D01*
X141737681Y-65049049D01*
X141831344Y-65142712D01*
X141980666Y-65234814D01*
X142147203Y-65289999D01*
X142249991Y-65300500D01*
X143050008Y-65300499D01*
X143050016Y-65300498D01*
X143050019Y-65300498D01*
X143106302Y-65294748D01*
X143152797Y-65289999D01*
X143319334Y-65234814D01*
X143468656Y-65142712D01*
X143592712Y-65018656D01*
X143684814Y-64869334D01*
X143739999Y-64702797D01*
X143750500Y-64600009D01*
X143750499Y-63910095D01*
X143770183Y-63843057D01*
X143786813Y-63822420D01*
X144258506Y-63350728D01*
X144258511Y-63350724D01*
X144268714Y-63340520D01*
X144268716Y-63340520D01*
X144380520Y-63228716D01*
X144459577Y-63091784D01*
X144493662Y-62964577D01*
X144500500Y-62939058D01*
X144500500Y-62780943D01*
X144500500Y-62300096D01*
X144520185Y-62233057D01*
X144536814Y-62212420D01*
X145892416Y-60856817D01*
X145953739Y-60823333D01*
X145980097Y-60820499D01*
X146598976Y-60820499D01*
X146666015Y-60840184D01*
X146711770Y-60892988D01*
X146721714Y-60962146D01*
X146698245Y-61016437D01*
X146698889Y-61016842D01*
X146696265Y-61021017D01*
X146695921Y-61021814D01*
X146695184Y-61022736D01*
X146599211Y-61175476D01*
X146539631Y-61345745D01*
X146539630Y-61345750D01*
X146519435Y-61524996D01*
X146519435Y-61525003D01*
X146539630Y-61704249D01*
X146539631Y-61704254D01*
X146599211Y-61874523D01*
X146673283Y-61992407D01*
X146695184Y-62027262D01*
X146822738Y-62154816D01*
X146859656Y-62178013D01*
X146974562Y-62250214D01*
X146975478Y-62250789D01*
X147012513Y-62263748D01*
X147145745Y-62310368D01*
X147145750Y-62310369D01*
X147184004Y-62314679D01*
X147248418Y-62341745D01*
X147286932Y-62397823D01*
X147287333Y-62397683D01*
X147287848Y-62399156D01*
X147287974Y-62399339D01*
X147288209Y-62400188D01*
X147349210Y-62574521D01*
X147441663Y-62721658D01*
X147445184Y-62727262D01*
X147572738Y-62854816D01*
X147594766Y-62868657D01*
X147706806Y-62939057D01*
X147725478Y-62950789D01*
X147845287Y-62992712D01*
X147895745Y-63010368D01*
X147895750Y-63010369D01*
X148074996Y-63030565D01*
X148075000Y-63030565D01*
X148075004Y-63030565D01*
X148254249Y-63010369D01*
X148254251Y-63010368D01*
X148254255Y-63010368D01*
X148254258Y-63010366D01*
X148254262Y-63010366D01*
X148344545Y-62978775D01*
X148414324Y-62975213D01*
X148474951Y-63009941D01*
X148507179Y-63071935D01*
X148509500Y-63095816D01*
X148509500Y-63930001D01*
X148509501Y-63930019D01*
X148520000Y-64032796D01*
X148520001Y-64032799D01*
X148575185Y-64199331D01*
X148575187Y-64199336D01*
X148610069Y-64255888D01*
X148660499Y-64337650D01*
X148667289Y-64348657D01*
X148723181Y-64404549D01*
X148756666Y-64465872D01*
X148759500Y-64492230D01*
X148759500Y-64517770D01*
X148739815Y-64584809D01*
X148723181Y-64605451D01*
X148667289Y-64661342D01*
X148575187Y-64810663D01*
X148575185Y-64810668D01*
X148555746Y-64869331D01*
X148520001Y-64977203D01*
X148520001Y-64977204D01*
X148520000Y-64977204D01*
X148509500Y-65079983D01*
X148509500Y-66430001D01*
X148509501Y-66430018D01*
X148520000Y-66532796D01*
X148520001Y-66532799D01*
X148575185Y-66699331D01*
X148575187Y-66699336D01*
X148596881Y-66734508D01*
X148642087Y-66807799D01*
X148667289Y-66848657D01*
X148723181Y-66904549D01*
X148756666Y-66965872D01*
X148759500Y-66992230D01*
X148759500Y-66992770D01*
X148739815Y-67059809D01*
X148723181Y-67080451D01*
X148642289Y-67161342D01*
X148612764Y-67209209D01*
X148589018Y-67247710D01*
X148559481Y-67295597D01*
X148507533Y-67342321D01*
X148453942Y-67354500D01*
X145979975Y-67354500D01*
X145912936Y-67334815D01*
X145907090Y-67330818D01*
X145877597Y-67309390D01*
X145877593Y-67309388D01*
X145714267Y-67236671D01*
X145714265Y-67236670D01*
X145560792Y-67204049D01*
X145539391Y-67199500D01*
X145360609Y-67199500D01*
X145339208Y-67204049D01*
X145185733Y-67236670D01*
X145185728Y-67236672D01*
X145022408Y-67309387D01*
X144877768Y-67414475D01*
X144758140Y-67547336D01*
X144668750Y-67702164D01*
X144668747Y-67702170D01*
X144613504Y-67872192D01*
X144613503Y-67872194D01*
X144594815Y-68050000D01*
X144613503Y-68227805D01*
X144613504Y-68227807D01*
X144668747Y-68397829D01*
X144668750Y-68397835D01*
X144758141Y-68552665D01*
X144799812Y-68598946D01*
X144877764Y-68685521D01*
X144877767Y-68685523D01*
X144877770Y-68685526D01*
X145022407Y-68790612D01*
X145185733Y-68863329D01*
X145360609Y-68900500D01*
X145360610Y-68900500D01*
X145539389Y-68900500D01*
X145539391Y-68900500D01*
X145714267Y-68863329D01*
X145714269Y-68863327D01*
X145719689Y-68861568D01*
X145758003Y-68855500D01*
X148453942Y-68855500D01*
X148520981Y-68875185D01*
X148559479Y-68914401D01*
X148642288Y-69048656D01*
X148766344Y-69172712D01*
X148915666Y-69264814D01*
X149082203Y-69319999D01*
X149184991Y-69330500D01*
X149960008Y-69330499D01*
X149960016Y-69330498D01*
X149960019Y-69330498D01*
X150016302Y-69324748D01*
X150062797Y-69319999D01*
X150229334Y-69264814D01*
X150378656Y-69172712D01*
X150502712Y-69048656D01*
X150504752Y-69045347D01*
X150506745Y-69043555D01*
X150507193Y-69042989D01*
X150507289Y-69043065D01*
X150556694Y-68998623D01*
X150625656Y-68987395D01*
X150689740Y-69015234D01*
X150715829Y-69045339D01*
X150717681Y-69048341D01*
X150717683Y-69048344D01*
X150841654Y-69172315D01*
X150990875Y-69264356D01*
X150990880Y-69264358D01*
X151157302Y-69319505D01*
X151157309Y-69319506D01*
X151260019Y-69329999D01*
X151397499Y-69329999D01*
X151897500Y-69329999D01*
X152034972Y-69329999D01*
X152034986Y-69329998D01*
X152137697Y-69319505D01*
X152304119Y-69264358D01*
X152304124Y-69264356D01*
X152453345Y-69172315D01*
X152577315Y-69048345D01*
X152669356Y-68899124D01*
X152669358Y-68899119D01*
X152724505Y-68732697D01*
X152724506Y-68732690D01*
X152734999Y-68629986D01*
X152735000Y-68629973D01*
X152735000Y-68355000D01*
X151897500Y-68355000D01*
X151897500Y-69329999D01*
X151397499Y-69329999D01*
X151397500Y-69329998D01*
X151397500Y-66880000D01*
X151260027Y-66880000D01*
X151260012Y-66880001D01*
X151157302Y-66890494D01*
X150990880Y-66945641D01*
X150990875Y-66945643D01*
X150841654Y-67037684D01*
X150717683Y-67161655D01*
X150717679Y-67161660D01*
X150715826Y-67164665D01*
X150714018Y-67166290D01*
X150713202Y-67167323D01*
X150713025Y-67167183D01*
X150663874Y-67211385D01*
X150594911Y-67222601D01*
X150530831Y-67194752D01*
X150504753Y-67164653D01*
X150504737Y-67164628D01*
X150502712Y-67161344D01*
X150502708Y-67161340D01*
X150498234Y-67155681D01*
X150500507Y-67153883D01*
X150473346Y-67104140D01*
X150478330Y-67034448D01*
X150520202Y-66978515D01*
X150528212Y-66973062D01*
X150528654Y-66972713D01*
X150528653Y-66972713D01*
X150528656Y-66972712D01*
X150652712Y-66848656D01*
X150744814Y-66699334D01*
X150799999Y-66532797D01*
X150810500Y-66430009D01*
X150810499Y-65654095D01*
X150830183Y-65587057D01*
X150882987Y-65541302D01*
X150952146Y-65531358D01*
X151015702Y-65560383D01*
X151022180Y-65566415D01*
X151525139Y-66069374D01*
X151525160Y-66069397D01*
X151573180Y-66117416D01*
X151606666Y-66178739D01*
X151609500Y-66205097D01*
X151609500Y-66430000D01*
X151609501Y-66430019D01*
X151620000Y-66532796D01*
X151620001Y-66532799D01*
X151675185Y-66699331D01*
X151675187Y-66699336D01*
X151696881Y-66734508D01*
X151742087Y-66807799D01*
X151767289Y-66848657D01*
X151861181Y-66942549D01*
X151894666Y-67003872D01*
X151897500Y-67030230D01*
X151897500Y-67855000D01*
X152734999Y-67855000D01*
X152734999Y-67580028D01*
X152734998Y-67580013D01*
X152724505Y-67477302D01*
X152669355Y-67310872D01*
X152667503Y-67306899D01*
X152657014Y-67237821D01*
X152685536Y-67174038D01*
X152744015Y-67135801D01*
X152779883Y-67130499D01*
X153210008Y-67130499D01*
X153312797Y-67119999D01*
X153479334Y-67064814D01*
X153628656Y-66972712D01*
X153752712Y-66848656D01*
X153844814Y-66699334D01*
X153880879Y-66590494D01*
X153920652Y-66533051D01*
X153985167Y-66506228D01*
X153998585Y-66505500D01*
X154495028Y-66505500D01*
X154535982Y-66512457D01*
X154594108Y-66532797D01*
X154615745Y-66540368D01*
X154615750Y-66540369D01*
X154794996Y-66560565D01*
X154795000Y-66560565D01*
X154795004Y-66560565D01*
X154974249Y-66540369D01*
X154974252Y-66540368D01*
X154974255Y-66540368D01*
X155144522Y-66480789D01*
X155297262Y-66384816D01*
X155424816Y-66257262D01*
X155520789Y-66104522D01*
X155580368Y-65934255D01*
X155580369Y-65934249D01*
X155600565Y-65755003D01*
X155600565Y-65754996D01*
X155580369Y-65575750D01*
X155580368Y-65575745D01*
X155531352Y-65435666D01*
X155520789Y-65405478D01*
X155520788Y-65405477D01*
X155518489Y-65398905D01*
X155519890Y-65398414D01*
X155509837Y-65337373D01*
X155537557Y-65273238D01*
X155595551Y-65234270D01*
X155665406Y-65232842D01*
X155720591Y-65264827D01*
X155798349Y-65342585D01*
X155798355Y-65342590D01*
X156373181Y-65917416D01*
X156406666Y-65978739D01*
X156409500Y-66005097D01*
X156409500Y-66705001D01*
X156409501Y-66705019D01*
X156420000Y-66807796D01*
X156420001Y-66807799D01*
X156475115Y-66974119D01*
X156475186Y-66974334D01*
X156567288Y-67123656D01*
X156691344Y-67247712D01*
X156840666Y-67339814D01*
X157007203Y-67394999D01*
X157109991Y-67405500D01*
X157910008Y-67405499D01*
X157910016Y-67405498D01*
X157910019Y-67405498D01*
X157966302Y-67399748D01*
X158012797Y-67394999D01*
X158179334Y-67339814D01*
X158328656Y-67247712D01*
X158422319Y-67154049D01*
X158483642Y-67120564D01*
X158553334Y-67125548D01*
X158597681Y-67154049D01*
X158642016Y-67198384D01*
X158675501Y-67259707D01*
X158670517Y-67329399D01*
X158642016Y-67373746D01*
X157841286Y-68174478D01*
X157729481Y-68286282D01*
X157729480Y-68286284D01*
X157700324Y-68336784D01*
X157650423Y-68423215D01*
X157609499Y-68575943D01*
X157609499Y-68575945D01*
X157609499Y-68744046D01*
X157609500Y-68744059D01*
X157609500Y-68748837D01*
X157589815Y-68815876D01*
X157573181Y-68836518D01*
X157499351Y-68910347D01*
X157499348Y-68910351D01*
X157414488Y-69050727D01*
X157414485Y-69050736D01*
X157365687Y-69207335D01*
X157365685Y-69207343D01*
X157359500Y-69275406D01*
X157359500Y-71034594D01*
X157365685Y-71102657D01*
X157365686Y-71102662D01*
X157365687Y-71102664D01*
X157414485Y-71259263D01*
X157414488Y-71259272D01*
X157499348Y-71399648D01*
X157499351Y-71399652D01*
X157615347Y-71515648D01*
X157615351Y-71515651D01*
X157755727Y-71600511D01*
X157755730Y-71600512D01*
X157912343Y-71649315D01*
X157980406Y-71655500D01*
X157980409Y-71655500D01*
X158439591Y-71655500D01*
X158439594Y-71655500D01*
X158507657Y-71649315D01*
X158664270Y-71600512D01*
X158665030Y-71600053D01*
X158804648Y-71515651D01*
X158804647Y-71515651D01*
X158804653Y-71515648D01*
X158920648Y-71399653D01*
X159005512Y-71259270D01*
X159041876Y-71142575D01*
X159080613Y-71084427D01*
X159144638Y-71056453D01*
X159213624Y-71067534D01*
X159265667Y-71114153D01*
X159278646Y-71142574D01*
X159314945Y-71259062D01*
X159314946Y-71259064D01*
X159399743Y-71399337D01*
X159399747Y-71399342D01*
X159515657Y-71515252D01*
X159515662Y-71515256D01*
X159655934Y-71600052D01*
X159812442Y-71648821D01*
X159812440Y-71648821D01*
X159859999Y-71653142D01*
X159860000Y-71653142D01*
X159860000Y-69905000D01*
X160360000Y-69905000D01*
X160959999Y-69905000D01*
X160959999Y-69275433D01*
X160953821Y-69207438D01*
X160953818Y-69207427D01*
X160905055Y-69050939D01*
X160905053Y-69050935D01*
X160820256Y-68910662D01*
X160820252Y-68910657D01*
X160704342Y-68794747D01*
X160704337Y-68794743D01*
X160564065Y-68709947D01*
X160407562Y-68661179D01*
X160360000Y-68656856D01*
X160360000Y-69905000D01*
X159860000Y-69905000D01*
X159860000Y-68656857D01*
X159859999Y-68656857D01*
X159812441Y-68661178D01*
X159655934Y-68709947D01*
X159515662Y-68794743D01*
X159515657Y-68794747D01*
X159399747Y-68910657D01*
X159399743Y-68910662D01*
X159314946Y-69050935D01*
X159314945Y-69050937D01*
X159278646Y-69167426D01*
X159239908Y-69225573D01*
X159175883Y-69253547D01*
X159106898Y-69242465D01*
X159054855Y-69195846D01*
X159041876Y-69167425D01*
X159005514Y-69050735D01*
X159005511Y-69050728D01*
X158926915Y-68920713D01*
X158909079Y-68853159D01*
X158930597Y-68786685D01*
X158945345Y-68768889D01*
X159990520Y-67723716D01*
X160069577Y-67586784D01*
X160110501Y-67434057D01*
X160110501Y-67434055D01*
X160112604Y-67426207D01*
X160114171Y-67426627D01*
X160138601Y-67371400D01*
X160173760Y-67344534D01*
X160173187Y-67343605D01*
X160179332Y-67339814D01*
X160179334Y-67339814D01*
X160328656Y-67247712D01*
X160372319Y-67204049D01*
X160433642Y-67170564D01*
X160503334Y-67175548D01*
X160547681Y-67204049D01*
X160591344Y-67247712D01*
X160740666Y-67339814D01*
X160907203Y-67394999D01*
X161009991Y-67405500D01*
X161810008Y-67405499D01*
X161810016Y-67405498D01*
X161810019Y-67405498D01*
X161866302Y-67399748D01*
X161912797Y-67394999D01*
X162079334Y-67339814D01*
X162228656Y-67247712D01*
X162322675Y-67153692D01*
X162383994Y-67120210D01*
X162453686Y-67125194D01*
X162498034Y-67153695D01*
X162591654Y-67247315D01*
X162740875Y-67339356D01*
X162740880Y-67339358D01*
X162907302Y-67394505D01*
X162907309Y-67394506D01*
X163010019Y-67404999D01*
X163159999Y-67404999D01*
X163660000Y-67404999D01*
X163809972Y-67404999D01*
X163809986Y-67404998D01*
X163912697Y-67394505D01*
X164079119Y-67339358D01*
X164079124Y-67339356D01*
X164228345Y-67247315D01*
X164352315Y-67123345D01*
X164444356Y-66974124D01*
X164444358Y-66974119D01*
X164499505Y-66807697D01*
X164499506Y-66807690D01*
X164509999Y-66704986D01*
X164510000Y-66704973D01*
X164510000Y-66455000D01*
X163660000Y-66455000D01*
X163660000Y-67404999D01*
X163159999Y-67404999D01*
X163160000Y-67404998D01*
X163160000Y-65955000D01*
X163660000Y-65955000D01*
X164509999Y-65955000D01*
X164509999Y-65705028D01*
X164509998Y-65705013D01*
X164499505Y-65602302D01*
X164444358Y-65435880D01*
X164444356Y-65435875D01*
X164352315Y-65286654D01*
X164228345Y-65162684D01*
X164079124Y-65070643D01*
X164079119Y-65070641D01*
X163912697Y-65015494D01*
X163912690Y-65015493D01*
X163809986Y-65005000D01*
X163660000Y-65005000D01*
X163660000Y-65955000D01*
X163160000Y-65955000D01*
X163160000Y-65005000D01*
X163010027Y-65005000D01*
X163010012Y-65005001D01*
X162907302Y-65015494D01*
X162740880Y-65070641D01*
X162740875Y-65070643D01*
X162591657Y-65162682D01*
X162498034Y-65256305D01*
X162436710Y-65289789D01*
X162367019Y-65284805D01*
X162322672Y-65256304D01*
X162228657Y-65162289D01*
X162228656Y-65162288D01*
X162106249Y-65086787D01*
X162079336Y-65070187D01*
X162079331Y-65070185D01*
X162077862Y-65069698D01*
X161912797Y-65015001D01*
X161912795Y-65015000D01*
X161810010Y-65004500D01*
X161009998Y-65004500D01*
X161009980Y-65004501D01*
X160907203Y-65015000D01*
X160907200Y-65015001D01*
X160740668Y-65070185D01*
X160740663Y-65070187D01*
X160591342Y-65162289D01*
X160547680Y-65205951D01*
X160486357Y-65239435D01*
X160416665Y-65234450D01*
X160372320Y-65205951D01*
X160328657Y-65162289D01*
X160328656Y-65162288D01*
X160206249Y-65086787D01*
X160179336Y-65070187D01*
X160179331Y-65070185D01*
X160177862Y-65069698D01*
X160012797Y-65015001D01*
X160012795Y-65015000D01*
X159910010Y-65004500D01*
X159109998Y-65004500D01*
X159109980Y-65004501D01*
X159007203Y-65015000D01*
X159007200Y-65015001D01*
X158840668Y-65070185D01*
X158840663Y-65070187D01*
X158691342Y-65162289D01*
X158597681Y-65255951D01*
X158536358Y-65289436D01*
X158466666Y-65284452D01*
X158422319Y-65255951D01*
X158328657Y-65162289D01*
X158328656Y-65162288D01*
X158206249Y-65086787D01*
X158179336Y-65070187D01*
X158179331Y-65070185D01*
X158177862Y-65069698D01*
X158012797Y-65015001D01*
X158012795Y-65015000D01*
X157910016Y-65004500D01*
X157910009Y-65004500D01*
X157210097Y-65004500D01*
X157143058Y-64984815D01*
X157122416Y-64968181D01*
X156796819Y-64642584D01*
X156763334Y-64581261D01*
X156760500Y-64554903D01*
X156760500Y-62625944D01*
X156759481Y-62618208D01*
X156770243Y-62549172D01*
X156816620Y-62496914D01*
X156883888Y-62478025D01*
X156950689Y-62498502D01*
X156970100Y-62514335D01*
X157023181Y-62567416D01*
X157056666Y-62628739D01*
X157059500Y-62655097D01*
X157059500Y-64002870D01*
X157059501Y-64002876D01*
X157065908Y-64062483D01*
X157116202Y-64197328D01*
X157116206Y-64197335D01*
X157202452Y-64312544D01*
X157202455Y-64312547D01*
X157317664Y-64398793D01*
X157317671Y-64398797D01*
X157452517Y-64449091D01*
X157452516Y-64449091D01*
X157459444Y-64449835D01*
X157512127Y-64455500D01*
X159307872Y-64455499D01*
X159367483Y-64449091D01*
X159502331Y-64398796D01*
X159617546Y-64312546D01*
X159703796Y-64197331D01*
X159752810Y-64065916D01*
X159794681Y-64009984D01*
X159860145Y-63985566D01*
X159928418Y-64000417D01*
X159956673Y-64021569D01*
X160078599Y-64143495D01*
X160158341Y-64199331D01*
X160272165Y-64279032D01*
X160272167Y-64279033D01*
X160272170Y-64279035D01*
X160486337Y-64378903D01*
X160714592Y-64440063D01*
X160891034Y-64455500D01*
X160949999Y-64460659D01*
X160950000Y-64460659D01*
X160950001Y-64460659D01*
X161008966Y-64455500D01*
X161185408Y-64440063D01*
X161413663Y-64378903D01*
X161627830Y-64279035D01*
X161821401Y-64143495D01*
X161988495Y-63976401D01*
X162118730Y-63790405D01*
X162173307Y-63746781D01*
X162242805Y-63739587D01*
X162305160Y-63771110D01*
X162321879Y-63790405D01*
X162451890Y-63976078D01*
X162618917Y-64143105D01*
X162812421Y-64278600D01*
X163026507Y-64378429D01*
X163026516Y-64378433D01*
X163240000Y-64435634D01*
X163240000Y-63538012D01*
X163297007Y-63570925D01*
X163424174Y-63605000D01*
X163555826Y-63605000D01*
X163682993Y-63570925D01*
X163740000Y-63538012D01*
X163740000Y-64435633D01*
X163953483Y-64378433D01*
X163953492Y-64378429D01*
X164167578Y-64278600D01*
X164361082Y-64143105D01*
X164528105Y-63976082D01*
X164663600Y-63782578D01*
X164763429Y-63568492D01*
X164763432Y-63568486D01*
X164820636Y-63355000D01*
X163923012Y-63355000D01*
X163955925Y-63297993D01*
X163990000Y-63170826D01*
X163990000Y-63039174D01*
X163955925Y-62912007D01*
X163923012Y-62855000D01*
X164820636Y-62855000D01*
X164820635Y-62854999D01*
X164763432Y-62641513D01*
X164763429Y-62641507D01*
X164663600Y-62427422D01*
X164663599Y-62427420D01*
X164528113Y-62233926D01*
X164528108Y-62233920D01*
X164361082Y-62066894D01*
X164167578Y-61931399D01*
X163953492Y-61831570D01*
X163953486Y-61831567D01*
X163740000Y-61774364D01*
X163740000Y-62671988D01*
X163682993Y-62639075D01*
X163555826Y-62605000D01*
X163424174Y-62605000D01*
X163297007Y-62639075D01*
X163240000Y-62671988D01*
X163240000Y-61774364D01*
X163239999Y-61774364D01*
X163026513Y-61831567D01*
X163026507Y-61831570D01*
X162812422Y-61931399D01*
X162812420Y-61931400D01*
X162618926Y-62066886D01*
X162618920Y-62066891D01*
X162451891Y-62233920D01*
X162451890Y-62233922D01*
X162321880Y-62419595D01*
X162267303Y-62463219D01*
X162197804Y-62470412D01*
X162135450Y-62438890D01*
X162118730Y-62419594D01*
X161988494Y-62233597D01*
X161821402Y-62066506D01*
X161821395Y-62066501D01*
X161627831Y-61930965D01*
X161627829Y-61930964D01*
X161554970Y-61896989D01*
X161502531Y-61850816D01*
X161499988Y-61846606D01*
X161430524Y-61726290D01*
X161430521Y-61726286D01*
X161430520Y-61726284D01*
X161318716Y-61614480D01*
X161318715Y-61614479D01*
X161314385Y-61610149D01*
X161314374Y-61610139D01*
X160747590Y-61043355D01*
X160747588Y-61043352D01*
X160628717Y-60924481D01*
X160628709Y-60924475D01*
X160508091Y-60854837D01*
X160508088Y-60854836D01*
X160491785Y-60845423D01*
X160491072Y-60845232D01*
X160339057Y-60804499D01*
X160180943Y-60804499D01*
X160173347Y-60804499D01*
X160173331Y-60804500D01*
X158710097Y-60804500D01*
X158643058Y-60784815D01*
X158622416Y-60768181D01*
X156312590Y-58458355D01*
X156312588Y-58458352D01*
X156193717Y-58339481D01*
X156193716Y-58339480D01*
X156106904Y-58289360D01*
X156106904Y-58289359D01*
X156106900Y-58289358D01*
X156056785Y-58260423D01*
X155904057Y-58219499D01*
X155745943Y-58219499D01*
X155738347Y-58219499D01*
X155738331Y-58219500D01*
X153621999Y-58219500D01*
X153554960Y-58199815D01*
X153509205Y-58147011D01*
X153497999Y-58095500D01*
X153497999Y-58030638D01*
X153487294Y-57949322D01*
X153482544Y-57913238D01*
X153473934Y-57892454D01*
X153466465Y-57822986D01*
X153473935Y-57797545D01*
X153474204Y-57796895D01*
X153482544Y-57776762D01*
X153498000Y-57659361D01*
X153497999Y-57380640D01*
X153482544Y-57263238D01*
X153473934Y-57242454D01*
X153466465Y-57172986D01*
X153473935Y-57147545D01*
X153482544Y-57126762D01*
X153498000Y-57009361D01*
X153497999Y-56730640D01*
X153497411Y-56726177D01*
X153492322Y-56687514D01*
X153482544Y-56613238D01*
X153473934Y-56592454D01*
X153466465Y-56522986D01*
X153473935Y-56497545D01*
X153482544Y-56476762D01*
X153498000Y-56359361D01*
X153498000Y-56294500D01*
X153517685Y-56227461D01*
X153570489Y-56181706D01*
X153622000Y-56170500D01*
X157159903Y-56170500D01*
X157226942Y-56190185D01*
X157247584Y-56206819D01*
X158158882Y-57118117D01*
X158192367Y-57179440D01*
X158190976Y-57237889D01*
X158173795Y-57302011D01*
X158173792Y-57302029D01*
X158154723Y-57519997D01*
X158154723Y-57520002D01*
X158173793Y-57737975D01*
X158173793Y-57737979D01*
X158230422Y-57949322D01*
X158230424Y-57949326D01*
X158230425Y-57949330D01*
X158275024Y-58044973D01*
X158322897Y-58147638D01*
X158333331Y-58162539D01*
X158448402Y-58326877D01*
X158603123Y-58481598D01*
X158782361Y-58607102D01*
X158980670Y-58699575D01*
X159192023Y-58756207D01*
X159374926Y-58772208D01*
X159409998Y-58775277D01*
X159410000Y-58775277D01*
X159410002Y-58775277D01*
X159438254Y-58772805D01*
X159627977Y-58756207D01*
X159839330Y-58699575D01*
X160037639Y-58607102D01*
X160216877Y-58481598D01*
X160371598Y-58326877D01*
X160479081Y-58173374D01*
X160533657Y-58129751D01*
X160580655Y-58120500D01*
X160896415Y-58120500D01*
X160963454Y-58140185D01*
X161009209Y-58192989D01*
X161014118Y-58205489D01*
X161041911Y-58289361D01*
X161050185Y-58314331D01*
X161050187Y-58314336D01*
X161057925Y-58326881D01*
X161142288Y-58463656D01*
X161266344Y-58587712D01*
X161415666Y-58679814D01*
X161582203Y-58734999D01*
X161684991Y-58745500D01*
X162460008Y-58745499D01*
X162460016Y-58745498D01*
X162460019Y-58745498D01*
X162516302Y-58739748D01*
X162562797Y-58734999D01*
X162729334Y-58679814D01*
X162878656Y-58587712D01*
X163002712Y-58463656D01*
X163004752Y-58460347D01*
X163006745Y-58458555D01*
X163007193Y-58457989D01*
X163007289Y-58458065D01*
X163056694Y-58413623D01*
X163125656Y-58402395D01*
X163189740Y-58430234D01*
X163215829Y-58460339D01*
X163217681Y-58463341D01*
X163217683Y-58463344D01*
X163341654Y-58587315D01*
X163490875Y-58679356D01*
X163490880Y-58679358D01*
X163657302Y-58734505D01*
X163657309Y-58734506D01*
X163760019Y-58744999D01*
X163897499Y-58744999D01*
X164397500Y-58744999D01*
X164534972Y-58744999D01*
X164534986Y-58744998D01*
X164637697Y-58734505D01*
X164804119Y-58679358D01*
X164804124Y-58679356D01*
X164953345Y-58587315D01*
X165077315Y-58463345D01*
X165169356Y-58314124D01*
X165169358Y-58314119D01*
X165224505Y-58147697D01*
X165224506Y-58147690D01*
X165234999Y-58044986D01*
X165235000Y-58044973D01*
X165235000Y-57770000D01*
X164397500Y-57770000D01*
X164397500Y-58744999D01*
X163897499Y-58744999D01*
X163897500Y-58744998D01*
X163897500Y-57270000D01*
X164397500Y-57270000D01*
X165234999Y-57270000D01*
X165234999Y-56995028D01*
X165234998Y-56995013D01*
X165224505Y-56892302D01*
X165169358Y-56725880D01*
X165169356Y-56725875D01*
X165077315Y-56576654D01*
X164953345Y-56452684D01*
X164804124Y-56360643D01*
X164804119Y-56360641D01*
X164637697Y-56305494D01*
X164637690Y-56305493D01*
X164534986Y-56295000D01*
X164397500Y-56295000D01*
X164397500Y-57270000D01*
X163897500Y-57270000D01*
X163897500Y-56295000D01*
X163760027Y-56295000D01*
X163760012Y-56295001D01*
X163657302Y-56305494D01*
X163490880Y-56360641D01*
X163490875Y-56360643D01*
X163341654Y-56452684D01*
X163217683Y-56576655D01*
X163217679Y-56576660D01*
X163215826Y-56579665D01*
X163214018Y-56581290D01*
X163213202Y-56582323D01*
X163213025Y-56582183D01*
X163163874Y-56626385D01*
X163094911Y-56637601D01*
X163030831Y-56609752D01*
X163004753Y-56579653D01*
X163004737Y-56579628D01*
X163002712Y-56576344D01*
X162878656Y-56452288D01*
X162729334Y-56360186D01*
X162562797Y-56305001D01*
X162562795Y-56305000D01*
X162460010Y-56294500D01*
X161684998Y-56294500D01*
X161684980Y-56294501D01*
X161582203Y-56305000D01*
X161582200Y-56305001D01*
X161415668Y-56360185D01*
X161415663Y-56360187D01*
X161266342Y-56452289D01*
X161142289Y-56576342D01*
X161050187Y-56725663D01*
X161050185Y-56725668D01*
X161038406Y-56761215D01*
X161027352Y-56794576D01*
X161014121Y-56834504D01*
X160974348Y-56891949D01*
X160909833Y-56918772D01*
X160896415Y-56919500D01*
X160580655Y-56919500D01*
X160513616Y-56899815D01*
X160479080Y-56866623D01*
X160371599Y-56713124D01*
X160296076Y-56637601D01*
X160216877Y-56558402D01*
X160056388Y-56446026D01*
X160037638Y-56432897D01*
X159928224Y-56381877D01*
X159839330Y-56340425D01*
X159839326Y-56340424D01*
X159839322Y-56340422D01*
X159627977Y-56283793D01*
X159410002Y-56264723D01*
X159409998Y-56264723D01*
X159192029Y-56283792D01*
X159192011Y-56283795D01*
X159127889Y-56300976D01*
X159058039Y-56299312D01*
X159008117Y-56268882D01*
X158096915Y-55357680D01*
X158063430Y-55296357D01*
X158068414Y-55226665D01*
X158096911Y-55182323D01*
X159371466Y-53907767D01*
X159432787Y-53874284D01*
X159448323Y-53871924D01*
X159627977Y-53856207D01*
X159839330Y-53799575D01*
X160037639Y-53707102D01*
X160216877Y-53581598D01*
X160371598Y-53426877D01*
X160479081Y-53273374D01*
X160533657Y-53229751D01*
X160580655Y-53220500D01*
X160946415Y-53220500D01*
X161013454Y-53240185D01*
X161059209Y-53292989D01*
X161064118Y-53305489D01*
X161085412Y-53369748D01*
X161100185Y-53414331D01*
X161100187Y-53414336D01*
X161119409Y-53445500D01*
X161192288Y-53563656D01*
X161316344Y-53687712D01*
X161465666Y-53779814D01*
X161632203Y-53834999D01*
X161734991Y-53845500D01*
X162510008Y-53845499D01*
X162510016Y-53845498D01*
X162510019Y-53845498D01*
X162566302Y-53839748D01*
X162612797Y-53834999D01*
X162779334Y-53779814D01*
X162928656Y-53687712D01*
X163052712Y-53563656D01*
X163054752Y-53560347D01*
X163056745Y-53558555D01*
X163057193Y-53557989D01*
X163057289Y-53558065D01*
X163106694Y-53513623D01*
X163175656Y-53502395D01*
X163239740Y-53530234D01*
X163265829Y-53560339D01*
X163267681Y-53563341D01*
X163267683Y-53563344D01*
X163391654Y-53687315D01*
X163540875Y-53779356D01*
X163540880Y-53779358D01*
X163707302Y-53834505D01*
X163707309Y-53834506D01*
X163810019Y-53844999D01*
X163947499Y-53844999D01*
X164447500Y-53844999D01*
X164584972Y-53844999D01*
X164584986Y-53844998D01*
X164687697Y-53834505D01*
X164854119Y-53779358D01*
X164854124Y-53779356D01*
X165003345Y-53687315D01*
X165127315Y-53563345D01*
X165219356Y-53414124D01*
X165219358Y-53414119D01*
X165274505Y-53247697D01*
X165274506Y-53247690D01*
X165284999Y-53144986D01*
X165285000Y-53144973D01*
X165285000Y-52870000D01*
X164447500Y-52870000D01*
X164447500Y-53844999D01*
X163947499Y-53844999D01*
X163947500Y-53844998D01*
X163947500Y-52370000D01*
X164447500Y-52370000D01*
X165284999Y-52370000D01*
X165284999Y-52095028D01*
X165284998Y-52095013D01*
X165274505Y-51992302D01*
X165219358Y-51825880D01*
X165219356Y-51825875D01*
X165127315Y-51676654D01*
X165003345Y-51552684D01*
X164854124Y-51460643D01*
X164854119Y-51460641D01*
X164687697Y-51405494D01*
X164687690Y-51405493D01*
X164584986Y-51395000D01*
X164447500Y-51395000D01*
X164447500Y-52370000D01*
X163947500Y-52370000D01*
X163947500Y-51395000D01*
X163810027Y-51395000D01*
X163810012Y-51395001D01*
X163707302Y-51405494D01*
X163540880Y-51460641D01*
X163540875Y-51460643D01*
X163391654Y-51552684D01*
X163267683Y-51676655D01*
X163267679Y-51676660D01*
X163265826Y-51679665D01*
X163264018Y-51681290D01*
X163263202Y-51682323D01*
X163263025Y-51682183D01*
X163213874Y-51726385D01*
X163144911Y-51737601D01*
X163080831Y-51709752D01*
X163054753Y-51679653D01*
X163054737Y-51679628D01*
X163052712Y-51676344D01*
X162928656Y-51552288D01*
X162779334Y-51460186D01*
X162612797Y-51405001D01*
X162612795Y-51405000D01*
X162510010Y-51394500D01*
X161734998Y-51394500D01*
X161734980Y-51394501D01*
X161632203Y-51405000D01*
X161632200Y-51405001D01*
X161465668Y-51460185D01*
X161465663Y-51460187D01*
X161316342Y-51552289D01*
X161192289Y-51676342D01*
X161100187Y-51825663D01*
X161100185Y-51825668D01*
X161100115Y-51825880D01*
X161075389Y-51900500D01*
X161064121Y-51934504D01*
X161024348Y-51991949D01*
X160959833Y-52018772D01*
X160946415Y-52019500D01*
X160580655Y-52019500D01*
X160513616Y-51999815D01*
X160479080Y-51966623D01*
X160371599Y-51813124D01*
X160296076Y-51737601D01*
X160216877Y-51658402D01*
X160037639Y-51532898D01*
X160037640Y-51532898D01*
X160037638Y-51532897D01*
X159938484Y-51486661D01*
X159839330Y-51440425D01*
X159839326Y-51440424D01*
X159839322Y-51440422D01*
X159627977Y-51383793D01*
X159410002Y-51364723D01*
X159409998Y-51364723D01*
X159264682Y-51377436D01*
X159192023Y-51383793D01*
X159192020Y-51383793D01*
X158980677Y-51440422D01*
X158980668Y-51440426D01*
X158782361Y-51532898D01*
X158782357Y-51532900D01*
X158603121Y-51658402D01*
X158448402Y-51813121D01*
X158322900Y-51992357D01*
X158322898Y-51992361D01*
X158230426Y-52190668D01*
X158230422Y-52190677D01*
X158173793Y-52402020D01*
X158173793Y-52402024D01*
X158154723Y-52619997D01*
X158154723Y-52620002D01*
X158173793Y-52837975D01*
X158173793Y-52837979D01*
X158230422Y-53049322D01*
X158230424Y-53049326D01*
X158230425Y-53049330D01*
X158249477Y-53090187D01*
X158289456Y-53175922D01*
X158299948Y-53245000D01*
X158271428Y-53308784D01*
X158264755Y-53316008D01*
X157297584Y-54283181D01*
X157236261Y-54316666D01*
X157209903Y-54319500D01*
X153621999Y-54319500D01*
X153554960Y-54299815D01*
X153509205Y-54247011D01*
X153497999Y-54195500D01*
X153497999Y-54182599D01*
X153517684Y-54115560D01*
X153534317Y-54094918D01*
X153540520Y-54088716D01*
X153619577Y-53951784D01*
X153660500Y-53799057D01*
X153660500Y-52273356D01*
X153680185Y-52206317D01*
X153732989Y-52160562D01*
X153802147Y-52150618D01*
X153836905Y-52160974D01*
X153906507Y-52193429D01*
X153906516Y-52193433D01*
X154120000Y-52250634D01*
X154120000Y-51353012D01*
X154177007Y-51385925D01*
X154304174Y-51420000D01*
X154435826Y-51420000D01*
X154562993Y-51385925D01*
X154620000Y-51353012D01*
X154620000Y-52250633D01*
X154833483Y-52193433D01*
X154833492Y-52193429D01*
X155047578Y-52093600D01*
X155241082Y-51958105D01*
X155408105Y-51791082D01*
X155543600Y-51597578D01*
X155643429Y-51383492D01*
X155643432Y-51383486D01*
X155700636Y-51170000D01*
X154803012Y-51170000D01*
X154835925Y-51112993D01*
X154870000Y-50985826D01*
X154870000Y-50854174D01*
X154835925Y-50727007D01*
X154803012Y-50670000D01*
X155700636Y-50670000D01*
X155700635Y-50669999D01*
X155643432Y-50456513D01*
X155643429Y-50456507D01*
X155543600Y-50242422D01*
X155543599Y-50242420D01*
X155408113Y-50048926D01*
X155408108Y-50048920D01*
X155241082Y-49881894D01*
X155047578Y-49746399D01*
X154833492Y-49646570D01*
X154833486Y-49646567D01*
X154620000Y-49589364D01*
X154620000Y-50486988D01*
X154562993Y-50454075D01*
X154435826Y-50420000D01*
X154304174Y-50420000D01*
X154177007Y-50454075D01*
X154120000Y-50486988D01*
X154120000Y-49589364D01*
X154119999Y-49589364D01*
X153906513Y-49646567D01*
X153906507Y-49646570D01*
X153836905Y-49679026D01*
X153767827Y-49689518D01*
X153704043Y-49660998D01*
X153665804Y-49602522D01*
X153660500Y-49566644D01*
X153660500Y-49315908D01*
X153680185Y-49248869D01*
X153724271Y-49210363D01*
X153723187Y-49208605D01*
X153729332Y-49204814D01*
X153729334Y-49204814D01*
X153878656Y-49112712D01*
X153972675Y-49018692D01*
X154033994Y-48985210D01*
X154103686Y-48990194D01*
X154148034Y-49018695D01*
X154241654Y-49112315D01*
X154390875Y-49204356D01*
X154390880Y-49204358D01*
X154557302Y-49259505D01*
X154557309Y-49259506D01*
X154660019Y-49269999D01*
X154809999Y-49269999D01*
X155310000Y-49269999D01*
X155459972Y-49269999D01*
X155459986Y-49269998D01*
X155562697Y-49259505D01*
X155729119Y-49204358D01*
X155729124Y-49204356D01*
X155878345Y-49112315D01*
X155911949Y-49078711D01*
X164199500Y-49078711D01*
X164199500Y-49321288D01*
X164230362Y-49555717D01*
X164231162Y-49561789D01*
X164245022Y-49613516D01*
X164293947Y-49796104D01*
X164386773Y-50020205D01*
X164386777Y-50020214D01*
X164396419Y-50036914D01*
X164508064Y-50230289D01*
X164508066Y-50230292D01*
X164508067Y-50230293D01*
X164655733Y-50422736D01*
X164655739Y-50422743D01*
X164827256Y-50594260D01*
X164827262Y-50594265D01*
X165019711Y-50741936D01*
X165229788Y-50863224D01*
X165453900Y-50956054D01*
X165688211Y-51018838D01*
X165868586Y-51042584D01*
X165928711Y-51050500D01*
X165928712Y-51050500D01*
X166171289Y-51050500D01*
X166219388Y-51044167D01*
X166411789Y-51018838D01*
X166646100Y-50956054D01*
X166870212Y-50863224D01*
X167080289Y-50741936D01*
X167272738Y-50594265D01*
X167444265Y-50422738D01*
X167591936Y-50230289D01*
X167713224Y-50020212D01*
X167806054Y-49796100D01*
X167868838Y-49561789D01*
X167900500Y-49321288D01*
X167900500Y-49078712D01*
X167868838Y-48838211D01*
X167806054Y-48603900D01*
X167713224Y-48379788D01*
X167591936Y-48169711D01*
X167444265Y-47977262D01*
X167444260Y-47977256D01*
X167272743Y-47805739D01*
X167272736Y-47805733D01*
X167080293Y-47658067D01*
X167080292Y-47658066D01*
X167080289Y-47658064D01*
X166870212Y-47536776D01*
X166870205Y-47536773D01*
X166646104Y-47443947D01*
X166411785Y-47381161D01*
X166171289Y-47349500D01*
X166171288Y-47349500D01*
X165928712Y-47349500D01*
X165928711Y-47349500D01*
X165688214Y-47381161D01*
X165453895Y-47443947D01*
X165229794Y-47536773D01*
X165229788Y-47536776D01*
X165044163Y-47643947D01*
X165019706Y-47658067D01*
X164827263Y-47805733D01*
X164827256Y-47805739D01*
X164655739Y-47977256D01*
X164655733Y-47977263D01*
X164508067Y-48169706D01*
X164508064Y-48169710D01*
X164508064Y-48169711D01*
X164503704Y-48177263D01*
X164386777Y-48379785D01*
X164386773Y-48379794D01*
X164293947Y-48603895D01*
X164231161Y-48838214D01*
X164199500Y-49078711D01*
X155911949Y-49078711D01*
X156002315Y-48988345D01*
X156094356Y-48839124D01*
X156094358Y-48839119D01*
X156149505Y-48672697D01*
X156149506Y-48672690D01*
X156159999Y-48569986D01*
X156160000Y-48569973D01*
X156160000Y-48320000D01*
X155310000Y-48320000D01*
X155310000Y-49269999D01*
X154809999Y-49269999D01*
X154810000Y-49269998D01*
X154810000Y-47820000D01*
X155310000Y-47820000D01*
X156159999Y-47820000D01*
X156159999Y-47570028D01*
X156159998Y-47570013D01*
X156149505Y-47467302D01*
X156094358Y-47300880D01*
X156094356Y-47300875D01*
X156002315Y-47151654D01*
X155878345Y-47027684D01*
X155729124Y-46935643D01*
X155729119Y-46935641D01*
X155562697Y-46880494D01*
X155562690Y-46880493D01*
X155459986Y-46870000D01*
X155310000Y-46870000D01*
X155310000Y-47820000D01*
X154810000Y-47820000D01*
X154810000Y-46870000D01*
X154660027Y-46870000D01*
X154660012Y-46870001D01*
X154557302Y-46880494D01*
X154390880Y-46935641D01*
X154390875Y-46935643D01*
X154241657Y-47027682D01*
X154148034Y-47121305D01*
X154086710Y-47154789D01*
X154017019Y-47149805D01*
X153972672Y-47121304D01*
X153878657Y-47027289D01*
X153878656Y-47027288D01*
X153729334Y-46935186D01*
X153562797Y-46880001D01*
X153562795Y-46880000D01*
X153460010Y-46869500D01*
X152659998Y-46869500D01*
X152659980Y-46869501D01*
X152557203Y-46880000D01*
X152557200Y-46880001D01*
X152390668Y-46935185D01*
X152390663Y-46935187D01*
X152241342Y-47027289D01*
X152147681Y-47120951D01*
X152086358Y-47154436D01*
X152016666Y-47149452D01*
X151972319Y-47120951D01*
X151878657Y-47027289D01*
X151878656Y-47027288D01*
X151729334Y-46935186D01*
X151562797Y-46880001D01*
X151562795Y-46880000D01*
X151460010Y-46869500D01*
X150659998Y-46869500D01*
X150659980Y-46869501D01*
X150557203Y-46880000D01*
X150557200Y-46880001D01*
X150390668Y-46935185D01*
X150390663Y-46935187D01*
X150241342Y-47027289D01*
X150147681Y-47120951D01*
X150086358Y-47154436D01*
X150016666Y-47149452D01*
X149972319Y-47120951D01*
X149878657Y-47027289D01*
X149878656Y-47027288D01*
X149729334Y-46935186D01*
X149562797Y-46880001D01*
X149562795Y-46880000D01*
X149460010Y-46869500D01*
X148659998Y-46869500D01*
X148659980Y-46869501D01*
X148557203Y-46880000D01*
X148557200Y-46880001D01*
X148390668Y-46935185D01*
X148390663Y-46935187D01*
X148241342Y-47027289D01*
X148117289Y-47151342D01*
X148025187Y-47300663D01*
X148025185Y-47300668D01*
X147997405Y-47384504D01*
X147957632Y-47441949D01*
X147893116Y-47468772D01*
X147879699Y-47469500D01*
X145830943Y-47469500D01*
X145678213Y-47510423D01*
X145632571Y-47536776D01*
X145632570Y-47536776D01*
X145541287Y-47589477D01*
X145541282Y-47589481D01*
X143729481Y-49401282D01*
X143729479Y-49401285D01*
X143679361Y-49488094D01*
X143679359Y-49488097D01*
X143668155Y-49507502D01*
X143617587Y-49555717D01*
X143560769Y-49569500D01*
X143312130Y-49569500D01*
X143312123Y-49569501D01*
X143252516Y-49575908D01*
X143117671Y-49626202D01*
X143117664Y-49626206D01*
X143002455Y-49712452D01*
X143002452Y-49712455D01*
X142916206Y-49827664D01*
X142916202Y-49827671D01*
X142865908Y-49962517D01*
X142859501Y-50022116D01*
X142859500Y-50022135D01*
X142859500Y-51817870D01*
X142859501Y-51817876D01*
X142865908Y-51877483D01*
X142916202Y-52012328D01*
X142916206Y-52012335D01*
X143002452Y-52127544D01*
X143002455Y-52127547D01*
X143117664Y-52213793D01*
X143117671Y-52213797D01*
X143162618Y-52230561D01*
X143252517Y-52264091D01*
X143312127Y-52270500D01*
X143335497Y-52270499D01*
X143402536Y-52290181D01*
X143448292Y-52342983D01*
X143459500Y-52394499D01*
X143459500Y-52977770D01*
X143439815Y-53044809D01*
X143423181Y-53065451D01*
X143162951Y-53325681D01*
X143101628Y-53359166D01*
X143075270Y-53362000D01*
X141971248Y-53362000D01*
X141904209Y-53342315D01*
X141873468Y-53311002D01*
X141872193Y-53312011D01*
X141867711Y-53306343D01*
X141743657Y-53182289D01*
X141743656Y-53182288D01*
X141594334Y-53090186D01*
X141427797Y-53035001D01*
X141427795Y-53035000D01*
X141325010Y-53024500D01*
X140274998Y-53024500D01*
X140274980Y-53024501D01*
X140172203Y-53035000D01*
X140172200Y-53035001D01*
X140005668Y-53090185D01*
X140005663Y-53090187D01*
X139856342Y-53182289D01*
X139732288Y-53306343D01*
X139727807Y-53312011D01*
X139725984Y-53310569D01*
X139682335Y-53349825D01*
X139628752Y-53362000D01*
X138913580Y-53362000D01*
X138768592Y-53390840D01*
X138768586Y-53390842D01*
X138632008Y-53447414D01*
X138631996Y-53447421D01*
X138582769Y-53480313D01*
X138509088Y-53529544D01*
X138509080Y-53529550D01*
X138217048Y-53821584D01*
X136875451Y-55163181D01*
X136814128Y-55196666D01*
X136787770Y-55199500D01*
X136722351Y-55199500D01*
X136655312Y-55179815D01*
X136609557Y-55127011D01*
X136599061Y-55088752D01*
X136594091Y-55042516D01*
X136543797Y-54907671D01*
X136543793Y-54907664D01*
X136457547Y-54792455D01*
X136457544Y-54792452D01*
X136342335Y-54706206D01*
X136342328Y-54706202D01*
X136207483Y-54655908D01*
X136161243Y-54650937D01*
X136096693Y-54624199D01*
X136056845Y-54566806D01*
X136050500Y-54527648D01*
X136050500Y-52026079D01*
X136021659Y-51881092D01*
X136021658Y-51881091D01*
X136021658Y-51881087D01*
X136015399Y-51865977D01*
X135965087Y-51744511D01*
X135965085Y-51744507D01*
X135965084Y-51744505D01*
X135928810Y-51690217D01*
X135882952Y-51621584D01*
X135066257Y-50804889D01*
X135032772Y-50743566D01*
X135031465Y-50697815D01*
X135053000Y-50561854D01*
X135053000Y-50238146D01*
X135017222Y-50012255D01*
X135017221Y-50012251D01*
X135017221Y-50012250D01*
X134946549Y-49794744D01*
X134929758Y-49761789D01*
X134842717Y-49590962D01*
X134708286Y-49405934D01*
X134546566Y-49244214D01*
X134361538Y-49109783D01*
X134300556Y-49078711D01*
X134157755Y-49005950D01*
X133940248Y-48935278D01*
X133754812Y-48905908D01*
X133714354Y-48899500D01*
X133485646Y-48899500D01*
X133445188Y-48905908D01*
X133259753Y-48935278D01*
X133259750Y-48935278D01*
X133042244Y-49005950D01*
X132838461Y-49109783D01*
X132772550Y-49157671D01*
X132653434Y-49244214D01*
X132653432Y-49244216D01*
X132653431Y-49244216D01*
X132491716Y-49405931D01*
X132491709Y-49405940D01*
X132430007Y-49490864D01*
X132374677Y-49533530D01*
X132305063Y-49539508D01*
X132243269Y-49506901D01*
X132229372Y-49490863D01*
X132167907Y-49406263D01*
X132167902Y-49406257D01*
X132006242Y-49244597D01*
X131821276Y-49110211D01*
X131617568Y-49006417D01*
X131400124Y-48935765D01*
X131310000Y-48921490D01*
X131310000Y-49909252D01*
X131272292Y-49887482D01*
X131132409Y-49850000D01*
X130987591Y-49850000D01*
X130847708Y-49887482D01*
X130810000Y-49909252D01*
X130810000Y-48921490D01*
X130809999Y-48921490D01*
X130719875Y-48935765D01*
X130502431Y-49006417D01*
X130298719Y-49110213D01*
X130115939Y-49243010D01*
X130050132Y-49266490D01*
X129982079Y-49250664D01*
X129933384Y-49200558D01*
X129926875Y-49186033D01*
X129916296Y-49157669D01*
X129916295Y-49157667D01*
X129916293Y-49157664D01*
X129830047Y-49042455D01*
X129830044Y-49042452D01*
X129714835Y-48956206D01*
X129714828Y-48956202D01*
X129579982Y-48905908D01*
X129579983Y-48905908D01*
X129520383Y-48899501D01*
X129520381Y-48899500D01*
X129520373Y-48899500D01*
X129520364Y-48899500D01*
X127519629Y-48899500D01*
X127519623Y-48899501D01*
X127460016Y-48905908D01*
X127325171Y-48956202D01*
X127325164Y-48956206D01*
X127209955Y-49042452D01*
X127209952Y-49042455D01*
X127123706Y-49157664D01*
X127123702Y-49157671D01*
X127073408Y-49292517D01*
X127067001Y-49352116D01*
X127067000Y-49352135D01*
X127067000Y-50740269D01*
X127047315Y-50807308D01*
X127030681Y-50827950D01*
X126417048Y-51441583D01*
X126397938Y-51470185D01*
X126373017Y-51507483D01*
X126356036Y-51532897D01*
X126334916Y-51564504D01*
X126334912Y-51564511D01*
X126278343Y-51701082D01*
X126278340Y-51701092D01*
X126249500Y-51846079D01*
X126249500Y-52437770D01*
X126229815Y-52504809D01*
X126213181Y-52525451D01*
X126182289Y-52556342D01*
X126090187Y-52705663D01*
X126090185Y-52705668D01*
X126090115Y-52705880D01*
X126035001Y-52872203D01*
X126035001Y-52872204D01*
X126035000Y-52872204D01*
X126024500Y-52974983D01*
X126024500Y-54025001D01*
X126024501Y-54025019D01*
X126035000Y-54127796D01*
X126035001Y-54127799D01*
X126090185Y-54294331D01*
X126090187Y-54294336D01*
X126103960Y-54316666D01*
X126182288Y-54443656D01*
X126182289Y-54443657D01*
X126182290Y-54443658D01*
X126186766Y-54449319D01*
X126185692Y-54450167D01*
X126215441Y-54504647D01*
X126210457Y-54574339D01*
X126168585Y-54630272D01*
X126107530Y-54654295D01*
X126092516Y-54655909D01*
X125957671Y-54706202D01*
X125957664Y-54706206D01*
X125842455Y-54792452D01*
X125842452Y-54792455D01*
X125756206Y-54907664D01*
X125756202Y-54907671D01*
X125705908Y-55042517D01*
X125699501Y-55102116D01*
X125699500Y-55102129D01*
X125699500Y-56797870D01*
X125699501Y-56797876D01*
X125705908Y-56857483D01*
X125756202Y-56992328D01*
X125756206Y-56992335D01*
X125842452Y-57107544D01*
X125842455Y-57107547D01*
X125957664Y-57193793D01*
X125957671Y-57193797D01*
X126092517Y-57244091D01*
X126092516Y-57244091D01*
X126099444Y-57244835D01*
X126152127Y-57250500D01*
X127847872Y-57250499D01*
X127907483Y-57244091D01*
X128042331Y-57193796D01*
X128157546Y-57107546D01*
X128243796Y-56992331D01*
X128294091Y-56857483D01*
X128300500Y-56797873D01*
X128300499Y-56797845D01*
X128300678Y-56794547D01*
X128302183Y-56794627D01*
X128320112Y-56733326D01*
X128372868Y-56687514D01*
X128416465Y-56679981D01*
X129100000Y-55996446D01*
X129100000Y-56002661D01*
X129127259Y-56104394D01*
X129179920Y-56195606D01*
X129254394Y-56270080D01*
X129345606Y-56322741D01*
X129447339Y-56350000D01*
X129453553Y-56350000D01*
X128774526Y-57029025D01*
X128847513Y-57080132D01*
X128847521Y-57080136D01*
X129053668Y-57176264D01*
X129053682Y-57176269D01*
X129273389Y-57235139D01*
X129273400Y-57235141D01*
X129499998Y-57254966D01*
X129500002Y-57254966D01*
X129726599Y-57235141D01*
X129726610Y-57235139D01*
X129946317Y-57176269D01*
X129946331Y-57176264D01*
X130152478Y-57080136D01*
X130225471Y-57029024D01*
X129546447Y-56350000D01*
X129552661Y-56350000D01*
X129654394Y-56322741D01*
X129745606Y-56270080D01*
X129820080Y-56195606D01*
X129872741Y-56104394D01*
X129900000Y-56002661D01*
X129900000Y-55996447D01*
X130579024Y-56675471D01*
X130630136Y-56602478D01*
X130726264Y-56396331D01*
X130726269Y-56396317D01*
X130785139Y-56176610D01*
X130785141Y-56176599D01*
X130804966Y-55950002D01*
X130804966Y-55949997D01*
X130785141Y-55723400D01*
X130785139Y-55723389D01*
X130726269Y-55503682D01*
X130726264Y-55503668D01*
X130630136Y-55297521D01*
X130630132Y-55297513D01*
X130579025Y-55224526D01*
X129900000Y-55903551D01*
X129900000Y-55897339D01*
X129872741Y-55795606D01*
X129820080Y-55704394D01*
X129745606Y-55629920D01*
X129654394Y-55577259D01*
X129552661Y-55550000D01*
X129546448Y-55550000D01*
X130225472Y-54870974D01*
X130152480Y-54819864D01*
X130032215Y-54763784D01*
X129979776Y-54717612D01*
X129960624Y-54650418D01*
X129980840Y-54583537D01*
X129996939Y-54563720D01*
X130117317Y-54443342D01*
X130209356Y-54294124D01*
X130209358Y-54294119D01*
X130264505Y-54127697D01*
X130264506Y-54127690D01*
X130274999Y-54024986D01*
X130275000Y-54024973D01*
X130275000Y-53750000D01*
X129061500Y-53750000D01*
X128994461Y-53730315D01*
X128948706Y-53677511D01*
X128937500Y-53626000D01*
X128937500Y-53250000D01*
X129437500Y-53250000D01*
X130274999Y-53250000D01*
X130274999Y-52975028D01*
X130274998Y-52975013D01*
X131775000Y-52975013D01*
X131775000Y-53250000D01*
X132612500Y-53250000D01*
X132612500Y-52275000D01*
X132475027Y-52275000D01*
X132475012Y-52275001D01*
X132372302Y-52285494D01*
X132205880Y-52340641D01*
X132205875Y-52340643D01*
X132056654Y-52432684D01*
X131932684Y-52556654D01*
X131840643Y-52705875D01*
X131840641Y-52705880D01*
X131785494Y-52872302D01*
X131785493Y-52872309D01*
X131775000Y-52975013D01*
X130274998Y-52975013D01*
X130264505Y-52872302D01*
X130209358Y-52705880D01*
X130209356Y-52705875D01*
X130117315Y-52556654D01*
X129993345Y-52432684D01*
X129844124Y-52340643D01*
X129844119Y-52340641D01*
X129677697Y-52285494D01*
X129677690Y-52285493D01*
X129574986Y-52275000D01*
X129437500Y-52275000D01*
X129437500Y-53250000D01*
X128937500Y-53250000D01*
X128937500Y-52275000D01*
X128800027Y-52275000D01*
X128800012Y-52275001D01*
X128697302Y-52285494D01*
X128530880Y-52340641D01*
X128530875Y-52340643D01*
X128381654Y-52432684D01*
X128257683Y-52556655D01*
X128257679Y-52556660D01*
X128255826Y-52559665D01*
X128254018Y-52561290D01*
X128253202Y-52562323D01*
X128253025Y-52562183D01*
X128203874Y-52606385D01*
X128134911Y-52617601D01*
X128070831Y-52589752D01*
X128044753Y-52559653D01*
X128044737Y-52559628D01*
X128042712Y-52556344D01*
X127918656Y-52432288D01*
X127823546Y-52373624D01*
X127776822Y-52321676D01*
X127765599Y-52252713D01*
X127793443Y-52188631D01*
X127800953Y-52180413D01*
X128044548Y-51936817D01*
X128105871Y-51903333D01*
X128132229Y-51900499D01*
X129520371Y-51900499D01*
X129520372Y-51900499D01*
X129579983Y-51894091D01*
X129714831Y-51843796D01*
X129830046Y-51757546D01*
X129916296Y-51642331D01*
X129926872Y-51613974D01*
X129968740Y-51558041D01*
X130034204Y-51533622D01*
X130102477Y-51548472D01*
X130115940Y-51556988D01*
X130298723Y-51689788D01*
X130502429Y-51793582D01*
X130719871Y-51864234D01*
X130810000Y-51878509D01*
X130810000Y-50890747D01*
X130847708Y-50912518D01*
X130987591Y-50950000D01*
X131132409Y-50950000D01*
X131272292Y-50912518D01*
X131310000Y-50890747D01*
X131310000Y-51878508D01*
X131400128Y-51864234D01*
X131617570Y-51793582D01*
X131821276Y-51689788D01*
X132006242Y-51555402D01*
X132167905Y-51393739D01*
X132229371Y-51309137D01*
X132284701Y-51266470D01*
X132354314Y-51260491D01*
X132416109Y-51293096D01*
X132430007Y-51309134D01*
X132491714Y-51394066D01*
X132653434Y-51555786D01*
X132838462Y-51690217D01*
X132970599Y-51757544D01*
X133042244Y-51794049D01*
X133259751Y-51864721D01*
X133259752Y-51864721D01*
X133259755Y-51864722D01*
X133485646Y-51900500D01*
X133485647Y-51900500D01*
X133714353Y-51900500D01*
X133714354Y-51900500D01*
X133859676Y-51877483D01*
X133932322Y-51865977D01*
X134001616Y-51874932D01*
X134039401Y-51900769D01*
X134292332Y-52153700D01*
X134325817Y-52215023D01*
X134320833Y-52284715D01*
X134278961Y-52340648D01*
X134269748Y-52346920D01*
X134131342Y-52432289D01*
X134007288Y-52556343D01*
X134007283Y-52556349D01*
X134005241Y-52559661D01*
X134003247Y-52561453D01*
X134002807Y-52562011D01*
X134002711Y-52561935D01*
X133953291Y-52606383D01*
X133884328Y-52617602D01*
X133820247Y-52589755D01*
X133794168Y-52559656D01*
X133792319Y-52556659D01*
X133792316Y-52556655D01*
X133668345Y-52432684D01*
X133519124Y-52340643D01*
X133519119Y-52340641D01*
X133352697Y-52285494D01*
X133352690Y-52285493D01*
X133249986Y-52275000D01*
X133112500Y-52275000D01*
X133112500Y-53626000D01*
X133092815Y-53693039D01*
X133040011Y-53738794D01*
X132988500Y-53750000D01*
X131775001Y-53750000D01*
X131775001Y-54024986D01*
X131785494Y-54127697D01*
X131840641Y-54294119D01*
X131840643Y-54294124D01*
X131932684Y-54443345D01*
X132056656Y-54567317D01*
X132136257Y-54616415D01*
X132182982Y-54668363D01*
X132194205Y-54737325D01*
X132166361Y-54801408D01*
X132142284Y-54823529D01*
X132074526Y-54870973D01*
X132074526Y-54870974D01*
X132753553Y-55550000D01*
X132747339Y-55550000D01*
X132645606Y-55577259D01*
X132554394Y-55629920D01*
X132479920Y-55704394D01*
X132427259Y-55795606D01*
X132400000Y-55897339D01*
X132400000Y-55903552D01*
X131720974Y-55224526D01*
X131720973Y-55224526D01*
X131669868Y-55297512D01*
X131669866Y-55297516D01*
X131573734Y-55503673D01*
X131573730Y-55503682D01*
X131514860Y-55723389D01*
X131514858Y-55723400D01*
X131495034Y-55949997D01*
X131495034Y-55950002D01*
X131514858Y-56176599D01*
X131514860Y-56176610D01*
X131573730Y-56396317D01*
X131573735Y-56396331D01*
X131669863Y-56602478D01*
X131720974Y-56675472D01*
X132400000Y-55996446D01*
X132400000Y-56002661D01*
X132427259Y-56104394D01*
X132479920Y-56195606D01*
X132554394Y-56270080D01*
X132645606Y-56322741D01*
X132747339Y-56350000D01*
X132753553Y-56350000D01*
X132074526Y-57029025D01*
X132147513Y-57080132D01*
X132147521Y-57080136D01*
X132353668Y-57176264D01*
X132353682Y-57176269D01*
X132573389Y-57235139D01*
X132573400Y-57235141D01*
X132799998Y-57254966D01*
X132800002Y-57254966D01*
X133026599Y-57235141D01*
X133026610Y-57235139D01*
X133246317Y-57176269D01*
X133246331Y-57176264D01*
X133452478Y-57080136D01*
X133525471Y-57029024D01*
X132846447Y-56350000D01*
X132852661Y-56350000D01*
X132954394Y-56322741D01*
X133045606Y-56270080D01*
X133120080Y-56195606D01*
X133172741Y-56104394D01*
X133200000Y-56002661D01*
X133200000Y-55996447D01*
X133884197Y-56680644D01*
X133933192Y-56690491D01*
X133983375Y-56739106D01*
X133998049Y-56794632D01*
X133999099Y-56794576D01*
X133999146Y-56794571D01*
X133999146Y-56794573D01*
X133999324Y-56794564D01*
X133999501Y-56797876D01*
X134005908Y-56857483D01*
X134056202Y-56992328D01*
X134056206Y-56992335D01*
X134142452Y-57107544D01*
X134142455Y-57107547D01*
X134257664Y-57193793D01*
X134257671Y-57193797D01*
X134392517Y-57244091D01*
X134392516Y-57244091D01*
X134399444Y-57244835D01*
X134452127Y-57250500D01*
X136147872Y-57250499D01*
X136207483Y-57244091D01*
X136342331Y-57193796D01*
X136457546Y-57107546D01*
X136543796Y-56992331D01*
X136594091Y-56857483D01*
X136599062Y-56811242D01*
X136625799Y-56746694D01*
X136683191Y-56706846D01*
X136722351Y-56700500D01*
X137223920Y-56700500D01*
X137327071Y-56679981D01*
X137368913Y-56671658D01*
X137505495Y-56615084D01*
X137564304Y-56575789D01*
X137565506Y-56574986D01*
X139575001Y-56574986D01*
X139585494Y-56677697D01*
X139640641Y-56844119D01*
X139640643Y-56844124D01*
X139732684Y-56993345D01*
X139856654Y-57117315D01*
X140005875Y-57209356D01*
X140005880Y-57209358D01*
X140172302Y-57264505D01*
X140172309Y-57264506D01*
X140275019Y-57274999D01*
X140549999Y-57274999D01*
X141050000Y-57274999D01*
X141324972Y-57274999D01*
X141324986Y-57274998D01*
X141427697Y-57264505D01*
X141594119Y-57209358D01*
X141594124Y-57209356D01*
X141743345Y-57117315D01*
X141867315Y-56993345D01*
X141959356Y-56844124D01*
X141959358Y-56844119D01*
X142014505Y-56677697D01*
X142014506Y-56677690D01*
X142024999Y-56574986D01*
X142025000Y-56574973D01*
X142025000Y-56437500D01*
X141050000Y-56437500D01*
X141050000Y-57274999D01*
X140549999Y-57274999D01*
X140550000Y-57274998D01*
X140550000Y-56437500D01*
X139575001Y-56437500D01*
X139575001Y-56574986D01*
X137565506Y-56574986D01*
X137628416Y-56532952D01*
X139262047Y-54899318D01*
X139323370Y-54865834D01*
X139349728Y-54863000D01*
X139628752Y-54863000D01*
X139695791Y-54882685D01*
X139726531Y-54913997D01*
X139727807Y-54912989D01*
X139732288Y-54918656D01*
X139856344Y-55042712D01*
X139859628Y-55044737D01*
X139859653Y-55044753D01*
X139861445Y-55046746D01*
X139862011Y-55047193D01*
X139861934Y-55047289D01*
X139906379Y-55096699D01*
X139917603Y-55165661D01*
X139889761Y-55229744D01*
X139859665Y-55255826D01*
X139856660Y-55257679D01*
X139856655Y-55257683D01*
X139732684Y-55381654D01*
X139640643Y-55530875D01*
X139640641Y-55530880D01*
X139585494Y-55697302D01*
X139585493Y-55697309D01*
X139575000Y-55800013D01*
X139575000Y-55937500D01*
X142024999Y-55937500D01*
X142024999Y-55800028D01*
X142024998Y-55800013D01*
X142014505Y-55697302D01*
X141959358Y-55530880D01*
X141959356Y-55530875D01*
X141867315Y-55381654D01*
X141743344Y-55257683D01*
X141743341Y-55257681D01*
X141740339Y-55255829D01*
X141738713Y-55254021D01*
X141737677Y-55253202D01*
X141737817Y-55253024D01*
X141693617Y-55203880D01*
X141682397Y-55134917D01*
X141710243Y-55070836D01*
X141740344Y-55044754D01*
X141743656Y-55042712D01*
X141867712Y-54918656D01*
X141867715Y-54918650D01*
X141872193Y-54912989D01*
X141874015Y-54914430D01*
X141917665Y-54875175D01*
X141971248Y-54863000D01*
X142663000Y-54863000D01*
X142730039Y-54882685D01*
X142775794Y-54935489D01*
X142787000Y-54987000D01*
X142787000Y-55001569D01*
X142807003Y-55102127D01*
X142809050Y-55112416D01*
X142811999Y-55127244D01*
X142841928Y-55199500D01*
X142861035Y-55245627D01*
X142932223Y-55352169D01*
X142932226Y-55352173D01*
X142932227Y-55352174D01*
X143961931Y-56381877D01*
X144955331Y-57375277D01*
X144999690Y-57404916D01*
X145061873Y-57446465D01*
X145180256Y-57495501D01*
X145197691Y-57498969D01*
X145259600Y-57531352D01*
X145294176Y-57592067D01*
X145297500Y-57620583D01*
X145297500Y-57659323D01*
X145312942Y-57776622D01*
X145312945Y-57776634D01*
X145321337Y-57796895D01*
X145328804Y-57866364D01*
X145321338Y-57891794D01*
X145312456Y-57913238D01*
X145312455Y-57913239D01*
X145297000Y-58030638D01*
X145297000Y-58095500D01*
X145277315Y-58162539D01*
X145224511Y-58208294D01*
X145173000Y-58219500D01*
X144559057Y-58219500D01*
X144400942Y-58219500D01*
X144248215Y-58260423D01*
X144248214Y-58260423D01*
X144248212Y-58260424D01*
X144248209Y-58260425D01*
X144198096Y-58289359D01*
X144198095Y-58289360D01*
X144155211Y-58314119D01*
X144111285Y-58339479D01*
X144111282Y-58339481D01*
X143648747Y-58802017D01*
X143587424Y-58835502D01*
X143517732Y-58830518D01*
X143473385Y-58802017D01*
X143428657Y-58757289D01*
X143428656Y-58757288D01*
X143302311Y-58679358D01*
X143279336Y-58665187D01*
X143279331Y-58665185D01*
X143267679Y-58661324D01*
X143112797Y-58610001D01*
X143112795Y-58610000D01*
X143010010Y-58599500D01*
X142209998Y-58599500D01*
X142209980Y-58599501D01*
X142107203Y-58610000D01*
X142107200Y-58610001D01*
X141940668Y-58665185D01*
X141940663Y-58665187D01*
X141791342Y-58757289D01*
X141697681Y-58850951D01*
X141636358Y-58884436D01*
X141566666Y-58879452D01*
X141522319Y-58850951D01*
X141428657Y-58757289D01*
X141428656Y-58757288D01*
X141302311Y-58679358D01*
X141279336Y-58665187D01*
X141279331Y-58665185D01*
X141267679Y-58661324D01*
X141112797Y-58610001D01*
X141112795Y-58610000D01*
X141010010Y-58599500D01*
X140209998Y-58599500D01*
X140209980Y-58599501D01*
X140107203Y-58610000D01*
X140107200Y-58610001D01*
X139940668Y-58665185D01*
X139940663Y-58665187D01*
X139791342Y-58757289D01*
X139667289Y-58881342D01*
X139599901Y-58990597D01*
X139547953Y-59037321D01*
X139494362Y-59049500D01*
X139151915Y-59049500D01*
X139138031Y-59048720D01*
X139100002Y-59044435D01*
X139099996Y-59044435D01*
X138920750Y-59064630D01*
X138920745Y-59064631D01*
X138750476Y-59124211D01*
X138597737Y-59220184D01*
X138470184Y-59347737D01*
X138374211Y-59500476D01*
X138314631Y-59670745D01*
X138314630Y-59670750D01*
X138294435Y-59849996D01*
X138294435Y-59850003D01*
X138314630Y-60029249D01*
X138314631Y-60029254D01*
X138374211Y-60199523D01*
X138470184Y-60352262D01*
X138597738Y-60479816D01*
X138688080Y-60536582D01*
X138747229Y-60573748D01*
X138750478Y-60575789D01*
X138798230Y-60592498D01*
X138920745Y-60635368D01*
X138920750Y-60635369D01*
X139099996Y-60655565D01*
X139100000Y-60655565D01*
X139100004Y-60655565D01*
X139279249Y-60635369D01*
X139279252Y-60635368D01*
X139279255Y-60635368D01*
X139449522Y-60575789D01*
X139449522Y-60575788D01*
X139456095Y-60573489D01*
X139456574Y-60574859D01*
X139517727Y-60564783D01*
X139581864Y-60592498D01*
X139608139Y-60622760D01*
X139625428Y-60650791D01*
X139667287Y-60718655D01*
X139755951Y-60807319D01*
X139789436Y-60868642D01*
X139784452Y-60938334D01*
X139755951Y-60982681D01*
X139707289Y-61031342D01*
X139675784Y-61082419D01*
X139618388Y-61175476D01*
X139611395Y-61186813D01*
X139609600Y-61185706D01*
X139570313Y-61230337D01*
X139504092Y-61249500D01*
X125812229Y-61249500D01*
X125745190Y-61229815D01*
X125724548Y-61213181D01*
X114628421Y-50117052D01*
X114628420Y-50117051D01*
X114519847Y-50044506D01*
X114519844Y-50044504D01*
X114505495Y-50034916D01*
X114505490Y-50034913D01*
X114368917Y-49978343D01*
X114368907Y-49978340D01*
X114223920Y-49949500D01*
X114223918Y-49949500D01*
X106976082Y-49949500D01*
X106976080Y-49949500D01*
X106831092Y-49978340D01*
X106831082Y-49978343D01*
X106694509Y-50034913D01*
X106694500Y-50034918D01*
X106680155Y-50044504D01*
X106680153Y-50044506D01*
X106571579Y-50117051D01*
X106571578Y-50117052D01*
X105495798Y-51192833D01*
X105484971Y-51209038D01*
X105457268Y-51250500D01*
X105413669Y-51315749D01*
X105413662Y-51315761D01*
X105357093Y-51452332D01*
X105357090Y-51452342D01*
X105328250Y-51597329D01*
X105328250Y-52964792D01*
X105308565Y-53031831D01*
X105269348Y-53070330D01*
X105260094Y-53076037D01*
X105136039Y-53200092D01*
X105043937Y-53349413D01*
X105043935Y-53349418D01*
X105016099Y-53433420D01*
X104988751Y-53515953D01*
X104988751Y-53515954D01*
X104988750Y-53515954D01*
X104978250Y-53618733D01*
X72750500Y-53618733D01*
X72750500Y-49278711D01*
X74799500Y-49278711D01*
X74799500Y-49521288D01*
X74831161Y-49761785D01*
X74893947Y-49996104D01*
X74973312Y-50187708D01*
X74986776Y-50220212D01*
X75108064Y-50430289D01*
X75108066Y-50430292D01*
X75108067Y-50430293D01*
X75255733Y-50622736D01*
X75255739Y-50622743D01*
X75427256Y-50794260D01*
X75427262Y-50794265D01*
X75619711Y-50941936D01*
X75829788Y-51063224D01*
X76053900Y-51156054D01*
X76288211Y-51218838D01*
X76468586Y-51242584D01*
X76528711Y-51250500D01*
X76528712Y-51250500D01*
X76771289Y-51250500D01*
X76819388Y-51244167D01*
X77011789Y-51218838D01*
X77246100Y-51156054D01*
X77470212Y-51063224D01*
X77680289Y-50941936D01*
X77872738Y-50794265D01*
X78044265Y-50622738D01*
X78191936Y-50430289D01*
X78313224Y-50220212D01*
X78406054Y-49996100D01*
X78468838Y-49761789D01*
X78500500Y-49521288D01*
X78500500Y-49278712D01*
X78498036Y-49259999D01*
X78474170Y-49078711D01*
X78468838Y-49038211D01*
X78406054Y-48803900D01*
X78313224Y-48579788D01*
X78191936Y-48369711D01*
X78044265Y-48177262D01*
X78044260Y-48177256D01*
X77872743Y-48005739D01*
X77872736Y-48005733D01*
X77680293Y-47858067D01*
X77680292Y-47858066D01*
X77680289Y-47858064D01*
X77470212Y-47736776D01*
X77470205Y-47736773D01*
X77246104Y-47643947D01*
X77128944Y-47612554D01*
X77011789Y-47581162D01*
X77011788Y-47581161D01*
X77011785Y-47581161D01*
X76771289Y-47549500D01*
X76771288Y-47549500D01*
X76528712Y-47549500D01*
X76528711Y-47549500D01*
X76288214Y-47581161D01*
X76053895Y-47643947D01*
X75829794Y-47736773D01*
X75829785Y-47736777D01*
X75619706Y-47858067D01*
X75427263Y-48005733D01*
X75427256Y-48005739D01*
X75255739Y-48177256D01*
X75255733Y-48177263D01*
X75108067Y-48369706D01*
X74986777Y-48579785D01*
X74986773Y-48579794D01*
X74893947Y-48803895D01*
X74831161Y-49038214D01*
X74799500Y-49278711D01*
X72750500Y-49278711D01*
X72750500Y-45324500D01*
X72770185Y-45257461D01*
X72822989Y-45211706D01*
X72874500Y-45200500D01*
X169675500Y-45200500D01*
X169742539Y-45220185D01*
G37*
%TD.AperFunction*%
%TD*%
M02*
