%TF.GenerationSoftware,KiCad,Pcbnew,8.0.6*%
%TF.CreationDate,2024-12-30T11:18:50+02:00*%
%TF.ProjectId,project,70726f6a-6563-4742-9e6b-696361645f70,rev?*%
%TF.SameCoordinates,Original*%
%TF.FileFunction,Profile,NP*%
%FSLAX46Y46*%
G04 Gerber Fmt 4.6, Leading zero omitted, Abs format (unit mm)*
G04 Created by KiCad (PCBNEW 8.0.6) date 2024-12-30 11:18:50*
%MOMM*%
%LPD*%
G01*
G04 APERTURE LIST*
%TA.AperFunction,Profile*%
%ADD10C,0.050000*%
%TD*%
%TA.AperFunction,Profile*%
%ADD11C,0.500000*%
%TD*%
G04 APERTURE END LIST*
D10*
X92207500Y-110695000D02*
G75*
G02*
X90207500Y-110695000I-1000000J0D01*
G01*
X90207500Y-110695000D02*
G75*
G02*
X92207500Y-110695000I1000000J0D01*
G01*
X89667500Y-110695000D02*
G75*
G02*
X87667500Y-110695000I-1000000J0D01*
G01*
X87667500Y-110695000D02*
G75*
G02*
X89667500Y-110695000I1000000J0D01*
G01*
X87127500Y-110695000D02*
G75*
G02*
X85127500Y-110695000I-1000000J0D01*
G01*
X85127500Y-110695000D02*
G75*
G02*
X87127500Y-110695000I1000000J0D01*
G01*
X84587500Y-110695000D02*
G75*
G02*
X82587500Y-110695000I-1000000J0D01*
G01*
X82587500Y-110695000D02*
G75*
G02*
X84587500Y-110695000I1000000J0D01*
G01*
X82047500Y-110695000D02*
G75*
G02*
X80047500Y-110695000I-1000000J0D01*
G01*
X80047500Y-110695000D02*
G75*
G02*
X82047500Y-110695000I1000000J0D01*
G01*
X79507500Y-110695000D02*
G75*
G02*
X77507500Y-110695000I-1000000J0D01*
G01*
X77507500Y-110695000D02*
G75*
G02*
X79507500Y-110695000I1000000J0D01*
G01*
X92207500Y-108155000D02*
G75*
G02*
X90207500Y-108155000I-1000000J0D01*
G01*
X90207500Y-108155000D02*
G75*
G02*
X92207500Y-108155000I1000000J0D01*
G01*
X89667500Y-108155000D02*
G75*
G02*
X87667500Y-108155000I-1000000J0D01*
G01*
X87667500Y-108155000D02*
G75*
G02*
X89667500Y-108155000I1000000J0D01*
G01*
X87127500Y-108155000D02*
G75*
G02*
X85127500Y-108155000I-1000000J0D01*
G01*
X85127500Y-108155000D02*
G75*
G02*
X87127500Y-108155000I1000000J0D01*
G01*
X84587500Y-108155000D02*
G75*
G02*
X82587500Y-108155000I-1000000J0D01*
G01*
X82587500Y-108155000D02*
G75*
G02*
X84587500Y-108155000I1000000J0D01*
G01*
X82047500Y-108155000D02*
G75*
G02*
X80047500Y-108155000I-1000000J0D01*
G01*
X80047500Y-108155000D02*
G75*
G02*
X82047500Y-108155000I1000000J0D01*
G01*
X79507500Y-108155000D02*
G75*
G02*
X77507500Y-108155000I-1000000J0D01*
G01*
X77507500Y-108155000D02*
G75*
G02*
X79507500Y-108155000I1000000J0D01*
G01*
X92207500Y-105615000D02*
G75*
G02*
X90207500Y-105615000I-1000000J0D01*
G01*
X90207500Y-105615000D02*
G75*
G02*
X92207500Y-105615000I1000000J0D01*
G01*
X89667500Y-105615000D02*
G75*
G02*
X87667500Y-105615000I-1000000J0D01*
G01*
X87667500Y-105615000D02*
G75*
G02*
X89667500Y-105615000I1000000J0D01*
G01*
X87127500Y-105615000D02*
G75*
G02*
X85127500Y-105615000I-1000000J0D01*
G01*
X85127500Y-105615000D02*
G75*
G02*
X87127500Y-105615000I1000000J0D01*
G01*
X84587500Y-105615000D02*
G75*
G02*
X82587500Y-105615000I-1000000J0D01*
G01*
X82587500Y-105615000D02*
G75*
G02*
X84587500Y-105615000I1000000J0D01*
G01*
X82047500Y-105615000D02*
G75*
G02*
X80047500Y-105615000I-1000000J0D01*
G01*
X80047500Y-105615000D02*
G75*
G02*
X82047500Y-105615000I1000000J0D01*
G01*
X79507500Y-105615000D02*
G75*
G02*
X77507500Y-105615000I-1000000J0D01*
G01*
X77507500Y-105615000D02*
G75*
G02*
X79507500Y-105615000I1000000J0D01*
G01*
X92207500Y-103075000D02*
G75*
G02*
X90207500Y-103075000I-1000000J0D01*
G01*
X90207500Y-103075000D02*
G75*
G02*
X92207500Y-103075000I1000000J0D01*
G01*
X89667500Y-103075000D02*
G75*
G02*
X87667500Y-103075000I-1000000J0D01*
G01*
X87667500Y-103075000D02*
G75*
G02*
X89667500Y-103075000I1000000J0D01*
G01*
X87127500Y-103075000D02*
G75*
G02*
X85127500Y-103075000I-1000000J0D01*
G01*
X85127500Y-103075000D02*
G75*
G02*
X87127500Y-103075000I1000000J0D01*
G01*
X84587500Y-103075000D02*
G75*
G02*
X82587500Y-103075000I-1000000J0D01*
G01*
X82587500Y-103075000D02*
G75*
G02*
X84587500Y-103075000I1000000J0D01*
G01*
X82047500Y-103075000D02*
G75*
G02*
X80047500Y-103075000I-1000000J0D01*
G01*
X80047500Y-103075000D02*
G75*
G02*
X82047500Y-103075000I1000000J0D01*
G01*
X79507500Y-103075000D02*
G75*
G02*
X77507500Y-103075000I-1000000J0D01*
G01*
X77507500Y-103075000D02*
G75*
G02*
X79507500Y-103075000I1000000J0D01*
G01*
X92207500Y-100535000D02*
G75*
G02*
X90207500Y-100535000I-1000000J0D01*
G01*
X90207500Y-100535000D02*
G75*
G02*
X92207500Y-100535000I1000000J0D01*
G01*
X89667500Y-100535000D02*
G75*
G02*
X87667500Y-100535000I-1000000J0D01*
G01*
X87667500Y-100535000D02*
G75*
G02*
X89667500Y-100535000I1000000J0D01*
G01*
X87127500Y-100535000D02*
G75*
G02*
X85127500Y-100535000I-1000000J0D01*
G01*
X85127500Y-100535000D02*
G75*
G02*
X87127500Y-100535000I1000000J0D01*
G01*
X84587500Y-100535000D02*
G75*
G02*
X82587500Y-100535000I-1000000J0D01*
G01*
X82587500Y-100535000D02*
G75*
G02*
X84587500Y-100535000I1000000J0D01*
G01*
X82047500Y-100535000D02*
G75*
G02*
X80047500Y-100535000I-1000000J0D01*
G01*
X80047500Y-100535000D02*
G75*
G02*
X82047500Y-100535000I1000000J0D01*
G01*
X79507500Y-100535000D02*
G75*
G02*
X77507500Y-100535000I-1000000J0D01*
G01*
X77507500Y-100535000D02*
G75*
G02*
X79507500Y-100535000I1000000J0D01*
G01*
X92207500Y-97995000D02*
G75*
G02*
X90207500Y-97995000I-1000000J0D01*
G01*
X90207500Y-97995000D02*
G75*
G02*
X92207500Y-97995000I1000000J0D01*
G01*
X89667500Y-97995000D02*
G75*
G02*
X87667500Y-97995000I-1000000J0D01*
G01*
X87667500Y-97995000D02*
G75*
G02*
X89667500Y-97995000I1000000J0D01*
G01*
X87127500Y-97995000D02*
G75*
G02*
X85127500Y-97995000I-1000000J0D01*
G01*
X85127500Y-97995000D02*
G75*
G02*
X87127500Y-97995000I1000000J0D01*
G01*
X84587500Y-97995000D02*
G75*
G02*
X82587500Y-97995000I-1000000J0D01*
G01*
X82587500Y-97995000D02*
G75*
G02*
X84587500Y-97995000I1000000J0D01*
G01*
X82047500Y-97995000D02*
G75*
G02*
X80047500Y-97995000I-1000000J0D01*
G01*
X80047500Y-97995000D02*
G75*
G02*
X82047500Y-97995000I1000000J0D01*
G01*
X79507500Y-97995000D02*
G75*
G02*
X77507500Y-97995000I-1000000J0D01*
G01*
X77507500Y-97995000D02*
G75*
G02*
X79507500Y-97995000I1000000J0D01*
G01*
X92207500Y-95455000D02*
G75*
G02*
X90207500Y-95455000I-1000000J0D01*
G01*
X90207500Y-95455000D02*
G75*
G02*
X92207500Y-95455000I1000000J0D01*
G01*
X89667500Y-95455000D02*
G75*
G02*
X87667500Y-95455000I-1000000J0D01*
G01*
X87667500Y-95455000D02*
G75*
G02*
X89667500Y-95455000I1000000J0D01*
G01*
X87127500Y-95455000D02*
G75*
G02*
X85127500Y-95455000I-1000000J0D01*
G01*
X85127500Y-95455000D02*
G75*
G02*
X87127500Y-95455000I1000000J0D01*
G01*
X84587500Y-95455000D02*
G75*
G02*
X82587500Y-95455000I-1000000J0D01*
G01*
X82587500Y-95455000D02*
G75*
G02*
X84587500Y-95455000I1000000J0D01*
G01*
X82047500Y-95455000D02*
G75*
G02*
X80047500Y-95455000I-1000000J0D01*
G01*
X80047500Y-95455000D02*
G75*
G02*
X82047500Y-95455000I1000000J0D01*
G01*
X79507500Y-95455000D02*
G75*
G02*
X77507500Y-95455000I-1000000J0D01*
G01*
X77507500Y-95455000D02*
G75*
G02*
X79507500Y-95455000I1000000J0D01*
G01*
X92207500Y-92915000D02*
G75*
G02*
X90207500Y-92915000I-1000000J0D01*
G01*
X90207500Y-92915000D02*
G75*
G02*
X92207500Y-92915000I1000000J0D01*
G01*
X89667500Y-92915000D02*
G75*
G02*
X87667500Y-92915000I-1000000J0D01*
G01*
X87667500Y-92915000D02*
G75*
G02*
X89667500Y-92915000I1000000J0D01*
G01*
X87127500Y-92915000D02*
G75*
G02*
X85127500Y-92915000I-1000000J0D01*
G01*
X85127500Y-92915000D02*
G75*
G02*
X87127500Y-92915000I1000000J0D01*
G01*
X84587500Y-92915000D02*
G75*
G02*
X82587500Y-92915000I-1000000J0D01*
G01*
X82587500Y-92915000D02*
G75*
G02*
X84587500Y-92915000I1000000J0D01*
G01*
X82047500Y-92915000D02*
G75*
G02*
X80047500Y-92915000I-1000000J0D01*
G01*
X80047500Y-92915000D02*
G75*
G02*
X82047500Y-92915000I1000000J0D01*
G01*
X79507500Y-92915000D02*
G75*
G02*
X77507500Y-92915000I-1000000J0D01*
G01*
X77507500Y-92915000D02*
G75*
G02*
X79507500Y-92915000I1000000J0D01*
G01*
X85275000Y-118950000D02*
X85275000Y-113900000D01*
X84675000Y-118950000D02*
X85275000Y-118950000D01*
X85275000Y-113900000D02*
X84675000Y-113900000D01*
X84675000Y-113900000D02*
X84675000Y-118950000D01*
X116750000Y-128500000D02*
X116750000Y-123450000D01*
X116150000Y-128500000D02*
X116750000Y-128500000D01*
X116750000Y-123450000D02*
X116150000Y-123450000D01*
X116150000Y-123450000D02*
X116150000Y-128500000D01*
X111650000Y-123450000D02*
X111050000Y-123450000D01*
X111650000Y-128500000D02*
X111650000Y-123450000D01*
X111050000Y-128500000D02*
X111650000Y-128500000D01*
X111050000Y-123450000D02*
X111050000Y-128500000D01*
D11*
X72250000Y-44700000D02*
X170300000Y-44700000D01*
X170300000Y-132400000D01*
X72250000Y-132400000D01*
X72250000Y-44700000D01*
M02*
