%TF.GenerationSoftware,KiCad,Pcbnew,8.0.6*%
%TF.CreationDate,2024-12-30T11:18:50+02:00*%
%TF.ProjectId,project,70726f6a-6563-4742-9e6b-696361645f70,rev?*%
%TF.SameCoordinates,Original*%
%TF.FileFunction,Legend,Bot*%
%TF.FilePolarity,Positive*%
%FSLAX46Y46*%
G04 Gerber Fmt 4.6, Leading zero omitted, Abs format (unit mm)*
G04 Created by KiCad (PCBNEW 8.0.6) date 2024-12-30 11:18:50*
%MOMM*%
%LPD*%
G01*
G04 APERTURE LIST*
%ADD10C,0.150000*%
%ADD11C,0.120000*%
G04 APERTURE END LIST*
D10*
X144095238Y-80800057D02*
X144190476Y-80752438D01*
X144190476Y-80752438D02*
X144285714Y-80657200D01*
X144285714Y-80657200D02*
X144428571Y-80514342D01*
X144428571Y-80514342D02*
X144523809Y-80466723D01*
X144523809Y-80466723D02*
X144619047Y-80466723D01*
X144571428Y-80704819D02*
X144666666Y-80657200D01*
X144666666Y-80657200D02*
X144761904Y-80561961D01*
X144761904Y-80561961D02*
X144809523Y-80371485D01*
X144809523Y-80371485D02*
X144809523Y-80038152D01*
X144809523Y-80038152D02*
X144761904Y-79847676D01*
X144761904Y-79847676D02*
X144666666Y-79752438D01*
X144666666Y-79752438D02*
X144571428Y-79704819D01*
X144571428Y-79704819D02*
X144380952Y-79704819D01*
X144380952Y-79704819D02*
X144285714Y-79752438D01*
X144285714Y-79752438D02*
X144190476Y-79847676D01*
X144190476Y-79847676D02*
X144142857Y-80038152D01*
X144142857Y-80038152D02*
X144142857Y-80371485D01*
X144142857Y-80371485D02*
X144190476Y-80561961D01*
X144190476Y-80561961D02*
X144285714Y-80657200D01*
X144285714Y-80657200D02*
X144380952Y-80704819D01*
X144380952Y-80704819D02*
X144571428Y-80704819D01*
X143285714Y-80038152D02*
X143285714Y-80704819D01*
X143523809Y-79657200D02*
X143761904Y-80371485D01*
X143761904Y-80371485D02*
X143142857Y-80371485D01*
X150159404Y-52449819D02*
X150159404Y-53259342D01*
X150159404Y-53259342D02*
X150111785Y-53354580D01*
X150111785Y-53354580D02*
X150064166Y-53402200D01*
X150064166Y-53402200D02*
X149968928Y-53449819D01*
X149968928Y-53449819D02*
X149778452Y-53449819D01*
X149778452Y-53449819D02*
X149683214Y-53402200D01*
X149683214Y-53402200D02*
X149635595Y-53354580D01*
X149635595Y-53354580D02*
X149587976Y-53259342D01*
X149587976Y-53259342D02*
X149587976Y-52449819D01*
X149159404Y-52545057D02*
X149111785Y-52497438D01*
X149111785Y-52497438D02*
X149016547Y-52449819D01*
X149016547Y-52449819D02*
X148778452Y-52449819D01*
X148778452Y-52449819D02*
X148683214Y-52497438D01*
X148683214Y-52497438D02*
X148635595Y-52545057D01*
X148635595Y-52545057D02*
X148587976Y-52640295D01*
X148587976Y-52640295D02*
X148587976Y-52735533D01*
X148587976Y-52735533D02*
X148635595Y-52878390D01*
X148635595Y-52878390D02*
X149207023Y-53449819D01*
X149207023Y-53449819D02*
X148587976Y-53449819D01*
X152742857Y-121159580D02*
X152790476Y-121207200D01*
X152790476Y-121207200D02*
X152933333Y-121254819D01*
X152933333Y-121254819D02*
X153028571Y-121254819D01*
X153028571Y-121254819D02*
X153171428Y-121207200D01*
X153171428Y-121207200D02*
X153266666Y-121111961D01*
X153266666Y-121111961D02*
X153314285Y-121016723D01*
X153314285Y-121016723D02*
X153361904Y-120826247D01*
X153361904Y-120826247D02*
X153361904Y-120683390D01*
X153361904Y-120683390D02*
X153314285Y-120492914D01*
X153314285Y-120492914D02*
X153266666Y-120397676D01*
X153266666Y-120397676D02*
X153171428Y-120302438D01*
X153171428Y-120302438D02*
X153028571Y-120254819D01*
X153028571Y-120254819D02*
X152933333Y-120254819D01*
X152933333Y-120254819D02*
X152790476Y-120302438D01*
X152790476Y-120302438D02*
X152742857Y-120350057D01*
X151790476Y-121254819D02*
X152361904Y-121254819D01*
X152076190Y-121254819D02*
X152076190Y-120254819D01*
X152076190Y-120254819D02*
X152171428Y-120397676D01*
X152171428Y-120397676D02*
X152266666Y-120492914D01*
X152266666Y-120492914D02*
X152361904Y-120540533D01*
X151409523Y-120350057D02*
X151361904Y-120302438D01*
X151361904Y-120302438D02*
X151266666Y-120254819D01*
X151266666Y-120254819D02*
X151028571Y-120254819D01*
X151028571Y-120254819D02*
X150933333Y-120302438D01*
X150933333Y-120302438D02*
X150885714Y-120350057D01*
X150885714Y-120350057D02*
X150838095Y-120445295D01*
X150838095Y-120445295D02*
X150838095Y-120540533D01*
X150838095Y-120540533D02*
X150885714Y-120683390D01*
X150885714Y-120683390D02*
X151457142Y-121254819D01*
X151457142Y-121254819D02*
X150838095Y-121254819D01*
X150226666Y-46674819D02*
X150559999Y-46198628D01*
X150798094Y-46674819D02*
X150798094Y-45674819D01*
X150798094Y-45674819D02*
X150417142Y-45674819D01*
X150417142Y-45674819D02*
X150321904Y-45722438D01*
X150321904Y-45722438D02*
X150274285Y-45770057D01*
X150274285Y-45770057D02*
X150226666Y-45865295D01*
X150226666Y-45865295D02*
X150226666Y-46008152D01*
X150226666Y-46008152D02*
X150274285Y-46103390D01*
X150274285Y-46103390D02*
X150321904Y-46151009D01*
X150321904Y-46151009D02*
X150417142Y-46198628D01*
X150417142Y-46198628D02*
X150798094Y-46198628D01*
X149274285Y-46674819D02*
X149845713Y-46674819D01*
X149559999Y-46674819D02*
X149559999Y-45674819D01*
X149559999Y-45674819D02*
X149655237Y-45817676D01*
X149655237Y-45817676D02*
X149750475Y-45912914D01*
X149750475Y-45912914D02*
X149845713Y-45960533D01*
X125366666Y-53859580D02*
X125414285Y-53907200D01*
X125414285Y-53907200D02*
X125557142Y-53954819D01*
X125557142Y-53954819D02*
X125652380Y-53954819D01*
X125652380Y-53954819D02*
X125795237Y-53907200D01*
X125795237Y-53907200D02*
X125890475Y-53811961D01*
X125890475Y-53811961D02*
X125938094Y-53716723D01*
X125938094Y-53716723D02*
X125985713Y-53526247D01*
X125985713Y-53526247D02*
X125985713Y-53383390D01*
X125985713Y-53383390D02*
X125938094Y-53192914D01*
X125938094Y-53192914D02*
X125890475Y-53097676D01*
X125890475Y-53097676D02*
X125795237Y-53002438D01*
X125795237Y-53002438D02*
X125652380Y-52954819D01*
X125652380Y-52954819D02*
X125557142Y-52954819D01*
X125557142Y-52954819D02*
X125414285Y-53002438D01*
X125414285Y-53002438D02*
X125366666Y-53050057D01*
X125033332Y-52954819D02*
X124366666Y-52954819D01*
X124366666Y-52954819D02*
X124795237Y-53954819D01*
X166892857Y-77554819D02*
X167226190Y-77078628D01*
X167464285Y-77554819D02*
X167464285Y-76554819D01*
X167464285Y-76554819D02*
X167083333Y-76554819D01*
X167083333Y-76554819D02*
X166988095Y-76602438D01*
X166988095Y-76602438D02*
X166940476Y-76650057D01*
X166940476Y-76650057D02*
X166892857Y-76745295D01*
X166892857Y-76745295D02*
X166892857Y-76888152D01*
X166892857Y-76888152D02*
X166940476Y-76983390D01*
X166940476Y-76983390D02*
X166988095Y-77031009D01*
X166988095Y-77031009D02*
X167083333Y-77078628D01*
X167083333Y-77078628D02*
X167464285Y-77078628D01*
X165940476Y-77554819D02*
X166511904Y-77554819D01*
X166226190Y-77554819D02*
X166226190Y-76554819D01*
X166226190Y-76554819D02*
X166321428Y-76697676D01*
X166321428Y-76697676D02*
X166416666Y-76792914D01*
X166416666Y-76792914D02*
X166511904Y-76840533D01*
X164988095Y-77554819D02*
X165559523Y-77554819D01*
X165273809Y-77554819D02*
X165273809Y-76554819D01*
X165273809Y-76554819D02*
X165369047Y-76697676D01*
X165369047Y-76697676D02*
X165464285Y-76792914D01*
X165464285Y-76792914D02*
X165559523Y-76840533D01*
X163276666Y-59559580D02*
X163324285Y-59607200D01*
X163324285Y-59607200D02*
X163467142Y-59654819D01*
X163467142Y-59654819D02*
X163562380Y-59654819D01*
X163562380Y-59654819D02*
X163705237Y-59607200D01*
X163705237Y-59607200D02*
X163800475Y-59511961D01*
X163800475Y-59511961D02*
X163848094Y-59416723D01*
X163848094Y-59416723D02*
X163895713Y-59226247D01*
X163895713Y-59226247D02*
X163895713Y-59083390D01*
X163895713Y-59083390D02*
X163848094Y-58892914D01*
X163848094Y-58892914D02*
X163800475Y-58797676D01*
X163800475Y-58797676D02*
X163705237Y-58702438D01*
X163705237Y-58702438D02*
X163562380Y-58654819D01*
X163562380Y-58654819D02*
X163467142Y-58654819D01*
X163467142Y-58654819D02*
X163324285Y-58702438D01*
X163324285Y-58702438D02*
X163276666Y-58750057D01*
X162943332Y-58654819D02*
X162324285Y-58654819D01*
X162324285Y-58654819D02*
X162657618Y-59035771D01*
X162657618Y-59035771D02*
X162514761Y-59035771D01*
X162514761Y-59035771D02*
X162419523Y-59083390D01*
X162419523Y-59083390D02*
X162371904Y-59131009D01*
X162371904Y-59131009D02*
X162324285Y-59226247D01*
X162324285Y-59226247D02*
X162324285Y-59464342D01*
X162324285Y-59464342D02*
X162371904Y-59559580D01*
X162371904Y-59559580D02*
X162419523Y-59607200D01*
X162419523Y-59607200D02*
X162514761Y-59654819D01*
X162514761Y-59654819D02*
X162800475Y-59654819D01*
X162800475Y-59654819D02*
X162895713Y-59607200D01*
X162895713Y-59607200D02*
X162943332Y-59559580D01*
X163052857Y-68309819D02*
X163386190Y-67833628D01*
X163624285Y-68309819D02*
X163624285Y-67309819D01*
X163624285Y-67309819D02*
X163243333Y-67309819D01*
X163243333Y-67309819D02*
X163148095Y-67357438D01*
X163148095Y-67357438D02*
X163100476Y-67405057D01*
X163100476Y-67405057D02*
X163052857Y-67500295D01*
X163052857Y-67500295D02*
X163052857Y-67643152D01*
X163052857Y-67643152D02*
X163100476Y-67738390D01*
X163100476Y-67738390D02*
X163148095Y-67786009D01*
X163148095Y-67786009D02*
X163243333Y-67833628D01*
X163243333Y-67833628D02*
X163624285Y-67833628D01*
X162100476Y-68309819D02*
X162671904Y-68309819D01*
X162386190Y-68309819D02*
X162386190Y-67309819D01*
X162386190Y-67309819D02*
X162481428Y-67452676D01*
X162481428Y-67452676D02*
X162576666Y-67547914D01*
X162576666Y-67547914D02*
X162671904Y-67595533D01*
X161481428Y-67309819D02*
X161386190Y-67309819D01*
X161386190Y-67309819D02*
X161290952Y-67357438D01*
X161290952Y-67357438D02*
X161243333Y-67405057D01*
X161243333Y-67405057D02*
X161195714Y-67500295D01*
X161195714Y-67500295D02*
X161148095Y-67690771D01*
X161148095Y-67690771D02*
X161148095Y-67928866D01*
X161148095Y-67928866D02*
X161195714Y-68119342D01*
X161195714Y-68119342D02*
X161243333Y-68214580D01*
X161243333Y-68214580D02*
X161290952Y-68262200D01*
X161290952Y-68262200D02*
X161386190Y-68309819D01*
X161386190Y-68309819D02*
X161481428Y-68309819D01*
X161481428Y-68309819D02*
X161576666Y-68262200D01*
X161576666Y-68262200D02*
X161624285Y-68214580D01*
X161624285Y-68214580D02*
X161671904Y-68119342D01*
X161671904Y-68119342D02*
X161719523Y-67928866D01*
X161719523Y-67928866D02*
X161719523Y-67690771D01*
X161719523Y-67690771D02*
X161671904Y-67500295D01*
X161671904Y-67500295D02*
X161624285Y-67405057D01*
X161624285Y-67405057D02*
X161576666Y-67357438D01*
X161576666Y-67357438D02*
X161481428Y-67309819D01*
X141815357Y-75652319D02*
X142148690Y-75176128D01*
X142386785Y-75652319D02*
X142386785Y-74652319D01*
X142386785Y-74652319D02*
X142005833Y-74652319D01*
X142005833Y-74652319D02*
X141910595Y-74699938D01*
X141910595Y-74699938D02*
X141862976Y-74747557D01*
X141862976Y-74747557D02*
X141815357Y-74842795D01*
X141815357Y-74842795D02*
X141815357Y-74985652D01*
X141815357Y-74985652D02*
X141862976Y-75080890D01*
X141862976Y-75080890D02*
X141910595Y-75128509D01*
X141910595Y-75128509D02*
X142005833Y-75176128D01*
X142005833Y-75176128D02*
X142386785Y-75176128D01*
X141434404Y-74747557D02*
X141386785Y-74699938D01*
X141386785Y-74699938D02*
X141291547Y-74652319D01*
X141291547Y-74652319D02*
X141053452Y-74652319D01*
X141053452Y-74652319D02*
X140958214Y-74699938D01*
X140958214Y-74699938D02*
X140910595Y-74747557D01*
X140910595Y-74747557D02*
X140862976Y-74842795D01*
X140862976Y-74842795D02*
X140862976Y-74938033D01*
X140862976Y-74938033D02*
X140910595Y-75080890D01*
X140910595Y-75080890D02*
X141482023Y-75652319D01*
X141482023Y-75652319D02*
X140862976Y-75652319D01*
X140243928Y-74652319D02*
X140148690Y-74652319D01*
X140148690Y-74652319D02*
X140053452Y-74699938D01*
X140053452Y-74699938D02*
X140005833Y-74747557D01*
X140005833Y-74747557D02*
X139958214Y-74842795D01*
X139958214Y-74842795D02*
X139910595Y-75033271D01*
X139910595Y-75033271D02*
X139910595Y-75271366D01*
X139910595Y-75271366D02*
X139958214Y-75461842D01*
X139958214Y-75461842D02*
X140005833Y-75557080D01*
X140005833Y-75557080D02*
X140053452Y-75604700D01*
X140053452Y-75604700D02*
X140148690Y-75652319D01*
X140148690Y-75652319D02*
X140243928Y-75652319D01*
X140243928Y-75652319D02*
X140339166Y-75604700D01*
X140339166Y-75604700D02*
X140386785Y-75557080D01*
X140386785Y-75557080D02*
X140434404Y-75461842D01*
X140434404Y-75461842D02*
X140482023Y-75271366D01*
X140482023Y-75271366D02*
X140482023Y-75033271D01*
X140482023Y-75033271D02*
X140434404Y-74842795D01*
X140434404Y-74842795D02*
X140386785Y-74747557D01*
X140386785Y-74747557D02*
X140339166Y-74699938D01*
X140339166Y-74699938D02*
X140243928Y-74652319D01*
X138992857Y-62354819D02*
X139326190Y-61878628D01*
X139564285Y-62354819D02*
X139564285Y-61354819D01*
X139564285Y-61354819D02*
X139183333Y-61354819D01*
X139183333Y-61354819D02*
X139088095Y-61402438D01*
X139088095Y-61402438D02*
X139040476Y-61450057D01*
X139040476Y-61450057D02*
X138992857Y-61545295D01*
X138992857Y-61545295D02*
X138992857Y-61688152D01*
X138992857Y-61688152D02*
X139040476Y-61783390D01*
X139040476Y-61783390D02*
X139088095Y-61831009D01*
X139088095Y-61831009D02*
X139183333Y-61878628D01*
X139183333Y-61878628D02*
X139564285Y-61878628D01*
X138040476Y-62354819D02*
X138611904Y-62354819D01*
X138326190Y-62354819D02*
X138326190Y-61354819D01*
X138326190Y-61354819D02*
X138421428Y-61497676D01*
X138421428Y-61497676D02*
X138516666Y-61592914D01*
X138516666Y-61592914D02*
X138611904Y-61640533D01*
X137659523Y-61450057D02*
X137611904Y-61402438D01*
X137611904Y-61402438D02*
X137516666Y-61354819D01*
X137516666Y-61354819D02*
X137278571Y-61354819D01*
X137278571Y-61354819D02*
X137183333Y-61402438D01*
X137183333Y-61402438D02*
X137135714Y-61450057D01*
X137135714Y-61450057D02*
X137088095Y-61545295D01*
X137088095Y-61545295D02*
X137088095Y-61640533D01*
X137088095Y-61640533D02*
X137135714Y-61783390D01*
X137135714Y-61783390D02*
X137707142Y-62354819D01*
X137707142Y-62354819D02*
X137088095Y-62354819D01*
X156445238Y-72400057D02*
X156540476Y-72352438D01*
X156540476Y-72352438D02*
X156635714Y-72257200D01*
X156635714Y-72257200D02*
X156778571Y-72114342D01*
X156778571Y-72114342D02*
X156873809Y-72066723D01*
X156873809Y-72066723D02*
X156969047Y-72066723D01*
X156921428Y-72304819D02*
X157016666Y-72257200D01*
X157016666Y-72257200D02*
X157111904Y-72161961D01*
X157111904Y-72161961D02*
X157159523Y-71971485D01*
X157159523Y-71971485D02*
X157159523Y-71638152D01*
X157159523Y-71638152D02*
X157111904Y-71447676D01*
X157111904Y-71447676D02*
X157016666Y-71352438D01*
X157016666Y-71352438D02*
X156921428Y-71304819D01*
X156921428Y-71304819D02*
X156730952Y-71304819D01*
X156730952Y-71304819D02*
X156635714Y-71352438D01*
X156635714Y-71352438D02*
X156540476Y-71447676D01*
X156540476Y-71447676D02*
X156492857Y-71638152D01*
X156492857Y-71638152D02*
X156492857Y-71971485D01*
X156492857Y-71971485D02*
X156540476Y-72161961D01*
X156540476Y-72161961D02*
X156635714Y-72257200D01*
X156635714Y-72257200D02*
X156730952Y-72304819D01*
X156730952Y-72304819D02*
X156921428Y-72304819D01*
X155540476Y-72304819D02*
X156111904Y-72304819D01*
X155826190Y-72304819D02*
X155826190Y-71304819D01*
X155826190Y-71304819D02*
X155921428Y-71447676D01*
X155921428Y-71447676D02*
X156016666Y-71542914D01*
X156016666Y-71542914D02*
X156111904Y-71590533D01*
X137670357Y-82037319D02*
X138003690Y-81561128D01*
X138241785Y-82037319D02*
X138241785Y-81037319D01*
X138241785Y-81037319D02*
X137860833Y-81037319D01*
X137860833Y-81037319D02*
X137765595Y-81084938D01*
X137765595Y-81084938D02*
X137717976Y-81132557D01*
X137717976Y-81132557D02*
X137670357Y-81227795D01*
X137670357Y-81227795D02*
X137670357Y-81370652D01*
X137670357Y-81370652D02*
X137717976Y-81465890D01*
X137717976Y-81465890D02*
X137765595Y-81513509D01*
X137765595Y-81513509D02*
X137860833Y-81561128D01*
X137860833Y-81561128D02*
X138241785Y-81561128D01*
X136717976Y-82037319D02*
X137289404Y-82037319D01*
X137003690Y-82037319D02*
X137003690Y-81037319D01*
X137003690Y-81037319D02*
X137098928Y-81180176D01*
X137098928Y-81180176D02*
X137194166Y-81275414D01*
X137194166Y-81275414D02*
X137289404Y-81323033D01*
X135860833Y-81037319D02*
X136051309Y-81037319D01*
X136051309Y-81037319D02*
X136146547Y-81084938D01*
X136146547Y-81084938D02*
X136194166Y-81132557D01*
X136194166Y-81132557D02*
X136289404Y-81275414D01*
X136289404Y-81275414D02*
X136337023Y-81465890D01*
X136337023Y-81465890D02*
X136337023Y-81846842D01*
X136337023Y-81846842D02*
X136289404Y-81942080D01*
X136289404Y-81942080D02*
X136241785Y-81989700D01*
X136241785Y-81989700D02*
X136146547Y-82037319D01*
X136146547Y-82037319D02*
X135956071Y-82037319D01*
X135956071Y-82037319D02*
X135860833Y-81989700D01*
X135860833Y-81989700D02*
X135813214Y-81942080D01*
X135813214Y-81942080D02*
X135765595Y-81846842D01*
X135765595Y-81846842D02*
X135765595Y-81608747D01*
X135765595Y-81608747D02*
X135813214Y-81513509D01*
X135813214Y-81513509D02*
X135860833Y-81465890D01*
X135860833Y-81465890D02*
X135956071Y-81418271D01*
X135956071Y-81418271D02*
X136146547Y-81418271D01*
X136146547Y-81418271D02*
X136241785Y-81465890D01*
X136241785Y-81465890D02*
X136289404Y-81513509D01*
X136289404Y-81513509D02*
X136337023Y-81608747D01*
X158676666Y-68309819D02*
X159009999Y-67833628D01*
X159248094Y-68309819D02*
X159248094Y-67309819D01*
X159248094Y-67309819D02*
X158867142Y-67309819D01*
X158867142Y-67309819D02*
X158771904Y-67357438D01*
X158771904Y-67357438D02*
X158724285Y-67405057D01*
X158724285Y-67405057D02*
X158676666Y-67500295D01*
X158676666Y-67500295D02*
X158676666Y-67643152D01*
X158676666Y-67643152D02*
X158724285Y-67738390D01*
X158724285Y-67738390D02*
X158771904Y-67786009D01*
X158771904Y-67786009D02*
X158867142Y-67833628D01*
X158867142Y-67833628D02*
X159248094Y-67833628D01*
X158200475Y-68309819D02*
X158009999Y-68309819D01*
X158009999Y-68309819D02*
X157914761Y-68262200D01*
X157914761Y-68262200D02*
X157867142Y-68214580D01*
X157867142Y-68214580D02*
X157771904Y-68071723D01*
X157771904Y-68071723D02*
X157724285Y-67881247D01*
X157724285Y-67881247D02*
X157724285Y-67500295D01*
X157724285Y-67500295D02*
X157771904Y-67405057D01*
X157771904Y-67405057D02*
X157819523Y-67357438D01*
X157819523Y-67357438D02*
X157914761Y-67309819D01*
X157914761Y-67309819D02*
X158105237Y-67309819D01*
X158105237Y-67309819D02*
X158200475Y-67357438D01*
X158200475Y-67357438D02*
X158248094Y-67405057D01*
X158248094Y-67405057D02*
X158295713Y-67500295D01*
X158295713Y-67500295D02*
X158295713Y-67738390D01*
X158295713Y-67738390D02*
X158248094Y-67833628D01*
X158248094Y-67833628D02*
X158200475Y-67881247D01*
X158200475Y-67881247D02*
X158105237Y-67928866D01*
X158105237Y-67928866D02*
X157914761Y-67928866D01*
X157914761Y-67928866D02*
X157819523Y-67881247D01*
X157819523Y-67881247D02*
X157771904Y-67833628D01*
X157771904Y-67833628D02*
X157724285Y-67738390D01*
X162642857Y-82369819D02*
X162976190Y-81893628D01*
X163214285Y-82369819D02*
X163214285Y-81369819D01*
X163214285Y-81369819D02*
X162833333Y-81369819D01*
X162833333Y-81369819D02*
X162738095Y-81417438D01*
X162738095Y-81417438D02*
X162690476Y-81465057D01*
X162690476Y-81465057D02*
X162642857Y-81560295D01*
X162642857Y-81560295D02*
X162642857Y-81703152D01*
X162642857Y-81703152D02*
X162690476Y-81798390D01*
X162690476Y-81798390D02*
X162738095Y-81846009D01*
X162738095Y-81846009D02*
X162833333Y-81893628D01*
X162833333Y-81893628D02*
X163214285Y-81893628D01*
X162261904Y-81465057D02*
X162214285Y-81417438D01*
X162214285Y-81417438D02*
X162119047Y-81369819D01*
X162119047Y-81369819D02*
X161880952Y-81369819D01*
X161880952Y-81369819D02*
X161785714Y-81417438D01*
X161785714Y-81417438D02*
X161738095Y-81465057D01*
X161738095Y-81465057D02*
X161690476Y-81560295D01*
X161690476Y-81560295D02*
X161690476Y-81655533D01*
X161690476Y-81655533D02*
X161738095Y-81798390D01*
X161738095Y-81798390D02*
X162309523Y-82369819D01*
X162309523Y-82369819D02*
X161690476Y-82369819D01*
X160785714Y-81369819D02*
X161261904Y-81369819D01*
X161261904Y-81369819D02*
X161309523Y-81846009D01*
X161309523Y-81846009D02*
X161261904Y-81798390D01*
X161261904Y-81798390D02*
X161166666Y-81750771D01*
X161166666Y-81750771D02*
X160928571Y-81750771D01*
X160928571Y-81750771D02*
X160833333Y-81798390D01*
X160833333Y-81798390D02*
X160785714Y-81846009D01*
X160785714Y-81846009D02*
X160738095Y-81941247D01*
X160738095Y-81941247D02*
X160738095Y-82179342D01*
X160738095Y-82179342D02*
X160785714Y-82274580D01*
X160785714Y-82274580D02*
X160833333Y-82322200D01*
X160833333Y-82322200D02*
X160928571Y-82369819D01*
X160928571Y-82369819D02*
X161166666Y-82369819D01*
X161166666Y-82369819D02*
X161261904Y-82322200D01*
X161261904Y-82322200D02*
X161309523Y-82274580D01*
X154826666Y-63859819D02*
X155159999Y-63383628D01*
X155398094Y-63859819D02*
X155398094Y-62859819D01*
X155398094Y-62859819D02*
X155017142Y-62859819D01*
X155017142Y-62859819D02*
X154921904Y-62907438D01*
X154921904Y-62907438D02*
X154874285Y-62955057D01*
X154874285Y-62955057D02*
X154826666Y-63050295D01*
X154826666Y-63050295D02*
X154826666Y-63193152D01*
X154826666Y-63193152D02*
X154874285Y-63288390D01*
X154874285Y-63288390D02*
X154921904Y-63336009D01*
X154921904Y-63336009D02*
X155017142Y-63383628D01*
X155017142Y-63383628D02*
X155398094Y-63383628D01*
X154493332Y-62859819D02*
X153826666Y-62859819D01*
X153826666Y-62859819D02*
X154255237Y-63859819D01*
X117641607Y-59878569D02*
X117974940Y-59402378D01*
X118213035Y-59878569D02*
X118213035Y-58878569D01*
X118213035Y-58878569D02*
X117832083Y-58878569D01*
X117832083Y-58878569D02*
X117736845Y-58926188D01*
X117736845Y-58926188D02*
X117689226Y-58973807D01*
X117689226Y-58973807D02*
X117641607Y-59069045D01*
X117641607Y-59069045D02*
X117641607Y-59211902D01*
X117641607Y-59211902D02*
X117689226Y-59307140D01*
X117689226Y-59307140D02*
X117736845Y-59354759D01*
X117736845Y-59354759D02*
X117832083Y-59402378D01*
X117832083Y-59402378D02*
X118213035Y-59402378D01*
X116689226Y-59878569D02*
X117260654Y-59878569D01*
X116974940Y-59878569D02*
X116974940Y-58878569D01*
X116974940Y-58878569D02*
X117070178Y-59021426D01*
X117070178Y-59021426D02*
X117165416Y-59116664D01*
X117165416Y-59116664D02*
X117260654Y-59164283D01*
X115784464Y-58878569D02*
X116260654Y-58878569D01*
X116260654Y-58878569D02*
X116308273Y-59354759D01*
X116308273Y-59354759D02*
X116260654Y-59307140D01*
X116260654Y-59307140D02*
X116165416Y-59259521D01*
X116165416Y-59259521D02*
X115927321Y-59259521D01*
X115927321Y-59259521D02*
X115832083Y-59307140D01*
X115832083Y-59307140D02*
X115784464Y-59354759D01*
X115784464Y-59354759D02*
X115736845Y-59449997D01*
X115736845Y-59449997D02*
X115736845Y-59688092D01*
X115736845Y-59688092D02*
X115784464Y-59783330D01*
X115784464Y-59783330D02*
X115832083Y-59830950D01*
X115832083Y-59830950D02*
X115927321Y-59878569D01*
X115927321Y-59878569D02*
X116165416Y-59878569D01*
X116165416Y-59878569D02*
X116260654Y-59830950D01*
X116260654Y-59830950D02*
X116308273Y-59783330D01*
X137116666Y-53909580D02*
X137164285Y-53957200D01*
X137164285Y-53957200D02*
X137307142Y-54004819D01*
X137307142Y-54004819D02*
X137402380Y-54004819D01*
X137402380Y-54004819D02*
X137545237Y-53957200D01*
X137545237Y-53957200D02*
X137640475Y-53861961D01*
X137640475Y-53861961D02*
X137688094Y-53766723D01*
X137688094Y-53766723D02*
X137735713Y-53576247D01*
X137735713Y-53576247D02*
X137735713Y-53433390D01*
X137735713Y-53433390D02*
X137688094Y-53242914D01*
X137688094Y-53242914D02*
X137640475Y-53147676D01*
X137640475Y-53147676D02*
X137545237Y-53052438D01*
X137545237Y-53052438D02*
X137402380Y-53004819D01*
X137402380Y-53004819D02*
X137307142Y-53004819D01*
X137307142Y-53004819D02*
X137164285Y-53052438D01*
X137164285Y-53052438D02*
X137116666Y-53100057D01*
X136640475Y-54004819D02*
X136449999Y-54004819D01*
X136449999Y-54004819D02*
X136354761Y-53957200D01*
X136354761Y-53957200D02*
X136307142Y-53909580D01*
X136307142Y-53909580D02*
X136211904Y-53766723D01*
X136211904Y-53766723D02*
X136164285Y-53576247D01*
X136164285Y-53576247D02*
X136164285Y-53195295D01*
X136164285Y-53195295D02*
X136211904Y-53100057D01*
X136211904Y-53100057D02*
X136259523Y-53052438D01*
X136259523Y-53052438D02*
X136354761Y-53004819D01*
X136354761Y-53004819D02*
X136545237Y-53004819D01*
X136545237Y-53004819D02*
X136640475Y-53052438D01*
X136640475Y-53052438D02*
X136688094Y-53100057D01*
X136688094Y-53100057D02*
X136735713Y-53195295D01*
X136735713Y-53195295D02*
X136735713Y-53433390D01*
X136735713Y-53433390D02*
X136688094Y-53528628D01*
X136688094Y-53528628D02*
X136640475Y-53576247D01*
X136640475Y-53576247D02*
X136545237Y-53623866D01*
X136545237Y-53623866D02*
X136354761Y-53623866D01*
X136354761Y-53623866D02*
X136259523Y-53576247D01*
X136259523Y-53576247D02*
X136211904Y-53528628D01*
X136211904Y-53528628D02*
X136164285Y-53433390D01*
X141159580Y-51833333D02*
X141207200Y-51785714D01*
X141207200Y-51785714D02*
X141254819Y-51642857D01*
X141254819Y-51642857D02*
X141254819Y-51547619D01*
X141254819Y-51547619D02*
X141207200Y-51404762D01*
X141207200Y-51404762D02*
X141111961Y-51309524D01*
X141111961Y-51309524D02*
X141016723Y-51261905D01*
X141016723Y-51261905D02*
X140826247Y-51214286D01*
X140826247Y-51214286D02*
X140683390Y-51214286D01*
X140683390Y-51214286D02*
X140492914Y-51261905D01*
X140492914Y-51261905D02*
X140397676Y-51309524D01*
X140397676Y-51309524D02*
X140302438Y-51404762D01*
X140302438Y-51404762D02*
X140254819Y-51547619D01*
X140254819Y-51547619D02*
X140254819Y-51642857D01*
X140254819Y-51642857D02*
X140302438Y-51785714D01*
X140302438Y-51785714D02*
X140350057Y-51833333D01*
X140588152Y-52690476D02*
X141254819Y-52690476D01*
X140207200Y-52452381D02*
X140921485Y-52214286D01*
X140921485Y-52214286D02*
X140921485Y-52833333D01*
X130595238Y-81150057D02*
X130690476Y-81102438D01*
X130690476Y-81102438D02*
X130785714Y-81007200D01*
X130785714Y-81007200D02*
X130928571Y-80864342D01*
X130928571Y-80864342D02*
X131023809Y-80816723D01*
X131023809Y-80816723D02*
X131119047Y-80816723D01*
X131071428Y-81054819D02*
X131166666Y-81007200D01*
X131166666Y-81007200D02*
X131261904Y-80911961D01*
X131261904Y-80911961D02*
X131309523Y-80721485D01*
X131309523Y-80721485D02*
X131309523Y-80388152D01*
X131309523Y-80388152D02*
X131261904Y-80197676D01*
X131261904Y-80197676D02*
X131166666Y-80102438D01*
X131166666Y-80102438D02*
X131071428Y-80054819D01*
X131071428Y-80054819D02*
X130880952Y-80054819D01*
X130880952Y-80054819D02*
X130785714Y-80102438D01*
X130785714Y-80102438D02*
X130690476Y-80197676D01*
X130690476Y-80197676D02*
X130642857Y-80388152D01*
X130642857Y-80388152D02*
X130642857Y-80721485D01*
X130642857Y-80721485D02*
X130690476Y-80911961D01*
X130690476Y-80911961D02*
X130785714Y-81007200D01*
X130785714Y-81007200D02*
X130880952Y-81054819D01*
X130880952Y-81054819D02*
X131071428Y-81054819D01*
X130309523Y-80054819D02*
X129690476Y-80054819D01*
X129690476Y-80054819D02*
X130023809Y-80435771D01*
X130023809Y-80435771D02*
X129880952Y-80435771D01*
X129880952Y-80435771D02*
X129785714Y-80483390D01*
X129785714Y-80483390D02*
X129738095Y-80531009D01*
X129738095Y-80531009D02*
X129690476Y-80626247D01*
X129690476Y-80626247D02*
X129690476Y-80864342D01*
X129690476Y-80864342D02*
X129738095Y-80959580D01*
X129738095Y-80959580D02*
X129785714Y-81007200D01*
X129785714Y-81007200D02*
X129880952Y-81054819D01*
X129880952Y-81054819D02*
X130166666Y-81054819D01*
X130166666Y-81054819D02*
X130261904Y-81007200D01*
X130261904Y-81007200D02*
X130309523Y-80959580D01*
X147492857Y-121159580D02*
X147540476Y-121207200D01*
X147540476Y-121207200D02*
X147683333Y-121254819D01*
X147683333Y-121254819D02*
X147778571Y-121254819D01*
X147778571Y-121254819D02*
X147921428Y-121207200D01*
X147921428Y-121207200D02*
X148016666Y-121111961D01*
X148016666Y-121111961D02*
X148064285Y-121016723D01*
X148064285Y-121016723D02*
X148111904Y-120826247D01*
X148111904Y-120826247D02*
X148111904Y-120683390D01*
X148111904Y-120683390D02*
X148064285Y-120492914D01*
X148064285Y-120492914D02*
X148016666Y-120397676D01*
X148016666Y-120397676D02*
X147921428Y-120302438D01*
X147921428Y-120302438D02*
X147778571Y-120254819D01*
X147778571Y-120254819D02*
X147683333Y-120254819D01*
X147683333Y-120254819D02*
X147540476Y-120302438D01*
X147540476Y-120302438D02*
X147492857Y-120350057D01*
X146540476Y-121254819D02*
X147111904Y-121254819D01*
X146826190Y-121254819D02*
X146826190Y-120254819D01*
X146826190Y-120254819D02*
X146921428Y-120397676D01*
X146921428Y-120397676D02*
X147016666Y-120492914D01*
X147016666Y-120492914D02*
X147111904Y-120540533D01*
X145635714Y-120254819D02*
X146111904Y-120254819D01*
X146111904Y-120254819D02*
X146159523Y-120731009D01*
X146159523Y-120731009D02*
X146111904Y-120683390D01*
X146111904Y-120683390D02*
X146016666Y-120635771D01*
X146016666Y-120635771D02*
X145778571Y-120635771D01*
X145778571Y-120635771D02*
X145683333Y-120683390D01*
X145683333Y-120683390D02*
X145635714Y-120731009D01*
X145635714Y-120731009D02*
X145588095Y-120826247D01*
X145588095Y-120826247D02*
X145588095Y-121064342D01*
X145588095Y-121064342D02*
X145635714Y-121159580D01*
X145635714Y-121159580D02*
X145683333Y-121207200D01*
X145683333Y-121207200D02*
X145778571Y-121254819D01*
X145778571Y-121254819D02*
X146016666Y-121254819D01*
X146016666Y-121254819D02*
X146111904Y-121207200D01*
X146111904Y-121207200D02*
X146159523Y-121159580D01*
X128370357Y-75857319D02*
X128703690Y-75381128D01*
X128941785Y-75857319D02*
X128941785Y-74857319D01*
X128941785Y-74857319D02*
X128560833Y-74857319D01*
X128560833Y-74857319D02*
X128465595Y-74904938D01*
X128465595Y-74904938D02*
X128417976Y-74952557D01*
X128417976Y-74952557D02*
X128370357Y-75047795D01*
X128370357Y-75047795D02*
X128370357Y-75190652D01*
X128370357Y-75190652D02*
X128417976Y-75285890D01*
X128417976Y-75285890D02*
X128465595Y-75333509D01*
X128465595Y-75333509D02*
X128560833Y-75381128D01*
X128560833Y-75381128D02*
X128941785Y-75381128D01*
X127417976Y-75857319D02*
X127989404Y-75857319D01*
X127703690Y-75857319D02*
X127703690Y-74857319D01*
X127703690Y-74857319D02*
X127798928Y-75000176D01*
X127798928Y-75000176D02*
X127894166Y-75095414D01*
X127894166Y-75095414D02*
X127989404Y-75143033D01*
X126941785Y-75857319D02*
X126751309Y-75857319D01*
X126751309Y-75857319D02*
X126656071Y-75809700D01*
X126656071Y-75809700D02*
X126608452Y-75762080D01*
X126608452Y-75762080D02*
X126513214Y-75619223D01*
X126513214Y-75619223D02*
X126465595Y-75428747D01*
X126465595Y-75428747D02*
X126465595Y-75047795D01*
X126465595Y-75047795D02*
X126513214Y-74952557D01*
X126513214Y-74952557D02*
X126560833Y-74904938D01*
X126560833Y-74904938D02*
X126656071Y-74857319D01*
X126656071Y-74857319D02*
X126846547Y-74857319D01*
X126846547Y-74857319D02*
X126941785Y-74904938D01*
X126941785Y-74904938D02*
X126989404Y-74952557D01*
X126989404Y-74952557D02*
X127037023Y-75047795D01*
X127037023Y-75047795D02*
X127037023Y-75285890D01*
X127037023Y-75285890D02*
X126989404Y-75381128D01*
X126989404Y-75381128D02*
X126941785Y-75428747D01*
X126941785Y-75428747D02*
X126846547Y-75476366D01*
X126846547Y-75476366D02*
X126656071Y-75476366D01*
X126656071Y-75476366D02*
X126560833Y-75428747D01*
X126560833Y-75428747D02*
X126513214Y-75381128D01*
X126513214Y-75381128D02*
X126465595Y-75285890D01*
X151565357Y-81902319D02*
X151898690Y-81426128D01*
X152136785Y-81902319D02*
X152136785Y-80902319D01*
X152136785Y-80902319D02*
X151755833Y-80902319D01*
X151755833Y-80902319D02*
X151660595Y-80949938D01*
X151660595Y-80949938D02*
X151612976Y-80997557D01*
X151612976Y-80997557D02*
X151565357Y-81092795D01*
X151565357Y-81092795D02*
X151565357Y-81235652D01*
X151565357Y-81235652D02*
X151612976Y-81330890D01*
X151612976Y-81330890D02*
X151660595Y-81378509D01*
X151660595Y-81378509D02*
X151755833Y-81426128D01*
X151755833Y-81426128D02*
X152136785Y-81426128D01*
X150612976Y-81902319D02*
X151184404Y-81902319D01*
X150898690Y-81902319D02*
X150898690Y-80902319D01*
X150898690Y-80902319D02*
X150993928Y-81045176D01*
X150993928Y-81045176D02*
X151089166Y-81140414D01*
X151089166Y-81140414D02*
X151184404Y-81188033D01*
X150279642Y-80902319D02*
X149612976Y-80902319D01*
X149612976Y-80902319D02*
X150041547Y-81902319D01*
X138992857Y-64554819D02*
X139326190Y-64078628D01*
X139564285Y-64554819D02*
X139564285Y-63554819D01*
X139564285Y-63554819D02*
X139183333Y-63554819D01*
X139183333Y-63554819D02*
X139088095Y-63602438D01*
X139088095Y-63602438D02*
X139040476Y-63650057D01*
X139040476Y-63650057D02*
X138992857Y-63745295D01*
X138992857Y-63745295D02*
X138992857Y-63888152D01*
X138992857Y-63888152D02*
X139040476Y-63983390D01*
X139040476Y-63983390D02*
X139088095Y-64031009D01*
X139088095Y-64031009D02*
X139183333Y-64078628D01*
X139183333Y-64078628D02*
X139564285Y-64078628D01*
X138040476Y-64554819D02*
X138611904Y-64554819D01*
X138326190Y-64554819D02*
X138326190Y-63554819D01*
X138326190Y-63554819D02*
X138421428Y-63697676D01*
X138421428Y-63697676D02*
X138516666Y-63792914D01*
X138516666Y-63792914D02*
X138611904Y-63840533D01*
X137707142Y-63554819D02*
X137088095Y-63554819D01*
X137088095Y-63554819D02*
X137421428Y-63935771D01*
X137421428Y-63935771D02*
X137278571Y-63935771D01*
X137278571Y-63935771D02*
X137183333Y-63983390D01*
X137183333Y-63983390D02*
X137135714Y-64031009D01*
X137135714Y-64031009D02*
X137088095Y-64126247D01*
X137088095Y-64126247D02*
X137088095Y-64364342D01*
X137088095Y-64364342D02*
X137135714Y-64459580D01*
X137135714Y-64459580D02*
X137183333Y-64507200D01*
X137183333Y-64507200D02*
X137278571Y-64554819D01*
X137278571Y-64554819D02*
X137564285Y-64554819D01*
X137564285Y-64554819D02*
X137659523Y-64507200D01*
X137659523Y-64507200D02*
X137707142Y-64459580D01*
X107742857Y-52704819D02*
X108076190Y-52228628D01*
X108314285Y-52704819D02*
X108314285Y-51704819D01*
X108314285Y-51704819D02*
X107933333Y-51704819D01*
X107933333Y-51704819D02*
X107838095Y-51752438D01*
X107838095Y-51752438D02*
X107790476Y-51800057D01*
X107790476Y-51800057D02*
X107742857Y-51895295D01*
X107742857Y-51895295D02*
X107742857Y-52038152D01*
X107742857Y-52038152D02*
X107790476Y-52133390D01*
X107790476Y-52133390D02*
X107838095Y-52181009D01*
X107838095Y-52181009D02*
X107933333Y-52228628D01*
X107933333Y-52228628D02*
X108314285Y-52228628D01*
X106790476Y-52704819D02*
X107361904Y-52704819D01*
X107076190Y-52704819D02*
X107076190Y-51704819D01*
X107076190Y-51704819D02*
X107171428Y-51847676D01*
X107171428Y-51847676D02*
X107266666Y-51942914D01*
X107266666Y-51942914D02*
X107361904Y-51990533D01*
X106219047Y-52133390D02*
X106314285Y-52085771D01*
X106314285Y-52085771D02*
X106361904Y-52038152D01*
X106361904Y-52038152D02*
X106409523Y-51942914D01*
X106409523Y-51942914D02*
X106409523Y-51895295D01*
X106409523Y-51895295D02*
X106361904Y-51800057D01*
X106361904Y-51800057D02*
X106314285Y-51752438D01*
X106314285Y-51752438D02*
X106219047Y-51704819D01*
X106219047Y-51704819D02*
X106028571Y-51704819D01*
X106028571Y-51704819D02*
X105933333Y-51752438D01*
X105933333Y-51752438D02*
X105885714Y-51800057D01*
X105885714Y-51800057D02*
X105838095Y-51895295D01*
X105838095Y-51895295D02*
X105838095Y-51942914D01*
X105838095Y-51942914D02*
X105885714Y-52038152D01*
X105885714Y-52038152D02*
X105933333Y-52085771D01*
X105933333Y-52085771D02*
X106028571Y-52133390D01*
X106028571Y-52133390D02*
X106219047Y-52133390D01*
X106219047Y-52133390D02*
X106314285Y-52181009D01*
X106314285Y-52181009D02*
X106361904Y-52228628D01*
X106361904Y-52228628D02*
X106409523Y-52323866D01*
X106409523Y-52323866D02*
X106409523Y-52514342D01*
X106409523Y-52514342D02*
X106361904Y-52609580D01*
X106361904Y-52609580D02*
X106314285Y-52657200D01*
X106314285Y-52657200D02*
X106219047Y-52704819D01*
X106219047Y-52704819D02*
X106028571Y-52704819D01*
X106028571Y-52704819D02*
X105933333Y-52657200D01*
X105933333Y-52657200D02*
X105885714Y-52609580D01*
X105885714Y-52609580D02*
X105838095Y-52514342D01*
X105838095Y-52514342D02*
X105838095Y-52323866D01*
X105838095Y-52323866D02*
X105885714Y-52228628D01*
X105885714Y-52228628D02*
X105933333Y-52181009D01*
X105933333Y-52181009D02*
X106028571Y-52133390D01*
X154226666Y-46674819D02*
X154559999Y-46198628D01*
X154798094Y-46674819D02*
X154798094Y-45674819D01*
X154798094Y-45674819D02*
X154417142Y-45674819D01*
X154417142Y-45674819D02*
X154321904Y-45722438D01*
X154321904Y-45722438D02*
X154274285Y-45770057D01*
X154274285Y-45770057D02*
X154226666Y-45865295D01*
X154226666Y-45865295D02*
X154226666Y-46008152D01*
X154226666Y-46008152D02*
X154274285Y-46103390D01*
X154274285Y-46103390D02*
X154321904Y-46151009D01*
X154321904Y-46151009D02*
X154417142Y-46198628D01*
X154417142Y-46198628D02*
X154798094Y-46198628D01*
X153845713Y-45770057D02*
X153798094Y-45722438D01*
X153798094Y-45722438D02*
X153702856Y-45674819D01*
X153702856Y-45674819D02*
X153464761Y-45674819D01*
X153464761Y-45674819D02*
X153369523Y-45722438D01*
X153369523Y-45722438D02*
X153321904Y-45770057D01*
X153321904Y-45770057D02*
X153274285Y-45865295D01*
X153274285Y-45865295D02*
X153274285Y-45960533D01*
X153274285Y-45960533D02*
X153321904Y-46103390D01*
X153321904Y-46103390D02*
X153893332Y-46674819D01*
X153893332Y-46674819D02*
X153274285Y-46674819D01*
X138952857Y-60254819D02*
X139286190Y-59778628D01*
X139524285Y-60254819D02*
X139524285Y-59254819D01*
X139524285Y-59254819D02*
X139143333Y-59254819D01*
X139143333Y-59254819D02*
X139048095Y-59302438D01*
X139048095Y-59302438D02*
X139000476Y-59350057D01*
X139000476Y-59350057D02*
X138952857Y-59445295D01*
X138952857Y-59445295D02*
X138952857Y-59588152D01*
X138952857Y-59588152D02*
X139000476Y-59683390D01*
X139000476Y-59683390D02*
X139048095Y-59731009D01*
X139048095Y-59731009D02*
X139143333Y-59778628D01*
X139143333Y-59778628D02*
X139524285Y-59778628D01*
X138000476Y-60254819D02*
X138571904Y-60254819D01*
X138286190Y-60254819D02*
X138286190Y-59254819D01*
X138286190Y-59254819D02*
X138381428Y-59397676D01*
X138381428Y-59397676D02*
X138476666Y-59492914D01*
X138476666Y-59492914D02*
X138571904Y-59540533D01*
X137143333Y-59588152D02*
X137143333Y-60254819D01*
X137381428Y-59207200D02*
X137619523Y-59921485D01*
X137619523Y-59921485D02*
X137000476Y-59921485D01*
X153726666Y-68464580D02*
X153774285Y-68512200D01*
X153774285Y-68512200D02*
X153917142Y-68559819D01*
X153917142Y-68559819D02*
X154012380Y-68559819D01*
X154012380Y-68559819D02*
X154155237Y-68512200D01*
X154155237Y-68512200D02*
X154250475Y-68416961D01*
X154250475Y-68416961D02*
X154298094Y-68321723D01*
X154298094Y-68321723D02*
X154345713Y-68131247D01*
X154345713Y-68131247D02*
X154345713Y-67988390D01*
X154345713Y-67988390D02*
X154298094Y-67797914D01*
X154298094Y-67797914D02*
X154250475Y-67702676D01*
X154250475Y-67702676D02*
X154155237Y-67607438D01*
X154155237Y-67607438D02*
X154012380Y-67559819D01*
X154012380Y-67559819D02*
X153917142Y-67559819D01*
X153917142Y-67559819D02*
X153774285Y-67607438D01*
X153774285Y-67607438D02*
X153726666Y-67655057D01*
X152869523Y-67559819D02*
X153059999Y-67559819D01*
X153059999Y-67559819D02*
X153155237Y-67607438D01*
X153155237Y-67607438D02*
X153202856Y-67655057D01*
X153202856Y-67655057D02*
X153298094Y-67797914D01*
X153298094Y-67797914D02*
X153345713Y-67988390D01*
X153345713Y-67988390D02*
X153345713Y-68369342D01*
X153345713Y-68369342D02*
X153298094Y-68464580D01*
X153298094Y-68464580D02*
X153250475Y-68512200D01*
X153250475Y-68512200D02*
X153155237Y-68559819D01*
X153155237Y-68559819D02*
X152964761Y-68559819D01*
X152964761Y-68559819D02*
X152869523Y-68512200D01*
X152869523Y-68512200D02*
X152821904Y-68464580D01*
X152821904Y-68464580D02*
X152774285Y-68369342D01*
X152774285Y-68369342D02*
X152774285Y-68131247D01*
X152774285Y-68131247D02*
X152821904Y-68036009D01*
X152821904Y-68036009D02*
X152869523Y-67988390D01*
X152869523Y-67988390D02*
X152964761Y-67940771D01*
X152964761Y-67940771D02*
X153155237Y-67940771D01*
X153155237Y-67940771D02*
X153250475Y-67988390D01*
X153250475Y-67988390D02*
X153298094Y-68036009D01*
X153298094Y-68036009D02*
X153345713Y-68131247D01*
X154876666Y-66209819D02*
X155209999Y-65733628D01*
X155448094Y-66209819D02*
X155448094Y-65209819D01*
X155448094Y-65209819D02*
X155067142Y-65209819D01*
X155067142Y-65209819D02*
X154971904Y-65257438D01*
X154971904Y-65257438D02*
X154924285Y-65305057D01*
X154924285Y-65305057D02*
X154876666Y-65400295D01*
X154876666Y-65400295D02*
X154876666Y-65543152D01*
X154876666Y-65543152D02*
X154924285Y-65638390D01*
X154924285Y-65638390D02*
X154971904Y-65686009D01*
X154971904Y-65686009D02*
X155067142Y-65733628D01*
X155067142Y-65733628D02*
X155448094Y-65733628D01*
X154305237Y-65638390D02*
X154400475Y-65590771D01*
X154400475Y-65590771D02*
X154448094Y-65543152D01*
X154448094Y-65543152D02*
X154495713Y-65447914D01*
X154495713Y-65447914D02*
X154495713Y-65400295D01*
X154495713Y-65400295D02*
X154448094Y-65305057D01*
X154448094Y-65305057D02*
X154400475Y-65257438D01*
X154400475Y-65257438D02*
X154305237Y-65209819D01*
X154305237Y-65209819D02*
X154114761Y-65209819D01*
X154114761Y-65209819D02*
X154019523Y-65257438D01*
X154019523Y-65257438D02*
X153971904Y-65305057D01*
X153971904Y-65305057D02*
X153924285Y-65400295D01*
X153924285Y-65400295D02*
X153924285Y-65447914D01*
X153924285Y-65447914D02*
X153971904Y-65543152D01*
X153971904Y-65543152D02*
X154019523Y-65590771D01*
X154019523Y-65590771D02*
X154114761Y-65638390D01*
X154114761Y-65638390D02*
X154305237Y-65638390D01*
X154305237Y-65638390D02*
X154400475Y-65686009D01*
X154400475Y-65686009D02*
X154448094Y-65733628D01*
X154448094Y-65733628D02*
X154495713Y-65828866D01*
X154495713Y-65828866D02*
X154495713Y-66019342D01*
X154495713Y-66019342D02*
X154448094Y-66114580D01*
X154448094Y-66114580D02*
X154400475Y-66162200D01*
X154400475Y-66162200D02*
X154305237Y-66209819D01*
X154305237Y-66209819D02*
X154114761Y-66209819D01*
X154114761Y-66209819D02*
X154019523Y-66162200D01*
X154019523Y-66162200D02*
X153971904Y-66114580D01*
X153971904Y-66114580D02*
X153924285Y-66019342D01*
X153924285Y-66019342D02*
X153924285Y-65828866D01*
X153924285Y-65828866D02*
X153971904Y-65733628D01*
X153971904Y-65733628D02*
X154019523Y-65686009D01*
X154019523Y-65686009D02*
X154114761Y-65638390D01*
X163326666Y-54659580D02*
X163374285Y-54707200D01*
X163374285Y-54707200D02*
X163517142Y-54754819D01*
X163517142Y-54754819D02*
X163612380Y-54754819D01*
X163612380Y-54754819D02*
X163755237Y-54707200D01*
X163755237Y-54707200D02*
X163850475Y-54611961D01*
X163850475Y-54611961D02*
X163898094Y-54516723D01*
X163898094Y-54516723D02*
X163945713Y-54326247D01*
X163945713Y-54326247D02*
X163945713Y-54183390D01*
X163945713Y-54183390D02*
X163898094Y-53992914D01*
X163898094Y-53992914D02*
X163850475Y-53897676D01*
X163850475Y-53897676D02*
X163755237Y-53802438D01*
X163755237Y-53802438D02*
X163612380Y-53754819D01*
X163612380Y-53754819D02*
X163517142Y-53754819D01*
X163517142Y-53754819D02*
X163374285Y-53802438D01*
X163374285Y-53802438D02*
X163326666Y-53850057D01*
X162374285Y-54754819D02*
X162945713Y-54754819D01*
X162659999Y-54754819D02*
X162659999Y-53754819D01*
X162659999Y-53754819D02*
X162755237Y-53897676D01*
X162755237Y-53897676D02*
X162850475Y-53992914D01*
X162850475Y-53992914D02*
X162945713Y-54040533D01*
X156192857Y-82454819D02*
X156526190Y-81978628D01*
X156764285Y-82454819D02*
X156764285Y-81454819D01*
X156764285Y-81454819D02*
X156383333Y-81454819D01*
X156383333Y-81454819D02*
X156288095Y-81502438D01*
X156288095Y-81502438D02*
X156240476Y-81550057D01*
X156240476Y-81550057D02*
X156192857Y-81645295D01*
X156192857Y-81645295D02*
X156192857Y-81788152D01*
X156192857Y-81788152D02*
X156240476Y-81883390D01*
X156240476Y-81883390D02*
X156288095Y-81931009D01*
X156288095Y-81931009D02*
X156383333Y-81978628D01*
X156383333Y-81978628D02*
X156764285Y-81978628D01*
X155811904Y-81550057D02*
X155764285Y-81502438D01*
X155764285Y-81502438D02*
X155669047Y-81454819D01*
X155669047Y-81454819D02*
X155430952Y-81454819D01*
X155430952Y-81454819D02*
X155335714Y-81502438D01*
X155335714Y-81502438D02*
X155288095Y-81550057D01*
X155288095Y-81550057D02*
X155240476Y-81645295D01*
X155240476Y-81645295D02*
X155240476Y-81740533D01*
X155240476Y-81740533D02*
X155288095Y-81883390D01*
X155288095Y-81883390D02*
X155859523Y-82454819D01*
X155859523Y-82454819D02*
X155240476Y-82454819D01*
X154383333Y-81788152D02*
X154383333Y-82454819D01*
X154621428Y-81407200D02*
X154859523Y-82121485D01*
X154859523Y-82121485D02*
X154240476Y-82121485D01*
X104195238Y-59900057D02*
X104290476Y-59852438D01*
X104290476Y-59852438D02*
X104385714Y-59757200D01*
X104385714Y-59757200D02*
X104528571Y-59614342D01*
X104528571Y-59614342D02*
X104623809Y-59566723D01*
X104623809Y-59566723D02*
X104719047Y-59566723D01*
X104671428Y-59804819D02*
X104766666Y-59757200D01*
X104766666Y-59757200D02*
X104861904Y-59661961D01*
X104861904Y-59661961D02*
X104909523Y-59471485D01*
X104909523Y-59471485D02*
X104909523Y-59138152D01*
X104909523Y-59138152D02*
X104861904Y-58947676D01*
X104861904Y-58947676D02*
X104766666Y-58852438D01*
X104766666Y-58852438D02*
X104671428Y-58804819D01*
X104671428Y-58804819D02*
X104480952Y-58804819D01*
X104480952Y-58804819D02*
X104385714Y-58852438D01*
X104385714Y-58852438D02*
X104290476Y-58947676D01*
X104290476Y-58947676D02*
X104242857Y-59138152D01*
X104242857Y-59138152D02*
X104242857Y-59471485D01*
X104242857Y-59471485D02*
X104290476Y-59661961D01*
X104290476Y-59661961D02*
X104385714Y-59757200D01*
X104385714Y-59757200D02*
X104480952Y-59804819D01*
X104480952Y-59804819D02*
X104671428Y-59804819D01*
X103861904Y-58900057D02*
X103814285Y-58852438D01*
X103814285Y-58852438D02*
X103719047Y-58804819D01*
X103719047Y-58804819D02*
X103480952Y-58804819D01*
X103480952Y-58804819D02*
X103385714Y-58852438D01*
X103385714Y-58852438D02*
X103338095Y-58900057D01*
X103338095Y-58900057D02*
X103290476Y-58995295D01*
X103290476Y-58995295D02*
X103290476Y-59090533D01*
X103290476Y-59090533D02*
X103338095Y-59233390D01*
X103338095Y-59233390D02*
X103909523Y-59804819D01*
X103909523Y-59804819D02*
X103290476Y-59804819D01*
D11*
%TO.C,Q4*%
X139512500Y-82472500D02*
X139512500Y-80872500D01*
X140422500Y-82472500D02*
X139522500Y-82472500D01*
X142732500Y-82472500D02*
X141822500Y-82472500D01*
X142732500Y-82472500D02*
X142732500Y-80322500D01*
X139562500Y-80372500D02*
X139232500Y-80612500D01*
X139232500Y-80132500D01*
X139562500Y-80372500D01*
G36*
X139562500Y-80372500D02*
G01*
X139232500Y-80612500D01*
X139232500Y-80132500D01*
X139562500Y-80372500D01*
G37*
%TO.C,U2*%
X147197500Y-53810000D02*
X149397500Y-53810000D01*
X147197500Y-60580000D02*
X149397500Y-60580000D01*
X151597500Y-53810000D02*
X149397500Y-53810000D01*
X151597500Y-60580000D02*
X149397500Y-60580000D01*
X153587500Y-54510000D02*
X153257500Y-54270000D01*
X153587500Y-54030000D01*
X153587500Y-54510000D01*
G36*
X153587500Y-54510000D02*
G01*
X153257500Y-54270000D01*
X153587500Y-54030000D01*
X153587500Y-54510000D01*
G37*
%TO.C,C12*%
X152361252Y-122015000D02*
X151838748Y-122015000D01*
X152361252Y-123485000D02*
X151838748Y-123485000D01*
%TO.C,R1*%
X150287064Y-47335000D02*
X149832936Y-47335000D01*
X150287064Y-48805000D02*
X149832936Y-48805000D01*
%TO.C,C7*%
X128411252Y-52765000D02*
X127888748Y-52765000D01*
X128411252Y-54235000D02*
X127888748Y-54235000D01*
%TO.C,R11*%
X165772936Y-74615000D02*
X166227064Y-74615000D01*
X165772936Y-76085000D02*
X166227064Y-76085000D01*
%TO.C,C3*%
X163371252Y-56785000D02*
X162848748Y-56785000D01*
X163371252Y-58255000D02*
X162848748Y-58255000D01*
%TO.C,R10*%
X162637064Y-65470000D02*
X162182936Y-65470000D01*
X162637064Y-66940000D02*
X162182936Y-66940000D01*
%TO.C,R20*%
X141399564Y-76212500D02*
X140945436Y-76212500D01*
X141399564Y-77682500D02*
X140945436Y-77682500D01*
%TO.C,R12*%
X141422936Y-61215000D02*
X141877064Y-61215000D01*
X141422936Y-62685000D02*
X141877064Y-62685000D01*
%TO.C,Q1*%
X157550000Y-72930000D02*
X157550000Y-71330000D01*
X158460000Y-72930000D02*
X157560000Y-72930000D01*
X160770000Y-72930000D02*
X159860000Y-72930000D01*
X160770000Y-72930000D02*
X160770000Y-70780000D01*
X157600000Y-70830000D02*
X157270000Y-71070000D01*
X157270000Y-70590000D01*
X157600000Y-70830000D01*
G36*
X157600000Y-70830000D02*
G01*
X157270000Y-71070000D01*
X157270000Y-70590000D01*
X157600000Y-70830000D01*
G37*
%TO.C,R16*%
X136800436Y-82497500D02*
X137254564Y-82497500D01*
X136800436Y-83967500D02*
X137254564Y-83967500D01*
%TO.C,R9*%
X158737064Y-65470000D02*
X158282936Y-65470000D01*
X158737064Y-66940000D02*
X158282936Y-66940000D01*
%TO.C,R25*%
X162227064Y-79530000D02*
X161772936Y-79530000D01*
X162227064Y-81000000D02*
X161772936Y-81000000D01*
%TO.C,R7*%
X151937064Y-62345000D02*
X150482936Y-62345000D01*
X151937064Y-64165000D02*
X150482936Y-64165000D01*
%TO.C,R15*%
X116771686Y-60338750D02*
X117225814Y-60338750D01*
X116771686Y-61808750D02*
X117225814Y-61808750D01*
%TO.C,C9*%
X133638748Y-52765000D02*
X134161252Y-52765000D01*
X133638748Y-54235000D02*
X134161252Y-54235000D01*
%TO.C,C4*%
X140065000Y-55411252D02*
X140065000Y-54888748D01*
X141535000Y-55411252D02*
X141535000Y-54888748D01*
%TO.C,Q3*%
X126017500Y-82657500D02*
X126017500Y-81057500D01*
X126927500Y-82657500D02*
X126027500Y-82657500D01*
X129237500Y-82657500D02*
X128327500Y-82657500D01*
X129237500Y-82657500D02*
X129237500Y-80507500D01*
X126067500Y-80557500D02*
X125737500Y-80797500D01*
X125737500Y-80317500D01*
X126067500Y-80557500D01*
G36*
X126067500Y-80557500D02*
G01*
X125737500Y-80797500D01*
X125737500Y-80317500D01*
X126067500Y-80557500D01*
G37*
%TO.C,C15*%
X147111252Y-122015000D02*
X146588748Y-122015000D01*
X147111252Y-123485000D02*
X146588748Y-123485000D01*
%TO.C,R19*%
X127904564Y-76417500D02*
X127450436Y-76417500D01*
X127904564Y-77887500D02*
X127450436Y-77887500D01*
%TO.C,R17*%
X150695436Y-82362500D02*
X151149564Y-82362500D01*
X150695436Y-83832500D02*
X151149564Y-83832500D01*
%TO.C,R13*%
X141422936Y-63365000D02*
X141877064Y-63365000D01*
X141422936Y-64835000D02*
X141877064Y-64835000D01*
%TO.C,R18*%
X107305814Y-53383750D02*
X106851686Y-53383750D01*
X107305814Y-54853750D02*
X106851686Y-54853750D01*
%TO.C,R2*%
X154287064Y-47335000D02*
X153832936Y-47335000D01*
X154287064Y-48805000D02*
X153832936Y-48805000D01*
%TO.C,R14*%
X141382936Y-59065000D02*
X141837064Y-59065000D01*
X141382936Y-60535000D02*
X141837064Y-60535000D01*
%TO.C,C6*%
X150871252Y-67370000D02*
X150348748Y-67370000D01*
X150871252Y-68840000D02*
X150348748Y-68840000D01*
%TO.C,R8*%
X151937064Y-64845000D02*
X150482936Y-64845000D01*
X151937064Y-66665000D02*
X150482936Y-66665000D01*
%TO.C,C1*%
X163421252Y-51885000D02*
X162898748Y-51885000D01*
X163421252Y-53355000D02*
X162898748Y-53355000D01*
%TO.C,R24*%
X155777064Y-79515000D02*
X155322936Y-79515000D01*
X155777064Y-80985000D02*
X155322936Y-80985000D01*
%TO.C,Q2*%
X105466250Y-60448750D02*
X105466250Y-58848750D01*
X106376250Y-60448750D02*
X105476250Y-60448750D01*
X108686250Y-60448750D02*
X107776250Y-60448750D01*
X108686250Y-60448750D02*
X108686250Y-58298750D01*
X105516250Y-58348750D02*
X105186250Y-58588750D01*
X105186250Y-58108750D01*
X105516250Y-58348750D01*
G36*
X105516250Y-58348750D02*
G01*
X105186250Y-58588750D01*
X105186250Y-58108750D01*
X105516250Y-58348750D01*
G37*
%TD*%
M02*
