%TF.GenerationSoftware,KiCad,Pcbnew,8.0.6*%
%TF.CreationDate,2024-12-30T11:18:50+02:00*%
%TF.ProjectId,project,70726f6a-6563-4742-9e6b-696361645f70,rev?*%
%TF.SameCoordinates,Original*%
%TF.FileFunction,Legend,Top*%
%TF.FilePolarity,Positive*%
%FSLAX46Y46*%
G04 Gerber Fmt 4.6, Leading zero omitted, Abs format (unit mm)*
G04 Created by KiCad (PCBNEW 8.0.6) date 2024-12-30 11:18:50*
%MOMM*%
%LPD*%
G01*
G04 APERTURE LIST*
%ADD10C,0.300000*%
%ADD11C,0.100000*%
%ADD12C,0.500000*%
%ADD13C,0.150000*%
%ADD14C,0.120000*%
G04 APERTURE END LIST*
D10*
X105358082Y-80000828D02*
X105358082Y-81072257D01*
X105358082Y-81072257D02*
X105286653Y-81286542D01*
X105286653Y-81286542D02*
X105143796Y-81429400D01*
X105143796Y-81429400D02*
X104929510Y-81500828D01*
X104929510Y-81500828D02*
X104786653Y-81500828D01*
X106786653Y-81500828D02*
X106072367Y-81500828D01*
X106072367Y-81500828D02*
X106072367Y-80000828D01*
X108143796Y-81357971D02*
X108072368Y-81429400D01*
X108072368Y-81429400D02*
X107858082Y-81500828D01*
X107858082Y-81500828D02*
X107715225Y-81500828D01*
X107715225Y-81500828D02*
X107500939Y-81429400D01*
X107500939Y-81429400D02*
X107358082Y-81286542D01*
X107358082Y-81286542D02*
X107286653Y-81143685D01*
X107286653Y-81143685D02*
X107215225Y-80857971D01*
X107215225Y-80857971D02*
X107215225Y-80643685D01*
X107215225Y-80643685D02*
X107286653Y-80357971D01*
X107286653Y-80357971D02*
X107358082Y-80215114D01*
X107358082Y-80215114D02*
X107500939Y-80072257D01*
X107500939Y-80072257D02*
X107715225Y-80000828D01*
X107715225Y-80000828D02*
X107858082Y-80000828D01*
X107858082Y-80000828D02*
X108072368Y-80072257D01*
X108072368Y-80072257D02*
X108143796Y-80143685D01*
X109215225Y-80000828D02*
X109215225Y-81072257D01*
X109215225Y-81072257D02*
X109143796Y-81286542D01*
X109143796Y-81286542D02*
X109000939Y-81429400D01*
X109000939Y-81429400D02*
X108786653Y-81500828D01*
X108786653Y-81500828D02*
X108643796Y-81500828D01*
X110643796Y-81500828D02*
X109929510Y-81500828D01*
X109929510Y-81500828D02*
X109929510Y-80000828D01*
X112000939Y-81357971D02*
X111929511Y-81429400D01*
X111929511Y-81429400D02*
X111715225Y-81500828D01*
X111715225Y-81500828D02*
X111572368Y-81500828D01*
X111572368Y-81500828D02*
X111358082Y-81429400D01*
X111358082Y-81429400D02*
X111215225Y-81286542D01*
X111215225Y-81286542D02*
X111143796Y-81143685D01*
X111143796Y-81143685D02*
X111072368Y-80857971D01*
X111072368Y-80857971D02*
X111072368Y-80643685D01*
X111072368Y-80643685D02*
X111143796Y-80357971D01*
X111143796Y-80357971D02*
X111215225Y-80215114D01*
X111215225Y-80215114D02*
X111358082Y-80072257D01*
X111358082Y-80072257D02*
X111572368Y-80000828D01*
X111572368Y-80000828D02*
X111715225Y-80000828D01*
X111715225Y-80000828D02*
X111929511Y-80072257D01*
X111929511Y-80072257D02*
X112000939Y-80143685D01*
X113072368Y-80000828D02*
X113072368Y-81072257D01*
X113072368Y-81072257D02*
X113000939Y-81286542D01*
X113000939Y-81286542D02*
X112858082Y-81429400D01*
X112858082Y-81429400D02*
X112643796Y-81500828D01*
X112643796Y-81500828D02*
X112500939Y-81500828D01*
X114500939Y-81500828D02*
X113786653Y-81500828D01*
X113786653Y-81500828D02*
X113786653Y-80000828D01*
X115858082Y-81357971D02*
X115786654Y-81429400D01*
X115786654Y-81429400D02*
X115572368Y-81500828D01*
X115572368Y-81500828D02*
X115429511Y-81500828D01*
X115429511Y-81500828D02*
X115215225Y-81429400D01*
X115215225Y-81429400D02*
X115072368Y-81286542D01*
X115072368Y-81286542D02*
X115000939Y-81143685D01*
X115000939Y-81143685D02*
X114929511Y-80857971D01*
X114929511Y-80857971D02*
X114929511Y-80643685D01*
X114929511Y-80643685D02*
X115000939Y-80357971D01*
X115000939Y-80357971D02*
X115072368Y-80215114D01*
X115072368Y-80215114D02*
X115215225Y-80072257D01*
X115215225Y-80072257D02*
X115429511Y-80000828D01*
X115429511Y-80000828D02*
X115572368Y-80000828D01*
X115572368Y-80000828D02*
X115786654Y-80072257D01*
X115786654Y-80072257D02*
X115858082Y-80143685D01*
X116929511Y-80000828D02*
X116929511Y-81072257D01*
X116929511Y-81072257D02*
X116858082Y-81286542D01*
X116858082Y-81286542D02*
X116715225Y-81429400D01*
X116715225Y-81429400D02*
X116500939Y-81500828D01*
X116500939Y-81500828D02*
X116358082Y-81500828D01*
X118358082Y-81500828D02*
X117643796Y-81500828D01*
X117643796Y-81500828D02*
X117643796Y-80000828D01*
X119715225Y-81357971D02*
X119643797Y-81429400D01*
X119643797Y-81429400D02*
X119429511Y-81500828D01*
X119429511Y-81500828D02*
X119286654Y-81500828D01*
X119286654Y-81500828D02*
X119072368Y-81429400D01*
X119072368Y-81429400D02*
X118929511Y-81286542D01*
X118929511Y-81286542D02*
X118858082Y-81143685D01*
X118858082Y-81143685D02*
X118786654Y-80857971D01*
X118786654Y-80857971D02*
X118786654Y-80643685D01*
X118786654Y-80643685D02*
X118858082Y-80357971D01*
X118858082Y-80357971D02*
X118929511Y-80215114D01*
X118929511Y-80215114D02*
X119072368Y-80072257D01*
X119072368Y-80072257D02*
X119286654Y-80000828D01*
X119286654Y-80000828D02*
X119429511Y-80000828D01*
X119429511Y-80000828D02*
X119643797Y-80072257D01*
X119643797Y-80072257D02*
X119715225Y-80143685D01*
X75965225Y-58221416D02*
X75108082Y-58221416D01*
X75536653Y-58221416D02*
X75536653Y-56721416D01*
X75536653Y-56721416D02*
X75393796Y-56935702D01*
X75393796Y-56935702D02*
X75250939Y-57078559D01*
X75250939Y-57078559D02*
X75108082Y-57149988D01*
X77750938Y-57649988D02*
X78893796Y-57649988D01*
X80750938Y-58221416D02*
X80750938Y-56721416D01*
X81608081Y-58221416D02*
X80965224Y-57364273D01*
X81608081Y-56721416D02*
X80750938Y-57578559D01*
X82465224Y-58221416D02*
X82322367Y-58149988D01*
X82322367Y-58149988D02*
X82250938Y-58078559D01*
X82250938Y-58078559D02*
X82179510Y-57935702D01*
X82179510Y-57935702D02*
X82179510Y-57507130D01*
X82179510Y-57507130D02*
X82250938Y-57364273D01*
X82250938Y-57364273D02*
X82322367Y-57292845D01*
X82322367Y-57292845D02*
X82465224Y-57221416D01*
X82465224Y-57221416D02*
X82679510Y-57221416D01*
X82679510Y-57221416D02*
X82822367Y-57292845D01*
X82822367Y-57292845D02*
X82893796Y-57364273D01*
X82893796Y-57364273D02*
X82965224Y-57507130D01*
X82965224Y-57507130D02*
X82965224Y-57935702D01*
X82965224Y-57935702D02*
X82893796Y-58078559D01*
X82893796Y-58078559D02*
X82822367Y-58149988D01*
X82822367Y-58149988D02*
X82679510Y-58221416D01*
X82679510Y-58221416D02*
X82465224Y-58221416D01*
X83608081Y-58221416D02*
X83608081Y-57221416D01*
X83608081Y-57221416D02*
X84036653Y-58007130D01*
X84036653Y-58007130D02*
X84465224Y-57221416D01*
X84465224Y-57221416D02*
X84465224Y-58221416D01*
X85179510Y-58221416D02*
X85179510Y-57221416D01*
X85179510Y-57221416D02*
X85822368Y-57221416D01*
X85822368Y-57221416D02*
X85822368Y-58221416D01*
X86536653Y-57221416D02*
X86536653Y-58721416D01*
X86536653Y-57292845D02*
X86679511Y-57221416D01*
X86679511Y-57221416D02*
X86965225Y-57221416D01*
X86965225Y-57221416D02*
X87108082Y-57292845D01*
X87108082Y-57292845D02*
X87179511Y-57364273D01*
X87179511Y-57364273D02*
X87250939Y-57507130D01*
X87250939Y-57507130D02*
X87250939Y-57935702D01*
X87250939Y-57935702D02*
X87179511Y-58078559D01*
X87179511Y-58078559D02*
X87108082Y-58149988D01*
X87108082Y-58149988D02*
X86965225Y-58221416D01*
X86965225Y-58221416D02*
X86679511Y-58221416D01*
X86679511Y-58221416D02*
X86536653Y-58149988D01*
X88465225Y-58149988D02*
X88322368Y-58221416D01*
X88322368Y-58221416D02*
X88036654Y-58221416D01*
X88036654Y-58221416D02*
X87893796Y-58149988D01*
X87893796Y-58149988D02*
X87822368Y-58007130D01*
X87822368Y-58007130D02*
X87822368Y-57435702D01*
X87822368Y-57435702D02*
X87893796Y-57292845D01*
X87893796Y-57292845D02*
X88036654Y-57221416D01*
X88036654Y-57221416D02*
X88322368Y-57221416D01*
X88322368Y-57221416D02*
X88465225Y-57292845D01*
X88465225Y-57292845D02*
X88536654Y-57435702D01*
X88536654Y-57435702D02*
X88536654Y-57578559D01*
X88536654Y-57578559D02*
X87822368Y-57721416D01*
X89822368Y-58149988D02*
X89679510Y-58221416D01*
X89679510Y-58221416D02*
X89393796Y-58221416D01*
X89393796Y-58221416D02*
X89250939Y-58149988D01*
X89250939Y-58149988D02*
X89179510Y-58078559D01*
X89179510Y-58078559D02*
X89108082Y-57935702D01*
X89108082Y-57935702D02*
X89108082Y-57507130D01*
X89108082Y-57507130D02*
X89179510Y-57364273D01*
X89179510Y-57364273D02*
X89250939Y-57292845D01*
X89250939Y-57292845D02*
X89393796Y-57221416D01*
X89393796Y-57221416D02*
X89679510Y-57221416D01*
X89679510Y-57221416D02*
X89822368Y-57292845D01*
X90679510Y-58221416D02*
X90536653Y-58149988D01*
X90536653Y-58149988D02*
X90465224Y-58078559D01*
X90465224Y-58078559D02*
X90393796Y-57935702D01*
X90393796Y-57935702D02*
X90393796Y-57507130D01*
X90393796Y-57507130D02*
X90465224Y-57364273D01*
X90465224Y-57364273D02*
X90536653Y-57292845D01*
X90536653Y-57292845D02*
X90679510Y-57221416D01*
X90679510Y-57221416D02*
X90893796Y-57221416D01*
X90893796Y-57221416D02*
X91036653Y-57292845D01*
X91036653Y-57292845D02*
X91108082Y-57364273D01*
X91108082Y-57364273D02*
X91179510Y-57507130D01*
X91179510Y-57507130D02*
X91179510Y-57935702D01*
X91179510Y-57935702D02*
X91108082Y-58078559D01*
X91108082Y-58078559D02*
X91036653Y-58149988D01*
X91036653Y-58149988D02*
X90893796Y-58221416D01*
X90893796Y-58221416D02*
X90679510Y-58221416D01*
X91822367Y-57221416D02*
X91822367Y-58721416D01*
X91822367Y-57292845D02*
X91965225Y-57221416D01*
X91965225Y-57221416D02*
X92250939Y-57221416D01*
X92250939Y-57221416D02*
X92393796Y-57292845D01*
X92393796Y-57292845D02*
X92465225Y-57364273D01*
X92465225Y-57364273D02*
X92536653Y-57507130D01*
X92536653Y-57507130D02*
X92536653Y-57935702D01*
X92536653Y-57935702D02*
X92465225Y-58078559D01*
X92465225Y-58078559D02*
X92393796Y-58149988D01*
X92393796Y-58149988D02*
X92250939Y-58221416D01*
X92250939Y-58221416D02*
X91965225Y-58221416D01*
X91965225Y-58221416D02*
X91822367Y-58149988D01*
X94750939Y-56721416D02*
X94750939Y-58721416D01*
X94608082Y-57221416D02*
X94893796Y-57221416D01*
X94893796Y-57221416D02*
X95036653Y-57292845D01*
X95036653Y-57292845D02*
X95179510Y-57435702D01*
X95179510Y-57435702D02*
X95250939Y-57578559D01*
X95250939Y-57578559D02*
X95250939Y-57864273D01*
X95250939Y-57864273D02*
X95179510Y-58007130D01*
X95179510Y-58007130D02*
X95036653Y-58149988D01*
X95036653Y-58149988D02*
X94893796Y-58221416D01*
X94893796Y-58221416D02*
X94608082Y-58221416D01*
X94608082Y-58221416D02*
X94465225Y-58149988D01*
X94465225Y-58149988D02*
X94322367Y-58007130D01*
X94322367Y-58007130D02*
X94250939Y-57864273D01*
X94250939Y-57864273D02*
X94250939Y-57578559D01*
X94250939Y-57578559D02*
X94322367Y-57435702D01*
X94322367Y-57435702D02*
X94465225Y-57292845D01*
X94465225Y-57292845D02*
X94608082Y-57221416D01*
X96536654Y-58221416D02*
X96536654Y-57435702D01*
X96536654Y-57435702D02*
X96465225Y-57292845D01*
X96465225Y-57292845D02*
X96322368Y-57221416D01*
X96322368Y-57221416D02*
X96036654Y-57221416D01*
X96036654Y-57221416D02*
X95893796Y-57292845D01*
X96536654Y-58149988D02*
X96393796Y-58221416D01*
X96393796Y-58221416D02*
X96036654Y-58221416D01*
X96036654Y-58221416D02*
X95893796Y-58149988D01*
X95893796Y-58149988D02*
X95822368Y-58007130D01*
X95822368Y-58007130D02*
X95822368Y-57864273D01*
X95822368Y-57864273D02*
X95893796Y-57721416D01*
X95893796Y-57721416D02*
X96036654Y-57649988D01*
X96036654Y-57649988D02*
X96393796Y-57649988D01*
X96393796Y-57649988D02*
X96536654Y-57578559D01*
X97393797Y-57721416D02*
X97536654Y-57721416D01*
X97108082Y-57292845D02*
X97250939Y-57221416D01*
X97250939Y-57221416D02*
X97536654Y-57221416D01*
X97536654Y-57221416D02*
X97679511Y-57292845D01*
X97679511Y-57292845D02*
X97750939Y-57435702D01*
X97750939Y-57435702D02*
X97750939Y-57507130D01*
X97750939Y-57507130D02*
X97679511Y-57649988D01*
X97679511Y-57649988D02*
X97536654Y-57721416D01*
X97536654Y-57721416D02*
X97679511Y-57792845D01*
X97679511Y-57792845D02*
X97750939Y-57935702D01*
X97750939Y-57935702D02*
X97750939Y-58007130D01*
X97750939Y-58007130D02*
X97679511Y-58149988D01*
X97679511Y-58149988D02*
X97536654Y-58221416D01*
X97536654Y-58221416D02*
X97250939Y-58221416D01*
X97250939Y-58221416D02*
X97108082Y-58149988D01*
X99036654Y-58221416D02*
X99036654Y-57435702D01*
X99036654Y-57435702D02*
X98965225Y-57292845D01*
X98965225Y-57292845D02*
X98822368Y-57221416D01*
X98822368Y-57221416D02*
X98536654Y-57221416D01*
X98536654Y-57221416D02*
X98393796Y-57292845D01*
X99036654Y-58149988D02*
X98893796Y-58221416D01*
X98893796Y-58221416D02*
X98536654Y-58221416D01*
X98536654Y-58221416D02*
X98393796Y-58149988D01*
X98393796Y-58149988D02*
X98322368Y-58007130D01*
X98322368Y-58007130D02*
X98322368Y-57864273D01*
X98322368Y-57864273D02*
X98393796Y-57721416D01*
X98393796Y-57721416D02*
X98536654Y-57649988D01*
X98536654Y-57649988D02*
X98893796Y-57649988D01*
X98893796Y-57649988D02*
X99036654Y-57578559D01*
X75108082Y-59279189D02*
X75179510Y-59207761D01*
X75179510Y-59207761D02*
X75322368Y-59136332D01*
X75322368Y-59136332D02*
X75679510Y-59136332D01*
X75679510Y-59136332D02*
X75822368Y-59207761D01*
X75822368Y-59207761D02*
X75893796Y-59279189D01*
X75893796Y-59279189D02*
X75965225Y-59422046D01*
X75965225Y-59422046D02*
X75965225Y-59564904D01*
X75965225Y-59564904D02*
X75893796Y-59779189D01*
X75893796Y-59779189D02*
X75036653Y-60636332D01*
X75036653Y-60636332D02*
X75965225Y-60636332D01*
X77750938Y-60064904D02*
X78893796Y-60064904D01*
X80536653Y-59136332D02*
X81393796Y-59136332D01*
X80965224Y-60636332D02*
X80965224Y-59136332D01*
X81893795Y-59850618D02*
X82393795Y-59850618D01*
X82608081Y-60636332D02*
X81893795Y-60636332D01*
X81893795Y-60636332D02*
X81893795Y-59136332D01*
X81893795Y-59136332D02*
X82608081Y-59136332D01*
X83250938Y-60636332D02*
X83250938Y-59136332D01*
X83250938Y-59850618D02*
X84108081Y-59850618D01*
X84108081Y-60636332D02*
X84108081Y-59136332D01*
X85965224Y-60636332D02*
X85965224Y-59636332D01*
X85965224Y-59636332D02*
X86608082Y-59636332D01*
X86608082Y-59636332D02*
X86608082Y-60636332D01*
X87322367Y-60636332D02*
X87322367Y-59636332D01*
X87322367Y-59136332D02*
X87250939Y-59207761D01*
X87250939Y-59207761D02*
X87322367Y-59279189D01*
X87322367Y-59279189D02*
X87393796Y-59207761D01*
X87393796Y-59207761D02*
X87322367Y-59136332D01*
X87322367Y-59136332D02*
X87322367Y-59279189D01*
X88750939Y-59779189D02*
X88679511Y-59707761D01*
X88679511Y-59707761D02*
X88536653Y-59636332D01*
X88536653Y-59636332D02*
X88250939Y-59636332D01*
X88250939Y-59636332D02*
X88108082Y-59707761D01*
X88108082Y-59707761D02*
X88036653Y-59779189D01*
X88036653Y-59779189D02*
X87965225Y-59922046D01*
X87965225Y-59922046D02*
X87965225Y-60350618D01*
X87965225Y-60350618D02*
X88036653Y-60493475D01*
X88036653Y-60493475D02*
X88108082Y-60564904D01*
X88108082Y-60564904D02*
X88250939Y-60636332D01*
X88250939Y-60636332D02*
X88465225Y-60636332D01*
X88465225Y-60636332D02*
X88608082Y-60564904D01*
X88608082Y-60564904D02*
X88679511Y-60493475D01*
X88679511Y-60493475D02*
X88750939Y-60350618D01*
X88750939Y-60350618D02*
X88750939Y-59422046D01*
X88750939Y-59422046D02*
X88679511Y-59279189D01*
X88679511Y-59279189D02*
X88608082Y-59207761D01*
X88608082Y-59207761D02*
X88465225Y-59136332D01*
X88465225Y-59136332D02*
X88179511Y-59136332D01*
X88179511Y-59136332D02*
X88036653Y-59207761D01*
X90108082Y-59779189D02*
X90036654Y-59707761D01*
X90036654Y-59707761D02*
X89893796Y-59636332D01*
X89893796Y-59636332D02*
X89608082Y-59636332D01*
X89608082Y-59636332D02*
X89465225Y-59707761D01*
X89465225Y-59707761D02*
X89393796Y-59779189D01*
X89393796Y-59779189D02*
X89322368Y-59922046D01*
X89322368Y-59922046D02*
X89322368Y-60350618D01*
X89322368Y-60350618D02*
X89393796Y-60493475D01*
X89393796Y-60493475D02*
X89465225Y-60564904D01*
X89465225Y-60564904D02*
X89608082Y-60636332D01*
X89608082Y-60636332D02*
X89822368Y-60636332D01*
X89822368Y-60636332D02*
X89965225Y-60564904D01*
X89965225Y-60564904D02*
X90036654Y-60493475D01*
X90036654Y-60493475D02*
X90108082Y-60350618D01*
X90108082Y-60350618D02*
X90108082Y-59422046D01*
X90108082Y-59422046D02*
X90036654Y-59279189D01*
X90036654Y-59279189D02*
X89965225Y-59207761D01*
X89965225Y-59207761D02*
X89822368Y-59136332D01*
X89822368Y-59136332D02*
X89536654Y-59136332D01*
X89536654Y-59136332D02*
X89393796Y-59207761D01*
X90965225Y-60636332D02*
X90822368Y-60564904D01*
X90822368Y-60564904D02*
X90750939Y-60493475D01*
X90750939Y-60493475D02*
X90679511Y-60350618D01*
X90679511Y-60350618D02*
X90679511Y-59922046D01*
X90679511Y-59922046D02*
X90750939Y-59779189D01*
X90750939Y-59779189D02*
X90822368Y-59707761D01*
X90822368Y-59707761D02*
X90965225Y-59636332D01*
X90965225Y-59636332D02*
X91179511Y-59636332D01*
X91179511Y-59636332D02*
X91322368Y-59707761D01*
X91322368Y-59707761D02*
X91393797Y-59779189D01*
X91393797Y-59779189D02*
X91465225Y-59922046D01*
X91465225Y-59922046D02*
X91465225Y-60350618D01*
X91465225Y-60350618D02*
X91393797Y-60493475D01*
X91393797Y-60493475D02*
X91322368Y-60564904D01*
X91322368Y-60564904D02*
X91179511Y-60636332D01*
X91179511Y-60636332D02*
X90965225Y-60636332D01*
X92108082Y-60136332D02*
X92750940Y-60136332D01*
X92108082Y-59636332D02*
X92108082Y-60636332D01*
X92750940Y-59636332D02*
X92750940Y-60636332D01*
X75036653Y-61551248D02*
X75965225Y-61551248D01*
X75965225Y-61551248D02*
X75465225Y-62122677D01*
X75465225Y-62122677D02*
X75679510Y-62122677D01*
X75679510Y-62122677D02*
X75822368Y-62194105D01*
X75822368Y-62194105D02*
X75893796Y-62265534D01*
X75893796Y-62265534D02*
X75965225Y-62408391D01*
X75965225Y-62408391D02*
X75965225Y-62765534D01*
X75965225Y-62765534D02*
X75893796Y-62908391D01*
X75893796Y-62908391D02*
X75822368Y-62979820D01*
X75822368Y-62979820D02*
X75679510Y-63051248D01*
X75679510Y-63051248D02*
X75250939Y-63051248D01*
X75250939Y-63051248D02*
X75108082Y-62979820D01*
X75108082Y-62979820D02*
X75036653Y-62908391D01*
X77750938Y-62479820D02*
X78893796Y-62479820D01*
X80536653Y-61551248D02*
X81393796Y-61551248D01*
X80965224Y-63051248D02*
X80965224Y-61551248D01*
X81893795Y-62265534D02*
X82393795Y-62265534D01*
X82608081Y-63051248D02*
X81893795Y-63051248D01*
X81893795Y-63051248D02*
X81893795Y-61551248D01*
X81893795Y-61551248D02*
X82608081Y-61551248D01*
X83250938Y-63051248D02*
X83250938Y-61551248D01*
X83250938Y-62265534D02*
X84108081Y-62265534D01*
X84108081Y-63051248D02*
X84108081Y-61551248D01*
X85965224Y-62051248D02*
X85965224Y-63051248D01*
X86108082Y-62479820D02*
X86536653Y-63051248D01*
X86536653Y-62051248D02*
X85965224Y-62622677D01*
X87393796Y-63051248D02*
X87250939Y-62979820D01*
X87250939Y-62979820D02*
X87179510Y-62908391D01*
X87179510Y-62908391D02*
X87108082Y-62765534D01*
X87108082Y-62765534D02*
X87108082Y-62336962D01*
X87108082Y-62336962D02*
X87179510Y-62194105D01*
X87179510Y-62194105D02*
X87250939Y-62122677D01*
X87250939Y-62122677D02*
X87393796Y-62051248D01*
X87393796Y-62051248D02*
X87608082Y-62051248D01*
X87608082Y-62051248D02*
X87750939Y-62122677D01*
X87750939Y-62122677D02*
X87822368Y-62194105D01*
X87822368Y-62194105D02*
X87893796Y-62336962D01*
X87893796Y-62336962D02*
X87893796Y-62765534D01*
X87893796Y-62765534D02*
X87822368Y-62908391D01*
X87822368Y-62908391D02*
X87750939Y-62979820D01*
X87750939Y-62979820D02*
X87608082Y-63051248D01*
X87608082Y-63051248D02*
X87393796Y-63051248D01*
X88536653Y-63051248D02*
X88536653Y-62051248D01*
X88536653Y-62051248D02*
X88965225Y-62836962D01*
X88965225Y-62836962D02*
X89393796Y-62051248D01*
X89393796Y-62051248D02*
X89393796Y-63051248D01*
X90108082Y-63051248D02*
X90108082Y-62051248D01*
X90108082Y-62051248D02*
X90750940Y-62051248D01*
X90750940Y-62051248D02*
X90750940Y-63051248D01*
X91465225Y-62051248D02*
X91465225Y-63551248D01*
X91465225Y-62122677D02*
X91608083Y-62051248D01*
X91608083Y-62051248D02*
X91893797Y-62051248D01*
X91893797Y-62051248D02*
X92036654Y-62122677D01*
X92036654Y-62122677D02*
X92108083Y-62194105D01*
X92108083Y-62194105D02*
X92179511Y-62336962D01*
X92179511Y-62336962D02*
X92179511Y-62765534D01*
X92179511Y-62765534D02*
X92108083Y-62908391D01*
X92108083Y-62908391D02*
X92036654Y-62979820D01*
X92036654Y-62979820D02*
X91893797Y-63051248D01*
X91893797Y-63051248D02*
X91608083Y-63051248D01*
X91608083Y-63051248D02*
X91465225Y-62979820D01*
X93393797Y-62979820D02*
X93250940Y-63051248D01*
X93250940Y-63051248D02*
X92965226Y-63051248D01*
X92965226Y-63051248D02*
X92822368Y-62979820D01*
X92822368Y-62979820D02*
X92750940Y-62836962D01*
X92750940Y-62836962D02*
X92750940Y-62265534D01*
X92750940Y-62265534D02*
X92822368Y-62122677D01*
X92822368Y-62122677D02*
X92965226Y-62051248D01*
X92965226Y-62051248D02*
X93250940Y-62051248D01*
X93250940Y-62051248D02*
X93393797Y-62122677D01*
X93393797Y-62122677D02*
X93465226Y-62265534D01*
X93465226Y-62265534D02*
X93465226Y-62408391D01*
X93465226Y-62408391D02*
X92750940Y-62551248D01*
X94750940Y-62979820D02*
X94608082Y-63051248D01*
X94608082Y-63051248D02*
X94322368Y-63051248D01*
X94322368Y-63051248D02*
X94179511Y-62979820D01*
X94179511Y-62979820D02*
X94108082Y-62908391D01*
X94108082Y-62908391D02*
X94036654Y-62765534D01*
X94036654Y-62765534D02*
X94036654Y-62336962D01*
X94036654Y-62336962D02*
X94108082Y-62194105D01*
X94108082Y-62194105D02*
X94179511Y-62122677D01*
X94179511Y-62122677D02*
X94322368Y-62051248D01*
X94322368Y-62051248D02*
X94608082Y-62051248D01*
X94608082Y-62051248D02*
X94750940Y-62122677D01*
X95608082Y-63051248D02*
X95465225Y-62979820D01*
X95465225Y-62979820D02*
X95393796Y-62908391D01*
X95393796Y-62908391D02*
X95322368Y-62765534D01*
X95322368Y-62765534D02*
X95322368Y-62336962D01*
X95322368Y-62336962D02*
X95393796Y-62194105D01*
X95393796Y-62194105D02*
X95465225Y-62122677D01*
X95465225Y-62122677D02*
X95608082Y-62051248D01*
X95608082Y-62051248D02*
X95822368Y-62051248D01*
X95822368Y-62051248D02*
X95965225Y-62122677D01*
X95965225Y-62122677D02*
X96036654Y-62194105D01*
X96036654Y-62194105D02*
X96108082Y-62336962D01*
X96108082Y-62336962D02*
X96108082Y-62765534D01*
X96108082Y-62765534D02*
X96036654Y-62908391D01*
X96036654Y-62908391D02*
X95965225Y-62979820D01*
X95965225Y-62979820D02*
X95822368Y-63051248D01*
X95822368Y-63051248D02*
X95608082Y-63051248D01*
X96750939Y-62051248D02*
X96750939Y-63551248D01*
X96750939Y-62122677D02*
X96893797Y-62051248D01*
X96893797Y-62051248D02*
X97179511Y-62051248D01*
X97179511Y-62051248D02*
X97322368Y-62122677D01*
X97322368Y-62122677D02*
X97393797Y-62194105D01*
X97393797Y-62194105D02*
X97465225Y-62336962D01*
X97465225Y-62336962D02*
X97465225Y-62765534D01*
X97465225Y-62765534D02*
X97393797Y-62908391D01*
X97393797Y-62908391D02*
X97322368Y-62979820D01*
X97322368Y-62979820D02*
X97179511Y-63051248D01*
X97179511Y-63051248D02*
X96893797Y-63051248D01*
X96893797Y-63051248D02*
X96750939Y-62979820D01*
X75822368Y-64466164D02*
X75822368Y-65466164D01*
X75465225Y-63894736D02*
X75108082Y-64966164D01*
X75108082Y-64966164D02*
X76036653Y-64966164D01*
X77750938Y-64894736D02*
X78893796Y-64894736D01*
X80750938Y-65466164D02*
X80750938Y-63966164D01*
X81608081Y-65466164D02*
X80965224Y-64609021D01*
X81608081Y-63966164D02*
X80750938Y-64823307D01*
X82465224Y-65466164D02*
X82322367Y-65394736D01*
X82322367Y-65394736D02*
X82250938Y-65323307D01*
X82250938Y-65323307D02*
X82179510Y-65180450D01*
X82179510Y-65180450D02*
X82179510Y-64751878D01*
X82179510Y-64751878D02*
X82250938Y-64609021D01*
X82250938Y-64609021D02*
X82322367Y-64537593D01*
X82322367Y-64537593D02*
X82465224Y-64466164D01*
X82465224Y-64466164D02*
X82679510Y-64466164D01*
X82679510Y-64466164D02*
X82822367Y-64537593D01*
X82822367Y-64537593D02*
X82893796Y-64609021D01*
X82893796Y-64609021D02*
X82965224Y-64751878D01*
X82965224Y-64751878D02*
X82965224Y-65180450D01*
X82965224Y-65180450D02*
X82893796Y-65323307D01*
X82893796Y-65323307D02*
X82822367Y-65394736D01*
X82822367Y-65394736D02*
X82679510Y-65466164D01*
X82679510Y-65466164D02*
X82465224Y-65466164D01*
X83608081Y-65466164D02*
X83608081Y-64466164D01*
X83608081Y-64466164D02*
X84036653Y-65251878D01*
X84036653Y-65251878D02*
X84465224Y-64466164D01*
X84465224Y-64466164D02*
X84465224Y-65466164D01*
X85179510Y-65466164D02*
X85179510Y-64466164D01*
X85179510Y-64466164D02*
X85822368Y-64466164D01*
X85822368Y-64466164D02*
X85822368Y-65466164D01*
X86536653Y-64466164D02*
X86536653Y-65966164D01*
X86536653Y-64537593D02*
X86679511Y-64466164D01*
X86679511Y-64466164D02*
X86965225Y-64466164D01*
X86965225Y-64466164D02*
X87108082Y-64537593D01*
X87108082Y-64537593D02*
X87179511Y-64609021D01*
X87179511Y-64609021D02*
X87250939Y-64751878D01*
X87250939Y-64751878D02*
X87250939Y-65180450D01*
X87250939Y-65180450D02*
X87179511Y-65323307D01*
X87179511Y-65323307D02*
X87108082Y-65394736D01*
X87108082Y-65394736D02*
X86965225Y-65466164D01*
X86965225Y-65466164D02*
X86679511Y-65466164D01*
X86679511Y-65466164D02*
X86536653Y-65394736D01*
X88465225Y-65394736D02*
X88322368Y-65466164D01*
X88322368Y-65466164D02*
X88036654Y-65466164D01*
X88036654Y-65466164D02*
X87893796Y-65394736D01*
X87893796Y-65394736D02*
X87822368Y-65251878D01*
X87822368Y-65251878D02*
X87822368Y-64680450D01*
X87822368Y-64680450D02*
X87893796Y-64537593D01*
X87893796Y-64537593D02*
X88036654Y-64466164D01*
X88036654Y-64466164D02*
X88322368Y-64466164D01*
X88322368Y-64466164D02*
X88465225Y-64537593D01*
X88465225Y-64537593D02*
X88536654Y-64680450D01*
X88536654Y-64680450D02*
X88536654Y-64823307D01*
X88536654Y-64823307D02*
X87822368Y-64966164D01*
X89822368Y-65394736D02*
X89679510Y-65466164D01*
X89679510Y-65466164D02*
X89393796Y-65466164D01*
X89393796Y-65466164D02*
X89250939Y-65394736D01*
X89250939Y-65394736D02*
X89179510Y-65323307D01*
X89179510Y-65323307D02*
X89108082Y-65180450D01*
X89108082Y-65180450D02*
X89108082Y-64751878D01*
X89108082Y-64751878D02*
X89179510Y-64609021D01*
X89179510Y-64609021D02*
X89250939Y-64537593D01*
X89250939Y-64537593D02*
X89393796Y-64466164D01*
X89393796Y-64466164D02*
X89679510Y-64466164D01*
X89679510Y-64466164D02*
X89822368Y-64537593D01*
X90679510Y-65466164D02*
X90536653Y-65394736D01*
X90536653Y-65394736D02*
X90465224Y-65323307D01*
X90465224Y-65323307D02*
X90393796Y-65180450D01*
X90393796Y-65180450D02*
X90393796Y-64751878D01*
X90393796Y-64751878D02*
X90465224Y-64609021D01*
X90465224Y-64609021D02*
X90536653Y-64537593D01*
X90536653Y-64537593D02*
X90679510Y-64466164D01*
X90679510Y-64466164D02*
X90893796Y-64466164D01*
X90893796Y-64466164D02*
X91036653Y-64537593D01*
X91036653Y-64537593D02*
X91108082Y-64609021D01*
X91108082Y-64609021D02*
X91179510Y-64751878D01*
X91179510Y-64751878D02*
X91179510Y-65180450D01*
X91179510Y-65180450D02*
X91108082Y-65323307D01*
X91108082Y-65323307D02*
X91036653Y-65394736D01*
X91036653Y-65394736D02*
X90893796Y-65466164D01*
X90893796Y-65466164D02*
X90679510Y-65466164D01*
X91822367Y-64466164D02*
X91822367Y-65966164D01*
X91822367Y-64537593D02*
X91965225Y-64466164D01*
X91965225Y-64466164D02*
X92250939Y-64466164D01*
X92250939Y-64466164D02*
X92393796Y-64537593D01*
X92393796Y-64537593D02*
X92465225Y-64609021D01*
X92465225Y-64609021D02*
X92536653Y-64751878D01*
X92536653Y-64751878D02*
X92536653Y-65180450D01*
X92536653Y-65180450D02*
X92465225Y-65323307D01*
X92465225Y-65323307D02*
X92393796Y-65394736D01*
X92393796Y-65394736D02*
X92250939Y-65466164D01*
X92250939Y-65466164D02*
X91965225Y-65466164D01*
X91965225Y-65466164D02*
X91822367Y-65394736D01*
X94679510Y-64966164D02*
X94893796Y-65037593D01*
X94893796Y-65037593D02*
X94965225Y-65180450D01*
X94965225Y-65180450D02*
X94965225Y-65251878D01*
X94965225Y-65251878D02*
X94893796Y-65394736D01*
X94893796Y-65394736D02*
X94750939Y-65466164D01*
X94750939Y-65466164D02*
X94322367Y-65466164D01*
X94322367Y-65466164D02*
X94322367Y-64466164D01*
X94322367Y-64466164D02*
X94679510Y-64466164D01*
X94679510Y-64466164D02*
X94822367Y-64537593D01*
X94822367Y-64537593D02*
X94893796Y-64680450D01*
X94893796Y-64680450D02*
X94893796Y-64751878D01*
X94893796Y-64751878D02*
X94822367Y-64894736D01*
X94822367Y-64894736D02*
X94679510Y-64966164D01*
X94679510Y-64966164D02*
X94322367Y-64966164D01*
X95465224Y-65466164D02*
X96250939Y-64466164D01*
X95465224Y-64466164D02*
X96250939Y-65466164D01*
X96822367Y-65466164D02*
X96822367Y-64466164D01*
X96822367Y-63966164D02*
X96750939Y-64037593D01*
X96750939Y-64037593D02*
X96822367Y-64109021D01*
X96822367Y-64109021D02*
X96893796Y-64037593D01*
X96893796Y-64037593D02*
X96822367Y-63966164D01*
X96822367Y-63966164D02*
X96822367Y-64109021D01*
X98250939Y-64609021D02*
X98179511Y-64537593D01*
X98179511Y-64537593D02*
X98036653Y-64466164D01*
X98036653Y-64466164D02*
X97750939Y-64466164D01*
X97750939Y-64466164D02*
X97608082Y-64537593D01*
X97608082Y-64537593D02*
X97536653Y-64609021D01*
X97536653Y-64609021D02*
X97465225Y-64751878D01*
X97465225Y-64751878D02*
X97465225Y-65180450D01*
X97465225Y-65180450D02*
X97536653Y-65323307D01*
X97536653Y-65323307D02*
X97608082Y-65394736D01*
X97608082Y-65394736D02*
X97750939Y-65466164D01*
X97750939Y-65466164D02*
X97965225Y-65466164D01*
X97965225Y-65466164D02*
X98108082Y-65394736D01*
X98108082Y-65394736D02*
X98179511Y-65323307D01*
X98179511Y-65323307D02*
X98250939Y-65180450D01*
X98250939Y-65180450D02*
X98250939Y-64251878D01*
X98250939Y-64251878D02*
X98179511Y-64109021D01*
X98179511Y-64109021D02*
X98108082Y-64037593D01*
X98108082Y-64037593D02*
X97965225Y-63966164D01*
X97965225Y-63966164D02*
X97679511Y-63966164D01*
X97679511Y-63966164D02*
X97536653Y-64037593D01*
X75893796Y-66381080D02*
X75179510Y-66381080D01*
X75179510Y-66381080D02*
X75108082Y-67095366D01*
X75108082Y-67095366D02*
X75179510Y-67023937D01*
X75179510Y-67023937D02*
X75322368Y-66952509D01*
X75322368Y-66952509D02*
X75679510Y-66952509D01*
X75679510Y-66952509D02*
X75822368Y-67023937D01*
X75822368Y-67023937D02*
X75893796Y-67095366D01*
X75893796Y-67095366D02*
X75965225Y-67238223D01*
X75965225Y-67238223D02*
X75965225Y-67595366D01*
X75965225Y-67595366D02*
X75893796Y-67738223D01*
X75893796Y-67738223D02*
X75822368Y-67809652D01*
X75822368Y-67809652D02*
X75679510Y-67881080D01*
X75679510Y-67881080D02*
X75322368Y-67881080D01*
X75322368Y-67881080D02*
X75179510Y-67809652D01*
X75179510Y-67809652D02*
X75108082Y-67738223D01*
X77750938Y-67309652D02*
X78893796Y-67309652D01*
X81393796Y-66881080D02*
X81393796Y-67881080D01*
X81036653Y-66309652D02*
X80679510Y-67381080D01*
X80679510Y-67381080D02*
X81608081Y-67381080D01*
X82036652Y-67881080D02*
X82822367Y-66881080D01*
X82036652Y-66881080D02*
X82822367Y-67881080D01*
X84393795Y-67881080D02*
X85179510Y-66881080D01*
X84393795Y-66881080D02*
X85179510Y-67881080D01*
X85965224Y-67881080D02*
X85822367Y-67809652D01*
X85822367Y-67809652D02*
X85750938Y-67738223D01*
X85750938Y-67738223D02*
X85679510Y-67595366D01*
X85679510Y-67595366D02*
X85679510Y-67166794D01*
X85679510Y-67166794D02*
X85750938Y-67023937D01*
X85750938Y-67023937D02*
X85822367Y-66952509D01*
X85822367Y-66952509D02*
X85965224Y-66881080D01*
X85965224Y-66881080D02*
X86179510Y-66881080D01*
X86179510Y-66881080D02*
X86322367Y-66952509D01*
X86322367Y-66952509D02*
X86393796Y-67023937D01*
X86393796Y-67023937D02*
X86465224Y-67166794D01*
X86465224Y-67166794D02*
X86465224Y-67595366D01*
X86465224Y-67595366D02*
X86393796Y-67738223D01*
X86393796Y-67738223D02*
X86322367Y-67809652D01*
X86322367Y-67809652D02*
X86179510Y-67881080D01*
X86179510Y-67881080D02*
X85965224Y-67881080D01*
X87822367Y-67023937D02*
X87750939Y-66952509D01*
X87750939Y-66952509D02*
X87608081Y-66881080D01*
X87608081Y-66881080D02*
X87322367Y-66881080D01*
X87322367Y-66881080D02*
X87179510Y-66952509D01*
X87179510Y-66952509D02*
X87108081Y-67023937D01*
X87108081Y-67023937D02*
X87036653Y-67166794D01*
X87036653Y-67166794D02*
X87036653Y-67595366D01*
X87036653Y-67595366D02*
X87108081Y-67738223D01*
X87108081Y-67738223D02*
X87179510Y-67809652D01*
X87179510Y-67809652D02*
X87322367Y-67881080D01*
X87322367Y-67881080D02*
X87536653Y-67881080D01*
X87536653Y-67881080D02*
X87679510Y-67809652D01*
X87679510Y-67809652D02*
X87750939Y-67738223D01*
X87750939Y-67738223D02*
X87822367Y-67595366D01*
X87822367Y-67595366D02*
X87822367Y-66666794D01*
X87822367Y-66666794D02*
X87750939Y-66523937D01*
X87750939Y-66523937D02*
X87679510Y-66452509D01*
X87679510Y-66452509D02*
X87536653Y-66381080D01*
X87536653Y-66381080D02*
X87250939Y-66381080D01*
X87250939Y-66381080D02*
X87108081Y-66452509D01*
X88465224Y-67738223D02*
X88536653Y-67809652D01*
X88536653Y-67809652D02*
X88465224Y-67881080D01*
X88465224Y-67881080D02*
X88393796Y-67809652D01*
X88393796Y-67809652D02*
X88465224Y-67738223D01*
X88465224Y-67738223D02*
X88465224Y-67881080D01*
X90679510Y-67381080D02*
X90893796Y-67452509D01*
X90893796Y-67452509D02*
X90965225Y-67595366D01*
X90965225Y-67595366D02*
X90965225Y-67666794D01*
X90965225Y-67666794D02*
X90893796Y-67809652D01*
X90893796Y-67809652D02*
X90750939Y-67881080D01*
X90750939Y-67881080D02*
X90322367Y-67881080D01*
X90322367Y-67881080D02*
X90322367Y-66881080D01*
X90322367Y-66881080D02*
X90679510Y-66881080D01*
X90679510Y-66881080D02*
X90822367Y-66952509D01*
X90822367Y-66952509D02*
X90893796Y-67095366D01*
X90893796Y-67095366D02*
X90893796Y-67166794D01*
X90893796Y-67166794D02*
X90822367Y-67309652D01*
X90822367Y-67309652D02*
X90679510Y-67381080D01*
X90679510Y-67381080D02*
X90322367Y-67381080D01*
X91465224Y-67881080D02*
X92250939Y-66881080D01*
X91465224Y-66881080D02*
X92250939Y-67881080D01*
X92822367Y-67881080D02*
X92822367Y-66881080D01*
X92822367Y-66381080D02*
X92750939Y-66452509D01*
X92750939Y-66452509D02*
X92822367Y-66523937D01*
X92822367Y-66523937D02*
X92893796Y-66452509D01*
X92893796Y-66452509D02*
X92822367Y-66381080D01*
X92822367Y-66381080D02*
X92822367Y-66523937D01*
X94250939Y-67023937D02*
X94179511Y-66952509D01*
X94179511Y-66952509D02*
X94036653Y-66881080D01*
X94036653Y-66881080D02*
X93750939Y-66881080D01*
X93750939Y-66881080D02*
X93608082Y-66952509D01*
X93608082Y-66952509D02*
X93536653Y-67023937D01*
X93536653Y-67023937D02*
X93465225Y-67166794D01*
X93465225Y-67166794D02*
X93465225Y-67595366D01*
X93465225Y-67595366D02*
X93536653Y-67738223D01*
X93536653Y-67738223D02*
X93608082Y-67809652D01*
X93608082Y-67809652D02*
X93750939Y-67881080D01*
X93750939Y-67881080D02*
X93965225Y-67881080D01*
X93965225Y-67881080D02*
X94108082Y-67809652D01*
X94108082Y-67809652D02*
X94179511Y-67738223D01*
X94179511Y-67738223D02*
X94250939Y-67595366D01*
X94250939Y-67595366D02*
X94250939Y-66666794D01*
X94250939Y-66666794D02*
X94179511Y-66523937D01*
X94179511Y-66523937D02*
X94108082Y-66452509D01*
X94108082Y-66452509D02*
X93965225Y-66381080D01*
X93965225Y-66381080D02*
X93679511Y-66381080D01*
X93679511Y-66381080D02*
X93536653Y-66452509D01*
X75822368Y-68795996D02*
X75536653Y-68795996D01*
X75536653Y-68795996D02*
X75393796Y-68867425D01*
X75393796Y-68867425D02*
X75322368Y-68938853D01*
X75322368Y-68938853D02*
X75179510Y-69153139D01*
X75179510Y-69153139D02*
X75108082Y-69438853D01*
X75108082Y-69438853D02*
X75108082Y-70010282D01*
X75108082Y-70010282D02*
X75179510Y-70153139D01*
X75179510Y-70153139D02*
X75250939Y-70224568D01*
X75250939Y-70224568D02*
X75393796Y-70295996D01*
X75393796Y-70295996D02*
X75679510Y-70295996D01*
X75679510Y-70295996D02*
X75822368Y-70224568D01*
X75822368Y-70224568D02*
X75893796Y-70153139D01*
X75893796Y-70153139D02*
X75965225Y-70010282D01*
X75965225Y-70010282D02*
X75965225Y-69653139D01*
X75965225Y-69653139D02*
X75893796Y-69510282D01*
X75893796Y-69510282D02*
X75822368Y-69438853D01*
X75822368Y-69438853D02*
X75679510Y-69367425D01*
X75679510Y-69367425D02*
X75393796Y-69367425D01*
X75393796Y-69367425D02*
X75250939Y-69438853D01*
X75250939Y-69438853D02*
X75179510Y-69510282D01*
X75179510Y-69510282D02*
X75108082Y-69653139D01*
X77750938Y-69724568D02*
X78893796Y-69724568D01*
X80536653Y-68795996D02*
X81393796Y-68795996D01*
X80965224Y-70295996D02*
X80965224Y-68795996D01*
X82465224Y-70224568D02*
X82322367Y-70295996D01*
X82322367Y-70295996D02*
X82036653Y-70295996D01*
X82036653Y-70295996D02*
X81893795Y-70224568D01*
X81893795Y-70224568D02*
X81822367Y-70081710D01*
X81822367Y-70081710D02*
X81822367Y-69510282D01*
X81822367Y-69510282D02*
X81893795Y-69367425D01*
X81893795Y-69367425D02*
X82036653Y-69295996D01*
X82036653Y-69295996D02*
X82322367Y-69295996D01*
X82322367Y-69295996D02*
X82465224Y-69367425D01*
X82465224Y-69367425D02*
X82536653Y-69510282D01*
X82536653Y-69510282D02*
X82536653Y-69653139D01*
X82536653Y-69653139D02*
X81822367Y-69795996D01*
X83179509Y-70295996D02*
X83179509Y-69295996D01*
X83179509Y-69295996D02*
X83608081Y-70081710D01*
X83608081Y-70081710D02*
X84036652Y-69295996D01*
X84036652Y-69295996D02*
X84036652Y-70295996D01*
X84750938Y-70295996D02*
X84750938Y-69295996D01*
X84750938Y-69295996D02*
X85393796Y-69295996D01*
X85393796Y-69295996D02*
X85393796Y-70295996D01*
X86108081Y-70153139D02*
X86179510Y-70224568D01*
X86179510Y-70224568D02*
X86108081Y-70295996D01*
X86108081Y-70295996D02*
X86036653Y-70224568D01*
X86036653Y-70224568D02*
X86108081Y-70153139D01*
X86108081Y-70153139D02*
X86108081Y-70295996D01*
X87965224Y-69295996D02*
X87965224Y-70295996D01*
X88108082Y-69724568D02*
X88536653Y-70295996D01*
X88536653Y-69295996D02*
X87965224Y-69867425D01*
X89393796Y-70295996D02*
X89250939Y-70224568D01*
X89250939Y-70224568D02*
X89179510Y-70153139D01*
X89179510Y-70153139D02*
X89108082Y-70010282D01*
X89108082Y-70010282D02*
X89108082Y-69581710D01*
X89108082Y-69581710D02*
X89179510Y-69438853D01*
X89179510Y-69438853D02*
X89250939Y-69367425D01*
X89250939Y-69367425D02*
X89393796Y-69295996D01*
X89393796Y-69295996D02*
X89608082Y-69295996D01*
X89608082Y-69295996D02*
X89750939Y-69367425D01*
X89750939Y-69367425D02*
X89822368Y-69438853D01*
X89822368Y-69438853D02*
X89893796Y-69581710D01*
X89893796Y-69581710D02*
X89893796Y-70010282D01*
X89893796Y-70010282D02*
X89822368Y-70153139D01*
X89822368Y-70153139D02*
X89750939Y-70224568D01*
X89750939Y-70224568D02*
X89608082Y-70295996D01*
X89608082Y-70295996D02*
X89393796Y-70295996D01*
X90536653Y-70295996D02*
X90536653Y-69295996D01*
X90536653Y-69295996D02*
X90965225Y-70081710D01*
X90965225Y-70081710D02*
X91393796Y-69295996D01*
X91393796Y-69295996D02*
X91393796Y-70295996D01*
X92108082Y-70295996D02*
X92108082Y-69295996D01*
X92108082Y-69295996D02*
X92750940Y-69295996D01*
X92750940Y-69295996D02*
X92750940Y-70295996D01*
X93465225Y-69295996D02*
X93465225Y-70795996D01*
X93465225Y-69367425D02*
X93608083Y-69295996D01*
X93608083Y-69295996D02*
X93893797Y-69295996D01*
X93893797Y-69295996D02*
X94036654Y-69367425D01*
X94036654Y-69367425D02*
X94108083Y-69438853D01*
X94108083Y-69438853D02*
X94179511Y-69581710D01*
X94179511Y-69581710D02*
X94179511Y-70010282D01*
X94179511Y-70010282D02*
X94108083Y-70153139D01*
X94108083Y-70153139D02*
X94036654Y-70224568D01*
X94036654Y-70224568D02*
X93893797Y-70295996D01*
X93893797Y-70295996D02*
X93608083Y-70295996D01*
X93608083Y-70295996D02*
X93465225Y-70224568D01*
X95393797Y-70224568D02*
X95250940Y-70295996D01*
X95250940Y-70295996D02*
X94965226Y-70295996D01*
X94965226Y-70295996D02*
X94822368Y-70224568D01*
X94822368Y-70224568D02*
X94750940Y-70081710D01*
X94750940Y-70081710D02*
X94750940Y-69510282D01*
X94750940Y-69510282D02*
X94822368Y-69367425D01*
X94822368Y-69367425D02*
X94965226Y-69295996D01*
X94965226Y-69295996D02*
X95250940Y-69295996D01*
X95250940Y-69295996D02*
X95393797Y-69367425D01*
X95393797Y-69367425D02*
X95465226Y-69510282D01*
X95465226Y-69510282D02*
X95465226Y-69653139D01*
X95465226Y-69653139D02*
X94750940Y-69795996D01*
X96750940Y-70224568D02*
X96608082Y-70295996D01*
X96608082Y-70295996D02*
X96322368Y-70295996D01*
X96322368Y-70295996D02*
X96179511Y-70224568D01*
X96179511Y-70224568D02*
X96108082Y-70153139D01*
X96108082Y-70153139D02*
X96036654Y-70010282D01*
X96036654Y-70010282D02*
X96036654Y-69581710D01*
X96036654Y-69581710D02*
X96108082Y-69438853D01*
X96108082Y-69438853D02*
X96179511Y-69367425D01*
X96179511Y-69367425D02*
X96322368Y-69295996D01*
X96322368Y-69295996D02*
X96608082Y-69295996D01*
X96608082Y-69295996D02*
X96750940Y-69367425D01*
X97608082Y-70295996D02*
X97465225Y-70224568D01*
X97465225Y-70224568D02*
X97393796Y-70153139D01*
X97393796Y-70153139D02*
X97322368Y-70010282D01*
X97322368Y-70010282D02*
X97322368Y-69581710D01*
X97322368Y-69581710D02*
X97393796Y-69438853D01*
X97393796Y-69438853D02*
X97465225Y-69367425D01*
X97465225Y-69367425D02*
X97608082Y-69295996D01*
X97608082Y-69295996D02*
X97822368Y-69295996D01*
X97822368Y-69295996D02*
X97965225Y-69367425D01*
X97965225Y-69367425D02*
X98036654Y-69438853D01*
X98036654Y-69438853D02*
X98108082Y-69581710D01*
X98108082Y-69581710D02*
X98108082Y-70010282D01*
X98108082Y-70010282D02*
X98036654Y-70153139D01*
X98036654Y-70153139D02*
X97965225Y-70224568D01*
X97965225Y-70224568D02*
X97822368Y-70295996D01*
X97822368Y-70295996D02*
X97608082Y-70295996D01*
X98750939Y-69295996D02*
X98750939Y-70795996D01*
X98750939Y-69367425D02*
X98893797Y-69295996D01*
X98893797Y-69295996D02*
X99179511Y-69295996D01*
X99179511Y-69295996D02*
X99322368Y-69367425D01*
X99322368Y-69367425D02*
X99393797Y-69438853D01*
X99393797Y-69438853D02*
X99465225Y-69581710D01*
X99465225Y-69581710D02*
X99465225Y-70010282D01*
X99465225Y-70010282D02*
X99393797Y-70153139D01*
X99393797Y-70153139D02*
X99322368Y-70224568D01*
X99322368Y-70224568D02*
X99179511Y-70295996D01*
X99179511Y-70295996D02*
X98893797Y-70295996D01*
X98893797Y-70295996D02*
X98750939Y-70224568D01*
X75036653Y-71210912D02*
X76036653Y-71210912D01*
X76036653Y-71210912D02*
X75393796Y-72710912D01*
X77750938Y-72139484D02*
X78893796Y-72139484D01*
X80536653Y-71210912D02*
X81393796Y-71210912D01*
X80965224Y-72710912D02*
X80965224Y-71210912D01*
X82465224Y-72639484D02*
X82322367Y-72710912D01*
X82322367Y-72710912D02*
X82036653Y-72710912D01*
X82036653Y-72710912D02*
X81893795Y-72639484D01*
X81893795Y-72639484D02*
X81822367Y-72496626D01*
X81822367Y-72496626D02*
X81822367Y-71925198D01*
X81822367Y-71925198D02*
X81893795Y-71782341D01*
X81893795Y-71782341D02*
X82036653Y-71710912D01*
X82036653Y-71710912D02*
X82322367Y-71710912D01*
X82322367Y-71710912D02*
X82465224Y-71782341D01*
X82465224Y-71782341D02*
X82536653Y-71925198D01*
X82536653Y-71925198D02*
X82536653Y-72068055D01*
X82536653Y-72068055D02*
X81822367Y-72210912D01*
X83179509Y-72710912D02*
X83179509Y-71710912D01*
X83179509Y-71710912D02*
X83608081Y-72496626D01*
X83608081Y-72496626D02*
X84036652Y-71710912D01*
X84036652Y-71710912D02*
X84036652Y-72710912D01*
X84750938Y-72710912D02*
X84750938Y-71710912D01*
X84750938Y-71710912D02*
X85393796Y-71710912D01*
X85393796Y-71710912D02*
X85393796Y-72710912D01*
X86108081Y-72568055D02*
X86179510Y-72639484D01*
X86179510Y-72639484D02*
X86108081Y-72710912D01*
X86108081Y-72710912D02*
X86036653Y-72639484D01*
X86036653Y-72639484D02*
X86108081Y-72568055D01*
X86108081Y-72568055D02*
X86108081Y-72710912D01*
X88108082Y-72210912D02*
X88250939Y-72210912D01*
X87822367Y-71782341D02*
X87965224Y-71710912D01*
X87965224Y-71710912D02*
X88250939Y-71710912D01*
X88250939Y-71710912D02*
X88393796Y-71782341D01*
X88393796Y-71782341D02*
X88465224Y-71925198D01*
X88465224Y-71925198D02*
X88465224Y-71996626D01*
X88465224Y-71996626D02*
X88393796Y-72139484D01*
X88393796Y-72139484D02*
X88250939Y-72210912D01*
X88250939Y-72210912D02*
X88393796Y-72282341D01*
X88393796Y-72282341D02*
X88465224Y-72425198D01*
X88465224Y-72425198D02*
X88465224Y-72496626D01*
X88465224Y-72496626D02*
X88393796Y-72639484D01*
X88393796Y-72639484D02*
X88250939Y-72710912D01*
X88250939Y-72710912D02*
X87965224Y-72710912D01*
X87965224Y-72710912D02*
X87822367Y-72639484D01*
X89322367Y-72710912D02*
X89179510Y-72639484D01*
X89179510Y-72639484D02*
X89108081Y-72568055D01*
X89108081Y-72568055D02*
X89036653Y-72425198D01*
X89036653Y-72425198D02*
X89036653Y-71996626D01*
X89036653Y-71996626D02*
X89108081Y-71853769D01*
X89108081Y-71853769D02*
X89179510Y-71782341D01*
X89179510Y-71782341D02*
X89322367Y-71710912D01*
X89322367Y-71710912D02*
X89536653Y-71710912D01*
X89536653Y-71710912D02*
X89679510Y-71782341D01*
X89679510Y-71782341D02*
X89750939Y-71853769D01*
X89750939Y-71853769D02*
X89822367Y-71996626D01*
X89822367Y-71996626D02*
X89822367Y-72425198D01*
X89822367Y-72425198D02*
X89750939Y-72568055D01*
X89750939Y-72568055D02*
X89679510Y-72639484D01*
X89679510Y-72639484D02*
X89536653Y-72710912D01*
X89536653Y-72710912D02*
X89322367Y-72710912D01*
X90822367Y-72210912D02*
X91036653Y-72282341D01*
X91036653Y-72282341D02*
X91108082Y-72425198D01*
X91108082Y-72425198D02*
X91108082Y-72496626D01*
X91108082Y-72496626D02*
X91036653Y-72639484D01*
X91036653Y-72639484D02*
X90893796Y-72710912D01*
X90893796Y-72710912D02*
X90465224Y-72710912D01*
X90465224Y-72710912D02*
X90465224Y-71710912D01*
X90465224Y-71710912D02*
X90822367Y-71710912D01*
X90822367Y-71710912D02*
X90965224Y-71782341D01*
X90965224Y-71782341D02*
X91036653Y-71925198D01*
X91036653Y-71925198D02*
X91036653Y-71996626D01*
X91036653Y-71996626D02*
X90965224Y-72139484D01*
X90965224Y-72139484D02*
X90822367Y-72210912D01*
X90822367Y-72210912D02*
X90465224Y-72210912D01*
X91750938Y-72210912D02*
X92393796Y-72210912D01*
X91750938Y-71710912D02*
X91750938Y-72710912D01*
X92393796Y-71710912D02*
X92393796Y-72710912D01*
X93108081Y-72710912D02*
X93108081Y-71710912D01*
X93108081Y-71210912D02*
X93036653Y-71282341D01*
X93036653Y-71282341D02*
X93108081Y-71353769D01*
X93108081Y-71353769D02*
X93179510Y-71282341D01*
X93179510Y-71282341D02*
X93108081Y-71210912D01*
X93108081Y-71210912D02*
X93108081Y-71353769D01*
X94322367Y-71710912D02*
X94322367Y-72710912D01*
X93822367Y-71710912D02*
X93822367Y-72710912D01*
X93822367Y-72710912D02*
X94822367Y-72710912D01*
X94822367Y-72710912D02*
X94822367Y-71710912D01*
X95536653Y-72210912D02*
X96179511Y-72210912D01*
X95536653Y-71710912D02*
X95536653Y-72710912D01*
X96179511Y-71710912D02*
X96179511Y-72710912D01*
X97179511Y-72282341D02*
X96822368Y-72710912D01*
X97465225Y-72710912D02*
X97465225Y-71710912D01*
X97465225Y-71710912D02*
X97036654Y-71710912D01*
X97036654Y-71710912D02*
X96893796Y-71782341D01*
X96893796Y-71782341D02*
X96822368Y-71925198D01*
X96822368Y-71925198D02*
X96822368Y-72068055D01*
X96822368Y-72068055D02*
X96893796Y-72210912D01*
X96893796Y-72210912D02*
X97036654Y-72282341D01*
X97036654Y-72282341D02*
X97465225Y-72282341D01*
X75393796Y-74268685D02*
X75250939Y-74197257D01*
X75250939Y-74197257D02*
X75179510Y-74125828D01*
X75179510Y-74125828D02*
X75108082Y-73982971D01*
X75108082Y-73982971D02*
X75108082Y-73911542D01*
X75108082Y-73911542D02*
X75179510Y-73768685D01*
X75179510Y-73768685D02*
X75250939Y-73697257D01*
X75250939Y-73697257D02*
X75393796Y-73625828D01*
X75393796Y-73625828D02*
X75679510Y-73625828D01*
X75679510Y-73625828D02*
X75822368Y-73697257D01*
X75822368Y-73697257D02*
X75893796Y-73768685D01*
X75893796Y-73768685D02*
X75965225Y-73911542D01*
X75965225Y-73911542D02*
X75965225Y-73982971D01*
X75965225Y-73982971D02*
X75893796Y-74125828D01*
X75893796Y-74125828D02*
X75822368Y-74197257D01*
X75822368Y-74197257D02*
X75679510Y-74268685D01*
X75679510Y-74268685D02*
X75393796Y-74268685D01*
X75393796Y-74268685D02*
X75250939Y-74340114D01*
X75250939Y-74340114D02*
X75179510Y-74411542D01*
X75179510Y-74411542D02*
X75108082Y-74554400D01*
X75108082Y-74554400D02*
X75108082Y-74840114D01*
X75108082Y-74840114D02*
X75179510Y-74982971D01*
X75179510Y-74982971D02*
X75250939Y-75054400D01*
X75250939Y-75054400D02*
X75393796Y-75125828D01*
X75393796Y-75125828D02*
X75679510Y-75125828D01*
X75679510Y-75125828D02*
X75822368Y-75054400D01*
X75822368Y-75054400D02*
X75893796Y-74982971D01*
X75893796Y-74982971D02*
X75965225Y-74840114D01*
X75965225Y-74840114D02*
X75965225Y-74554400D01*
X75965225Y-74554400D02*
X75893796Y-74411542D01*
X75893796Y-74411542D02*
X75822368Y-74340114D01*
X75822368Y-74340114D02*
X75679510Y-74268685D01*
X77750938Y-74554400D02*
X78893796Y-74554400D01*
X80536653Y-73625828D02*
X81393796Y-73625828D01*
X80965224Y-75125828D02*
X80965224Y-73625828D01*
X82465224Y-75054400D02*
X82322367Y-75125828D01*
X82322367Y-75125828D02*
X82036653Y-75125828D01*
X82036653Y-75125828D02*
X81893795Y-75054400D01*
X81893795Y-75054400D02*
X81822367Y-74911542D01*
X81822367Y-74911542D02*
X81822367Y-74340114D01*
X81822367Y-74340114D02*
X81893795Y-74197257D01*
X81893795Y-74197257D02*
X82036653Y-74125828D01*
X82036653Y-74125828D02*
X82322367Y-74125828D01*
X82322367Y-74125828D02*
X82465224Y-74197257D01*
X82465224Y-74197257D02*
X82536653Y-74340114D01*
X82536653Y-74340114D02*
X82536653Y-74482971D01*
X82536653Y-74482971D02*
X81822367Y-74625828D01*
X83179509Y-75125828D02*
X83179509Y-74125828D01*
X83179509Y-74125828D02*
X83608081Y-74911542D01*
X83608081Y-74911542D02*
X84036652Y-74125828D01*
X84036652Y-74125828D02*
X84036652Y-75125828D01*
X84750938Y-75125828D02*
X84750938Y-74125828D01*
X84750938Y-74125828D02*
X85393796Y-74125828D01*
X85393796Y-74125828D02*
X85393796Y-75125828D01*
X86108081Y-74982971D02*
X86179510Y-75054400D01*
X86179510Y-75054400D02*
X86108081Y-75125828D01*
X86108081Y-75125828D02*
X86036653Y-75054400D01*
X86036653Y-75054400D02*
X86108081Y-74982971D01*
X86108081Y-74982971D02*
X86108081Y-75125828D01*
X88108082Y-74625828D02*
X88250939Y-74625828D01*
X87822367Y-74197257D02*
X87965224Y-74125828D01*
X87965224Y-74125828D02*
X88250939Y-74125828D01*
X88250939Y-74125828D02*
X88393796Y-74197257D01*
X88393796Y-74197257D02*
X88465224Y-74340114D01*
X88465224Y-74340114D02*
X88465224Y-74411542D01*
X88465224Y-74411542D02*
X88393796Y-74554400D01*
X88393796Y-74554400D02*
X88250939Y-74625828D01*
X88250939Y-74625828D02*
X88393796Y-74697257D01*
X88393796Y-74697257D02*
X88465224Y-74840114D01*
X88465224Y-74840114D02*
X88465224Y-74911542D01*
X88465224Y-74911542D02*
X88393796Y-75054400D01*
X88393796Y-75054400D02*
X88250939Y-75125828D01*
X88250939Y-75125828D02*
X87965224Y-75125828D01*
X87965224Y-75125828D02*
X87822367Y-75054400D01*
X89750939Y-75125828D02*
X89750939Y-74340114D01*
X89750939Y-74340114D02*
X89679510Y-74197257D01*
X89679510Y-74197257D02*
X89536653Y-74125828D01*
X89536653Y-74125828D02*
X89250939Y-74125828D01*
X89250939Y-74125828D02*
X89108081Y-74197257D01*
X89750939Y-75054400D02*
X89608081Y-75125828D01*
X89608081Y-75125828D02*
X89250939Y-75125828D01*
X89250939Y-75125828D02*
X89108081Y-75054400D01*
X89108081Y-75054400D02*
X89036653Y-74911542D01*
X89036653Y-74911542D02*
X89036653Y-74768685D01*
X89036653Y-74768685D02*
X89108081Y-74625828D01*
X89108081Y-74625828D02*
X89250939Y-74554400D01*
X89250939Y-74554400D02*
X89608081Y-74554400D01*
X89608081Y-74554400D02*
X89750939Y-74482971D01*
X90465224Y-75125828D02*
X90465224Y-74125828D01*
X90465224Y-74125828D02*
X91036653Y-74125828D01*
X92179511Y-75125828D02*
X92179511Y-74340114D01*
X92179511Y-74340114D02*
X92108082Y-74197257D01*
X92108082Y-74197257D02*
X91965225Y-74125828D01*
X91965225Y-74125828D02*
X91679511Y-74125828D01*
X91679511Y-74125828D02*
X91536653Y-74197257D01*
X92179511Y-75054400D02*
X92036653Y-75125828D01*
X92036653Y-75125828D02*
X91679511Y-75125828D01*
X91679511Y-75125828D02*
X91536653Y-75054400D01*
X91536653Y-75054400D02*
X91465225Y-74911542D01*
X91465225Y-74911542D02*
X91465225Y-74768685D01*
X91465225Y-74768685D02*
X91536653Y-74625828D01*
X91536653Y-74625828D02*
X91679511Y-74554400D01*
X91679511Y-74554400D02*
X92036653Y-74554400D01*
X92036653Y-74554400D02*
X92179511Y-74482971D01*
X93465225Y-75125828D02*
X93465225Y-74125828D01*
X93465225Y-74125828D02*
X93250939Y-74125828D01*
X93250939Y-74125828D02*
X93108082Y-74197257D01*
X93108082Y-74197257D02*
X93036654Y-74340114D01*
X93036654Y-74340114D02*
X92965225Y-74911542D01*
X92965225Y-74911542D02*
X92893796Y-75054400D01*
X92893796Y-75054400D02*
X92750939Y-75125828D01*
X94179510Y-74125828D02*
X94179510Y-75125828D01*
X94179510Y-75125828D02*
X94536653Y-75125828D01*
X94536653Y-75125828D02*
X94679510Y-75054400D01*
X94679510Y-75054400D02*
X94750939Y-74911542D01*
X94750939Y-74911542D02*
X94750939Y-74697257D01*
X94750939Y-74697257D02*
X94679510Y-74554400D01*
X94679510Y-74554400D02*
X94536653Y-74482971D01*
X94536653Y-74482971D02*
X94179510Y-74482971D01*
X95393796Y-74625828D02*
X96036654Y-74625828D01*
X95393796Y-74125828D02*
X95393796Y-75125828D01*
X96036654Y-74125828D02*
X96036654Y-75125828D01*
X96750939Y-74125828D02*
X96750939Y-75125828D01*
X96750939Y-75125828D02*
X97465225Y-74125828D01*
X97465225Y-74125828D02*
X97465225Y-75125828D01*
X98179510Y-74125828D02*
X98179510Y-75125828D01*
X98179510Y-75125828D02*
X98893796Y-74125828D01*
X98893796Y-74125828D02*
X98893796Y-75125828D01*
X98250939Y-73554400D02*
X98322368Y-73697257D01*
X98322368Y-73697257D02*
X98465225Y-73768685D01*
X98465225Y-73768685D02*
X98608082Y-73768685D01*
X98608082Y-73768685D02*
X98750939Y-73697257D01*
X98750939Y-73697257D02*
X98822368Y-73554400D01*
X154543796Y-121818685D02*
X154400939Y-121747257D01*
X154400939Y-121747257D02*
X154329510Y-121675828D01*
X154329510Y-121675828D02*
X154258082Y-121532971D01*
X154258082Y-121532971D02*
X154258082Y-121461542D01*
X154258082Y-121461542D02*
X154329510Y-121318685D01*
X154329510Y-121318685D02*
X154400939Y-121247257D01*
X154400939Y-121247257D02*
X154543796Y-121175828D01*
X154543796Y-121175828D02*
X154829510Y-121175828D01*
X154829510Y-121175828D02*
X154972368Y-121247257D01*
X154972368Y-121247257D02*
X155043796Y-121318685D01*
X155043796Y-121318685D02*
X155115225Y-121461542D01*
X155115225Y-121461542D02*
X155115225Y-121532971D01*
X155115225Y-121532971D02*
X155043796Y-121675828D01*
X155043796Y-121675828D02*
X154972368Y-121747257D01*
X154972368Y-121747257D02*
X154829510Y-121818685D01*
X154829510Y-121818685D02*
X154543796Y-121818685D01*
X154543796Y-121818685D02*
X154400939Y-121890114D01*
X154400939Y-121890114D02*
X154329510Y-121961542D01*
X154329510Y-121961542D02*
X154258082Y-122104400D01*
X154258082Y-122104400D02*
X154258082Y-122390114D01*
X154258082Y-122390114D02*
X154329510Y-122532971D01*
X154329510Y-122532971D02*
X154400939Y-122604400D01*
X154400939Y-122604400D02*
X154543796Y-122675828D01*
X154543796Y-122675828D02*
X154829510Y-122675828D01*
X154829510Y-122675828D02*
X154972368Y-122604400D01*
X154972368Y-122604400D02*
X155043796Y-122532971D01*
X155043796Y-122532971D02*
X155115225Y-122390114D01*
X155115225Y-122390114D02*
X155115225Y-122104400D01*
X155115225Y-122104400D02*
X155043796Y-121961542D01*
X155043796Y-121961542D02*
X154972368Y-121890114D01*
X154972368Y-121890114D02*
X154829510Y-121818685D01*
X149061653Y-121175828D02*
X150061653Y-121175828D01*
X150061653Y-121175828D02*
X149418796Y-122675828D01*
X144772368Y-121175828D02*
X144486653Y-121175828D01*
X144486653Y-121175828D02*
X144343796Y-121247257D01*
X144343796Y-121247257D02*
X144272368Y-121318685D01*
X144272368Y-121318685D02*
X144129510Y-121532971D01*
X144129510Y-121532971D02*
X144058082Y-121818685D01*
X144058082Y-121818685D02*
X144058082Y-122390114D01*
X144058082Y-122390114D02*
X144129510Y-122532971D01*
X144129510Y-122532971D02*
X144200939Y-122604400D01*
X144200939Y-122604400D02*
X144343796Y-122675828D01*
X144343796Y-122675828D02*
X144629510Y-122675828D01*
X144629510Y-122675828D02*
X144772368Y-122604400D01*
X144772368Y-122604400D02*
X144843796Y-122532971D01*
X144843796Y-122532971D02*
X144915225Y-122390114D01*
X144915225Y-122390114D02*
X144915225Y-122032971D01*
X144915225Y-122032971D02*
X144843796Y-121890114D01*
X144843796Y-121890114D02*
X144772368Y-121818685D01*
X144772368Y-121818685D02*
X144629510Y-121747257D01*
X144629510Y-121747257D02*
X144343796Y-121747257D01*
X144343796Y-121747257D02*
X144200939Y-121818685D01*
X144200939Y-121818685D02*
X144129510Y-121890114D01*
X144129510Y-121890114D02*
X144058082Y-122032971D01*
X139818796Y-121175828D02*
X139104510Y-121175828D01*
X139104510Y-121175828D02*
X139033082Y-121890114D01*
X139033082Y-121890114D02*
X139104510Y-121818685D01*
X139104510Y-121818685D02*
X139247368Y-121747257D01*
X139247368Y-121747257D02*
X139604510Y-121747257D01*
X139604510Y-121747257D02*
X139747368Y-121818685D01*
X139747368Y-121818685D02*
X139818796Y-121890114D01*
X139818796Y-121890114D02*
X139890225Y-122032971D01*
X139890225Y-122032971D02*
X139890225Y-122390114D01*
X139890225Y-122390114D02*
X139818796Y-122532971D01*
X139818796Y-122532971D02*
X139747368Y-122604400D01*
X139747368Y-122604400D02*
X139604510Y-122675828D01*
X139604510Y-122675828D02*
X139247368Y-122675828D01*
X139247368Y-122675828D02*
X139104510Y-122604400D01*
X139104510Y-122604400D02*
X139033082Y-122532971D01*
X134647368Y-121675828D02*
X134647368Y-122675828D01*
X134290225Y-121104400D02*
X133933082Y-122175828D01*
X133933082Y-122175828D02*
X134861653Y-122175828D01*
X128761653Y-121175828D02*
X129690225Y-121175828D01*
X129690225Y-121175828D02*
X129190225Y-121747257D01*
X129190225Y-121747257D02*
X129404510Y-121747257D01*
X129404510Y-121747257D02*
X129547368Y-121818685D01*
X129547368Y-121818685D02*
X129618796Y-121890114D01*
X129618796Y-121890114D02*
X129690225Y-122032971D01*
X129690225Y-122032971D02*
X129690225Y-122390114D01*
X129690225Y-122390114D02*
X129618796Y-122532971D01*
X129618796Y-122532971D02*
X129547368Y-122604400D01*
X129547368Y-122604400D02*
X129404510Y-122675828D01*
X129404510Y-122675828D02*
X128975939Y-122675828D01*
X128975939Y-122675828D02*
X128833082Y-122604400D01*
X128833082Y-122604400D02*
X128761653Y-122532971D01*
X123783082Y-121318685D02*
X123854510Y-121247257D01*
X123854510Y-121247257D02*
X123997368Y-121175828D01*
X123997368Y-121175828D02*
X124354510Y-121175828D01*
X124354510Y-121175828D02*
X124497368Y-121247257D01*
X124497368Y-121247257D02*
X124568796Y-121318685D01*
X124568796Y-121318685D02*
X124640225Y-121461542D01*
X124640225Y-121461542D02*
X124640225Y-121604400D01*
X124640225Y-121604400D02*
X124568796Y-121818685D01*
X124568796Y-121818685D02*
X123711653Y-122675828D01*
X123711653Y-122675828D02*
X124640225Y-122675828D01*
X119465225Y-122675828D02*
X118608082Y-122675828D01*
X119036653Y-122675828D02*
X119036653Y-121175828D01*
X119036653Y-121175828D02*
X118893796Y-121390114D01*
X118893796Y-121390114D02*
X118750939Y-121532971D01*
X118750939Y-121532971D02*
X118608082Y-121604400D01*
X113679510Y-122675828D02*
X113679510Y-121175828D01*
X113679510Y-121175828D02*
X114536653Y-122675828D01*
X114536653Y-122675828D02*
X114536653Y-121175828D01*
X109243796Y-122675828D02*
X108529510Y-122675828D01*
X108529510Y-122675828D02*
X108529510Y-121175828D01*
D11*
X149872419Y-48546115D02*
X148872419Y-48546115D01*
X148872419Y-48546115D02*
X148872419Y-48308020D01*
X148872419Y-48308020D02*
X148920038Y-48165163D01*
X148920038Y-48165163D02*
X149015276Y-48069925D01*
X149015276Y-48069925D02*
X149110514Y-48022306D01*
X149110514Y-48022306D02*
X149300990Y-47974687D01*
X149300990Y-47974687D02*
X149443847Y-47974687D01*
X149443847Y-47974687D02*
X149634323Y-48022306D01*
X149634323Y-48022306D02*
X149729561Y-48069925D01*
X149729561Y-48069925D02*
X149824800Y-48165163D01*
X149824800Y-48165163D02*
X149872419Y-48308020D01*
X149872419Y-48308020D02*
X149872419Y-48546115D01*
X149872419Y-47546115D02*
X148872419Y-47546115D01*
X148872419Y-46879449D02*
X148872419Y-46688973D01*
X148872419Y-46688973D02*
X148920038Y-46593735D01*
X148920038Y-46593735D02*
X149015276Y-46498497D01*
X149015276Y-46498497D02*
X149205752Y-46450878D01*
X149205752Y-46450878D02*
X149539085Y-46450878D01*
X149539085Y-46450878D02*
X149729561Y-46498497D01*
X149729561Y-46498497D02*
X149824800Y-46593735D01*
X149824800Y-46593735D02*
X149872419Y-46688973D01*
X149872419Y-46688973D02*
X149872419Y-46879449D01*
X149872419Y-46879449D02*
X149824800Y-46974687D01*
X149824800Y-46974687D02*
X149729561Y-47069925D01*
X149729561Y-47069925D02*
X149539085Y-47117544D01*
X149539085Y-47117544D02*
X149205752Y-47117544D01*
X149205752Y-47117544D02*
X149015276Y-47069925D01*
X149015276Y-47069925D02*
X148920038Y-46974687D01*
X148920038Y-46974687D02*
X148872419Y-46879449D01*
X147177180Y-47974687D02*
X147224800Y-48022306D01*
X147224800Y-48022306D02*
X147272419Y-48165163D01*
X147272419Y-48165163D02*
X147272419Y-48260401D01*
X147272419Y-48260401D02*
X147224800Y-48403258D01*
X147224800Y-48403258D02*
X147129561Y-48498496D01*
X147129561Y-48498496D02*
X147034323Y-48546115D01*
X147034323Y-48546115D02*
X146843847Y-48593734D01*
X146843847Y-48593734D02*
X146700990Y-48593734D01*
X146700990Y-48593734D02*
X146510514Y-48546115D01*
X146510514Y-48546115D02*
X146415276Y-48498496D01*
X146415276Y-48498496D02*
X146320038Y-48403258D01*
X146320038Y-48403258D02*
X146272419Y-48260401D01*
X146272419Y-48260401D02*
X146272419Y-48165163D01*
X146272419Y-48165163D02*
X146320038Y-48022306D01*
X146320038Y-48022306D02*
X146367657Y-47974687D01*
X147272419Y-47069925D02*
X147272419Y-47546115D01*
X147272419Y-47546115D02*
X146272419Y-47546115D01*
X147272419Y-46736591D02*
X146272419Y-46736591D01*
X147272419Y-46165163D02*
X146700990Y-46593734D01*
X146272419Y-46165163D02*
X146843847Y-46736591D01*
X152372419Y-47974687D02*
X151896228Y-48308020D01*
X152372419Y-48546115D02*
X151372419Y-48546115D01*
X151372419Y-48546115D02*
X151372419Y-48165163D01*
X151372419Y-48165163D02*
X151420038Y-48069925D01*
X151420038Y-48069925D02*
X151467657Y-48022306D01*
X151467657Y-48022306D02*
X151562895Y-47974687D01*
X151562895Y-47974687D02*
X151705752Y-47974687D01*
X151705752Y-47974687D02*
X151800990Y-48022306D01*
X151800990Y-48022306D02*
X151848609Y-48069925D01*
X151848609Y-48069925D02*
X151896228Y-48165163D01*
X151896228Y-48165163D02*
X151896228Y-48546115D01*
X152324800Y-47593734D02*
X152372419Y-47450877D01*
X152372419Y-47450877D02*
X152372419Y-47212782D01*
X152372419Y-47212782D02*
X152324800Y-47117544D01*
X152324800Y-47117544D02*
X152277180Y-47069925D01*
X152277180Y-47069925D02*
X152181942Y-47022306D01*
X152181942Y-47022306D02*
X152086704Y-47022306D01*
X152086704Y-47022306D02*
X151991466Y-47069925D01*
X151991466Y-47069925D02*
X151943847Y-47117544D01*
X151943847Y-47117544D02*
X151896228Y-47212782D01*
X151896228Y-47212782D02*
X151848609Y-47403258D01*
X151848609Y-47403258D02*
X151800990Y-47498496D01*
X151800990Y-47498496D02*
X151753371Y-47546115D01*
X151753371Y-47546115D02*
X151658133Y-47593734D01*
X151658133Y-47593734D02*
X151562895Y-47593734D01*
X151562895Y-47593734D02*
X151467657Y-47546115D01*
X151467657Y-47546115D02*
X151420038Y-47498496D01*
X151420038Y-47498496D02*
X151372419Y-47403258D01*
X151372419Y-47403258D02*
X151372419Y-47165163D01*
X151372419Y-47165163D02*
X151420038Y-47022306D01*
X151372419Y-46736591D02*
X151372419Y-46165163D01*
X152372419Y-46450877D02*
X151372419Y-46450877D01*
X143772419Y-48641353D02*
X143772419Y-48022306D01*
X143772419Y-48022306D02*
X144153371Y-48355639D01*
X144153371Y-48355639D02*
X144153371Y-48212782D01*
X144153371Y-48212782D02*
X144200990Y-48117544D01*
X144200990Y-48117544D02*
X144248609Y-48069925D01*
X144248609Y-48069925D02*
X144343847Y-48022306D01*
X144343847Y-48022306D02*
X144581942Y-48022306D01*
X144581942Y-48022306D02*
X144677180Y-48069925D01*
X144677180Y-48069925D02*
X144724800Y-48117544D01*
X144724800Y-48117544D02*
X144772419Y-48212782D01*
X144772419Y-48212782D02*
X144772419Y-48498496D01*
X144772419Y-48498496D02*
X144724800Y-48593734D01*
X144724800Y-48593734D02*
X144677180Y-48641353D01*
X144105752Y-47688972D02*
X144772419Y-47450877D01*
X144772419Y-47450877D02*
X144105752Y-47212782D01*
X143772419Y-46927067D02*
X143772419Y-46308020D01*
X143772419Y-46308020D02*
X144153371Y-46641353D01*
X144153371Y-46641353D02*
X144153371Y-46498496D01*
X144153371Y-46498496D02*
X144200990Y-46403258D01*
X144200990Y-46403258D02*
X144248609Y-46355639D01*
X144248609Y-46355639D02*
X144343847Y-46308020D01*
X144343847Y-46308020D02*
X144581942Y-46308020D01*
X144581942Y-46308020D02*
X144677180Y-46355639D01*
X144677180Y-46355639D02*
X144724800Y-46403258D01*
X144724800Y-46403258D02*
X144772419Y-46498496D01*
X144772419Y-46498496D02*
X144772419Y-46784210D01*
X144772419Y-46784210D02*
X144724800Y-46879448D01*
X144724800Y-46879448D02*
X144677180Y-46927067D01*
X154020038Y-48022306D02*
X153972419Y-48117544D01*
X153972419Y-48117544D02*
X153972419Y-48260401D01*
X153972419Y-48260401D02*
X154020038Y-48403258D01*
X154020038Y-48403258D02*
X154115276Y-48498496D01*
X154115276Y-48498496D02*
X154210514Y-48546115D01*
X154210514Y-48546115D02*
X154400990Y-48593734D01*
X154400990Y-48593734D02*
X154543847Y-48593734D01*
X154543847Y-48593734D02*
X154734323Y-48546115D01*
X154734323Y-48546115D02*
X154829561Y-48498496D01*
X154829561Y-48498496D02*
X154924800Y-48403258D01*
X154924800Y-48403258D02*
X154972419Y-48260401D01*
X154972419Y-48260401D02*
X154972419Y-48165163D01*
X154972419Y-48165163D02*
X154924800Y-48022306D01*
X154924800Y-48022306D02*
X154877180Y-47974687D01*
X154877180Y-47974687D02*
X154543847Y-47974687D01*
X154543847Y-47974687D02*
X154543847Y-48165163D01*
X154972419Y-47546115D02*
X153972419Y-47546115D01*
X153972419Y-47546115D02*
X154972419Y-46974687D01*
X154972419Y-46974687D02*
X153972419Y-46974687D01*
X154972419Y-46498496D02*
X153972419Y-46498496D01*
X153972419Y-46498496D02*
X153972419Y-46260401D01*
X153972419Y-46260401D02*
X154020038Y-46117544D01*
X154020038Y-46117544D02*
X154115276Y-46022306D01*
X154115276Y-46022306D02*
X154210514Y-45974687D01*
X154210514Y-45974687D02*
X154400990Y-45927068D01*
X154400990Y-45927068D02*
X154543847Y-45927068D01*
X154543847Y-45927068D02*
X154734323Y-45974687D01*
X154734323Y-45974687D02*
X154829561Y-46022306D01*
X154829561Y-46022306D02*
X154924800Y-46117544D01*
X154924800Y-46117544D02*
X154972419Y-46260401D01*
X154972419Y-46260401D02*
X154972419Y-46498496D01*
X148506265Y-54024800D02*
X148649122Y-54072419D01*
X148649122Y-54072419D02*
X148887217Y-54072419D01*
X148887217Y-54072419D02*
X148982455Y-54024800D01*
X148982455Y-54024800D02*
X149030074Y-53977180D01*
X149030074Y-53977180D02*
X149077693Y-53881942D01*
X149077693Y-53881942D02*
X149077693Y-53786704D01*
X149077693Y-53786704D02*
X149030074Y-53691466D01*
X149030074Y-53691466D02*
X148982455Y-53643847D01*
X148982455Y-53643847D02*
X148887217Y-53596228D01*
X148887217Y-53596228D02*
X148696741Y-53548609D01*
X148696741Y-53548609D02*
X148601503Y-53500990D01*
X148601503Y-53500990D02*
X148553884Y-53453371D01*
X148553884Y-53453371D02*
X148506265Y-53358133D01*
X148506265Y-53358133D02*
X148506265Y-53262895D01*
X148506265Y-53262895D02*
X148553884Y-53167657D01*
X148553884Y-53167657D02*
X148601503Y-53120038D01*
X148601503Y-53120038D02*
X148696741Y-53072419D01*
X148696741Y-53072419D02*
X148934836Y-53072419D01*
X148934836Y-53072419D02*
X149077693Y-53120038D01*
X149411027Y-53072419D02*
X149649122Y-54072419D01*
X149649122Y-54072419D02*
X149839598Y-53358133D01*
X149839598Y-53358133D02*
X150030074Y-54072419D01*
X150030074Y-54072419D02*
X150268170Y-53072419D01*
X150649122Y-54072419D02*
X150649122Y-53072419D01*
X150649122Y-53072419D02*
X150887217Y-53072419D01*
X150887217Y-53072419D02*
X151030074Y-53120038D01*
X151030074Y-53120038D02*
X151125312Y-53215276D01*
X151125312Y-53215276D02*
X151172931Y-53310514D01*
X151172931Y-53310514D02*
X151220550Y-53500990D01*
X151220550Y-53500990D02*
X151220550Y-53643847D01*
X151220550Y-53643847D02*
X151172931Y-53834323D01*
X151172931Y-53834323D02*
X151125312Y-53929561D01*
X151125312Y-53929561D02*
X151030074Y-54024800D01*
X151030074Y-54024800D02*
X150887217Y-54072419D01*
X150887217Y-54072419D02*
X150649122Y-54072419D01*
X163020038Y-67255639D02*
X162972419Y-67350877D01*
X162972419Y-67350877D02*
X162972419Y-67493734D01*
X162972419Y-67493734D02*
X163020038Y-67636591D01*
X163020038Y-67636591D02*
X163115276Y-67731829D01*
X163115276Y-67731829D02*
X163210514Y-67779448D01*
X163210514Y-67779448D02*
X163400990Y-67827067D01*
X163400990Y-67827067D02*
X163543847Y-67827067D01*
X163543847Y-67827067D02*
X163734323Y-67779448D01*
X163734323Y-67779448D02*
X163829561Y-67731829D01*
X163829561Y-67731829D02*
X163924800Y-67636591D01*
X163924800Y-67636591D02*
X163972419Y-67493734D01*
X163972419Y-67493734D02*
X163972419Y-67398496D01*
X163972419Y-67398496D02*
X163924800Y-67255639D01*
X163924800Y-67255639D02*
X163877180Y-67208020D01*
X163877180Y-67208020D02*
X163543847Y-67208020D01*
X163543847Y-67208020D02*
X163543847Y-67398496D01*
X163972419Y-66779448D02*
X162972419Y-66779448D01*
X162972419Y-66779448D02*
X163972419Y-66208020D01*
X163972419Y-66208020D02*
X162972419Y-66208020D01*
X163972419Y-65731829D02*
X162972419Y-65731829D01*
X162972419Y-65731829D02*
X162972419Y-65493734D01*
X162972419Y-65493734D02*
X163020038Y-65350877D01*
X163020038Y-65350877D02*
X163115276Y-65255639D01*
X163115276Y-65255639D02*
X163210514Y-65208020D01*
X163210514Y-65208020D02*
X163400990Y-65160401D01*
X163400990Y-65160401D02*
X163543847Y-65160401D01*
X163543847Y-65160401D02*
X163734323Y-65208020D01*
X163734323Y-65208020D02*
X163829561Y-65255639D01*
X163829561Y-65255639D02*
X163924800Y-65350877D01*
X163924800Y-65350877D02*
X163972419Y-65493734D01*
X163972419Y-65493734D02*
X163972419Y-65731829D01*
X160472419Y-66588972D02*
X160472419Y-66017544D01*
X161472419Y-66303258D02*
X160472419Y-66303258D01*
X160472419Y-65779448D02*
X161472419Y-65112782D01*
X160472419Y-65112782D02*
X161472419Y-65779448D01*
X158872419Y-66112782D02*
X158396228Y-66446115D01*
X158872419Y-66684210D02*
X157872419Y-66684210D01*
X157872419Y-66684210D02*
X157872419Y-66303258D01*
X157872419Y-66303258D02*
X157920038Y-66208020D01*
X157920038Y-66208020D02*
X157967657Y-66160401D01*
X157967657Y-66160401D02*
X158062895Y-66112782D01*
X158062895Y-66112782D02*
X158205752Y-66112782D01*
X158205752Y-66112782D02*
X158300990Y-66160401D01*
X158300990Y-66160401D02*
X158348609Y-66208020D01*
X158348609Y-66208020D02*
X158396228Y-66303258D01*
X158396228Y-66303258D02*
X158396228Y-66684210D01*
X157872419Y-65779448D02*
X158872419Y-65112782D01*
X157872419Y-65112782D02*
X158872419Y-65779448D01*
X165553884Y-62672419D02*
X165553884Y-63481942D01*
X165553884Y-63481942D02*
X165601503Y-63577180D01*
X165601503Y-63577180D02*
X165649122Y-63624800D01*
X165649122Y-63624800D02*
X165744360Y-63672419D01*
X165744360Y-63672419D02*
X165934836Y-63672419D01*
X165934836Y-63672419D02*
X166030074Y-63624800D01*
X166030074Y-63624800D02*
X166077693Y-63577180D01*
X166077693Y-63577180D02*
X166125312Y-63481942D01*
X166125312Y-63481942D02*
X166125312Y-62672419D01*
X166553884Y-63386704D02*
X167030074Y-63386704D01*
X166458646Y-63672419D02*
X166791979Y-62672419D01*
X166791979Y-62672419D02*
X167125312Y-63672419D01*
X168030074Y-63672419D02*
X167696741Y-63196228D01*
X167458646Y-63672419D02*
X167458646Y-62672419D01*
X167458646Y-62672419D02*
X167839598Y-62672419D01*
X167839598Y-62672419D02*
X167934836Y-62720038D01*
X167934836Y-62720038D02*
X167982455Y-62767657D01*
X167982455Y-62767657D02*
X168030074Y-62862895D01*
X168030074Y-62862895D02*
X168030074Y-63005752D01*
X168030074Y-63005752D02*
X167982455Y-63100990D01*
X167982455Y-63100990D02*
X167934836Y-63148609D01*
X167934836Y-63148609D02*
X167839598Y-63196228D01*
X167839598Y-63196228D02*
X167458646Y-63196228D01*
X168315789Y-62672419D02*
X168887217Y-62672419D01*
X168601503Y-63672419D02*
X168601503Y-62672419D01*
X161553884Y-75622419D02*
X161553884Y-74622419D01*
X161553884Y-74622419D02*
X161934836Y-74622419D01*
X161934836Y-74622419D02*
X162030074Y-74670038D01*
X162030074Y-74670038D02*
X162077693Y-74717657D01*
X162077693Y-74717657D02*
X162125312Y-74812895D01*
X162125312Y-74812895D02*
X162125312Y-74955752D01*
X162125312Y-74955752D02*
X162077693Y-75050990D01*
X162077693Y-75050990D02*
X162030074Y-75098609D01*
X162030074Y-75098609D02*
X161934836Y-75146228D01*
X161934836Y-75146228D02*
X161553884Y-75146228D01*
X162934836Y-75574800D02*
X162839598Y-75622419D01*
X162839598Y-75622419D02*
X162649122Y-75622419D01*
X162649122Y-75622419D02*
X162553884Y-75574800D01*
X162553884Y-75574800D02*
X162506265Y-75479561D01*
X162506265Y-75479561D02*
X162506265Y-75098609D01*
X162506265Y-75098609D02*
X162553884Y-75003371D01*
X162553884Y-75003371D02*
X162649122Y-74955752D01*
X162649122Y-74955752D02*
X162839598Y-74955752D01*
X162839598Y-74955752D02*
X162934836Y-75003371D01*
X162934836Y-75003371D02*
X162982455Y-75098609D01*
X162982455Y-75098609D02*
X162982455Y-75193847D01*
X162982455Y-75193847D02*
X162506265Y-75289085D01*
X163696741Y-75289085D02*
X163363408Y-75622419D01*
X163744360Y-75336704D02*
X163363408Y-74955752D01*
X163744360Y-74955752D02*
X163744360Y-75622419D01*
X164125312Y-75622419D02*
X163791979Y-75289085D01*
X164125312Y-74955752D02*
X163744360Y-75336704D01*
X164553884Y-74955752D02*
X164553884Y-75622419D01*
X164553884Y-75622419D02*
X165030074Y-74955752D01*
X165030074Y-74955752D02*
X165030074Y-75622419D01*
X165506265Y-75622419D02*
X165506265Y-74955752D01*
X165506265Y-74955752D02*
X165791979Y-75479561D01*
X165791979Y-75479561D02*
X166077693Y-74955752D01*
X166077693Y-74955752D02*
X166077693Y-75622419D01*
X85540000Y-77550000D02*
X85210000Y-78720000D01*
D12*
X85598100Y-76297200D02*
X82831800Y-81321000D01*
D11*
X85960000Y-79370000D02*
X86040000Y-79210000D01*
X85560000Y-80760000D02*
X85690000Y-80690000D01*
X85280000Y-79160000D02*
X85980000Y-79050000D01*
X85560000Y-80720000D02*
X85560000Y-80760000D01*
X85680000Y-77940000D02*
X85570000Y-78210000D01*
X85850000Y-79260000D02*
X85580000Y-80040000D01*
X85300000Y-79090000D02*
X86000000Y-78970000D01*
X85580000Y-77860000D02*
X85720000Y-77890000D01*
X85460000Y-80640000D02*
X85830000Y-80640000D01*
D12*
X82831800Y-81321000D02*
X82855300Y-81582200D01*
D11*
X85240000Y-80650000D02*
X85300000Y-80870000D01*
X85250000Y-79230000D02*
X85950000Y-79130000D01*
X85910000Y-79600000D02*
X85440000Y-80580000D01*
X86000000Y-78970000D02*
X86230000Y-78890000D01*
X85210000Y-79310000D02*
X85920000Y-79200000D01*
D12*
X85598100Y-76297200D02*
X85750000Y-76300000D01*
D11*
X85780000Y-79240000D02*
X85490000Y-80090000D01*
X85080000Y-80240000D02*
X85130000Y-80580000D01*
X85160000Y-80940000D02*
X85180000Y-81110000D01*
X85480000Y-80740000D02*
X85560000Y-80720000D01*
X85500000Y-78530000D02*
X85320000Y-79040000D01*
D12*
X88430000Y-81300000D02*
X88410000Y-81580000D01*
D11*
X85180000Y-80540000D02*
X85250000Y-80920000D01*
D12*
X82855300Y-81582200D02*
X88407800Y-81582200D01*
D11*
X85530000Y-77780000D02*
X85580000Y-77860000D01*
X85570000Y-78210000D02*
X85500000Y-78430000D01*
X84980000Y-79470000D02*
X85780000Y-79240000D01*
X85580000Y-80160000D02*
X85790000Y-79660000D01*
X85230000Y-80520000D02*
X85090000Y-80240000D01*
X85250000Y-80920000D02*
X85240000Y-81020000D01*
X85980000Y-79050000D02*
X86180000Y-78970000D01*
X85820000Y-77810000D02*
X85830000Y-77800000D01*
X85310000Y-80660000D02*
X85350000Y-80820000D01*
X85930000Y-77740000D02*
X85600000Y-78480000D01*
X85130000Y-80580000D02*
X85160000Y-80940000D01*
X85300000Y-80870000D02*
X85320000Y-80950000D01*
X85790000Y-79660000D02*
X85940000Y-79260000D01*
X85990000Y-78890000D02*
X86330000Y-78800000D01*
X85890000Y-79520000D02*
X85960000Y-79370000D01*
X85490000Y-80090000D02*
X85330000Y-80550000D01*
X85830000Y-77800000D02*
X85500000Y-78530000D01*
X85540000Y-77670000D02*
X85540000Y-77690000D01*
X85260000Y-78800000D02*
X85070000Y-79390000D01*
X85420000Y-79020000D02*
X85990000Y-78890000D01*
X85580000Y-80040000D02*
X85390000Y-80570000D01*
X85600000Y-78480000D02*
X85380000Y-79020000D01*
X85480000Y-80740000D02*
X85500000Y-80810000D01*
X85410000Y-80760000D02*
X85430000Y-80840000D01*
X85920000Y-79200000D02*
X86090000Y-79130000D01*
D12*
X85750000Y-76300000D02*
X86528100Y-77738100D01*
D11*
X85540000Y-77690000D02*
X85660000Y-77810000D01*
X85290000Y-78910000D02*
X85150000Y-79350000D01*
X85660000Y-77810000D02*
X85820000Y-77810000D01*
X85950000Y-79130000D02*
X86140000Y-79050000D01*
X85210000Y-78720000D02*
X84980000Y-79470000D01*
X85540000Y-77550000D02*
X85670000Y-77740000D01*
X85530000Y-77870000D02*
X85260000Y-78800000D01*
X85840000Y-80640000D02*
X85530000Y-80850000D01*
D12*
X86528100Y-77738100D02*
X88430000Y-81300000D01*
D11*
X85290000Y-80610000D02*
X85230000Y-80520000D01*
D12*
X88407800Y-81582200D02*
X88410000Y-81580000D01*
D11*
X85530000Y-80850000D02*
X85190000Y-81110000D01*
X86330000Y-78800000D02*
X85910000Y-79600000D01*
X85670000Y-77740000D02*
X85930000Y-77740000D01*
X85410000Y-80630000D02*
X85480000Y-80740000D01*
X85350000Y-80820000D02*
X85380000Y-80890000D01*
X85350000Y-80610000D02*
X85410000Y-80760000D01*
X85600000Y-77920000D02*
X85290000Y-78910000D01*
X108003884Y-56872419D02*
X108003884Y-55872419D01*
X108575312Y-56872419D02*
X108146741Y-56300990D01*
X108575312Y-55872419D02*
X108003884Y-56443847D01*
X109146741Y-56872419D02*
X109051503Y-56824800D01*
X109051503Y-56824800D02*
X109003884Y-56777180D01*
X109003884Y-56777180D02*
X108956265Y-56681942D01*
X108956265Y-56681942D02*
X108956265Y-56396228D01*
X108956265Y-56396228D02*
X109003884Y-56300990D01*
X109003884Y-56300990D02*
X109051503Y-56253371D01*
X109051503Y-56253371D02*
X109146741Y-56205752D01*
X109146741Y-56205752D02*
X109289598Y-56205752D01*
X109289598Y-56205752D02*
X109384836Y-56253371D01*
X109384836Y-56253371D02*
X109432455Y-56300990D01*
X109432455Y-56300990D02*
X109480074Y-56396228D01*
X109480074Y-56396228D02*
X109480074Y-56681942D01*
X109480074Y-56681942D02*
X109432455Y-56777180D01*
X109432455Y-56777180D02*
X109384836Y-56824800D01*
X109384836Y-56824800D02*
X109289598Y-56872419D01*
X109289598Y-56872419D02*
X109146741Y-56872419D01*
X109908646Y-56872419D02*
X109908646Y-56205752D01*
X109908646Y-56205752D02*
X110194360Y-56729561D01*
X110194360Y-56729561D02*
X110480074Y-56205752D01*
X110480074Y-56205752D02*
X110480074Y-56872419D01*
X110956265Y-56872419D02*
X110956265Y-56205752D01*
X110956265Y-56205752D02*
X111384836Y-56205752D01*
X111384836Y-56205752D02*
X111384836Y-56872419D01*
X111861027Y-56205752D02*
X111861027Y-57205752D01*
X111861027Y-56253371D02*
X111956265Y-56205752D01*
X111956265Y-56205752D02*
X112146741Y-56205752D01*
X112146741Y-56205752D02*
X112241979Y-56253371D01*
X112241979Y-56253371D02*
X112289598Y-56300990D01*
X112289598Y-56300990D02*
X112337217Y-56396228D01*
X112337217Y-56396228D02*
X112337217Y-56681942D01*
X112337217Y-56681942D02*
X112289598Y-56777180D01*
X112289598Y-56777180D02*
X112241979Y-56824800D01*
X112241979Y-56824800D02*
X112146741Y-56872419D01*
X112146741Y-56872419D02*
X111956265Y-56872419D01*
X111956265Y-56872419D02*
X111861027Y-56824800D01*
X113146741Y-56824800D02*
X113051503Y-56872419D01*
X113051503Y-56872419D02*
X112861027Y-56872419D01*
X112861027Y-56872419D02*
X112765789Y-56824800D01*
X112765789Y-56824800D02*
X112718170Y-56729561D01*
X112718170Y-56729561D02*
X112718170Y-56348609D01*
X112718170Y-56348609D02*
X112765789Y-56253371D01*
X112765789Y-56253371D02*
X112861027Y-56205752D01*
X112861027Y-56205752D02*
X113051503Y-56205752D01*
X113051503Y-56205752D02*
X113146741Y-56253371D01*
X113146741Y-56253371D02*
X113194360Y-56348609D01*
X113194360Y-56348609D02*
X113194360Y-56443847D01*
X113194360Y-56443847D02*
X112718170Y-56539085D01*
X114051503Y-56824800D02*
X113956265Y-56872419D01*
X113956265Y-56872419D02*
X113765789Y-56872419D01*
X113765789Y-56872419D02*
X113670551Y-56824800D01*
X113670551Y-56824800D02*
X113622932Y-56777180D01*
X113622932Y-56777180D02*
X113575313Y-56681942D01*
X113575313Y-56681942D02*
X113575313Y-56396228D01*
X113575313Y-56396228D02*
X113622932Y-56300990D01*
X113622932Y-56300990D02*
X113670551Y-56253371D01*
X113670551Y-56253371D02*
X113765789Y-56205752D01*
X113765789Y-56205752D02*
X113956265Y-56205752D01*
X113956265Y-56205752D02*
X114051503Y-56253371D01*
X114622932Y-56872419D02*
X114527694Y-56824800D01*
X114527694Y-56824800D02*
X114480075Y-56777180D01*
X114480075Y-56777180D02*
X114432456Y-56681942D01*
X114432456Y-56681942D02*
X114432456Y-56396228D01*
X114432456Y-56396228D02*
X114480075Y-56300990D01*
X114480075Y-56300990D02*
X114527694Y-56253371D01*
X114527694Y-56253371D02*
X114622932Y-56205752D01*
X114622932Y-56205752D02*
X114765789Y-56205752D01*
X114765789Y-56205752D02*
X114861027Y-56253371D01*
X114861027Y-56253371D02*
X114908646Y-56300990D01*
X114908646Y-56300990D02*
X114956265Y-56396228D01*
X114956265Y-56396228D02*
X114956265Y-56681942D01*
X114956265Y-56681942D02*
X114908646Y-56777180D01*
X114908646Y-56777180D02*
X114861027Y-56824800D01*
X114861027Y-56824800D02*
X114765789Y-56872419D01*
X114765789Y-56872419D02*
X114622932Y-56872419D01*
X115384837Y-56205752D02*
X115384837Y-57205752D01*
X115384837Y-56253371D02*
X115480075Y-56205752D01*
X115480075Y-56205752D02*
X115670551Y-56205752D01*
X115670551Y-56205752D02*
X115765789Y-56253371D01*
X115765789Y-56253371D02*
X115813408Y-56300990D01*
X115813408Y-56300990D02*
X115861027Y-56396228D01*
X115861027Y-56396228D02*
X115861027Y-56681942D01*
X115861027Y-56681942D02*
X115813408Y-56777180D01*
X115813408Y-56777180D02*
X115765789Y-56824800D01*
X115765789Y-56824800D02*
X115670551Y-56872419D01*
X115670551Y-56872419D02*
X115480075Y-56872419D01*
X115480075Y-56872419D02*
X115384837Y-56824800D01*
D10*
X82904510Y-48535912D02*
X82904510Y-47035912D01*
X82904510Y-47035912D02*
X83761653Y-47035912D01*
X83761653Y-47035912D02*
X83761653Y-48535912D01*
X84475939Y-47535912D02*
X84475939Y-49035912D01*
X84475939Y-47607341D02*
X84618797Y-47535912D01*
X84618797Y-47535912D02*
X84904511Y-47535912D01*
X84904511Y-47535912D02*
X85047368Y-47607341D01*
X85047368Y-47607341D02*
X85118797Y-47678769D01*
X85118797Y-47678769D02*
X85190225Y-47821626D01*
X85190225Y-47821626D02*
X85190225Y-48250198D01*
X85190225Y-48250198D02*
X85118797Y-48393055D01*
X85118797Y-48393055D02*
X85047368Y-48464484D01*
X85047368Y-48464484D02*
X84904511Y-48535912D01*
X84904511Y-48535912D02*
X84618797Y-48535912D01*
X84618797Y-48535912D02*
X84475939Y-48464484D01*
X85833082Y-47535912D02*
X85833082Y-48535912D01*
X85833082Y-48535912D02*
X86547368Y-47535912D01*
X86547368Y-47535912D02*
X86547368Y-48535912D01*
X87833082Y-48535912D02*
X87833082Y-47535912D01*
X87833082Y-47535912D02*
X87618796Y-47535912D01*
X87618796Y-47535912D02*
X87475939Y-47607341D01*
X87475939Y-47607341D02*
X87404511Y-47750198D01*
X87404511Y-47750198D02*
X87333082Y-48321626D01*
X87333082Y-48321626D02*
X87261653Y-48464484D01*
X87261653Y-48464484D02*
X87118796Y-48535912D01*
X89190225Y-48535912D02*
X89190225Y-47750198D01*
X89190225Y-47750198D02*
X89118796Y-47607341D01*
X89118796Y-47607341D02*
X88975939Y-47535912D01*
X88975939Y-47535912D02*
X88690225Y-47535912D01*
X88690225Y-47535912D02*
X88547367Y-47607341D01*
X89190225Y-48464484D02*
X89047367Y-48535912D01*
X89047367Y-48535912D02*
X88690225Y-48535912D01*
X88690225Y-48535912D02*
X88547367Y-48464484D01*
X88547367Y-48464484D02*
X88475939Y-48321626D01*
X88475939Y-48321626D02*
X88475939Y-48178769D01*
X88475939Y-48178769D02*
X88547367Y-48035912D01*
X88547367Y-48035912D02*
X88690225Y-47964484D01*
X88690225Y-47964484D02*
X89047367Y-47964484D01*
X89047367Y-47964484D02*
X89190225Y-47893055D01*
X90618796Y-47678769D02*
X90547368Y-47607341D01*
X90547368Y-47607341D02*
X90404510Y-47535912D01*
X90404510Y-47535912D02*
X90118796Y-47535912D01*
X90118796Y-47535912D02*
X89975939Y-47607341D01*
X89975939Y-47607341D02*
X89904510Y-47678769D01*
X89904510Y-47678769D02*
X89833082Y-47821626D01*
X89833082Y-47821626D02*
X89833082Y-48250198D01*
X89833082Y-48250198D02*
X89904510Y-48393055D01*
X89904510Y-48393055D02*
X89975939Y-48464484D01*
X89975939Y-48464484D02*
X90118796Y-48535912D01*
X90118796Y-48535912D02*
X90333082Y-48535912D01*
X90333082Y-48535912D02*
X90475939Y-48464484D01*
X90475939Y-48464484D02*
X90547368Y-48393055D01*
X90547368Y-48393055D02*
X90618796Y-48250198D01*
X90618796Y-48250198D02*
X90618796Y-47321626D01*
X90618796Y-47321626D02*
X90547368Y-47178769D01*
X90547368Y-47178769D02*
X90475939Y-47107341D01*
X90475939Y-47107341D02*
X90333082Y-47035912D01*
X90333082Y-47035912D02*
X90047368Y-47035912D01*
X90047368Y-47035912D02*
X89904510Y-47107341D01*
X92404510Y-47535912D02*
X92404510Y-48535912D01*
X92547368Y-47964484D02*
X92975939Y-48535912D01*
X92975939Y-47535912D02*
X92404510Y-48107341D01*
X94190225Y-48464484D02*
X94047368Y-48535912D01*
X94047368Y-48535912D02*
X93761654Y-48535912D01*
X93761654Y-48535912D02*
X93618796Y-48464484D01*
X93618796Y-48464484D02*
X93547368Y-48321626D01*
X93547368Y-48321626D02*
X93547368Y-47750198D01*
X93547368Y-47750198D02*
X93618796Y-47607341D01*
X93618796Y-47607341D02*
X93761654Y-47535912D01*
X93761654Y-47535912D02*
X94047368Y-47535912D01*
X94047368Y-47535912D02*
X94190225Y-47607341D01*
X94190225Y-47607341D02*
X94261654Y-47750198D01*
X94261654Y-47750198D02*
X94261654Y-47893055D01*
X94261654Y-47893055D02*
X93547368Y-48035912D01*
X94904510Y-47535912D02*
X94904510Y-49035912D01*
X94904510Y-47607341D02*
X95047368Y-47535912D01*
X95047368Y-47535912D02*
X95333082Y-47535912D01*
X95333082Y-47535912D02*
X95475939Y-47607341D01*
X95475939Y-47607341D02*
X95547368Y-47678769D01*
X95547368Y-47678769D02*
X95618796Y-47821626D01*
X95618796Y-47821626D02*
X95618796Y-48250198D01*
X95618796Y-48250198D02*
X95547368Y-48393055D01*
X95547368Y-48393055D02*
X95475939Y-48464484D01*
X95475939Y-48464484D02*
X95333082Y-48535912D01*
X95333082Y-48535912D02*
X95047368Y-48535912D01*
X95047368Y-48535912D02*
X94904510Y-48464484D01*
X96118796Y-47535912D02*
X96475939Y-48535912D01*
X96833082Y-47535912D02*
X96475939Y-48535912D01*
X96475939Y-48535912D02*
X96333082Y-48893055D01*
X96333082Y-48893055D02*
X96261653Y-48964484D01*
X96261653Y-48964484D02*
X96118796Y-49035912D01*
X97761653Y-48035912D02*
X97975939Y-48107341D01*
X97975939Y-48107341D02*
X98047368Y-48250198D01*
X98047368Y-48250198D02*
X98047368Y-48321626D01*
X98047368Y-48321626D02*
X97975939Y-48464484D01*
X97975939Y-48464484D02*
X97833082Y-48535912D01*
X97833082Y-48535912D02*
X97404510Y-48535912D01*
X97404510Y-48535912D02*
X97404510Y-47535912D01*
X97404510Y-47535912D02*
X97761653Y-47535912D01*
X97761653Y-47535912D02*
X97904510Y-47607341D01*
X97904510Y-47607341D02*
X97975939Y-47750198D01*
X97975939Y-47750198D02*
X97975939Y-47821626D01*
X97975939Y-47821626D02*
X97904510Y-47964484D01*
X97904510Y-47964484D02*
X97761653Y-48035912D01*
X97761653Y-48035912D02*
X97404510Y-48035912D01*
X99333082Y-48535912D02*
X99333082Y-47750198D01*
X99333082Y-47750198D02*
X99261653Y-47607341D01*
X99261653Y-47607341D02*
X99118796Y-47535912D01*
X99118796Y-47535912D02*
X98833082Y-47535912D01*
X98833082Y-47535912D02*
X98690224Y-47607341D01*
X99333082Y-48464484D02*
X99190224Y-48535912D01*
X99190224Y-48535912D02*
X98833082Y-48535912D01*
X98833082Y-48535912D02*
X98690224Y-48464484D01*
X98690224Y-48464484D02*
X98618796Y-48321626D01*
X98618796Y-48321626D02*
X98618796Y-48178769D01*
X98618796Y-48178769D02*
X98690224Y-48035912D01*
X98690224Y-48035912D02*
X98833082Y-47964484D01*
X98833082Y-47964484D02*
X99190224Y-47964484D01*
X99190224Y-47964484D02*
X99333082Y-47893055D01*
X100047367Y-48035912D02*
X100690225Y-48035912D01*
X100047367Y-47535912D02*
X100047367Y-48535912D01*
X100690225Y-47535912D02*
X100690225Y-48535912D01*
X101404510Y-48035912D02*
X102047368Y-48035912D01*
X101404510Y-47535912D02*
X101404510Y-48535912D01*
X102047368Y-47535912D02*
X102047368Y-48535912D01*
X103047368Y-48107341D02*
X102690225Y-48535912D01*
X103333082Y-48535912D02*
X103333082Y-47535912D01*
X103333082Y-47535912D02*
X102904511Y-47535912D01*
X102904511Y-47535912D02*
X102761653Y-47607341D01*
X102761653Y-47607341D02*
X102690225Y-47750198D01*
X102690225Y-47750198D02*
X102690225Y-47893055D01*
X102690225Y-47893055D02*
X102761653Y-48035912D01*
X102761653Y-48035912D02*
X102904511Y-48107341D01*
X102904511Y-48107341D02*
X103333082Y-48107341D01*
X105404510Y-48535912D02*
X105261653Y-48464484D01*
X105261653Y-48464484D02*
X105190224Y-48393055D01*
X105190224Y-48393055D02*
X105118796Y-48250198D01*
X105118796Y-48250198D02*
X105118796Y-47821626D01*
X105118796Y-47821626D02*
X105190224Y-47678769D01*
X105190224Y-47678769D02*
X105261653Y-47607341D01*
X105261653Y-47607341D02*
X105404510Y-47535912D01*
X105404510Y-47535912D02*
X105618796Y-47535912D01*
X105618796Y-47535912D02*
X105761653Y-47607341D01*
X105761653Y-47607341D02*
X105833082Y-47678769D01*
X105833082Y-47678769D02*
X105904510Y-47821626D01*
X105904510Y-47821626D02*
X105904510Y-48250198D01*
X105904510Y-48250198D02*
X105833082Y-48393055D01*
X105833082Y-48393055D02*
X105761653Y-48464484D01*
X105761653Y-48464484D02*
X105618796Y-48535912D01*
X105618796Y-48535912D02*
X105404510Y-48535912D01*
X107261653Y-46964484D02*
X107190225Y-47035912D01*
X107190225Y-47035912D02*
X107047367Y-47107341D01*
X107047367Y-47107341D02*
X106761653Y-47107341D01*
X106761653Y-47107341D02*
X106618796Y-47178769D01*
X106618796Y-47178769D02*
X106547367Y-47250198D01*
X106547367Y-47250198D02*
X106475939Y-47393055D01*
X106475939Y-47393055D02*
X106475939Y-48250198D01*
X106475939Y-48250198D02*
X106547367Y-48393055D01*
X106547367Y-48393055D02*
X106618796Y-48464484D01*
X106618796Y-48464484D02*
X106761653Y-48535912D01*
X106761653Y-48535912D02*
X106975939Y-48535912D01*
X106975939Y-48535912D02*
X107118796Y-48464484D01*
X107118796Y-48464484D02*
X107190225Y-48393055D01*
X107190225Y-48393055D02*
X107261653Y-48250198D01*
X107261653Y-48250198D02*
X107261653Y-47821626D01*
X107261653Y-47821626D02*
X107190225Y-47678769D01*
X107190225Y-47678769D02*
X107118796Y-47607341D01*
X107118796Y-47607341D02*
X106975939Y-47535912D01*
X106975939Y-47535912D02*
X106690225Y-47535912D01*
X106690225Y-47535912D02*
X106547367Y-47607341D01*
X106547367Y-47607341D02*
X106475939Y-47678769D01*
X107904510Y-48535912D02*
X107904510Y-47535912D01*
X107904510Y-47035912D02*
X107833082Y-47107341D01*
X107833082Y-47107341D02*
X107904510Y-47178769D01*
X107904510Y-47178769D02*
X107975939Y-47107341D01*
X107975939Y-47107341D02*
X107904510Y-47035912D01*
X107904510Y-47035912D02*
X107904510Y-47178769D01*
X108618796Y-48535912D02*
X108618796Y-47535912D01*
X108618796Y-47535912D02*
X109190225Y-47535912D01*
X109690225Y-47535912D02*
X109690225Y-49035912D01*
X109690225Y-47607341D02*
X109833083Y-47535912D01*
X109833083Y-47535912D02*
X110118797Y-47535912D01*
X110118797Y-47535912D02*
X110261654Y-47607341D01*
X110261654Y-47607341D02*
X110333083Y-47678769D01*
X110333083Y-47678769D02*
X110404511Y-47821626D01*
X110404511Y-47821626D02*
X110404511Y-48250198D01*
X110404511Y-48250198D02*
X110333083Y-48393055D01*
X110333083Y-48393055D02*
X110261654Y-48464484D01*
X110261654Y-48464484D02*
X110118797Y-48535912D01*
X110118797Y-48535912D02*
X109833083Y-48535912D01*
X109833083Y-48535912D02*
X109690225Y-48464484D01*
X111047368Y-48535912D02*
X111047368Y-47535912D01*
X111047368Y-47035912D02*
X110975940Y-47107341D01*
X110975940Y-47107341D02*
X111047368Y-47178769D01*
X111047368Y-47178769D02*
X111118797Y-47107341D01*
X111118797Y-47107341D02*
X111047368Y-47035912D01*
X111047368Y-47035912D02*
X111047368Y-47178769D01*
X112118797Y-48035912D02*
X112333083Y-48107341D01*
X112333083Y-48107341D02*
X112404512Y-48250198D01*
X112404512Y-48250198D02*
X112404512Y-48321626D01*
X112404512Y-48321626D02*
X112333083Y-48464484D01*
X112333083Y-48464484D02*
X112190226Y-48535912D01*
X112190226Y-48535912D02*
X111761654Y-48535912D01*
X111761654Y-48535912D02*
X111761654Y-47535912D01*
X111761654Y-47535912D02*
X112118797Y-47535912D01*
X112118797Y-47535912D02*
X112261654Y-47607341D01*
X112261654Y-47607341D02*
X112333083Y-47750198D01*
X112333083Y-47750198D02*
X112333083Y-47821626D01*
X112333083Y-47821626D02*
X112261654Y-47964484D01*
X112261654Y-47964484D02*
X112118797Y-48035912D01*
X112118797Y-48035912D02*
X111761654Y-48035912D01*
X113261654Y-48535912D02*
X113118797Y-48464484D01*
X113118797Y-48464484D02*
X113047368Y-48393055D01*
X113047368Y-48393055D02*
X112975940Y-48250198D01*
X112975940Y-48250198D02*
X112975940Y-47821626D01*
X112975940Y-47821626D02*
X113047368Y-47678769D01*
X113047368Y-47678769D02*
X113118797Y-47607341D01*
X113118797Y-47607341D02*
X113261654Y-47535912D01*
X113261654Y-47535912D02*
X113475940Y-47535912D01*
X113475940Y-47535912D02*
X113618797Y-47607341D01*
X113618797Y-47607341D02*
X113690226Y-47678769D01*
X113690226Y-47678769D02*
X113761654Y-47821626D01*
X113761654Y-47821626D02*
X113761654Y-48250198D01*
X113761654Y-48250198D02*
X113690226Y-48393055D01*
X113690226Y-48393055D02*
X113618797Y-48464484D01*
X113618797Y-48464484D02*
X113475940Y-48535912D01*
X113475940Y-48535912D02*
X113261654Y-48535912D01*
X114404511Y-48535912D02*
X114404511Y-47535912D01*
X114404511Y-47535912D02*
X114833083Y-48321626D01*
X114833083Y-48321626D02*
X115261654Y-47535912D01*
X115261654Y-47535912D02*
X115261654Y-48535912D01*
X83047368Y-50450828D02*
X83190225Y-50450828D01*
X82761653Y-50022257D02*
X82904510Y-49950828D01*
X82904510Y-49950828D02*
X83190225Y-49950828D01*
X83190225Y-49950828D02*
X83333082Y-50022257D01*
X83333082Y-50022257D02*
X83404510Y-50165114D01*
X83404510Y-50165114D02*
X83404510Y-50236542D01*
X83404510Y-50236542D02*
X83333082Y-50379400D01*
X83333082Y-50379400D02*
X83190225Y-50450828D01*
X83190225Y-50450828D02*
X83333082Y-50522257D01*
X83333082Y-50522257D02*
X83404510Y-50665114D01*
X83404510Y-50665114D02*
X83404510Y-50736542D01*
X83404510Y-50736542D02*
X83333082Y-50879400D01*
X83333082Y-50879400D02*
X83190225Y-50950828D01*
X83190225Y-50950828D02*
X82904510Y-50950828D01*
X82904510Y-50950828D02*
X82761653Y-50879400D01*
X84261653Y-50950828D02*
X84118796Y-50879400D01*
X84118796Y-50879400D02*
X84047367Y-50807971D01*
X84047367Y-50807971D02*
X83975939Y-50665114D01*
X83975939Y-50665114D02*
X83975939Y-50236542D01*
X83975939Y-50236542D02*
X84047367Y-50093685D01*
X84047367Y-50093685D02*
X84118796Y-50022257D01*
X84118796Y-50022257D02*
X84261653Y-49950828D01*
X84261653Y-49950828D02*
X84475939Y-49950828D01*
X84475939Y-49950828D02*
X84618796Y-50022257D01*
X84618796Y-50022257D02*
X84690225Y-50093685D01*
X84690225Y-50093685D02*
X84761653Y-50236542D01*
X84761653Y-50236542D02*
X84761653Y-50665114D01*
X84761653Y-50665114D02*
X84690225Y-50807971D01*
X84690225Y-50807971D02*
X84618796Y-50879400D01*
X84618796Y-50879400D02*
X84475939Y-50950828D01*
X84475939Y-50950828D02*
X84261653Y-50950828D01*
X85761653Y-50450828D02*
X85975939Y-50522257D01*
X85975939Y-50522257D02*
X86047368Y-50665114D01*
X86047368Y-50665114D02*
X86047368Y-50736542D01*
X86047368Y-50736542D02*
X85975939Y-50879400D01*
X85975939Y-50879400D02*
X85833082Y-50950828D01*
X85833082Y-50950828D02*
X85404510Y-50950828D01*
X85404510Y-50950828D02*
X85404510Y-49950828D01*
X85404510Y-49950828D02*
X85761653Y-49950828D01*
X85761653Y-49950828D02*
X85904510Y-50022257D01*
X85904510Y-50022257D02*
X85975939Y-50165114D01*
X85975939Y-50165114D02*
X85975939Y-50236542D01*
X85975939Y-50236542D02*
X85904510Y-50379400D01*
X85904510Y-50379400D02*
X85761653Y-50450828D01*
X85761653Y-50450828D02*
X85404510Y-50450828D01*
X86690224Y-50450828D02*
X87333082Y-50450828D01*
X86690224Y-49950828D02*
X86690224Y-50950828D01*
X87333082Y-49950828D02*
X87333082Y-50950828D01*
X88047367Y-50950828D02*
X88047367Y-49950828D01*
X88047367Y-49450828D02*
X87975939Y-49522257D01*
X87975939Y-49522257D02*
X88047367Y-49593685D01*
X88047367Y-49593685D02*
X88118796Y-49522257D01*
X88118796Y-49522257D02*
X88047367Y-49450828D01*
X88047367Y-49450828D02*
X88047367Y-49593685D01*
X89261653Y-49950828D02*
X89261653Y-50950828D01*
X88761653Y-49950828D02*
X88761653Y-50950828D01*
X88761653Y-50950828D02*
X89761653Y-50950828D01*
X89761653Y-50950828D02*
X89761653Y-49950828D01*
X90475939Y-50450828D02*
X91118797Y-50450828D01*
X90475939Y-49950828D02*
X90475939Y-50950828D01*
X91118797Y-49950828D02*
X91118797Y-50950828D01*
X91833082Y-49950828D02*
X91833082Y-50950828D01*
X91833082Y-50950828D02*
X92190225Y-50950828D01*
X92190225Y-50950828D02*
X92333082Y-50879400D01*
X92333082Y-50879400D02*
X92404511Y-50736542D01*
X92404511Y-50736542D02*
X92404511Y-50522257D01*
X92404511Y-50522257D02*
X92333082Y-50379400D01*
X92333082Y-50379400D02*
X92190225Y-50307971D01*
X92190225Y-50307971D02*
X91833082Y-50307971D01*
X93261654Y-50950828D02*
X93118797Y-50879400D01*
X93118797Y-50879400D02*
X93047368Y-50807971D01*
X93047368Y-50807971D02*
X92975940Y-50665114D01*
X92975940Y-50665114D02*
X92975940Y-50236542D01*
X92975940Y-50236542D02*
X93047368Y-50093685D01*
X93047368Y-50093685D02*
X93118797Y-50022257D01*
X93118797Y-50022257D02*
X93261654Y-49950828D01*
X93261654Y-49950828D02*
X93475940Y-49950828D01*
X93475940Y-49950828D02*
X93618797Y-50022257D01*
X93618797Y-50022257D02*
X93690226Y-50093685D01*
X93690226Y-50093685D02*
X93761654Y-50236542D01*
X93761654Y-50236542D02*
X93761654Y-50665114D01*
X93761654Y-50665114D02*
X93690226Y-50807971D01*
X93690226Y-50807971D02*
X93618797Y-50879400D01*
X93618797Y-50879400D02*
X93475940Y-50950828D01*
X93475940Y-50950828D02*
X93261654Y-50950828D01*
X94404511Y-50950828D02*
X94404511Y-49950828D01*
X94404511Y-49950828D02*
X94975940Y-49950828D01*
X95690226Y-50950828D02*
X95547369Y-50879400D01*
X95547369Y-50879400D02*
X95475940Y-50807971D01*
X95475940Y-50807971D02*
X95404512Y-50665114D01*
X95404512Y-50665114D02*
X95404512Y-50236542D01*
X95404512Y-50236542D02*
X95475940Y-50093685D01*
X95475940Y-50093685D02*
X95547369Y-50022257D01*
X95547369Y-50022257D02*
X95690226Y-49950828D01*
X95690226Y-49950828D02*
X95904512Y-49950828D01*
X95904512Y-49950828D02*
X96047369Y-50022257D01*
X96047369Y-50022257D02*
X96118798Y-50093685D01*
X96118798Y-50093685D02*
X96190226Y-50236542D01*
X96190226Y-50236542D02*
X96190226Y-50665114D01*
X96190226Y-50665114D02*
X96118798Y-50807971D01*
X96118798Y-50807971D02*
X96047369Y-50879400D01*
X96047369Y-50879400D02*
X95904512Y-50950828D01*
X95904512Y-50950828D02*
X95690226Y-50950828D01*
X98690226Y-49379400D02*
X98618798Y-49450828D01*
X98618798Y-49450828D02*
X98475940Y-49522257D01*
X98475940Y-49522257D02*
X98190226Y-49522257D01*
X98190226Y-49522257D02*
X98047369Y-49593685D01*
X98047369Y-49593685D02*
X97975940Y-49665114D01*
X97975940Y-49665114D02*
X97904512Y-49807971D01*
X97904512Y-49807971D02*
X97904512Y-50665114D01*
X97904512Y-50665114D02*
X97975940Y-50807971D01*
X97975940Y-50807971D02*
X98047369Y-50879400D01*
X98047369Y-50879400D02*
X98190226Y-50950828D01*
X98190226Y-50950828D02*
X98404512Y-50950828D01*
X98404512Y-50950828D02*
X98547369Y-50879400D01*
X98547369Y-50879400D02*
X98618798Y-50807971D01*
X98618798Y-50807971D02*
X98690226Y-50665114D01*
X98690226Y-50665114D02*
X98690226Y-50236542D01*
X98690226Y-50236542D02*
X98618798Y-50093685D01*
X98618798Y-50093685D02*
X98547369Y-50022257D01*
X98547369Y-50022257D02*
X98404512Y-49950828D01*
X98404512Y-49950828D02*
X98118798Y-49950828D01*
X98118798Y-49950828D02*
X97975940Y-50022257D01*
X97975940Y-50022257D02*
X97904512Y-50093685D01*
X99904512Y-50950828D02*
X99904512Y-49950828D01*
X99904512Y-49950828D02*
X99690226Y-49950828D01*
X99690226Y-49950828D02*
X99547369Y-50022257D01*
X99547369Y-50022257D02*
X99475941Y-50165114D01*
X99475941Y-50165114D02*
X99404512Y-50736542D01*
X99404512Y-50736542D02*
X99333083Y-50879400D01*
X99333083Y-50879400D02*
X99190226Y-50950828D01*
X100833083Y-50950828D02*
X100690226Y-50879400D01*
X100690226Y-50879400D02*
X100618797Y-50807971D01*
X100618797Y-50807971D02*
X100547369Y-50665114D01*
X100547369Y-50665114D02*
X100547369Y-50236542D01*
X100547369Y-50236542D02*
X100618797Y-50093685D01*
X100618797Y-50093685D02*
X100690226Y-50022257D01*
X100690226Y-50022257D02*
X100833083Y-49950828D01*
X100833083Y-49950828D02*
X101047369Y-49950828D01*
X101047369Y-49950828D02*
X101190226Y-50022257D01*
X101190226Y-50022257D02*
X101261655Y-50093685D01*
X101261655Y-50093685D02*
X101333083Y-50236542D01*
X101333083Y-50236542D02*
X101333083Y-50665114D01*
X101333083Y-50665114D02*
X101261655Y-50807971D01*
X101261655Y-50807971D02*
X101190226Y-50879400D01*
X101190226Y-50879400D02*
X101047369Y-50950828D01*
X101047369Y-50950828D02*
X100833083Y-50950828D01*
X101975940Y-49950828D02*
X101975940Y-50950828D01*
X102118798Y-50379400D02*
X102547369Y-50950828D01*
X102547369Y-49950828D02*
X101975940Y-50522257D01*
X103047369Y-49950828D02*
X103404512Y-50950828D01*
X103761655Y-49950828D02*
X103404512Y-50950828D01*
X103404512Y-50950828D02*
X103261655Y-51307971D01*
X103261655Y-51307971D02*
X103190226Y-51379400D01*
X103190226Y-51379400D02*
X103047369Y-51450828D01*
X82904510Y-53765114D02*
X83404510Y-53765114D01*
X83618796Y-54550828D02*
X82904510Y-54550828D01*
X82904510Y-54550828D02*
X82904510Y-53050828D01*
X82904510Y-53050828D02*
X83618796Y-53050828D01*
X84047368Y-53050828D02*
X84547368Y-54550828D01*
X84547368Y-54550828D02*
X85047368Y-53050828D01*
X85547367Y-54550828D02*
X85547367Y-53050828D01*
X86404510Y-54550828D02*
X85761653Y-53693685D01*
X86404510Y-53050828D02*
X85547367Y-53907971D01*
X88118796Y-53193685D02*
X88190224Y-53122257D01*
X88190224Y-53122257D02*
X88333082Y-53050828D01*
X88333082Y-53050828D02*
X88690224Y-53050828D01*
X88690224Y-53050828D02*
X88833082Y-53122257D01*
X88833082Y-53122257D02*
X88904510Y-53193685D01*
X88904510Y-53193685D02*
X88975939Y-53336542D01*
X88975939Y-53336542D02*
X88975939Y-53479400D01*
X88975939Y-53479400D02*
X88904510Y-53693685D01*
X88904510Y-53693685D02*
X88047367Y-54550828D01*
X88047367Y-54550828D02*
X88975939Y-54550828D01*
X89904510Y-53050828D02*
X90047367Y-53050828D01*
X90047367Y-53050828D02*
X90190224Y-53122257D01*
X90190224Y-53122257D02*
X90261653Y-53193685D01*
X90261653Y-53193685D02*
X90333081Y-53336542D01*
X90333081Y-53336542D02*
X90404510Y-53622257D01*
X90404510Y-53622257D02*
X90404510Y-53979400D01*
X90404510Y-53979400D02*
X90333081Y-54265114D01*
X90333081Y-54265114D02*
X90261653Y-54407971D01*
X90261653Y-54407971D02*
X90190224Y-54479400D01*
X90190224Y-54479400D02*
X90047367Y-54550828D01*
X90047367Y-54550828D02*
X89904510Y-54550828D01*
X89904510Y-54550828D02*
X89761653Y-54479400D01*
X89761653Y-54479400D02*
X89690224Y-54407971D01*
X89690224Y-54407971D02*
X89618795Y-54265114D01*
X89618795Y-54265114D02*
X89547367Y-53979400D01*
X89547367Y-53979400D02*
X89547367Y-53622257D01*
X89547367Y-53622257D02*
X89618795Y-53336542D01*
X89618795Y-53336542D02*
X89690224Y-53193685D01*
X89690224Y-53193685D02*
X89761653Y-53122257D01*
X89761653Y-53122257D02*
X89904510Y-53050828D01*
X90975938Y-53193685D02*
X91047366Y-53122257D01*
X91047366Y-53122257D02*
X91190224Y-53050828D01*
X91190224Y-53050828D02*
X91547366Y-53050828D01*
X91547366Y-53050828D02*
X91690224Y-53122257D01*
X91690224Y-53122257D02*
X91761652Y-53193685D01*
X91761652Y-53193685D02*
X91833081Y-53336542D01*
X91833081Y-53336542D02*
X91833081Y-53479400D01*
X91833081Y-53479400D02*
X91761652Y-53693685D01*
X91761652Y-53693685D02*
X90904509Y-54550828D01*
X90904509Y-54550828D02*
X91833081Y-54550828D01*
X93190223Y-53050828D02*
X92475937Y-53050828D01*
X92475937Y-53050828D02*
X92404509Y-53765114D01*
X92404509Y-53765114D02*
X92475937Y-53693685D01*
X92475937Y-53693685D02*
X92618795Y-53622257D01*
X92618795Y-53622257D02*
X92975937Y-53622257D01*
X92975937Y-53622257D02*
X93118795Y-53693685D01*
X93118795Y-53693685D02*
X93190223Y-53765114D01*
X93190223Y-53765114D02*
X93261652Y-53907971D01*
X93261652Y-53907971D02*
X93261652Y-54265114D01*
X93261652Y-54265114D02*
X93190223Y-54407971D01*
X93190223Y-54407971D02*
X93118795Y-54479400D01*
X93118795Y-54479400D02*
X92975937Y-54550828D01*
X92975937Y-54550828D02*
X92618795Y-54550828D01*
X92618795Y-54550828D02*
X92475937Y-54479400D01*
X92475937Y-54479400D02*
X92404509Y-54407971D01*
X95047365Y-54550828D02*
X95047365Y-53550828D01*
X95047365Y-53836542D02*
X95118794Y-53693685D01*
X95118794Y-53693685D02*
X95190223Y-53622257D01*
X95190223Y-53622257D02*
X95333080Y-53550828D01*
X95333080Y-53550828D02*
X95475937Y-53550828D01*
X96547365Y-54479400D02*
X96404508Y-54550828D01*
X96404508Y-54550828D02*
X96118794Y-54550828D01*
X96118794Y-54550828D02*
X95975936Y-54479400D01*
X95975936Y-54479400D02*
X95904508Y-54336542D01*
X95904508Y-54336542D02*
X95904508Y-53765114D01*
X95904508Y-53765114D02*
X95975936Y-53622257D01*
X95975936Y-53622257D02*
X96118794Y-53550828D01*
X96118794Y-53550828D02*
X96404508Y-53550828D01*
X96404508Y-53550828D02*
X96547365Y-53622257D01*
X96547365Y-53622257D02*
X96618794Y-53765114D01*
X96618794Y-53765114D02*
X96618794Y-53907971D01*
X96618794Y-53907971D02*
X95904508Y-54050828D01*
X97118793Y-53550828D02*
X97475936Y-54550828D01*
X97475936Y-54550828D02*
X97833079Y-53550828D01*
X100333079Y-54550828D02*
X99475936Y-54550828D01*
X99904507Y-54550828D02*
X99904507Y-53050828D01*
X99904507Y-53050828D02*
X99761650Y-53265114D01*
X99761650Y-53265114D02*
X99618793Y-53407971D01*
X99618793Y-53407971D02*
X99475936Y-53479400D01*
X100975935Y-54407971D02*
X101047364Y-54479400D01*
X101047364Y-54479400D02*
X100975935Y-54550828D01*
X100975935Y-54550828D02*
X100904507Y-54479400D01*
X100904507Y-54479400D02*
X100975935Y-54407971D01*
X100975935Y-54407971D02*
X100975935Y-54550828D01*
X101975936Y-53050828D02*
X102118793Y-53050828D01*
X102118793Y-53050828D02*
X102261650Y-53122257D01*
X102261650Y-53122257D02*
X102333079Y-53193685D01*
X102333079Y-53193685D02*
X102404507Y-53336542D01*
X102404507Y-53336542D02*
X102475936Y-53622257D01*
X102475936Y-53622257D02*
X102475936Y-53979400D01*
X102475936Y-53979400D02*
X102404507Y-54265114D01*
X102404507Y-54265114D02*
X102333079Y-54407971D01*
X102333079Y-54407971D02*
X102261650Y-54479400D01*
X102261650Y-54479400D02*
X102118793Y-54550828D01*
X102118793Y-54550828D02*
X101975936Y-54550828D01*
X101975936Y-54550828D02*
X101833079Y-54479400D01*
X101833079Y-54479400D02*
X101761650Y-54407971D01*
X101761650Y-54407971D02*
X101690221Y-54265114D01*
X101690221Y-54265114D02*
X101618793Y-53979400D01*
X101618793Y-53979400D02*
X101618793Y-53622257D01*
X101618793Y-53622257D02*
X101690221Y-53336542D01*
X101690221Y-53336542D02*
X101761650Y-53193685D01*
X101761650Y-53193685D02*
X101833079Y-53122257D01*
X101833079Y-53122257D02*
X101975936Y-53050828D01*
D11*
X142211027Y-78122419D02*
X142782455Y-78122419D01*
X142496741Y-79122419D02*
X142496741Y-78122419D01*
X143115789Y-78598609D02*
X143449122Y-78598609D01*
X143591979Y-79122419D02*
X143115789Y-79122419D01*
X143115789Y-79122419D02*
X143115789Y-78122419D01*
X143115789Y-78122419D02*
X143591979Y-78122419D01*
X144020551Y-79122419D02*
X144020551Y-78122419D01*
X144020551Y-78598609D02*
X144591979Y-78598609D01*
X144591979Y-79122419D02*
X144591979Y-78122419D01*
X145830075Y-79122419D02*
X145830075Y-78122419D01*
X146401503Y-79122419D02*
X145972932Y-78550990D01*
X146401503Y-78122419D02*
X145830075Y-78693847D01*
X146972932Y-79122419D02*
X146877694Y-79074800D01*
X146877694Y-79074800D02*
X146830075Y-79027180D01*
X146830075Y-79027180D02*
X146782456Y-78931942D01*
X146782456Y-78931942D02*
X146782456Y-78646228D01*
X146782456Y-78646228D02*
X146830075Y-78550990D01*
X146830075Y-78550990D02*
X146877694Y-78503371D01*
X146877694Y-78503371D02*
X146972932Y-78455752D01*
X146972932Y-78455752D02*
X147115789Y-78455752D01*
X147115789Y-78455752D02*
X147211027Y-78503371D01*
X147211027Y-78503371D02*
X147258646Y-78550990D01*
X147258646Y-78550990D02*
X147306265Y-78646228D01*
X147306265Y-78646228D02*
X147306265Y-78931942D01*
X147306265Y-78931942D02*
X147258646Y-79027180D01*
X147258646Y-79027180D02*
X147211027Y-79074800D01*
X147211027Y-79074800D02*
X147115789Y-79122419D01*
X147115789Y-79122419D02*
X146972932Y-79122419D01*
X147734837Y-79122419D02*
X147734837Y-78455752D01*
X147734837Y-78455752D02*
X148020551Y-78979561D01*
X148020551Y-78979561D02*
X148306265Y-78455752D01*
X148306265Y-78455752D02*
X148306265Y-79122419D01*
X148782456Y-79122419D02*
X148782456Y-78455752D01*
X148782456Y-78455752D02*
X149211027Y-78455752D01*
X149211027Y-78455752D02*
X149211027Y-79122419D01*
X149687218Y-78455752D02*
X149687218Y-79455752D01*
X149687218Y-78503371D02*
X149782456Y-78455752D01*
X149782456Y-78455752D02*
X149972932Y-78455752D01*
X149972932Y-78455752D02*
X150068170Y-78503371D01*
X150068170Y-78503371D02*
X150115789Y-78550990D01*
X150115789Y-78550990D02*
X150163408Y-78646228D01*
X150163408Y-78646228D02*
X150163408Y-78931942D01*
X150163408Y-78931942D02*
X150115789Y-79027180D01*
X150115789Y-79027180D02*
X150068170Y-79074800D01*
X150068170Y-79074800D02*
X149972932Y-79122419D01*
X149972932Y-79122419D02*
X149782456Y-79122419D01*
X149782456Y-79122419D02*
X149687218Y-79074800D01*
X150591980Y-79027180D02*
X150639599Y-79074800D01*
X150639599Y-79074800D02*
X150591980Y-79122419D01*
X150591980Y-79122419D02*
X150544361Y-79074800D01*
X150544361Y-79074800D02*
X150591980Y-79027180D01*
X150591980Y-79027180D02*
X150591980Y-79122419D01*
X128511027Y-78172419D02*
X129082455Y-78172419D01*
X128796741Y-79172419D02*
X128796741Y-78172419D01*
X129415789Y-78648609D02*
X129749122Y-78648609D01*
X129891979Y-79172419D02*
X129415789Y-79172419D01*
X129415789Y-79172419D02*
X129415789Y-78172419D01*
X129415789Y-78172419D02*
X129891979Y-78172419D01*
X130320551Y-79172419D02*
X130320551Y-78172419D01*
X130320551Y-78648609D02*
X130891979Y-78648609D01*
X130891979Y-79172419D02*
X130891979Y-78172419D01*
X132130075Y-79172419D02*
X132130075Y-78172419D01*
X132130075Y-78172419D02*
X132701503Y-78172419D01*
X132701503Y-78172419D02*
X132701503Y-79172419D01*
X133177694Y-79172419D02*
X133177694Y-78505752D01*
X133177694Y-78172419D02*
X133130075Y-78220038D01*
X133130075Y-78220038D02*
X133177694Y-78267657D01*
X133177694Y-78267657D02*
X133225313Y-78220038D01*
X133225313Y-78220038D02*
X133177694Y-78172419D01*
X133177694Y-78172419D02*
X133177694Y-78267657D01*
X134130074Y-78600990D02*
X134082455Y-78553371D01*
X134082455Y-78553371D02*
X133987217Y-78505752D01*
X133987217Y-78505752D02*
X133796741Y-78505752D01*
X133796741Y-78505752D02*
X133701503Y-78553371D01*
X133701503Y-78553371D02*
X133653884Y-78600990D01*
X133653884Y-78600990D02*
X133606265Y-78696228D01*
X133606265Y-78696228D02*
X133606265Y-78981942D01*
X133606265Y-78981942D02*
X133653884Y-79077180D01*
X133653884Y-79077180D02*
X133701503Y-79124800D01*
X133701503Y-79124800D02*
X133796741Y-79172419D01*
X133796741Y-79172419D02*
X133939598Y-79172419D01*
X133939598Y-79172419D02*
X134034836Y-79124800D01*
X134034836Y-79124800D02*
X134082455Y-79077180D01*
X134082455Y-79077180D02*
X134130074Y-78981942D01*
X134130074Y-78981942D02*
X134130074Y-78362895D01*
X134130074Y-78362895D02*
X134082455Y-78267657D01*
X134082455Y-78267657D02*
X134034836Y-78220038D01*
X134034836Y-78220038D02*
X133939598Y-78172419D01*
X133939598Y-78172419D02*
X133749122Y-78172419D01*
X133749122Y-78172419D02*
X133653884Y-78220038D01*
X135034836Y-78600990D02*
X134987217Y-78553371D01*
X134987217Y-78553371D02*
X134891979Y-78505752D01*
X134891979Y-78505752D02*
X134701503Y-78505752D01*
X134701503Y-78505752D02*
X134606265Y-78553371D01*
X134606265Y-78553371D02*
X134558646Y-78600990D01*
X134558646Y-78600990D02*
X134511027Y-78696228D01*
X134511027Y-78696228D02*
X134511027Y-78981942D01*
X134511027Y-78981942D02*
X134558646Y-79077180D01*
X134558646Y-79077180D02*
X134606265Y-79124800D01*
X134606265Y-79124800D02*
X134701503Y-79172419D01*
X134701503Y-79172419D02*
X134844360Y-79172419D01*
X134844360Y-79172419D02*
X134939598Y-79124800D01*
X134939598Y-79124800D02*
X134987217Y-79077180D01*
X134987217Y-79077180D02*
X135034836Y-78981942D01*
X135034836Y-78981942D02*
X135034836Y-78362895D01*
X135034836Y-78362895D02*
X134987217Y-78267657D01*
X134987217Y-78267657D02*
X134939598Y-78220038D01*
X134939598Y-78220038D02*
X134844360Y-78172419D01*
X134844360Y-78172419D02*
X134653884Y-78172419D01*
X134653884Y-78172419D02*
X134558646Y-78220038D01*
X135606265Y-79172419D02*
X135511027Y-79124800D01*
X135511027Y-79124800D02*
X135463408Y-79077180D01*
X135463408Y-79077180D02*
X135415789Y-78981942D01*
X135415789Y-78981942D02*
X135415789Y-78696228D01*
X135415789Y-78696228D02*
X135463408Y-78600990D01*
X135463408Y-78600990D02*
X135511027Y-78553371D01*
X135511027Y-78553371D02*
X135606265Y-78505752D01*
X135606265Y-78505752D02*
X135749122Y-78505752D01*
X135749122Y-78505752D02*
X135844360Y-78553371D01*
X135844360Y-78553371D02*
X135891979Y-78600990D01*
X135891979Y-78600990D02*
X135939598Y-78696228D01*
X135939598Y-78696228D02*
X135939598Y-78981942D01*
X135939598Y-78981942D02*
X135891979Y-79077180D01*
X135891979Y-79077180D02*
X135844360Y-79124800D01*
X135844360Y-79124800D02*
X135749122Y-79172419D01*
X135749122Y-79172419D02*
X135606265Y-79172419D01*
X136368170Y-78839085D02*
X136796741Y-78839085D01*
X136368170Y-78505752D02*
X136368170Y-79172419D01*
X136796741Y-78505752D02*
X136796741Y-79172419D01*
D13*
X131659405Y-80777319D02*
X131659405Y-79777319D01*
X131659405Y-79777319D02*
X131897500Y-79777319D01*
X131897500Y-79777319D02*
X132040357Y-79824938D01*
X132040357Y-79824938D02*
X132135595Y-79920176D01*
X132135595Y-79920176D02*
X132183214Y-80015414D01*
X132183214Y-80015414D02*
X132230833Y-80205890D01*
X132230833Y-80205890D02*
X132230833Y-80348747D01*
X132230833Y-80348747D02*
X132183214Y-80539223D01*
X132183214Y-80539223D02*
X132135595Y-80634461D01*
X132135595Y-80634461D02*
X132040357Y-80729700D01*
X132040357Y-80729700D02*
X131897500Y-80777319D01*
X131897500Y-80777319D02*
X131659405Y-80777319D01*
X132564167Y-79777319D02*
X133183214Y-79777319D01*
X133183214Y-79777319D02*
X132849881Y-80158271D01*
X132849881Y-80158271D02*
X132992738Y-80158271D01*
X132992738Y-80158271D02*
X133087976Y-80205890D01*
X133087976Y-80205890D02*
X133135595Y-80253509D01*
X133135595Y-80253509D02*
X133183214Y-80348747D01*
X133183214Y-80348747D02*
X133183214Y-80586842D01*
X133183214Y-80586842D02*
X133135595Y-80682080D01*
X133135595Y-80682080D02*
X133087976Y-80729700D01*
X133087976Y-80729700D02*
X132992738Y-80777319D01*
X132992738Y-80777319D02*
X132707024Y-80777319D01*
X132707024Y-80777319D02*
X132611786Y-80729700D01*
X132611786Y-80729700D02*
X132564167Y-80682080D01*
X131789405Y-87787319D02*
X131789405Y-86787319D01*
X131789405Y-86787319D02*
X132027500Y-86787319D01*
X132027500Y-86787319D02*
X132170357Y-86834938D01*
X132170357Y-86834938D02*
X132265595Y-86930176D01*
X132265595Y-86930176D02*
X132313214Y-87025414D01*
X132313214Y-87025414D02*
X132360833Y-87215890D01*
X132360833Y-87215890D02*
X132360833Y-87358747D01*
X132360833Y-87358747D02*
X132313214Y-87549223D01*
X132313214Y-87549223D02*
X132265595Y-87644461D01*
X132265595Y-87644461D02*
X132170357Y-87739700D01*
X132170357Y-87739700D02*
X132027500Y-87787319D01*
X132027500Y-87787319D02*
X131789405Y-87787319D01*
X133217976Y-86787319D02*
X133027500Y-86787319D01*
X133027500Y-86787319D02*
X132932262Y-86834938D01*
X132932262Y-86834938D02*
X132884643Y-86882557D01*
X132884643Y-86882557D02*
X132789405Y-87025414D01*
X132789405Y-87025414D02*
X132741786Y-87215890D01*
X132741786Y-87215890D02*
X132741786Y-87596842D01*
X132741786Y-87596842D02*
X132789405Y-87692080D01*
X132789405Y-87692080D02*
X132837024Y-87739700D01*
X132837024Y-87739700D02*
X132932262Y-87787319D01*
X132932262Y-87787319D02*
X133122738Y-87787319D01*
X133122738Y-87787319D02*
X133217976Y-87739700D01*
X133217976Y-87739700D02*
X133265595Y-87692080D01*
X133265595Y-87692080D02*
X133313214Y-87596842D01*
X133313214Y-87596842D02*
X133313214Y-87358747D01*
X133313214Y-87358747D02*
X133265595Y-87263509D01*
X133265595Y-87263509D02*
X133217976Y-87215890D01*
X133217976Y-87215890D02*
X133122738Y-87168271D01*
X133122738Y-87168271D02*
X132932262Y-87168271D01*
X132932262Y-87168271D02*
X132837024Y-87215890D01*
X132837024Y-87215890D02*
X132789405Y-87263509D01*
X132789405Y-87263509D02*
X132741786Y-87358747D01*
X111090655Y-58568569D02*
X111090655Y-57568569D01*
X111090655Y-57568569D02*
X111328750Y-57568569D01*
X111328750Y-57568569D02*
X111471607Y-57616188D01*
X111471607Y-57616188D02*
X111566845Y-57711426D01*
X111566845Y-57711426D02*
X111614464Y-57806664D01*
X111614464Y-57806664D02*
X111662083Y-57997140D01*
X111662083Y-57997140D02*
X111662083Y-58139997D01*
X111662083Y-58139997D02*
X111614464Y-58330473D01*
X111614464Y-58330473D02*
X111566845Y-58425711D01*
X111566845Y-58425711D02*
X111471607Y-58520950D01*
X111471607Y-58520950D02*
X111328750Y-58568569D01*
X111328750Y-58568569D02*
X111090655Y-58568569D01*
X112043036Y-57663807D02*
X112090655Y-57616188D01*
X112090655Y-57616188D02*
X112185893Y-57568569D01*
X112185893Y-57568569D02*
X112423988Y-57568569D01*
X112423988Y-57568569D02*
X112519226Y-57616188D01*
X112519226Y-57616188D02*
X112566845Y-57663807D01*
X112566845Y-57663807D02*
X112614464Y-57759045D01*
X112614464Y-57759045D02*
X112614464Y-57854283D01*
X112614464Y-57854283D02*
X112566845Y-57997140D01*
X112566845Y-57997140D02*
X111995417Y-58568569D01*
X111995417Y-58568569D02*
X112614464Y-58568569D01*
X119612261Y-102957319D02*
X119278928Y-102481128D01*
X119040833Y-102957319D02*
X119040833Y-101957319D01*
X119040833Y-101957319D02*
X119421785Y-101957319D01*
X119421785Y-101957319D02*
X119517023Y-102004938D01*
X119517023Y-102004938D02*
X119564642Y-102052557D01*
X119564642Y-102052557D02*
X119612261Y-102147795D01*
X119612261Y-102147795D02*
X119612261Y-102290652D01*
X119612261Y-102290652D02*
X119564642Y-102385890D01*
X119564642Y-102385890D02*
X119517023Y-102433509D01*
X119517023Y-102433509D02*
X119421785Y-102481128D01*
X119421785Y-102481128D02*
X119040833Y-102481128D01*
X119897976Y-101957319D02*
X120231309Y-102957319D01*
X120231309Y-102957319D02*
X120564642Y-101957319D01*
X121421785Y-102957319D02*
X120850357Y-102957319D01*
X121136071Y-102957319D02*
X121136071Y-101957319D01*
X121136071Y-101957319D02*
X121040833Y-102100176D01*
X121040833Y-102100176D02*
X120945595Y-102195414D01*
X120945595Y-102195414D02*
X120850357Y-102243033D01*
X161738095Y-46604819D02*
X161738095Y-45604819D01*
X161738095Y-46081009D02*
X162309523Y-46081009D01*
X162309523Y-46604819D02*
X162309523Y-45604819D01*
X162690476Y-45604819D02*
X163309523Y-45604819D01*
X163309523Y-45604819D02*
X162976190Y-45985771D01*
X162976190Y-45985771D02*
X163119047Y-45985771D01*
X163119047Y-45985771D02*
X163214285Y-46033390D01*
X163214285Y-46033390D02*
X163261904Y-46081009D01*
X163261904Y-46081009D02*
X163309523Y-46176247D01*
X163309523Y-46176247D02*
X163309523Y-46414342D01*
X163309523Y-46414342D02*
X163261904Y-46509580D01*
X163261904Y-46509580D02*
X163214285Y-46557200D01*
X163214285Y-46557200D02*
X163119047Y-46604819D01*
X163119047Y-46604819D02*
X162833333Y-46604819D01*
X162833333Y-46604819D02*
X162738095Y-46557200D01*
X162738095Y-46557200D02*
X162690476Y-46509580D01*
X79881009Y-124433333D02*
X79881009Y-124766666D01*
X80404819Y-124766666D02*
X79404819Y-124766666D01*
X79404819Y-124766666D02*
X79404819Y-124290476D01*
X80404819Y-123385714D02*
X80404819Y-123957142D01*
X80404819Y-123671428D02*
X79404819Y-123671428D01*
X79404819Y-123671428D02*
X79547676Y-123766666D01*
X79547676Y-123766666D02*
X79642914Y-123861904D01*
X79642914Y-123861904D02*
X79690533Y-123957142D01*
X160684819Y-105285357D02*
X160208628Y-105618690D01*
X160684819Y-105856785D02*
X159684819Y-105856785D01*
X159684819Y-105856785D02*
X159684819Y-105475833D01*
X159684819Y-105475833D02*
X159732438Y-105380595D01*
X159732438Y-105380595D02*
X159780057Y-105332976D01*
X159780057Y-105332976D02*
X159875295Y-105285357D01*
X159875295Y-105285357D02*
X160018152Y-105285357D01*
X160018152Y-105285357D02*
X160113390Y-105332976D01*
X160113390Y-105332976D02*
X160161009Y-105380595D01*
X160161009Y-105380595D02*
X160208628Y-105475833D01*
X160208628Y-105475833D02*
X160208628Y-105856785D01*
X159780057Y-104904404D02*
X159732438Y-104856785D01*
X159732438Y-104856785D02*
X159684819Y-104761547D01*
X159684819Y-104761547D02*
X159684819Y-104523452D01*
X159684819Y-104523452D02*
X159732438Y-104428214D01*
X159732438Y-104428214D02*
X159780057Y-104380595D01*
X159780057Y-104380595D02*
X159875295Y-104332976D01*
X159875295Y-104332976D02*
X159970533Y-104332976D01*
X159970533Y-104332976D02*
X160113390Y-104380595D01*
X160113390Y-104380595D02*
X160684819Y-104952023D01*
X160684819Y-104952023D02*
X160684819Y-104332976D01*
X159684819Y-103999642D02*
X159684819Y-103380595D01*
X159684819Y-103380595D02*
X160065771Y-103713928D01*
X160065771Y-103713928D02*
X160065771Y-103571071D01*
X160065771Y-103571071D02*
X160113390Y-103475833D01*
X160113390Y-103475833D02*
X160161009Y-103428214D01*
X160161009Y-103428214D02*
X160256247Y-103380595D01*
X160256247Y-103380595D02*
X160494342Y-103380595D01*
X160494342Y-103380595D02*
X160589580Y-103428214D01*
X160589580Y-103428214D02*
X160637200Y-103475833D01*
X160637200Y-103475833D02*
X160684819Y-103571071D01*
X160684819Y-103571071D02*
X160684819Y-103856785D01*
X160684819Y-103856785D02*
X160637200Y-103952023D01*
X160637200Y-103952023D02*
X160589580Y-103999642D01*
X132011905Y-106704819D02*
X132011905Y-105704819D01*
X132583333Y-106704819D02*
X132154762Y-106133390D01*
X132583333Y-105704819D02*
X132011905Y-106276247D01*
X132964286Y-105800057D02*
X133011905Y-105752438D01*
X133011905Y-105752438D02*
X133107143Y-105704819D01*
X133107143Y-105704819D02*
X133345238Y-105704819D01*
X133345238Y-105704819D02*
X133440476Y-105752438D01*
X133440476Y-105752438D02*
X133488095Y-105800057D01*
X133488095Y-105800057D02*
X133535714Y-105895295D01*
X133535714Y-105895295D02*
X133535714Y-105990533D01*
X133535714Y-105990533D02*
X133488095Y-106133390D01*
X133488095Y-106133390D02*
X132916667Y-106704819D01*
X132916667Y-106704819D02*
X133535714Y-106704819D01*
X128333333Y-61434819D02*
X128000000Y-60958628D01*
X127761905Y-61434819D02*
X127761905Y-60434819D01*
X127761905Y-60434819D02*
X128142857Y-60434819D01*
X128142857Y-60434819D02*
X128238095Y-60482438D01*
X128238095Y-60482438D02*
X128285714Y-60530057D01*
X128285714Y-60530057D02*
X128333333Y-60625295D01*
X128333333Y-60625295D02*
X128333333Y-60768152D01*
X128333333Y-60768152D02*
X128285714Y-60863390D01*
X128285714Y-60863390D02*
X128238095Y-60911009D01*
X128238095Y-60911009D02*
X128142857Y-60958628D01*
X128142857Y-60958628D02*
X127761905Y-60958628D01*
X128666667Y-60434819D02*
X129285714Y-60434819D01*
X129285714Y-60434819D02*
X128952381Y-60815771D01*
X128952381Y-60815771D02*
X129095238Y-60815771D01*
X129095238Y-60815771D02*
X129190476Y-60863390D01*
X129190476Y-60863390D02*
X129238095Y-60911009D01*
X129238095Y-60911009D02*
X129285714Y-61006247D01*
X129285714Y-61006247D02*
X129285714Y-61244342D01*
X129285714Y-61244342D02*
X129238095Y-61339580D01*
X129238095Y-61339580D02*
X129190476Y-61387200D01*
X129190476Y-61387200D02*
X129095238Y-61434819D01*
X129095238Y-61434819D02*
X128809524Y-61434819D01*
X128809524Y-61434819D02*
X128714286Y-61387200D01*
X128714286Y-61387200D02*
X128666667Y-61339580D01*
X133407142Y-60059580D02*
X133359523Y-60107200D01*
X133359523Y-60107200D02*
X133216666Y-60154819D01*
X133216666Y-60154819D02*
X133121428Y-60154819D01*
X133121428Y-60154819D02*
X132978571Y-60107200D01*
X132978571Y-60107200D02*
X132883333Y-60011961D01*
X132883333Y-60011961D02*
X132835714Y-59916723D01*
X132835714Y-59916723D02*
X132788095Y-59726247D01*
X132788095Y-59726247D02*
X132788095Y-59583390D01*
X132788095Y-59583390D02*
X132835714Y-59392914D01*
X132835714Y-59392914D02*
X132883333Y-59297676D01*
X132883333Y-59297676D02*
X132978571Y-59202438D01*
X132978571Y-59202438D02*
X133121428Y-59154819D01*
X133121428Y-59154819D02*
X133216666Y-59154819D01*
X133216666Y-59154819D02*
X133359523Y-59202438D01*
X133359523Y-59202438D02*
X133407142Y-59250057D01*
X134359523Y-60154819D02*
X133788095Y-60154819D01*
X134073809Y-60154819D02*
X134073809Y-59154819D01*
X134073809Y-59154819D02*
X133978571Y-59297676D01*
X133978571Y-59297676D02*
X133883333Y-59392914D01*
X133883333Y-59392914D02*
X133788095Y-59440533D01*
X134978571Y-59154819D02*
X135073809Y-59154819D01*
X135073809Y-59154819D02*
X135169047Y-59202438D01*
X135169047Y-59202438D02*
X135216666Y-59250057D01*
X135216666Y-59250057D02*
X135264285Y-59345295D01*
X135264285Y-59345295D02*
X135311904Y-59535771D01*
X135311904Y-59535771D02*
X135311904Y-59773866D01*
X135311904Y-59773866D02*
X135264285Y-59964342D01*
X135264285Y-59964342D02*
X135216666Y-60059580D01*
X135216666Y-60059580D02*
X135169047Y-60107200D01*
X135169047Y-60107200D02*
X135073809Y-60154819D01*
X135073809Y-60154819D02*
X134978571Y-60154819D01*
X134978571Y-60154819D02*
X134883333Y-60107200D01*
X134883333Y-60107200D02*
X134835714Y-60059580D01*
X134835714Y-60059580D02*
X134788095Y-59964342D01*
X134788095Y-59964342D02*
X134740476Y-59773866D01*
X134740476Y-59773866D02*
X134740476Y-59535771D01*
X134740476Y-59535771D02*
X134788095Y-59345295D01*
X134788095Y-59345295D02*
X134835714Y-59250057D01*
X134835714Y-59250057D02*
X134883333Y-59202438D01*
X134883333Y-59202438D02*
X134978571Y-59154819D01*
X162216666Y-114781009D02*
X161883333Y-114781009D01*
X161883333Y-115304819D02*
X161883333Y-114304819D01*
X161883333Y-114304819D02*
X162359523Y-114304819D01*
X162645238Y-114304819D02*
X163264285Y-114304819D01*
X163264285Y-114304819D02*
X162930952Y-114685771D01*
X162930952Y-114685771D02*
X163073809Y-114685771D01*
X163073809Y-114685771D02*
X163169047Y-114733390D01*
X163169047Y-114733390D02*
X163216666Y-114781009D01*
X163216666Y-114781009D02*
X163264285Y-114876247D01*
X163264285Y-114876247D02*
X163264285Y-115114342D01*
X163264285Y-115114342D02*
X163216666Y-115209580D01*
X163216666Y-115209580D02*
X163169047Y-115257200D01*
X163169047Y-115257200D02*
X163073809Y-115304819D01*
X163073809Y-115304819D02*
X162788095Y-115304819D01*
X162788095Y-115304819D02*
X162692857Y-115257200D01*
X162692857Y-115257200D02*
X162645238Y-115209580D01*
X141334819Y-51253333D02*
X142049104Y-51253333D01*
X142049104Y-51253333D02*
X142191961Y-51300952D01*
X142191961Y-51300952D02*
X142287200Y-51396190D01*
X142287200Y-51396190D02*
X142334819Y-51539047D01*
X142334819Y-51539047D02*
X142334819Y-51634285D01*
X141430057Y-50824761D02*
X141382438Y-50777142D01*
X141382438Y-50777142D02*
X141334819Y-50681904D01*
X141334819Y-50681904D02*
X141334819Y-50443809D01*
X141334819Y-50443809D02*
X141382438Y-50348571D01*
X141382438Y-50348571D02*
X141430057Y-50300952D01*
X141430057Y-50300952D02*
X141525295Y-50253333D01*
X141525295Y-50253333D02*
X141620533Y-50253333D01*
X141620533Y-50253333D02*
X141763390Y-50300952D01*
X141763390Y-50300952D02*
X142334819Y-50872380D01*
X142334819Y-50872380D02*
X142334819Y-50253333D01*
X83635714Y-87654819D02*
X83635714Y-86654819D01*
X83635714Y-86654819D02*
X84016666Y-86654819D01*
X84016666Y-86654819D02*
X84111904Y-86702438D01*
X84111904Y-86702438D02*
X84159523Y-86750057D01*
X84159523Y-86750057D02*
X84207142Y-86845295D01*
X84207142Y-86845295D02*
X84207142Y-86988152D01*
X84207142Y-86988152D02*
X84159523Y-87083390D01*
X84159523Y-87083390D02*
X84111904Y-87131009D01*
X84111904Y-87131009D02*
X84016666Y-87178628D01*
X84016666Y-87178628D02*
X83635714Y-87178628D01*
X84588095Y-87607200D02*
X84730952Y-87654819D01*
X84730952Y-87654819D02*
X84969047Y-87654819D01*
X84969047Y-87654819D02*
X85064285Y-87607200D01*
X85064285Y-87607200D02*
X85111904Y-87559580D01*
X85111904Y-87559580D02*
X85159523Y-87464342D01*
X85159523Y-87464342D02*
X85159523Y-87369104D01*
X85159523Y-87369104D02*
X85111904Y-87273866D01*
X85111904Y-87273866D02*
X85064285Y-87226247D01*
X85064285Y-87226247D02*
X84969047Y-87178628D01*
X84969047Y-87178628D02*
X84778571Y-87131009D01*
X84778571Y-87131009D02*
X84683333Y-87083390D01*
X84683333Y-87083390D02*
X84635714Y-87035771D01*
X84635714Y-87035771D02*
X84588095Y-86940533D01*
X84588095Y-86940533D02*
X84588095Y-86845295D01*
X84588095Y-86845295D02*
X84635714Y-86750057D01*
X84635714Y-86750057D02*
X84683333Y-86702438D01*
X84683333Y-86702438D02*
X84778571Y-86654819D01*
X84778571Y-86654819D02*
X85016666Y-86654819D01*
X85016666Y-86654819D02*
X85159523Y-86702438D01*
X86111904Y-87654819D02*
X85540476Y-87654819D01*
X85826190Y-87654819D02*
X85826190Y-86654819D01*
X85826190Y-86654819D02*
X85730952Y-86797676D01*
X85730952Y-86797676D02*
X85635714Y-86892914D01*
X85635714Y-86892914D02*
X85540476Y-86940533D01*
X133433333Y-72824819D02*
X133100000Y-72348628D01*
X132861905Y-72824819D02*
X132861905Y-71824819D01*
X132861905Y-71824819D02*
X133242857Y-71824819D01*
X133242857Y-71824819D02*
X133338095Y-71872438D01*
X133338095Y-71872438D02*
X133385714Y-71920057D01*
X133385714Y-71920057D02*
X133433333Y-72015295D01*
X133433333Y-72015295D02*
X133433333Y-72158152D01*
X133433333Y-72158152D02*
X133385714Y-72253390D01*
X133385714Y-72253390D02*
X133338095Y-72301009D01*
X133338095Y-72301009D02*
X133242857Y-72348628D01*
X133242857Y-72348628D02*
X132861905Y-72348628D01*
X134290476Y-71824819D02*
X134100000Y-71824819D01*
X134100000Y-71824819D02*
X134004762Y-71872438D01*
X134004762Y-71872438D02*
X133957143Y-71920057D01*
X133957143Y-71920057D02*
X133861905Y-72062914D01*
X133861905Y-72062914D02*
X133814286Y-72253390D01*
X133814286Y-72253390D02*
X133814286Y-72634342D01*
X133814286Y-72634342D02*
X133861905Y-72729580D01*
X133861905Y-72729580D02*
X133909524Y-72777200D01*
X133909524Y-72777200D02*
X134004762Y-72824819D01*
X134004762Y-72824819D02*
X134195238Y-72824819D01*
X134195238Y-72824819D02*
X134290476Y-72777200D01*
X134290476Y-72777200D02*
X134338095Y-72729580D01*
X134338095Y-72729580D02*
X134385714Y-72634342D01*
X134385714Y-72634342D02*
X134385714Y-72396247D01*
X134385714Y-72396247D02*
X134338095Y-72301009D01*
X134338095Y-72301009D02*
X134290476Y-72253390D01*
X134290476Y-72253390D02*
X134195238Y-72205771D01*
X134195238Y-72205771D02*
X134004762Y-72205771D01*
X134004762Y-72205771D02*
X133909524Y-72253390D01*
X133909524Y-72253390D02*
X133861905Y-72301009D01*
X133861905Y-72301009D02*
X133814286Y-72396247D01*
X130298095Y-45584819D02*
X130298095Y-46394342D01*
X130298095Y-46394342D02*
X130345714Y-46489580D01*
X130345714Y-46489580D02*
X130393333Y-46537200D01*
X130393333Y-46537200D02*
X130488571Y-46584819D01*
X130488571Y-46584819D02*
X130679047Y-46584819D01*
X130679047Y-46584819D02*
X130774285Y-46537200D01*
X130774285Y-46537200D02*
X130821904Y-46489580D01*
X130821904Y-46489580D02*
X130869523Y-46394342D01*
X130869523Y-46394342D02*
X130869523Y-45584819D01*
X131250476Y-45584819D02*
X131869523Y-45584819D01*
X131869523Y-45584819D02*
X131536190Y-45965771D01*
X131536190Y-45965771D02*
X131679047Y-45965771D01*
X131679047Y-45965771D02*
X131774285Y-46013390D01*
X131774285Y-46013390D02*
X131821904Y-46061009D01*
X131821904Y-46061009D02*
X131869523Y-46156247D01*
X131869523Y-46156247D02*
X131869523Y-46394342D01*
X131869523Y-46394342D02*
X131821904Y-46489580D01*
X131821904Y-46489580D02*
X131774285Y-46537200D01*
X131774285Y-46537200D02*
X131679047Y-46584819D01*
X131679047Y-46584819D02*
X131393333Y-46584819D01*
X131393333Y-46584819D02*
X131298095Y-46537200D01*
X131298095Y-46537200D02*
X131250476Y-46489580D01*
X75838095Y-123904819D02*
X75838095Y-122904819D01*
X75838095Y-123381009D02*
X76409523Y-123381009D01*
X76409523Y-123904819D02*
X76409523Y-122904819D01*
X76838095Y-123000057D02*
X76885714Y-122952438D01*
X76885714Y-122952438D02*
X76980952Y-122904819D01*
X76980952Y-122904819D02*
X77219047Y-122904819D01*
X77219047Y-122904819D02*
X77314285Y-122952438D01*
X77314285Y-122952438D02*
X77361904Y-123000057D01*
X77361904Y-123000057D02*
X77409523Y-123095295D01*
X77409523Y-123095295D02*
X77409523Y-123190533D01*
X77409523Y-123190533D02*
X77361904Y-123333390D01*
X77361904Y-123333390D02*
X76790476Y-123904819D01*
X76790476Y-123904819D02*
X77409523Y-123904819D01*
X145234405Y-87702319D02*
X145234405Y-86702319D01*
X145234405Y-86702319D02*
X145472500Y-86702319D01*
X145472500Y-86702319D02*
X145615357Y-86749938D01*
X145615357Y-86749938D02*
X145710595Y-86845176D01*
X145710595Y-86845176D02*
X145758214Y-86940414D01*
X145758214Y-86940414D02*
X145805833Y-87130890D01*
X145805833Y-87130890D02*
X145805833Y-87273747D01*
X145805833Y-87273747D02*
X145758214Y-87464223D01*
X145758214Y-87464223D02*
X145710595Y-87559461D01*
X145710595Y-87559461D02*
X145615357Y-87654700D01*
X145615357Y-87654700D02*
X145472500Y-87702319D01*
X145472500Y-87702319D02*
X145234405Y-87702319D01*
X146139167Y-86702319D02*
X146805833Y-86702319D01*
X146805833Y-86702319D02*
X146377262Y-87702319D01*
X147283333Y-58104819D02*
X146950000Y-57628628D01*
X146711905Y-58104819D02*
X146711905Y-57104819D01*
X146711905Y-57104819D02*
X147092857Y-57104819D01*
X147092857Y-57104819D02*
X147188095Y-57152438D01*
X147188095Y-57152438D02*
X147235714Y-57200057D01*
X147235714Y-57200057D02*
X147283333Y-57295295D01*
X147283333Y-57295295D02*
X147283333Y-57438152D01*
X147283333Y-57438152D02*
X147235714Y-57533390D01*
X147235714Y-57533390D02*
X147188095Y-57581009D01*
X147188095Y-57581009D02*
X147092857Y-57628628D01*
X147092857Y-57628628D02*
X146711905Y-57628628D01*
X148140476Y-57438152D02*
X148140476Y-58104819D01*
X147902381Y-57057200D02*
X147664286Y-57771485D01*
X147664286Y-57771485D02*
X148283333Y-57771485D01*
X156957142Y-80444580D02*
X156909523Y-80492200D01*
X156909523Y-80492200D02*
X156766666Y-80539819D01*
X156766666Y-80539819D02*
X156671428Y-80539819D01*
X156671428Y-80539819D02*
X156528571Y-80492200D01*
X156528571Y-80492200D02*
X156433333Y-80396961D01*
X156433333Y-80396961D02*
X156385714Y-80301723D01*
X156385714Y-80301723D02*
X156338095Y-80111247D01*
X156338095Y-80111247D02*
X156338095Y-79968390D01*
X156338095Y-79968390D02*
X156385714Y-79777914D01*
X156385714Y-79777914D02*
X156433333Y-79682676D01*
X156433333Y-79682676D02*
X156528571Y-79587438D01*
X156528571Y-79587438D02*
X156671428Y-79539819D01*
X156671428Y-79539819D02*
X156766666Y-79539819D01*
X156766666Y-79539819D02*
X156909523Y-79587438D01*
X156909523Y-79587438D02*
X156957142Y-79635057D01*
X157909523Y-80539819D02*
X157338095Y-80539819D01*
X157623809Y-80539819D02*
X157623809Y-79539819D01*
X157623809Y-79539819D02*
X157528571Y-79682676D01*
X157528571Y-79682676D02*
X157433333Y-79777914D01*
X157433333Y-79777914D02*
X157338095Y-79825533D01*
X158242857Y-79539819D02*
X158861904Y-79539819D01*
X158861904Y-79539819D02*
X158528571Y-79920771D01*
X158528571Y-79920771D02*
X158671428Y-79920771D01*
X158671428Y-79920771D02*
X158766666Y-79968390D01*
X158766666Y-79968390D02*
X158814285Y-80016009D01*
X158814285Y-80016009D02*
X158861904Y-80111247D01*
X158861904Y-80111247D02*
X158861904Y-80349342D01*
X158861904Y-80349342D02*
X158814285Y-80444580D01*
X158814285Y-80444580D02*
X158766666Y-80492200D01*
X158766666Y-80492200D02*
X158671428Y-80539819D01*
X158671428Y-80539819D02*
X158385714Y-80539819D01*
X158385714Y-80539819D02*
X158290476Y-80492200D01*
X158290476Y-80492200D02*
X158242857Y-80444580D01*
X110995655Y-65878569D02*
X110995655Y-64878569D01*
X110995655Y-64878569D02*
X111233750Y-64878569D01*
X111233750Y-64878569D02*
X111376607Y-64926188D01*
X111376607Y-64926188D02*
X111471845Y-65021426D01*
X111471845Y-65021426D02*
X111519464Y-65116664D01*
X111519464Y-65116664D02*
X111567083Y-65307140D01*
X111567083Y-65307140D02*
X111567083Y-65449997D01*
X111567083Y-65449997D02*
X111519464Y-65640473D01*
X111519464Y-65640473D02*
X111471845Y-65735711D01*
X111471845Y-65735711D02*
X111376607Y-65830950D01*
X111376607Y-65830950D02*
X111233750Y-65878569D01*
X111233750Y-65878569D02*
X110995655Y-65878569D01*
X112471845Y-64878569D02*
X111995655Y-64878569D01*
X111995655Y-64878569D02*
X111948036Y-65354759D01*
X111948036Y-65354759D02*
X111995655Y-65307140D01*
X111995655Y-65307140D02*
X112090893Y-65259521D01*
X112090893Y-65259521D02*
X112328988Y-65259521D01*
X112328988Y-65259521D02*
X112424226Y-65307140D01*
X112424226Y-65307140D02*
X112471845Y-65354759D01*
X112471845Y-65354759D02*
X112519464Y-65449997D01*
X112519464Y-65449997D02*
X112519464Y-65688092D01*
X112519464Y-65688092D02*
X112471845Y-65783330D01*
X112471845Y-65783330D02*
X112424226Y-65830950D01*
X112424226Y-65830950D02*
X112328988Y-65878569D01*
X112328988Y-65878569D02*
X112090893Y-65878569D01*
X112090893Y-65878569D02*
X111995655Y-65830950D01*
X111995655Y-65830950D02*
X111948036Y-65783330D01*
X136838095Y-66404819D02*
X136838095Y-67214342D01*
X136838095Y-67214342D02*
X136885714Y-67309580D01*
X136885714Y-67309580D02*
X136933333Y-67357200D01*
X136933333Y-67357200D02*
X137028571Y-67404819D01*
X137028571Y-67404819D02*
X137219047Y-67404819D01*
X137219047Y-67404819D02*
X137314285Y-67357200D01*
X137314285Y-67357200D02*
X137361904Y-67309580D01*
X137361904Y-67309580D02*
X137409523Y-67214342D01*
X137409523Y-67214342D02*
X137409523Y-66404819D01*
X138409523Y-67404819D02*
X137838095Y-67404819D01*
X138123809Y-67404819D02*
X138123809Y-66404819D01*
X138123809Y-66404819D02*
X138028571Y-66547676D01*
X138028571Y-66547676D02*
X137933333Y-66642914D01*
X137933333Y-66642914D02*
X137838095Y-66690533D01*
X155566666Y-114931009D02*
X155233333Y-114931009D01*
X155233333Y-115454819D02*
X155233333Y-114454819D01*
X155233333Y-114454819D02*
X155709523Y-114454819D01*
X156042857Y-114550057D02*
X156090476Y-114502438D01*
X156090476Y-114502438D02*
X156185714Y-114454819D01*
X156185714Y-114454819D02*
X156423809Y-114454819D01*
X156423809Y-114454819D02*
X156519047Y-114502438D01*
X156519047Y-114502438D02*
X156566666Y-114550057D01*
X156566666Y-114550057D02*
X156614285Y-114645295D01*
X156614285Y-114645295D02*
X156614285Y-114740533D01*
X156614285Y-114740533D02*
X156566666Y-114883390D01*
X156566666Y-114883390D02*
X155995238Y-115454819D01*
X155995238Y-115454819D02*
X156614285Y-115454819D01*
X151420833Y-58159580D02*
X151373214Y-58207200D01*
X151373214Y-58207200D02*
X151230357Y-58254819D01*
X151230357Y-58254819D02*
X151135119Y-58254819D01*
X151135119Y-58254819D02*
X150992262Y-58207200D01*
X150992262Y-58207200D02*
X150897024Y-58111961D01*
X150897024Y-58111961D02*
X150849405Y-58016723D01*
X150849405Y-58016723D02*
X150801786Y-57826247D01*
X150801786Y-57826247D02*
X150801786Y-57683390D01*
X150801786Y-57683390D02*
X150849405Y-57492914D01*
X150849405Y-57492914D02*
X150897024Y-57397676D01*
X150897024Y-57397676D02*
X150992262Y-57302438D01*
X150992262Y-57302438D02*
X151135119Y-57254819D01*
X151135119Y-57254819D02*
X151230357Y-57254819D01*
X151230357Y-57254819D02*
X151373214Y-57302438D01*
X151373214Y-57302438D02*
X151420833Y-57350057D01*
X151801786Y-57350057D02*
X151849405Y-57302438D01*
X151849405Y-57302438D02*
X151944643Y-57254819D01*
X151944643Y-57254819D02*
X152182738Y-57254819D01*
X152182738Y-57254819D02*
X152277976Y-57302438D01*
X152277976Y-57302438D02*
X152325595Y-57350057D01*
X152325595Y-57350057D02*
X152373214Y-57445295D01*
X152373214Y-57445295D02*
X152373214Y-57540533D01*
X152373214Y-57540533D02*
X152325595Y-57683390D01*
X152325595Y-57683390D02*
X151754167Y-58254819D01*
X151754167Y-58254819D02*
X152373214Y-58254819D01*
X155534819Y-63438333D02*
X156249104Y-63438333D01*
X156249104Y-63438333D02*
X156391961Y-63485952D01*
X156391961Y-63485952D02*
X156487200Y-63581190D01*
X156487200Y-63581190D02*
X156534819Y-63724047D01*
X156534819Y-63724047D02*
X156534819Y-63819285D01*
X156534819Y-62438333D02*
X156534819Y-63009761D01*
X156534819Y-62724047D02*
X155534819Y-62724047D01*
X155534819Y-62724047D02*
X155677676Y-62819285D01*
X155677676Y-62819285D02*
X155772914Y-62914523D01*
X155772914Y-62914523D02*
X155820533Y-63009761D01*
X92274286Y-128724819D02*
X92845714Y-128724819D01*
X92560000Y-129724819D02*
X92560000Y-128724819D01*
X93179048Y-129724819D02*
X93179048Y-128724819D01*
X93179048Y-129201009D02*
X93750476Y-129201009D01*
X93750476Y-129724819D02*
X93750476Y-128724819D01*
X94750476Y-129724819D02*
X94179048Y-129724819D01*
X94464762Y-129724819D02*
X94464762Y-128724819D01*
X94464762Y-128724819D02*
X94369524Y-128867676D01*
X94369524Y-128867676D02*
X94274286Y-128962914D01*
X94274286Y-128962914D02*
X94179048Y-129010533D01*
X154184819Y-105367857D02*
X153708628Y-105701190D01*
X154184819Y-105939285D02*
X153184819Y-105939285D01*
X153184819Y-105939285D02*
X153184819Y-105558333D01*
X153184819Y-105558333D02*
X153232438Y-105463095D01*
X153232438Y-105463095D02*
X153280057Y-105415476D01*
X153280057Y-105415476D02*
X153375295Y-105367857D01*
X153375295Y-105367857D02*
X153518152Y-105367857D01*
X153518152Y-105367857D02*
X153613390Y-105415476D01*
X153613390Y-105415476D02*
X153661009Y-105463095D01*
X153661009Y-105463095D02*
X153708628Y-105558333D01*
X153708628Y-105558333D02*
X153708628Y-105939285D01*
X153280057Y-104986904D02*
X153232438Y-104939285D01*
X153232438Y-104939285D02*
X153184819Y-104844047D01*
X153184819Y-104844047D02*
X153184819Y-104605952D01*
X153184819Y-104605952D02*
X153232438Y-104510714D01*
X153232438Y-104510714D02*
X153280057Y-104463095D01*
X153280057Y-104463095D02*
X153375295Y-104415476D01*
X153375295Y-104415476D02*
X153470533Y-104415476D01*
X153470533Y-104415476D02*
X153613390Y-104463095D01*
X153613390Y-104463095D02*
X154184819Y-105034523D01*
X154184819Y-105034523D02*
X154184819Y-104415476D01*
X153280057Y-104034523D02*
X153232438Y-103986904D01*
X153232438Y-103986904D02*
X153184819Y-103891666D01*
X153184819Y-103891666D02*
X153184819Y-103653571D01*
X153184819Y-103653571D02*
X153232438Y-103558333D01*
X153232438Y-103558333D02*
X153280057Y-103510714D01*
X153280057Y-103510714D02*
X153375295Y-103463095D01*
X153375295Y-103463095D02*
X153470533Y-103463095D01*
X153470533Y-103463095D02*
X153613390Y-103510714D01*
X153613390Y-103510714D02*
X154184819Y-104082142D01*
X154184819Y-104082142D02*
X154184819Y-103463095D01*
X78638095Y-46604819D02*
X78638095Y-45604819D01*
X78638095Y-46081009D02*
X79209523Y-46081009D01*
X79209523Y-46604819D02*
X79209523Y-45604819D01*
X80209523Y-46604819D02*
X79638095Y-46604819D01*
X79923809Y-46604819D02*
X79923809Y-45604819D01*
X79923809Y-45604819D02*
X79828571Y-45747676D01*
X79828571Y-45747676D02*
X79733333Y-45842914D01*
X79733333Y-45842914D02*
X79638095Y-45890533D01*
X110564642Y-116207319D02*
X110231309Y-115731128D01*
X109993214Y-116207319D02*
X109993214Y-115207319D01*
X109993214Y-115207319D02*
X110374166Y-115207319D01*
X110374166Y-115207319D02*
X110469404Y-115254938D01*
X110469404Y-115254938D02*
X110517023Y-115302557D01*
X110517023Y-115302557D02*
X110564642Y-115397795D01*
X110564642Y-115397795D02*
X110564642Y-115540652D01*
X110564642Y-115540652D02*
X110517023Y-115635890D01*
X110517023Y-115635890D02*
X110469404Y-115683509D01*
X110469404Y-115683509D02*
X110374166Y-115731128D01*
X110374166Y-115731128D02*
X109993214Y-115731128D01*
X110945595Y-115302557D02*
X110993214Y-115254938D01*
X110993214Y-115254938D02*
X111088452Y-115207319D01*
X111088452Y-115207319D02*
X111326547Y-115207319D01*
X111326547Y-115207319D02*
X111421785Y-115254938D01*
X111421785Y-115254938D02*
X111469404Y-115302557D01*
X111469404Y-115302557D02*
X111517023Y-115397795D01*
X111517023Y-115397795D02*
X111517023Y-115493033D01*
X111517023Y-115493033D02*
X111469404Y-115635890D01*
X111469404Y-115635890D02*
X110897976Y-116207319D01*
X110897976Y-116207319D02*
X111517023Y-116207319D01*
X112469404Y-116207319D02*
X111897976Y-116207319D01*
X112183690Y-116207319D02*
X112183690Y-115207319D01*
X112183690Y-115207319D02*
X112088452Y-115350176D01*
X112088452Y-115350176D02*
X111993214Y-115445414D01*
X111993214Y-115445414D02*
X111897976Y-115493033D01*
X127934819Y-67016666D02*
X127458628Y-67349999D01*
X127934819Y-67588094D02*
X126934819Y-67588094D01*
X126934819Y-67588094D02*
X126934819Y-67207142D01*
X126934819Y-67207142D02*
X126982438Y-67111904D01*
X126982438Y-67111904D02*
X127030057Y-67064285D01*
X127030057Y-67064285D02*
X127125295Y-67016666D01*
X127125295Y-67016666D02*
X127268152Y-67016666D01*
X127268152Y-67016666D02*
X127363390Y-67064285D01*
X127363390Y-67064285D02*
X127411009Y-67111904D01*
X127411009Y-67111904D02*
X127458628Y-67207142D01*
X127458628Y-67207142D02*
X127458628Y-67588094D01*
X126934819Y-66111904D02*
X126934819Y-66588094D01*
X126934819Y-66588094D02*
X127411009Y-66635713D01*
X127411009Y-66635713D02*
X127363390Y-66588094D01*
X127363390Y-66588094D02*
X127315771Y-66492856D01*
X127315771Y-66492856D02*
X127315771Y-66254761D01*
X127315771Y-66254761D02*
X127363390Y-66159523D01*
X127363390Y-66159523D02*
X127411009Y-66111904D01*
X127411009Y-66111904D02*
X127506247Y-66064285D01*
X127506247Y-66064285D02*
X127744342Y-66064285D01*
X127744342Y-66064285D02*
X127839580Y-66111904D01*
X127839580Y-66111904D02*
X127887200Y-66159523D01*
X127887200Y-66159523D02*
X127934819Y-66254761D01*
X127934819Y-66254761D02*
X127934819Y-66492856D01*
X127934819Y-66492856D02*
X127887200Y-66588094D01*
X127887200Y-66588094D02*
X127839580Y-66635713D01*
X110811905Y-72204819D02*
X110811905Y-71204819D01*
X111383333Y-72204819D02*
X110954762Y-71633390D01*
X111383333Y-71204819D02*
X110811905Y-71776247D01*
X112335714Y-72204819D02*
X111764286Y-72204819D01*
X112050000Y-72204819D02*
X112050000Y-71204819D01*
X112050000Y-71204819D02*
X111954762Y-71347676D01*
X111954762Y-71347676D02*
X111859524Y-71442914D01*
X111859524Y-71442914D02*
X111764286Y-71490533D01*
X133383333Y-61829580D02*
X133335714Y-61877200D01*
X133335714Y-61877200D02*
X133192857Y-61924819D01*
X133192857Y-61924819D02*
X133097619Y-61924819D01*
X133097619Y-61924819D02*
X132954762Y-61877200D01*
X132954762Y-61877200D02*
X132859524Y-61781961D01*
X132859524Y-61781961D02*
X132811905Y-61686723D01*
X132811905Y-61686723D02*
X132764286Y-61496247D01*
X132764286Y-61496247D02*
X132764286Y-61353390D01*
X132764286Y-61353390D02*
X132811905Y-61162914D01*
X132811905Y-61162914D02*
X132859524Y-61067676D01*
X132859524Y-61067676D02*
X132954762Y-60972438D01*
X132954762Y-60972438D02*
X133097619Y-60924819D01*
X133097619Y-60924819D02*
X133192857Y-60924819D01*
X133192857Y-60924819D02*
X133335714Y-60972438D01*
X133335714Y-60972438D02*
X133383333Y-61020057D01*
X134288095Y-60924819D02*
X133811905Y-60924819D01*
X133811905Y-60924819D02*
X133764286Y-61401009D01*
X133764286Y-61401009D02*
X133811905Y-61353390D01*
X133811905Y-61353390D02*
X133907143Y-61305771D01*
X133907143Y-61305771D02*
X134145238Y-61305771D01*
X134145238Y-61305771D02*
X134240476Y-61353390D01*
X134240476Y-61353390D02*
X134288095Y-61401009D01*
X134288095Y-61401009D02*
X134335714Y-61496247D01*
X134335714Y-61496247D02*
X134335714Y-61734342D01*
X134335714Y-61734342D02*
X134288095Y-61829580D01*
X134288095Y-61829580D02*
X134240476Y-61877200D01*
X134240476Y-61877200D02*
X134145238Y-61924819D01*
X134145238Y-61924819D02*
X133907143Y-61924819D01*
X133907143Y-61924819D02*
X133811905Y-61877200D01*
X133811905Y-61877200D02*
X133764286Y-61829580D01*
X105314642Y-105362080D02*
X105267023Y-105409700D01*
X105267023Y-105409700D02*
X105124166Y-105457319D01*
X105124166Y-105457319D02*
X105028928Y-105457319D01*
X105028928Y-105457319D02*
X104886071Y-105409700D01*
X104886071Y-105409700D02*
X104790833Y-105314461D01*
X104790833Y-105314461D02*
X104743214Y-105219223D01*
X104743214Y-105219223D02*
X104695595Y-105028747D01*
X104695595Y-105028747D02*
X104695595Y-104885890D01*
X104695595Y-104885890D02*
X104743214Y-104695414D01*
X104743214Y-104695414D02*
X104790833Y-104600176D01*
X104790833Y-104600176D02*
X104886071Y-104504938D01*
X104886071Y-104504938D02*
X105028928Y-104457319D01*
X105028928Y-104457319D02*
X105124166Y-104457319D01*
X105124166Y-104457319D02*
X105267023Y-104504938D01*
X105267023Y-104504938D02*
X105314642Y-104552557D01*
X106267023Y-105457319D02*
X105695595Y-105457319D01*
X105981309Y-105457319D02*
X105981309Y-104457319D01*
X105981309Y-104457319D02*
X105886071Y-104600176D01*
X105886071Y-104600176D02*
X105790833Y-104695414D01*
X105790833Y-104695414D02*
X105695595Y-104743033D01*
X107219404Y-105457319D02*
X106647976Y-105457319D01*
X106933690Y-105457319D02*
X106933690Y-104457319D01*
X106933690Y-104457319D02*
X106838452Y-104600176D01*
X106838452Y-104600176D02*
X106743214Y-104695414D01*
X106743214Y-104695414D02*
X106647976Y-104743033D01*
X162538095Y-92604819D02*
X162538095Y-93414342D01*
X162538095Y-93414342D02*
X162585714Y-93509580D01*
X162585714Y-93509580D02*
X162633333Y-93557200D01*
X162633333Y-93557200D02*
X162728571Y-93604819D01*
X162728571Y-93604819D02*
X162919047Y-93604819D01*
X162919047Y-93604819D02*
X163014285Y-93557200D01*
X163014285Y-93557200D02*
X163061904Y-93509580D01*
X163061904Y-93509580D02*
X163109523Y-93414342D01*
X163109523Y-93414342D02*
X163109523Y-92604819D01*
X164061904Y-92604819D02*
X163585714Y-92604819D01*
X163585714Y-92604819D02*
X163538095Y-93081009D01*
X163538095Y-93081009D02*
X163585714Y-93033390D01*
X163585714Y-93033390D02*
X163680952Y-92985771D01*
X163680952Y-92985771D02*
X163919047Y-92985771D01*
X163919047Y-92985771D02*
X164014285Y-93033390D01*
X164014285Y-93033390D02*
X164061904Y-93081009D01*
X164061904Y-93081009D02*
X164109523Y-93176247D01*
X164109523Y-93176247D02*
X164109523Y-93414342D01*
X164109523Y-93414342D02*
X164061904Y-93509580D01*
X164061904Y-93509580D02*
X164014285Y-93557200D01*
X164014285Y-93557200D02*
X163919047Y-93604819D01*
X163919047Y-93604819D02*
X163680952Y-93604819D01*
X163680952Y-93604819D02*
X163585714Y-93557200D01*
X163585714Y-93557200D02*
X163538095Y-93509580D01*
X162948809Y-55103628D02*
X162948809Y-55579819D01*
X162615476Y-54579819D02*
X162948809Y-55103628D01*
X162948809Y-55103628D02*
X163282142Y-54579819D01*
X164139285Y-55579819D02*
X163567857Y-55579819D01*
X163853571Y-55579819D02*
X163853571Y-54579819D01*
X163853571Y-54579819D02*
X163758333Y-54722676D01*
X163758333Y-54722676D02*
X163663095Y-54817914D01*
X163663095Y-54817914D02*
X163567857Y-54865533D01*
X163352030Y-80409580D02*
X163304411Y-80457200D01*
X163304411Y-80457200D02*
X163161554Y-80504819D01*
X163161554Y-80504819D02*
X163066316Y-80504819D01*
X163066316Y-80504819D02*
X162923459Y-80457200D01*
X162923459Y-80457200D02*
X162828221Y-80361961D01*
X162828221Y-80361961D02*
X162780602Y-80266723D01*
X162780602Y-80266723D02*
X162732983Y-80076247D01*
X162732983Y-80076247D02*
X162732983Y-79933390D01*
X162732983Y-79933390D02*
X162780602Y-79742914D01*
X162780602Y-79742914D02*
X162828221Y-79647676D01*
X162828221Y-79647676D02*
X162923459Y-79552438D01*
X162923459Y-79552438D02*
X163066316Y-79504819D01*
X163066316Y-79504819D02*
X163161554Y-79504819D01*
X163161554Y-79504819D02*
X163304411Y-79552438D01*
X163304411Y-79552438D02*
X163352030Y-79600057D01*
X164304411Y-80504819D02*
X163732983Y-80504819D01*
X164018697Y-80504819D02*
X164018697Y-79504819D01*
X164018697Y-79504819D02*
X163923459Y-79647676D01*
X163923459Y-79647676D02*
X163828221Y-79742914D01*
X163828221Y-79742914D02*
X163732983Y-79790533D01*
X165161554Y-79838152D02*
X165161554Y-80504819D01*
X164923459Y-79457200D02*
X164685364Y-80171485D01*
X164685364Y-80171485D02*
X165304411Y-80171485D01*
X127933333Y-59959580D02*
X127885714Y-60007200D01*
X127885714Y-60007200D02*
X127742857Y-60054819D01*
X127742857Y-60054819D02*
X127647619Y-60054819D01*
X127647619Y-60054819D02*
X127504762Y-60007200D01*
X127504762Y-60007200D02*
X127409524Y-59911961D01*
X127409524Y-59911961D02*
X127361905Y-59816723D01*
X127361905Y-59816723D02*
X127314286Y-59626247D01*
X127314286Y-59626247D02*
X127314286Y-59483390D01*
X127314286Y-59483390D02*
X127361905Y-59292914D01*
X127361905Y-59292914D02*
X127409524Y-59197676D01*
X127409524Y-59197676D02*
X127504762Y-59102438D01*
X127504762Y-59102438D02*
X127647619Y-59054819D01*
X127647619Y-59054819D02*
X127742857Y-59054819D01*
X127742857Y-59054819D02*
X127885714Y-59102438D01*
X127885714Y-59102438D02*
X127933333Y-59150057D01*
X128504762Y-59483390D02*
X128409524Y-59435771D01*
X128409524Y-59435771D02*
X128361905Y-59388152D01*
X128361905Y-59388152D02*
X128314286Y-59292914D01*
X128314286Y-59292914D02*
X128314286Y-59245295D01*
X128314286Y-59245295D02*
X128361905Y-59150057D01*
X128361905Y-59150057D02*
X128409524Y-59102438D01*
X128409524Y-59102438D02*
X128504762Y-59054819D01*
X128504762Y-59054819D02*
X128695238Y-59054819D01*
X128695238Y-59054819D02*
X128790476Y-59102438D01*
X128790476Y-59102438D02*
X128838095Y-59150057D01*
X128838095Y-59150057D02*
X128885714Y-59245295D01*
X128885714Y-59245295D02*
X128885714Y-59292914D01*
X128885714Y-59292914D02*
X128838095Y-59388152D01*
X128838095Y-59388152D02*
X128790476Y-59435771D01*
X128790476Y-59435771D02*
X128695238Y-59483390D01*
X128695238Y-59483390D02*
X128504762Y-59483390D01*
X128504762Y-59483390D02*
X128409524Y-59531009D01*
X128409524Y-59531009D02*
X128361905Y-59578628D01*
X128361905Y-59578628D02*
X128314286Y-59673866D01*
X128314286Y-59673866D02*
X128314286Y-59864342D01*
X128314286Y-59864342D02*
X128361905Y-59959580D01*
X128361905Y-59959580D02*
X128409524Y-60007200D01*
X128409524Y-60007200D02*
X128504762Y-60054819D01*
X128504762Y-60054819D02*
X128695238Y-60054819D01*
X128695238Y-60054819D02*
X128790476Y-60007200D01*
X128790476Y-60007200D02*
X128838095Y-59959580D01*
X128838095Y-59959580D02*
X128885714Y-59864342D01*
X128885714Y-59864342D02*
X128885714Y-59673866D01*
X128885714Y-59673866D02*
X128838095Y-59578628D01*
X128838095Y-59578628D02*
X128790476Y-59531009D01*
X128790476Y-59531009D02*
X128695238Y-59483390D01*
X162974405Y-69499819D02*
X162974405Y-68499819D01*
X162974405Y-68499819D02*
X163212500Y-68499819D01*
X163212500Y-68499819D02*
X163355357Y-68547438D01*
X163355357Y-68547438D02*
X163450595Y-68642676D01*
X163450595Y-68642676D02*
X163498214Y-68737914D01*
X163498214Y-68737914D02*
X163545833Y-68928390D01*
X163545833Y-68928390D02*
X163545833Y-69071247D01*
X163545833Y-69071247D02*
X163498214Y-69261723D01*
X163498214Y-69261723D02*
X163450595Y-69356961D01*
X163450595Y-69356961D02*
X163355357Y-69452200D01*
X163355357Y-69452200D02*
X163212500Y-69499819D01*
X163212500Y-69499819D02*
X162974405Y-69499819D01*
X164498214Y-69499819D02*
X163926786Y-69499819D01*
X164212500Y-69499819D02*
X164212500Y-68499819D01*
X164212500Y-68499819D02*
X164117262Y-68642676D01*
X164117262Y-68642676D02*
X164022024Y-68737914D01*
X164022024Y-68737914D02*
X163926786Y-68785533D01*
X156138095Y-92589819D02*
X156138095Y-93399342D01*
X156138095Y-93399342D02*
X156185714Y-93494580D01*
X156185714Y-93494580D02*
X156233333Y-93542200D01*
X156233333Y-93542200D02*
X156328571Y-93589819D01*
X156328571Y-93589819D02*
X156519047Y-93589819D01*
X156519047Y-93589819D02*
X156614285Y-93542200D01*
X156614285Y-93542200D02*
X156661904Y-93494580D01*
X156661904Y-93494580D02*
X156709523Y-93399342D01*
X156709523Y-93399342D02*
X156709523Y-92589819D01*
X157614285Y-92923152D02*
X157614285Y-93589819D01*
X157376190Y-92542200D02*
X157138095Y-93256485D01*
X157138095Y-93256485D02*
X157757142Y-93256485D01*
X145961905Y-106754819D02*
X145961905Y-105754819D01*
X146533333Y-106754819D02*
X146104762Y-106183390D01*
X146533333Y-105754819D02*
X145961905Y-106326247D01*
X146866667Y-105754819D02*
X147485714Y-105754819D01*
X147485714Y-105754819D02*
X147152381Y-106135771D01*
X147152381Y-106135771D02*
X147295238Y-106135771D01*
X147295238Y-106135771D02*
X147390476Y-106183390D01*
X147390476Y-106183390D02*
X147438095Y-106231009D01*
X147438095Y-106231009D02*
X147485714Y-106326247D01*
X147485714Y-106326247D02*
X147485714Y-106564342D01*
X147485714Y-106564342D02*
X147438095Y-106659580D01*
X147438095Y-106659580D02*
X147390476Y-106707200D01*
X147390476Y-106707200D02*
X147295238Y-106754819D01*
X147295238Y-106754819D02*
X147009524Y-106754819D01*
X147009524Y-106754819D02*
X146914286Y-106707200D01*
X146914286Y-106707200D02*
X146866667Y-106659580D01*
X165488095Y-124254819D02*
X165488095Y-123254819D01*
X165488095Y-123731009D02*
X166059523Y-123731009D01*
X166059523Y-124254819D02*
X166059523Y-123254819D01*
X166964285Y-123588152D02*
X166964285Y-124254819D01*
X166726190Y-123207200D02*
X166488095Y-123921485D01*
X166488095Y-123921485D02*
X167107142Y-123921485D01*
X145479405Y-80592319D02*
X145479405Y-79592319D01*
X145479405Y-79592319D02*
X145717500Y-79592319D01*
X145717500Y-79592319D02*
X145860357Y-79639938D01*
X145860357Y-79639938D02*
X145955595Y-79735176D01*
X145955595Y-79735176D02*
X146003214Y-79830414D01*
X146003214Y-79830414D02*
X146050833Y-80020890D01*
X146050833Y-80020890D02*
X146050833Y-80163747D01*
X146050833Y-80163747D02*
X146003214Y-80354223D01*
X146003214Y-80354223D02*
X145955595Y-80449461D01*
X145955595Y-80449461D02*
X145860357Y-80544700D01*
X145860357Y-80544700D02*
X145717500Y-80592319D01*
X145717500Y-80592319D02*
X145479405Y-80592319D01*
X146907976Y-79925652D02*
X146907976Y-80592319D01*
X146669881Y-79544700D02*
X146431786Y-80258985D01*
X146431786Y-80258985D02*
X147050833Y-80258985D01*
D14*
%TO.C,D3*%
X130837500Y-82046500D02*
X130837500Y-82202500D01*
X130837500Y-84362500D02*
X130837500Y-84518500D01*
X130837500Y-82046984D02*
G75*
G02*
X134069835Y-82203892I1560000J-1235516D01*
G01*
X131356539Y-82202500D02*
G75*
G02*
X133438630Y-82202663I1040961J-1080000D01*
G01*
X133438630Y-84362337D02*
G75*
G02*
X131356539Y-84362500I-1041130J1079837D01*
G01*
X134069835Y-84361108D02*
G75*
G02*
X130837500Y-84518016I-1672335J1078608D01*
G01*
%TO.C,D6*%
X129757500Y-87332500D02*
X130407500Y-87332500D01*
X130407500Y-86212500D02*
X130407500Y-88452500D01*
X130407500Y-88452500D02*
X134647500Y-88452500D01*
X133807500Y-88452500D02*
X133807500Y-86212500D01*
X133927500Y-88452500D02*
X133927500Y-86212500D01*
X134047500Y-88452500D02*
X134047500Y-86212500D01*
X134647500Y-86212500D02*
X130407500Y-86212500D01*
X134647500Y-88452500D02*
X134647500Y-86212500D01*
X135297500Y-87332500D02*
X134647500Y-87332500D01*
%TO.C,D2*%
X110268750Y-59837750D02*
X110268750Y-59993750D01*
X110268750Y-62153750D02*
X110268750Y-62309750D01*
X110268750Y-59838234D02*
G75*
G02*
X113501085Y-59995142I1560000J-1235516D01*
G01*
X110787789Y-59993750D02*
G75*
G02*
X112869880Y-59993913I1040961J-1080000D01*
G01*
X112869880Y-62153587D02*
G75*
G02*
X110787789Y-62153750I-1041130J1079837D01*
G01*
X113501085Y-62152358D02*
G75*
G02*
X110268750Y-62309266I-1672335J1078608D01*
G01*
D13*
%TO.C,RV1*%
X115657500Y-107202500D02*
X115657500Y-103802500D01*
X124657500Y-103802500D02*
X115657500Y-103802500D01*
X124657500Y-107202500D02*
X115657500Y-107202500D01*
X124657500Y-107202500D02*
X124657500Y-103802500D01*
D14*
%TO.C,F1*%
X80900000Y-121200000D02*
X85000000Y-121200000D01*
X80900000Y-131400000D02*
X80900000Y-121200000D01*
X80900000Y-131400000D02*
X85000000Y-131400000D01*
X85000000Y-131400000D02*
X85000000Y-121200000D01*
%TO.C,J3*%
X101100000Y-123940000D02*
X101100000Y-136160000D01*
X101100000Y-132860000D02*
X162280000Y-132860000D01*
X101100000Y-134660000D02*
X101100000Y-132860000D01*
X101100000Y-136160000D02*
X162280000Y-136160000D01*
X102750000Y-136160000D02*
X104750000Y-136160000D01*
X103000000Y-134660000D02*
X102750000Y-136160000D01*
X104500000Y-134660000D02*
X103000000Y-134660000D01*
X104750000Y-136160000D02*
X104500000Y-134660000D01*
X107830000Y-136160000D02*
X109830000Y-136160000D01*
X108080000Y-134660000D02*
X107830000Y-136160000D01*
X108530000Y-123140000D02*
X109130000Y-123140000D01*
X108830000Y-123740000D02*
X108530000Y-123140000D01*
X109130000Y-123140000D02*
X108830000Y-123740000D01*
X109580000Y-134660000D02*
X108080000Y-134660000D01*
X109830000Y-136160000D02*
X109580000Y-134660000D01*
X112910000Y-136160000D02*
X114910000Y-136160000D01*
X113160000Y-134660000D02*
X112910000Y-136160000D01*
X114660000Y-134660000D02*
X113160000Y-134660000D01*
X114910000Y-136160000D02*
X114660000Y-134660000D01*
X117990000Y-136160000D02*
X119990000Y-136160000D01*
X118240000Y-134660000D02*
X117990000Y-136160000D01*
X119740000Y-134660000D02*
X118240000Y-134660000D01*
X119990000Y-136160000D02*
X119740000Y-134660000D01*
X123070000Y-136160000D02*
X125070000Y-136160000D01*
X123320000Y-134660000D02*
X123070000Y-136160000D01*
X124820000Y-134660000D02*
X123320000Y-134660000D01*
X125070000Y-136160000D02*
X124820000Y-134660000D01*
X128150000Y-136160000D02*
X130150000Y-136160000D01*
X128400000Y-134660000D02*
X128150000Y-136160000D01*
X129900000Y-134660000D02*
X128400000Y-134660000D01*
X130150000Y-136160000D02*
X129900000Y-134660000D01*
X133230000Y-136160000D02*
X135230000Y-136160000D01*
X133480000Y-134660000D02*
X133230000Y-136160000D01*
X134980000Y-134660000D02*
X133480000Y-134660000D01*
X135230000Y-136160000D02*
X134980000Y-134660000D01*
X138310000Y-136160000D02*
X140310000Y-136160000D01*
X138560000Y-134660000D02*
X138310000Y-136160000D01*
X140060000Y-134660000D02*
X138560000Y-134660000D01*
X140310000Y-136160000D02*
X140060000Y-134660000D01*
X143390000Y-136160000D02*
X145390000Y-136160000D01*
X143640000Y-134660000D02*
X143390000Y-136160000D01*
X145140000Y-134660000D02*
X143640000Y-134660000D01*
X145390000Y-136160000D02*
X145140000Y-134660000D01*
X148470000Y-136160000D02*
X150470000Y-136160000D01*
X148720000Y-134660000D02*
X148470000Y-136160000D01*
X150220000Y-134660000D02*
X148720000Y-134660000D01*
X150470000Y-136160000D02*
X150220000Y-134660000D01*
X153550000Y-136160000D02*
X155550000Y-136160000D01*
X153800000Y-134660000D02*
X153550000Y-136160000D01*
X155300000Y-134660000D02*
X153800000Y-134660000D01*
X155550000Y-136160000D02*
X155300000Y-134660000D01*
X158630000Y-136160000D02*
X160630000Y-136160000D01*
X158880000Y-134660000D02*
X158630000Y-136160000D01*
X160380000Y-134660000D02*
X158880000Y-134660000D01*
X160630000Y-136160000D02*
X160380000Y-134660000D01*
X162280000Y-123940000D02*
X101100000Y-123940000D01*
X162280000Y-132860000D02*
X162280000Y-134660000D01*
X162280000Y-134660000D02*
X101100000Y-134660000D01*
X162280000Y-136160000D02*
X162280000Y-123940000D01*
%TO.C,R23*%
X162600000Y-105812500D02*
X162600000Y-103202500D01*
X163970000Y-107182500D02*
G75*
G02*
X161230000Y-107182500I-1370000J0D01*
G01*
X161230000Y-107182500D02*
G75*
G02*
X163970000Y-107182500I1370000J0D01*
G01*
%TO.C,K2*%
X126067500Y-89642500D02*
X138767500Y-89642500D01*
X126067500Y-120122500D02*
X126067500Y-89642500D01*
X128607500Y-95992500D02*
X128607500Y-94722500D01*
X129877500Y-94722500D02*
X134957500Y-94722500D01*
X129877500Y-95992500D02*
X128607500Y-95992500D01*
X129877500Y-97262500D02*
X129877500Y-94722500D01*
X133687500Y-94722500D02*
X132417500Y-97262500D01*
X134957500Y-94722500D02*
X134957500Y-95992500D01*
X134957500Y-95992500D02*
X134957500Y-97262500D01*
X134957500Y-97262500D02*
X129877500Y-97262500D01*
X136227500Y-94722500D02*
X136227500Y-95992500D01*
X136227500Y-95992500D02*
X134957500Y-95992500D01*
X138767500Y-89642500D02*
X138767500Y-120122500D01*
X138767500Y-120122500D02*
X126067500Y-120122500D01*
%TO.C,R3*%
X127772936Y-61890000D02*
X129227064Y-61890000D01*
X127772936Y-63710000D02*
X129227064Y-63710000D01*
%TO.C,C10*%
X131449000Y-56234000D02*
X131449000Y-55666000D01*
X131489000Y-56468000D02*
X131489000Y-55432000D01*
X131529000Y-56627000D02*
X131529000Y-55273000D01*
X131569000Y-56755000D02*
X131569000Y-55145000D01*
X131609000Y-56865000D02*
X131609000Y-55035000D01*
X131649000Y-56961000D02*
X131649000Y-54939000D01*
X131689000Y-57048000D02*
X131689000Y-54852000D01*
X131729000Y-57128000D02*
X131729000Y-54772000D01*
X131769000Y-54910000D02*
X131769000Y-54699000D01*
X131769000Y-57201000D02*
X131769000Y-56990000D01*
X131809000Y-54910000D02*
X131809000Y-54631000D01*
X131809000Y-57269000D02*
X131809000Y-56990000D01*
X131849000Y-54910000D02*
X131849000Y-54567000D01*
X131849000Y-57333000D02*
X131849000Y-56990000D01*
X131889000Y-54910000D02*
X131889000Y-54507000D01*
X131889000Y-57393000D02*
X131889000Y-56990000D01*
X131929000Y-54910000D02*
X131929000Y-54450000D01*
X131929000Y-57450000D02*
X131929000Y-56990000D01*
X131969000Y-54910000D02*
X131969000Y-54396000D01*
X131969000Y-57504000D02*
X131969000Y-56990000D01*
X132009000Y-54910000D02*
X132009000Y-54345000D01*
X132009000Y-57555000D02*
X132009000Y-56990000D01*
X132049000Y-54910000D02*
X132049000Y-54297000D01*
X132049000Y-57603000D02*
X132049000Y-56990000D01*
X132089000Y-54910000D02*
X132089000Y-54251000D01*
X132089000Y-57649000D02*
X132089000Y-56990000D01*
X132129000Y-54910000D02*
X132129000Y-54207000D01*
X132129000Y-57693000D02*
X132129000Y-56990000D01*
X132169000Y-54910000D02*
X132169000Y-54165000D01*
X132169000Y-57735000D02*
X132169000Y-56990000D01*
X132209000Y-54910000D02*
X132209000Y-54124000D01*
X132209000Y-57776000D02*
X132209000Y-56990000D01*
X132249000Y-54910000D02*
X132249000Y-54086000D01*
X132249000Y-57814000D02*
X132249000Y-56990000D01*
X132289000Y-54910000D02*
X132289000Y-54049000D01*
X132289000Y-57851000D02*
X132289000Y-56990000D01*
X132329000Y-54910000D02*
X132329000Y-54013000D01*
X132329000Y-57887000D02*
X132329000Y-56990000D01*
X132369000Y-54910000D02*
X132369000Y-53979000D01*
X132369000Y-57921000D02*
X132369000Y-56990000D01*
X132409000Y-54910000D02*
X132409000Y-53946000D01*
X132409000Y-57954000D02*
X132409000Y-56990000D01*
X132449000Y-54910000D02*
X132449000Y-53915000D01*
X132449000Y-57985000D02*
X132449000Y-56990000D01*
X132489000Y-54910000D02*
X132489000Y-53885000D01*
X132489000Y-58015000D02*
X132489000Y-56990000D01*
X132529000Y-54910000D02*
X132529000Y-53855000D01*
X132529000Y-58045000D02*
X132529000Y-56990000D01*
X132569000Y-54910000D02*
X132569000Y-53828000D01*
X132569000Y-58072000D02*
X132569000Y-56990000D01*
X132609000Y-54910000D02*
X132609000Y-53801000D01*
X132609000Y-58099000D02*
X132609000Y-56990000D01*
X132649000Y-54910000D02*
X132649000Y-53775000D01*
X132649000Y-58125000D02*
X132649000Y-56990000D01*
X132689000Y-54910000D02*
X132689000Y-53750000D01*
X132689000Y-58150000D02*
X132689000Y-56990000D01*
X132729000Y-54910000D02*
X132729000Y-53726000D01*
X132729000Y-58174000D02*
X132729000Y-56990000D01*
X132769000Y-54910000D02*
X132769000Y-53703000D01*
X132769000Y-58197000D02*
X132769000Y-56990000D01*
X132809000Y-54910000D02*
X132809000Y-53682000D01*
X132809000Y-58218000D02*
X132809000Y-56990000D01*
X132849000Y-54910000D02*
X132849000Y-53660000D01*
X132849000Y-58240000D02*
X132849000Y-56990000D01*
X132889000Y-54910000D02*
X132889000Y-53640000D01*
X132889000Y-58260000D02*
X132889000Y-56990000D01*
X132929000Y-54910000D02*
X132929000Y-53621000D01*
X132929000Y-58279000D02*
X132929000Y-56990000D01*
X132969000Y-54910000D02*
X132969000Y-53602000D01*
X132969000Y-58298000D02*
X132969000Y-56990000D01*
X133009000Y-54910000D02*
X133009000Y-53585000D01*
X133009000Y-58315000D02*
X133009000Y-56990000D01*
X133049000Y-54910000D02*
X133049000Y-53568000D01*
X133049000Y-58332000D02*
X133049000Y-56990000D01*
X133089000Y-54910000D02*
X133089000Y-53552000D01*
X133089000Y-58348000D02*
X133089000Y-56990000D01*
X133129000Y-54910000D02*
X133129000Y-53536000D01*
X133129000Y-58364000D02*
X133129000Y-56990000D01*
X133169000Y-54910000D02*
X133169000Y-53522000D01*
X133169000Y-58378000D02*
X133169000Y-56990000D01*
X133209000Y-54910000D02*
X133209000Y-53508000D01*
X133209000Y-58392000D02*
X133209000Y-56990000D01*
X133249000Y-54910000D02*
X133249000Y-53495000D01*
X133249000Y-58405000D02*
X133249000Y-56990000D01*
X133289000Y-54910000D02*
X133289000Y-53482000D01*
X133289000Y-58418000D02*
X133289000Y-56990000D01*
X133329000Y-54910000D02*
X133329000Y-53470000D01*
X133329000Y-58430000D02*
X133329000Y-56990000D01*
X133370000Y-54910000D02*
X133370000Y-53459000D01*
X133370000Y-58441000D02*
X133370000Y-56990000D01*
X133410000Y-54910000D02*
X133410000Y-53449000D01*
X133410000Y-58451000D02*
X133410000Y-56990000D01*
X133450000Y-54910000D02*
X133450000Y-53439000D01*
X133450000Y-58461000D02*
X133450000Y-56990000D01*
X133490000Y-54910000D02*
X133490000Y-53430000D01*
X133490000Y-58470000D02*
X133490000Y-56990000D01*
X133530000Y-54910000D02*
X133530000Y-53422000D01*
X133530000Y-58478000D02*
X133530000Y-56990000D01*
X133570000Y-54910000D02*
X133570000Y-53414000D01*
X133570000Y-58486000D02*
X133570000Y-56990000D01*
X133610000Y-54910000D02*
X133610000Y-53407000D01*
X133610000Y-58493000D02*
X133610000Y-56990000D01*
X133650000Y-54910000D02*
X133650000Y-53400000D01*
X133650000Y-58500000D02*
X133650000Y-56990000D01*
X133690000Y-54910000D02*
X133690000Y-53394000D01*
X133690000Y-58506000D02*
X133690000Y-56990000D01*
X133730000Y-54910000D02*
X133730000Y-53389000D01*
X133730000Y-58511000D02*
X133730000Y-56990000D01*
X133770000Y-54910000D02*
X133770000Y-53385000D01*
X133770000Y-58515000D02*
X133770000Y-56990000D01*
X133810000Y-54910000D02*
X133810000Y-53381000D01*
X133810000Y-58519000D02*
X133810000Y-56990000D01*
X133850000Y-58523000D02*
X133850000Y-53377000D01*
X133890000Y-58526000D02*
X133890000Y-53374000D01*
X133930000Y-58528000D02*
X133930000Y-53372000D01*
X133970000Y-58529000D02*
X133970000Y-53371000D01*
X134010000Y-58530000D02*
X134010000Y-53370000D01*
X134050000Y-58530000D02*
X134050000Y-53370000D01*
X136604775Y-57675000D02*
X136604775Y-57175000D01*
X136854775Y-57425000D02*
X136354775Y-57425000D01*
X136670000Y-55950000D02*
G75*
G02*
X131430000Y-55950000I-2620000J0D01*
G01*
X131430000Y-55950000D02*
G75*
G02*
X136670000Y-55950000I2620000J0D01*
G01*
%TO.C,F3*%
X160550000Y-109867500D02*
X164650000Y-109867500D01*
X160550000Y-120067500D02*
X160550000Y-109867500D01*
X160550000Y-120067500D02*
X164650000Y-120067500D01*
X164650000Y-120067500D02*
X164650000Y-109867500D01*
%TO.C,J2*%
X142880000Y-52250000D02*
X142880000Y-50920000D01*
X144210000Y-52250000D02*
X142880000Y-52250000D01*
X145480000Y-49590000D02*
X155700000Y-49590000D01*
X145480000Y-52250000D02*
X145480000Y-49590000D01*
X145480000Y-52250000D02*
X155700000Y-52250000D01*
X155700000Y-52250000D02*
X155700000Y-49590000D01*
%TO.C,PS1*%
X73350000Y-120462500D02*
X73350000Y-117462500D01*
X73590000Y-83302500D02*
X96210000Y-83302500D01*
X73590000Y-120222500D02*
X73590000Y-83302500D01*
X73590000Y-120222500D02*
X96210000Y-120222500D01*
X76350000Y-120462500D02*
X73350000Y-120462500D01*
X96210000Y-120222500D02*
X96210000Y-83302500D01*
%TO.C,R6*%
X134327064Y-69640000D02*
X132872936Y-69640000D01*
X134327064Y-71460000D02*
X132872936Y-71460000D01*
%TO.C,U3*%
X125940000Y-47130000D02*
X125940000Y-51771000D01*
X125940000Y-47130000D02*
X136180000Y-47130000D01*
X125940000Y-48640000D02*
X136180000Y-48640000D01*
X125940000Y-51771000D02*
X136180000Y-51771000D01*
X129210000Y-47130000D02*
X129210000Y-48640000D01*
X132911000Y-47130000D02*
X132911000Y-48640000D01*
X136180000Y-47130000D02*
X136180000Y-51771000D01*
%TO.C,D7*%
X143202500Y-87247500D02*
X143852500Y-87247500D01*
X143852500Y-86127500D02*
X143852500Y-88367500D01*
X143852500Y-88367500D02*
X148092500Y-88367500D01*
X147252500Y-88367500D02*
X147252500Y-86127500D01*
X147372500Y-88367500D02*
X147372500Y-86127500D01*
X147492500Y-88367500D02*
X147492500Y-86127500D01*
X148092500Y-86127500D02*
X143852500Y-86127500D01*
X148092500Y-88367500D02*
X148092500Y-86127500D01*
X148742500Y-87247500D02*
X148092500Y-87247500D01*
%TO.C,R4*%
X147222936Y-55115000D02*
X147677064Y-55115000D01*
X147222936Y-56585000D02*
X147677064Y-56585000D01*
%TO.C,C13*%
X154795225Y-82360000D02*
X155295225Y-82360000D01*
X155045225Y-82110000D02*
X155045225Y-82610000D01*
X157600000Y-81255000D02*
X157600000Y-82795000D01*
X157600000Y-84875000D02*
X157600000Y-86415000D01*
X157640000Y-81255000D02*
X157640000Y-82795000D01*
X157640000Y-84875000D02*
X157640000Y-86415000D01*
X157680000Y-81256000D02*
X157680000Y-82795000D01*
X157680000Y-84875000D02*
X157680000Y-86414000D01*
X157720000Y-81257000D02*
X157720000Y-82795000D01*
X157720000Y-84875000D02*
X157720000Y-86413000D01*
X157760000Y-81259000D02*
X157760000Y-82795000D01*
X157760000Y-84875000D02*
X157760000Y-86411000D01*
X157800000Y-81262000D02*
X157800000Y-82795000D01*
X157800000Y-84875000D02*
X157800000Y-86408000D01*
X157840000Y-81266000D02*
X157840000Y-82795000D01*
X157840000Y-84875000D02*
X157840000Y-86404000D01*
X157880000Y-81270000D02*
X157880000Y-82795000D01*
X157880000Y-84875000D02*
X157880000Y-86400000D01*
X157920000Y-81274000D02*
X157920000Y-82795000D01*
X157920000Y-84875000D02*
X157920000Y-86396000D01*
X157960000Y-81279000D02*
X157960000Y-82795000D01*
X157960000Y-84875000D02*
X157960000Y-86391000D01*
X158000000Y-81285000D02*
X158000000Y-82795000D01*
X158000000Y-84875000D02*
X158000000Y-86385000D01*
X158040000Y-81292000D02*
X158040000Y-82795000D01*
X158040000Y-84875000D02*
X158040000Y-86378000D01*
X158080000Y-81299000D02*
X158080000Y-82795000D01*
X158080000Y-84875000D02*
X158080000Y-86371000D01*
X158120000Y-81307000D02*
X158120000Y-82795000D01*
X158120000Y-84875000D02*
X158120000Y-86363000D01*
X158160000Y-81315000D02*
X158160000Y-82795000D01*
X158160000Y-84875000D02*
X158160000Y-86355000D01*
X158200000Y-81324000D02*
X158200000Y-82795000D01*
X158200000Y-84875000D02*
X158200000Y-86346000D01*
X158240000Y-81334000D02*
X158240000Y-82795000D01*
X158240000Y-84875000D02*
X158240000Y-86336000D01*
X158280000Y-81344000D02*
X158280000Y-82795000D01*
X158280000Y-84875000D02*
X158280000Y-86326000D01*
X158321000Y-81355000D02*
X158321000Y-82795000D01*
X158321000Y-84875000D02*
X158321000Y-86315000D01*
X158361000Y-81367000D02*
X158361000Y-82795000D01*
X158361000Y-84875000D02*
X158361000Y-86303000D01*
X158401000Y-81380000D02*
X158401000Y-82795000D01*
X158401000Y-84875000D02*
X158401000Y-86290000D01*
X158441000Y-81393000D02*
X158441000Y-82795000D01*
X158441000Y-84875000D02*
X158441000Y-86277000D01*
X158481000Y-81407000D02*
X158481000Y-82795000D01*
X158481000Y-84875000D02*
X158481000Y-86263000D01*
X158521000Y-81421000D02*
X158521000Y-82795000D01*
X158521000Y-84875000D02*
X158521000Y-86249000D01*
X158561000Y-81437000D02*
X158561000Y-82795000D01*
X158561000Y-84875000D02*
X158561000Y-86233000D01*
X158601000Y-81453000D02*
X158601000Y-82795000D01*
X158601000Y-84875000D02*
X158601000Y-86217000D01*
X158641000Y-81470000D02*
X158641000Y-82795000D01*
X158641000Y-84875000D02*
X158641000Y-86200000D01*
X158681000Y-81487000D02*
X158681000Y-82795000D01*
X158681000Y-84875000D02*
X158681000Y-86183000D01*
X158721000Y-81506000D02*
X158721000Y-82795000D01*
X158721000Y-84875000D02*
X158721000Y-86164000D01*
X158761000Y-81525000D02*
X158761000Y-82795000D01*
X158761000Y-84875000D02*
X158761000Y-86145000D01*
X158801000Y-81545000D02*
X158801000Y-82795000D01*
X158801000Y-84875000D02*
X158801000Y-86125000D01*
X158841000Y-81567000D02*
X158841000Y-82795000D01*
X158841000Y-84875000D02*
X158841000Y-86103000D01*
X158881000Y-81588000D02*
X158881000Y-82795000D01*
X158881000Y-84875000D02*
X158881000Y-86082000D01*
X158921000Y-81611000D02*
X158921000Y-82795000D01*
X158921000Y-84875000D02*
X158921000Y-86059000D01*
X158961000Y-81635000D02*
X158961000Y-82795000D01*
X158961000Y-84875000D02*
X158961000Y-86035000D01*
X159001000Y-81660000D02*
X159001000Y-82795000D01*
X159001000Y-84875000D02*
X159001000Y-86010000D01*
X159041000Y-81686000D02*
X159041000Y-82795000D01*
X159041000Y-84875000D02*
X159041000Y-85984000D01*
X159081000Y-81713000D02*
X159081000Y-82795000D01*
X159081000Y-84875000D02*
X159081000Y-85957000D01*
X159121000Y-81740000D02*
X159121000Y-82795000D01*
X159121000Y-84875000D02*
X159121000Y-85930000D01*
X159161000Y-81770000D02*
X159161000Y-82795000D01*
X159161000Y-84875000D02*
X159161000Y-85900000D01*
X159201000Y-81800000D02*
X159201000Y-82795000D01*
X159201000Y-84875000D02*
X159201000Y-85870000D01*
X159241000Y-81831000D02*
X159241000Y-82795000D01*
X159241000Y-84875000D02*
X159241000Y-85839000D01*
X159281000Y-81864000D02*
X159281000Y-82795000D01*
X159281000Y-84875000D02*
X159281000Y-85806000D01*
X159321000Y-81898000D02*
X159321000Y-82795000D01*
X159321000Y-84875000D02*
X159321000Y-85772000D01*
X159361000Y-81934000D02*
X159361000Y-82795000D01*
X159361000Y-84875000D02*
X159361000Y-85736000D01*
X159401000Y-81971000D02*
X159401000Y-82795000D01*
X159401000Y-84875000D02*
X159401000Y-85699000D01*
X159441000Y-82009000D02*
X159441000Y-82795000D01*
X159441000Y-84875000D02*
X159441000Y-85661000D01*
X159481000Y-82050000D02*
X159481000Y-82795000D01*
X159481000Y-84875000D02*
X159481000Y-85620000D01*
X159521000Y-82092000D02*
X159521000Y-82795000D01*
X159521000Y-84875000D02*
X159521000Y-85578000D01*
X159561000Y-82136000D02*
X159561000Y-82795000D01*
X159561000Y-84875000D02*
X159561000Y-85534000D01*
X159601000Y-82182000D02*
X159601000Y-82795000D01*
X159601000Y-84875000D02*
X159601000Y-85488000D01*
X159641000Y-82230000D02*
X159641000Y-85440000D01*
X159681000Y-82281000D02*
X159681000Y-85389000D01*
X159721000Y-82335000D02*
X159721000Y-85335000D01*
X159761000Y-82392000D02*
X159761000Y-85278000D01*
X159801000Y-82452000D02*
X159801000Y-85218000D01*
X159841000Y-82516000D02*
X159841000Y-85154000D01*
X159881000Y-82584000D02*
X159881000Y-85086000D01*
X159921000Y-82657000D02*
X159921000Y-85013000D01*
X159961000Y-82737000D02*
X159961000Y-84933000D01*
X160001000Y-82824000D02*
X160001000Y-84846000D01*
X160041000Y-82920000D02*
X160041000Y-84750000D01*
X160081000Y-83030000D02*
X160081000Y-84640000D01*
X160121000Y-83158000D02*
X160121000Y-84512000D01*
X160161000Y-83317000D02*
X160161000Y-84353000D01*
X160201000Y-83551000D02*
X160201000Y-84119000D01*
X160220000Y-83835000D02*
G75*
G02*
X154980000Y-83835000I-2620000J0D01*
G01*
X154980000Y-83835000D02*
G75*
G02*
X160220000Y-83835000I2620000J0D01*
G01*
%TO.C,D5*%
X109063750Y-65373750D02*
X109713750Y-65373750D01*
X109713750Y-64253750D02*
X109713750Y-66493750D01*
X109713750Y-66493750D02*
X113953750Y-66493750D01*
X113113750Y-66493750D02*
X113113750Y-64253750D01*
X113233750Y-66493750D02*
X113233750Y-64253750D01*
X113353750Y-66493750D02*
X113353750Y-64253750D01*
X113953750Y-64253750D02*
X109713750Y-64253750D01*
X113953750Y-66493750D02*
X113953750Y-64253750D01*
X114603750Y-65373750D02*
X113953750Y-65373750D01*
%TO.C,U1*%
X133660000Y-65382500D02*
X132860000Y-65382500D01*
X133660000Y-65382500D02*
X134460000Y-65382500D01*
X134460000Y-65382500D02*
X134460000Y-66312500D01*
X134460000Y-68542500D02*
X133000000Y-68542500D01*
X134460000Y-68542500D02*
X134460000Y-67612500D01*
X132360000Y-65352500D02*
X132120000Y-65022500D01*
X132600000Y-65022500D01*
X132360000Y-65352500D01*
G36*
X132360000Y-65352500D02*
G01*
X132120000Y-65022500D01*
X132600000Y-65022500D01*
X132360000Y-65352500D01*
G37*
%TO.C,F2*%
X154000000Y-110050000D02*
X158100000Y-110050000D01*
X154000000Y-120250000D02*
X154000000Y-110050000D01*
X154000000Y-120250000D02*
X158100000Y-120250000D01*
X158100000Y-120250000D02*
X158100000Y-110050000D01*
%TO.C,C2*%
X151326248Y-55115000D02*
X151848752Y-55115000D01*
X151326248Y-56585000D02*
X151848752Y-56585000D01*
%TO.C,J1*%
X157080000Y-64435000D02*
X157080000Y-63105000D01*
X158410000Y-64435000D02*
X157080000Y-64435000D01*
X159680000Y-61775000D02*
X164820000Y-61775000D01*
X159680000Y-64435000D02*
X159680000Y-61775000D01*
X159680000Y-64435000D02*
X164820000Y-64435000D01*
X164820000Y-64435000D02*
X164820000Y-61775000D01*
%TO.C,TH1*%
X94250000Y-125150000D02*
X91250000Y-125150000D01*
X100490000Y-125150000D02*
G75*
G02*
X94250000Y-125150000I-3120000J0D01*
G01*
X94250000Y-125150000D02*
G75*
G02*
X100490000Y-125150000I3120000J0D01*
G01*
%TO.C,R22*%
X156100000Y-105895000D02*
X156100000Y-103285000D01*
X157470000Y-107265000D02*
G75*
G02*
X154730000Y-107265000I-1370000J0D01*
G01*
X154730000Y-107265000D02*
G75*
G02*
X157470000Y-107265000I1370000J0D01*
G01*
%TO.C,R21*%
X99947500Y-115702500D02*
X102087500Y-115702500D01*
X102087500Y-111082500D02*
X102087500Y-120322500D01*
X102087500Y-120322500D02*
X120327500Y-120322500D01*
X120327500Y-111082500D02*
X102087500Y-111082500D01*
X120327500Y-120322500D02*
X120327500Y-111082500D01*
X122467500Y-115702500D02*
X120327500Y-115702500D01*
%TO.C,R5*%
X128390000Y-67577064D02*
X128390000Y-66122936D01*
X130210000Y-67577064D02*
X130210000Y-66122936D01*
%TO.C,K1*%
X97097500Y-87712500D02*
X97097500Y-98792500D01*
X101747500Y-86842500D02*
X97967500Y-86842500D01*
X102397500Y-68512500D02*
X102397500Y-86192500D01*
X104803500Y-89452500D02*
X109629500Y-89452500D01*
X106302100Y-77046500D02*
X106302100Y-75776500D01*
X106302103Y-77046502D02*
X109629503Y-77046502D01*
X108867500Y-91016500D02*
X109629500Y-92032500D01*
X108867500Y-95588500D02*
X109629500Y-94572500D01*
X108867500Y-95588500D02*
X110391500Y-95588500D01*
X109629500Y-89452500D02*
X109629500Y-91016500D01*
X109629500Y-92032500D02*
X110391500Y-91016500D01*
X109629500Y-94572500D02*
X110391500Y-95588500D01*
X109629500Y-95588500D02*
X109629500Y-97052500D01*
X109629500Y-97052500D02*
X104803500Y-97052500D01*
X110391500Y-91016500D02*
X108867500Y-91016500D01*
X113185500Y-77046500D02*
X116512900Y-77046500D01*
X113947500Y-93302500D02*
X109375500Y-94521700D01*
X113947500Y-93302500D02*
X120307500Y-93302500D01*
X116512900Y-75776500D02*
X116512900Y-77046500D01*
X120307500Y-93302500D02*
X120307500Y-89238500D01*
X121347500Y-67642500D02*
X103267500Y-67642500D01*
X122217500Y-68512500D02*
X122217500Y-81192500D01*
X123847500Y-81842500D02*
X122867500Y-81842500D01*
X123847500Y-99662500D02*
X97967500Y-99662500D01*
X124717500Y-82712500D02*
X124717500Y-98792500D01*
X97097500Y-87712500D02*
G75*
G02*
X97967500Y-86842500I870000J0D01*
G01*
X97967500Y-99662500D02*
G75*
G02*
X97097500Y-98792500I0J870000D01*
G01*
X102397500Y-68512500D02*
G75*
G02*
X103267500Y-67642500I870000J0D01*
G01*
X102397500Y-86192500D02*
G75*
G02*
X101747500Y-86842500I-650000J0D01*
G01*
X109629503Y-77046502D02*
G75*
G02*
X110645766Y-77554297I634997J2D01*
G01*
X110645856Y-77554766D02*
G75*
G02*
X111407500Y-77554499I380644J508266D01*
G01*
X111407855Y-77554765D02*
G75*
G02*
X112169500Y-77554499I380645J508265D01*
G01*
X112169233Y-77554300D02*
G75*
G02*
X113185500Y-77046500I381267J507800D01*
G01*
X121347500Y-67642500D02*
G75*
G02*
X122217500Y-68512500I0J-870000D01*
G01*
X122867500Y-81842500D02*
G75*
G02*
X122217500Y-81192500I0J650000D01*
G01*
X123847500Y-81842500D02*
G75*
G02*
X124717500Y-82712500I0J-870000D01*
G01*
X124717500Y-98792500D02*
G75*
G02*
X123847500Y-99662500I-870000J0D01*
G01*
X114074500Y-93302500D02*
G75*
G02*
X113820500Y-93302500I-127000J0D01*
G01*
X113820500Y-93302500D02*
G75*
G02*
X114074500Y-93302500I127000J0D01*
G01*
%TO.C,C5*%
X133288748Y-62415000D02*
X133811252Y-62415000D01*
X133288748Y-63885000D02*
X133811252Y-63885000D01*
%TO.C,C11*%
X99497500Y-105052500D02*
X99837500Y-105052500D01*
X99837500Y-101682500D02*
X99837500Y-108422500D01*
X99837500Y-108422500D02*
X112077500Y-108422500D01*
X112077500Y-101682500D02*
X99837500Y-101682500D01*
X112077500Y-108422500D02*
X112077500Y-101682500D01*
X112417500Y-105052500D02*
X112077500Y-105052500D01*
%TO.C,U5*%
X160695000Y-90915000D02*
X160695000Y-92165000D01*
X160695000Y-94165000D02*
X160695000Y-95415000D01*
X160695000Y-95415000D02*
X165895000Y-95415000D01*
X165895000Y-90915000D02*
X160695000Y-90915000D01*
X165895000Y-95415000D02*
X165895000Y-90915000D01*
X160695000Y-92165000D02*
G75*
G02*
X160695000Y-94165000I0J-1000000D01*
G01*
%TO.C,Y1*%
X156885000Y-58195000D02*
X156885000Y-51945000D01*
X161935000Y-58195000D02*
X161935000Y-51945000D01*
X156885000Y-51945000D02*
G75*
G02*
X161935000Y-51945000I2525000J0D01*
G01*
X161935000Y-58195000D02*
G75*
G02*
X156885000Y-58195000I-2525000J0D01*
G01*
%TO.C,C14*%
X161190113Y-82325000D02*
X161690113Y-82325000D01*
X161440113Y-82075000D02*
X161440113Y-82575000D01*
X163994888Y-81220000D02*
X163994888Y-82760000D01*
X163994888Y-84840000D02*
X163994888Y-86380000D01*
X164034888Y-81220000D02*
X164034888Y-82760000D01*
X164034888Y-84840000D02*
X164034888Y-86380000D01*
X164074888Y-81221000D02*
X164074888Y-82760000D01*
X164074888Y-84840000D02*
X164074888Y-86379000D01*
X164114888Y-81222000D02*
X164114888Y-82760000D01*
X164114888Y-84840000D02*
X164114888Y-86378000D01*
X164154888Y-81224000D02*
X164154888Y-82760000D01*
X164154888Y-84840000D02*
X164154888Y-86376000D01*
X164194888Y-81227000D02*
X164194888Y-82760000D01*
X164194888Y-84840000D02*
X164194888Y-86373000D01*
X164234888Y-81231000D02*
X164234888Y-82760000D01*
X164234888Y-84840000D02*
X164234888Y-86369000D01*
X164274888Y-81235000D02*
X164274888Y-82760000D01*
X164274888Y-84840000D02*
X164274888Y-86365000D01*
X164314888Y-81239000D02*
X164314888Y-82760000D01*
X164314888Y-84840000D02*
X164314888Y-86361000D01*
X164354888Y-81244000D02*
X164354888Y-82760000D01*
X164354888Y-84840000D02*
X164354888Y-86356000D01*
X164394888Y-81250000D02*
X164394888Y-82760000D01*
X164394888Y-84840000D02*
X164394888Y-86350000D01*
X164434888Y-81257000D02*
X164434888Y-82760000D01*
X164434888Y-84840000D02*
X164434888Y-86343000D01*
X164474888Y-81264000D02*
X164474888Y-82760000D01*
X164474888Y-84840000D02*
X164474888Y-86336000D01*
X164514888Y-81272000D02*
X164514888Y-82760000D01*
X164514888Y-84840000D02*
X164514888Y-86328000D01*
X164554888Y-81280000D02*
X164554888Y-82760000D01*
X164554888Y-84840000D02*
X164554888Y-86320000D01*
X164594888Y-81289000D02*
X164594888Y-82760000D01*
X164594888Y-84840000D02*
X164594888Y-86311000D01*
X164634888Y-81299000D02*
X164634888Y-82760000D01*
X164634888Y-84840000D02*
X164634888Y-86301000D01*
X164674888Y-81309000D02*
X164674888Y-82760000D01*
X164674888Y-84840000D02*
X164674888Y-86291000D01*
X164715888Y-81320000D02*
X164715888Y-82760000D01*
X164715888Y-84840000D02*
X164715888Y-86280000D01*
X164755888Y-81332000D02*
X164755888Y-82760000D01*
X164755888Y-84840000D02*
X164755888Y-86268000D01*
X164795888Y-81345000D02*
X164795888Y-82760000D01*
X164795888Y-84840000D02*
X164795888Y-86255000D01*
X164835888Y-81358000D02*
X164835888Y-82760000D01*
X164835888Y-84840000D02*
X164835888Y-86242000D01*
X164875888Y-81372000D02*
X164875888Y-82760000D01*
X164875888Y-84840000D02*
X164875888Y-86228000D01*
X164915888Y-81386000D02*
X164915888Y-82760000D01*
X164915888Y-84840000D02*
X164915888Y-86214000D01*
X164955888Y-81402000D02*
X164955888Y-82760000D01*
X164955888Y-84840000D02*
X164955888Y-86198000D01*
X164995888Y-81418000D02*
X164995888Y-82760000D01*
X164995888Y-84840000D02*
X164995888Y-86182000D01*
X165035888Y-81435000D02*
X165035888Y-82760000D01*
X165035888Y-84840000D02*
X165035888Y-86165000D01*
X165075888Y-81452000D02*
X165075888Y-82760000D01*
X165075888Y-84840000D02*
X165075888Y-86148000D01*
X165115888Y-81471000D02*
X165115888Y-82760000D01*
X165115888Y-84840000D02*
X165115888Y-86129000D01*
X165155888Y-81490000D02*
X165155888Y-82760000D01*
X165155888Y-84840000D02*
X165155888Y-86110000D01*
X165195888Y-81510000D02*
X165195888Y-82760000D01*
X165195888Y-84840000D02*
X165195888Y-86090000D01*
X165235888Y-81532000D02*
X165235888Y-82760000D01*
X165235888Y-84840000D02*
X165235888Y-86068000D01*
X165275888Y-81553000D02*
X165275888Y-82760000D01*
X165275888Y-84840000D02*
X165275888Y-86047000D01*
X165315888Y-81576000D02*
X165315888Y-82760000D01*
X165315888Y-84840000D02*
X165315888Y-86024000D01*
X165355888Y-81600000D02*
X165355888Y-82760000D01*
X165355888Y-84840000D02*
X165355888Y-86000000D01*
X165395888Y-81625000D02*
X165395888Y-82760000D01*
X165395888Y-84840000D02*
X165395888Y-85975000D01*
X165435888Y-81651000D02*
X165435888Y-82760000D01*
X165435888Y-84840000D02*
X165435888Y-85949000D01*
X165475888Y-81678000D02*
X165475888Y-82760000D01*
X165475888Y-84840000D02*
X165475888Y-85922000D01*
X165515888Y-81705000D02*
X165515888Y-82760000D01*
X165515888Y-84840000D02*
X165515888Y-85895000D01*
X165555888Y-81735000D02*
X165555888Y-82760000D01*
X165555888Y-84840000D02*
X165555888Y-85865000D01*
X165595888Y-81765000D02*
X165595888Y-82760000D01*
X165595888Y-84840000D02*
X165595888Y-85835000D01*
X165635888Y-81796000D02*
X165635888Y-82760000D01*
X165635888Y-84840000D02*
X165635888Y-85804000D01*
X165675888Y-81829000D02*
X165675888Y-82760000D01*
X165675888Y-84840000D02*
X165675888Y-85771000D01*
X165715888Y-81863000D02*
X165715888Y-82760000D01*
X165715888Y-84840000D02*
X165715888Y-85737000D01*
X165755888Y-81899000D02*
X165755888Y-82760000D01*
X165755888Y-84840000D02*
X165755888Y-85701000D01*
X165795888Y-81936000D02*
X165795888Y-82760000D01*
X165795888Y-84840000D02*
X165795888Y-85664000D01*
X165835888Y-81974000D02*
X165835888Y-82760000D01*
X165835888Y-84840000D02*
X165835888Y-85626000D01*
X165875888Y-82015000D02*
X165875888Y-82760000D01*
X165875888Y-84840000D02*
X165875888Y-85585000D01*
X165915888Y-82057000D02*
X165915888Y-82760000D01*
X165915888Y-84840000D02*
X165915888Y-85543000D01*
X165955888Y-82101000D02*
X165955888Y-82760000D01*
X165955888Y-84840000D02*
X165955888Y-85499000D01*
X165995888Y-82147000D02*
X165995888Y-82760000D01*
X165995888Y-84840000D02*
X165995888Y-85453000D01*
X166035888Y-82195000D02*
X166035888Y-85405000D01*
X166075888Y-82246000D02*
X166075888Y-85354000D01*
X166115888Y-82300000D02*
X166115888Y-85300000D01*
X166155888Y-82357000D02*
X166155888Y-85243000D01*
X166195888Y-82417000D02*
X166195888Y-85183000D01*
X166235888Y-82481000D02*
X166235888Y-85119000D01*
X166275888Y-82549000D02*
X166275888Y-85051000D01*
X166315888Y-82622000D02*
X166315888Y-84978000D01*
X166355888Y-82702000D02*
X166355888Y-84898000D01*
X166395888Y-82789000D02*
X166395888Y-84811000D01*
X166435888Y-82885000D02*
X166435888Y-84715000D01*
X166475888Y-82995000D02*
X166475888Y-84605000D01*
X166515888Y-83123000D02*
X166515888Y-84477000D01*
X166555888Y-83282000D02*
X166555888Y-84318000D01*
X166595888Y-83516000D02*
X166595888Y-84084000D01*
X166614888Y-83800000D02*
G75*
G02*
X161374888Y-83800000I-2620000J0D01*
G01*
X161374888Y-83800000D02*
G75*
G02*
X166614888Y-83800000I2620000J0D01*
G01*
%TO.C,C8*%
X125445225Y-54475000D02*
X125945225Y-54475000D01*
X125695225Y-54225000D02*
X125695225Y-54725000D01*
X128250000Y-53370000D02*
X128250000Y-58530000D01*
X128290000Y-53370000D02*
X128290000Y-58530000D01*
X128330000Y-53371000D02*
X128330000Y-58529000D01*
X128370000Y-53372000D02*
X128370000Y-58528000D01*
X128410000Y-53374000D02*
X128410000Y-58526000D01*
X128450000Y-53377000D02*
X128450000Y-58523000D01*
X128490000Y-53381000D02*
X128490000Y-54910000D01*
X128490000Y-56990000D02*
X128490000Y-58519000D01*
X128530000Y-53385000D02*
X128530000Y-54910000D01*
X128530000Y-56990000D02*
X128530000Y-58515000D01*
X128570000Y-53389000D02*
X128570000Y-54910000D01*
X128570000Y-56990000D02*
X128570000Y-58511000D01*
X128610000Y-53394000D02*
X128610000Y-54910000D01*
X128610000Y-56990000D02*
X128610000Y-58506000D01*
X128650000Y-53400000D02*
X128650000Y-54910000D01*
X128650000Y-56990000D02*
X128650000Y-58500000D01*
X128690000Y-53407000D02*
X128690000Y-54910000D01*
X128690000Y-56990000D02*
X128690000Y-58493000D01*
X128730000Y-53414000D02*
X128730000Y-54910000D01*
X128730000Y-56990000D02*
X128730000Y-58486000D01*
X128770000Y-53422000D02*
X128770000Y-54910000D01*
X128770000Y-56990000D02*
X128770000Y-58478000D01*
X128810000Y-53430000D02*
X128810000Y-54910000D01*
X128810000Y-56990000D02*
X128810000Y-58470000D01*
X128850000Y-53439000D02*
X128850000Y-54910000D01*
X128850000Y-56990000D02*
X128850000Y-58461000D01*
X128890000Y-53449000D02*
X128890000Y-54910000D01*
X128890000Y-56990000D02*
X128890000Y-58451000D01*
X128930000Y-53459000D02*
X128930000Y-54910000D01*
X128930000Y-56990000D02*
X128930000Y-58441000D01*
X128971000Y-53470000D02*
X128971000Y-54910000D01*
X128971000Y-56990000D02*
X128971000Y-58430000D01*
X129011000Y-53482000D02*
X129011000Y-54910000D01*
X129011000Y-56990000D02*
X129011000Y-58418000D01*
X129051000Y-53495000D02*
X129051000Y-54910000D01*
X129051000Y-56990000D02*
X129051000Y-58405000D01*
X129091000Y-53508000D02*
X129091000Y-54910000D01*
X129091000Y-56990000D02*
X129091000Y-58392000D01*
X129131000Y-53522000D02*
X129131000Y-54910000D01*
X129131000Y-56990000D02*
X129131000Y-58378000D01*
X129171000Y-53536000D02*
X129171000Y-54910000D01*
X129171000Y-56990000D02*
X129171000Y-58364000D01*
X129211000Y-53552000D02*
X129211000Y-54910000D01*
X129211000Y-56990000D02*
X129211000Y-58348000D01*
X129251000Y-53568000D02*
X129251000Y-54910000D01*
X129251000Y-56990000D02*
X129251000Y-58332000D01*
X129291000Y-53585000D02*
X129291000Y-54910000D01*
X129291000Y-56990000D02*
X129291000Y-58315000D01*
X129331000Y-53602000D02*
X129331000Y-54910000D01*
X129331000Y-56990000D02*
X129331000Y-58298000D01*
X129371000Y-53621000D02*
X129371000Y-54910000D01*
X129371000Y-56990000D02*
X129371000Y-58279000D01*
X129411000Y-53640000D02*
X129411000Y-54910000D01*
X129411000Y-56990000D02*
X129411000Y-58260000D01*
X129451000Y-53660000D02*
X129451000Y-54910000D01*
X129451000Y-56990000D02*
X129451000Y-58240000D01*
X129491000Y-53682000D02*
X129491000Y-54910000D01*
X129491000Y-56990000D02*
X129491000Y-58218000D01*
X129531000Y-53703000D02*
X129531000Y-54910000D01*
X129531000Y-56990000D02*
X129531000Y-58197000D01*
X129571000Y-53726000D02*
X129571000Y-54910000D01*
X129571000Y-56990000D02*
X129571000Y-58174000D01*
X129611000Y-53750000D02*
X129611000Y-54910000D01*
X129611000Y-56990000D02*
X129611000Y-58150000D01*
X129651000Y-53775000D02*
X129651000Y-54910000D01*
X129651000Y-56990000D02*
X129651000Y-58125000D01*
X129691000Y-53801000D02*
X129691000Y-54910000D01*
X129691000Y-56990000D02*
X129691000Y-58099000D01*
X129731000Y-53828000D02*
X129731000Y-54910000D01*
X129731000Y-56990000D02*
X129731000Y-58072000D01*
X129771000Y-53855000D02*
X129771000Y-54910000D01*
X129771000Y-56990000D02*
X129771000Y-58045000D01*
X129811000Y-53885000D02*
X129811000Y-54910000D01*
X129811000Y-56990000D02*
X129811000Y-58015000D01*
X129851000Y-53915000D02*
X129851000Y-54910000D01*
X129851000Y-56990000D02*
X129851000Y-57985000D01*
X129891000Y-53946000D02*
X129891000Y-54910000D01*
X129891000Y-56990000D02*
X129891000Y-57954000D01*
X129931000Y-53979000D02*
X129931000Y-54910000D01*
X129931000Y-56990000D02*
X129931000Y-57921000D01*
X129971000Y-54013000D02*
X129971000Y-54910000D01*
X129971000Y-56990000D02*
X129971000Y-57887000D01*
X130011000Y-54049000D02*
X130011000Y-54910000D01*
X130011000Y-56990000D02*
X130011000Y-57851000D01*
X130051000Y-54086000D02*
X130051000Y-54910000D01*
X130051000Y-56990000D02*
X130051000Y-57814000D01*
X130091000Y-54124000D02*
X130091000Y-54910000D01*
X130091000Y-56990000D02*
X130091000Y-57776000D01*
X130131000Y-54165000D02*
X130131000Y-54910000D01*
X130131000Y-56990000D02*
X130131000Y-57735000D01*
X130171000Y-54207000D02*
X130171000Y-54910000D01*
X130171000Y-56990000D02*
X130171000Y-57693000D01*
X130211000Y-54251000D02*
X130211000Y-54910000D01*
X130211000Y-56990000D02*
X130211000Y-57649000D01*
X130251000Y-54297000D02*
X130251000Y-54910000D01*
X130251000Y-56990000D02*
X130251000Y-57603000D01*
X130291000Y-54345000D02*
X130291000Y-54910000D01*
X130291000Y-56990000D02*
X130291000Y-57555000D01*
X130331000Y-54396000D02*
X130331000Y-54910000D01*
X130331000Y-56990000D02*
X130331000Y-57504000D01*
X130371000Y-54450000D02*
X130371000Y-54910000D01*
X130371000Y-56990000D02*
X130371000Y-57450000D01*
X130411000Y-54507000D02*
X130411000Y-54910000D01*
X130411000Y-56990000D02*
X130411000Y-57393000D01*
X130451000Y-54567000D02*
X130451000Y-54910000D01*
X130451000Y-56990000D02*
X130451000Y-57333000D01*
X130491000Y-54631000D02*
X130491000Y-54910000D01*
X130491000Y-56990000D02*
X130491000Y-57269000D01*
X130531000Y-54699000D02*
X130531000Y-54910000D01*
X130531000Y-56990000D02*
X130531000Y-57201000D01*
X130571000Y-54772000D02*
X130571000Y-57128000D01*
X130611000Y-54852000D02*
X130611000Y-57048000D01*
X130651000Y-54939000D02*
X130651000Y-56961000D01*
X130691000Y-55035000D02*
X130691000Y-56865000D01*
X130731000Y-55145000D02*
X130731000Y-56755000D01*
X130771000Y-55273000D02*
X130771000Y-56627000D01*
X130811000Y-55432000D02*
X130811000Y-56468000D01*
X130851000Y-55666000D02*
X130851000Y-56234000D01*
X130870000Y-55950000D02*
G75*
G02*
X125630000Y-55950000I-2620000J0D01*
G01*
X125630000Y-55950000D02*
G75*
G02*
X130870000Y-55950000I2620000J0D01*
G01*
%TO.C,D1*%
X162152500Y-70769000D02*
X162152500Y-70925000D01*
X162152500Y-73085000D02*
X162152500Y-73241000D01*
X162152500Y-70769484D02*
G75*
G02*
X165384835Y-70926392I1560000J-1235516D01*
G01*
X162671539Y-70925000D02*
G75*
G02*
X164753630Y-70925163I1040961J-1080000D01*
G01*
X164753630Y-73084837D02*
G75*
G02*
X162671539Y-73085000I-1041130J1079837D01*
G01*
X165384835Y-73083608D02*
G75*
G02*
X162152500Y-73240516I-1672335J1078608D01*
G01*
%TO.C,U4*%
X154295000Y-90900000D02*
X154295000Y-92150000D01*
X154295000Y-94150000D02*
X154295000Y-95400000D01*
X154295000Y-95400000D02*
X159495000Y-95400000D01*
X159495000Y-90900000D02*
X154295000Y-90900000D01*
X159495000Y-95400000D02*
X159495000Y-90900000D01*
X154295000Y-92150000D02*
G75*
G02*
X154295000Y-94150000I0J-1000000D01*
G01*
%TO.C,K3*%
X139960000Y-89660000D02*
X152660000Y-89660000D01*
X139960000Y-120140000D02*
X139960000Y-89660000D01*
X142500000Y-96010000D02*
X142500000Y-94740000D01*
X143770000Y-94740000D02*
X148850000Y-94740000D01*
X143770000Y-96010000D02*
X142500000Y-96010000D01*
X143770000Y-97280000D02*
X143770000Y-94740000D01*
X147580000Y-94740000D02*
X146310000Y-97280000D01*
X148850000Y-94740000D02*
X148850000Y-96010000D01*
X148850000Y-96010000D02*
X148850000Y-97280000D01*
X148850000Y-97280000D02*
X143770000Y-97280000D01*
X150120000Y-94740000D02*
X150120000Y-96010000D01*
X150120000Y-96010000D02*
X148850000Y-96010000D01*
X152660000Y-89660000D02*
X152660000Y-120140000D01*
X152660000Y-120140000D02*
X139960000Y-120140000D01*
%TO.C,D4*%
X144657500Y-81861500D02*
X144657500Y-82017500D01*
X144657500Y-84177500D02*
X144657500Y-84333500D01*
X144657500Y-81861984D02*
G75*
G02*
X147889835Y-82018892I1560000J-1235516D01*
G01*
X145176539Y-82017500D02*
G75*
G02*
X147258630Y-82017663I1040961J-1080000D01*
G01*
X147258630Y-84177337D02*
G75*
G02*
X145176539Y-84177500I-1041130J1079837D01*
G01*
X147889835Y-84176108D02*
G75*
G02*
X144657500Y-84333016I-1672335J1078608D01*
G01*
%TD*%
M02*
