%TF.GenerationSoftware,KiCad,Pcbnew,8.0.6*%
%TF.CreationDate,2024-12-30T11:18:50+02:00*%
%TF.ProjectId,project,70726f6a-6563-4742-9e6b-696361645f70,rev?*%
%TF.SameCoordinates,Original*%
%TF.FileFunction,Soldermask,Bot*%
%TF.FilePolarity,Negative*%
%FSLAX46Y46*%
G04 Gerber Fmt 4.6, Leading zero omitted, Abs format (unit mm)*
G04 Created by KiCad (PCBNEW 8.0.6) date 2024-12-30 11:18:50*
%MOMM*%
%LPD*%
G01*
G04 APERTURE LIST*
G04 Aperture macros list*
%AMRoundRect*
0 Rectangle with rounded corners*
0 $1 Rounding radius*
0 $2 $3 $4 $5 $6 $7 $8 $9 X,Y pos of 4 corners*
0 Add a 4 corners polygon primitive as box body*
4,1,4,$2,$3,$4,$5,$6,$7,$8,$9,$2,$3,0*
0 Add four circle primitives for the rounded corners*
1,1,$1+$1,$2,$3*
1,1,$1+$1,$4,$5*
1,1,$1+$1,$6,$7*
1,1,$1+$1,$8,$9*
0 Add four rect primitives between the rounded corners*
20,1,$1+$1,$2,$3,$4,$5,0*
20,1,$1+$1,$4,$5,$6,$7,0*
20,1,$1+$1,$6,$7,$8,$9,0*
20,1,$1+$1,$8,$9,$2,$3,0*%
G04 Aperture macros list end*
%ADD10R,1.800000X1.800000*%
%ADD11C,1.800000*%
%ADD12R,1.600000X1.600000*%
%ADD13O,1.600000X1.600000*%
%ADD14C,1.600000*%
%ADD15C,3.200000*%
%ADD16C,1.270000*%
%ADD17RoundRect,0.249999X-0.790001X-1.550001X0.790001X-1.550001X0.790001X1.550001X-0.790001X1.550001X0*%
%ADD18O,2.080000X3.600000*%
%ADD19C,3.000000*%
%ADD20R,1.700000X1.700000*%
%ADD21O,1.700000X1.700000*%
%ADD22R,2.000000X1.700000*%
%ADD23O,2.000000X1.700000*%
%ADD24R,1.905000X2.000000*%
%ADD25O,1.905000X2.000000*%
%ADD26C,2.400000*%
%ADD27O,2.400000X2.400000*%
%ADD28RoundRect,0.500000X0.500000X-0.500000X0.500000X0.500000X-0.500000X0.500000X-0.500000X-0.500000X0*%
%ADD29C,2.000000*%
%ADD30R,1.600000X2.400000*%
%ADD31O,1.600000X2.400000*%
%ADD32C,1.500000*%
%ADD33RoundRect,0.175000X-0.175000X0.825000X-0.175000X-0.825000X0.175000X-0.825000X0.175000X0.825000X0*%
%ADD34RoundRect,0.100000X0.637500X0.100000X-0.637500X0.100000X-0.637500X-0.100000X0.637500X-0.100000X0*%
%ADD35RoundRect,0.250000X-0.337500X-0.475000X0.337500X-0.475000X0.337500X0.475000X-0.337500X0.475000X0*%
%ADD36RoundRect,0.250000X-0.350000X-0.450000X0.350000X-0.450000X0.350000X0.450000X-0.350000X0.450000X0*%
%ADD37RoundRect,0.250000X0.350000X0.450000X-0.350000X0.450000X-0.350000X-0.450000X0.350000X-0.450000X0*%
%ADD38RoundRect,0.250000X-0.400000X-0.625000X0.400000X-0.625000X0.400000X0.625000X-0.400000X0.625000X0*%
%ADD39RoundRect,0.250000X0.337500X0.475000X-0.337500X0.475000X-0.337500X-0.475000X0.337500X-0.475000X0*%
%ADD40RoundRect,0.250000X-0.475000X0.337500X-0.475000X-0.337500X0.475000X-0.337500X0.475000X0.337500X0*%
G04 APERTURE END LIST*
D10*
%TO.C,D3*%
X131127500Y-83282500D03*
D11*
X133667500Y-83282500D03*
%TD*%
D12*
%TO.C,D6*%
X136337500Y-87332500D03*
D13*
X128717500Y-87332500D03*
%TD*%
D10*
%TO.C,D2*%
X110558750Y-61073750D03*
D11*
X113098750Y-61073750D03*
%TD*%
D14*
%TO.C,RV1*%
X122657500Y-106127500D03*
X117657500Y-104877500D03*
%TD*%
D15*
%TO.C,H3*%
X166050000Y-49200000D03*
%TD*%
D16*
%TO.C,F1*%
X82150000Y-128850000D03*
X83750000Y-123750000D03*
%TD*%
D17*
%TO.C,J3*%
X108830000Y-126050000D03*
D18*
X113910000Y-126050000D03*
X118990000Y-126050000D03*
X124070000Y-126050000D03*
X129150000Y-126050000D03*
X134230000Y-126050000D03*
X139310000Y-126050000D03*
X144390000Y-126050000D03*
X149470000Y-126050000D03*
X154550000Y-126050000D03*
%TD*%
D14*
%TO.C,R23*%
X162600000Y-107182500D03*
D13*
X162600000Y-102102500D03*
%TD*%
D19*
%TO.C,K2*%
X136227500Y-112502500D03*
X128607500Y-116002500D03*
X136227500Y-92182500D03*
X128607500Y-92182500D03*
%TD*%
D12*
%TO.C,C10*%
X135300000Y-55950000D03*
D14*
X132800000Y-55950000D03*
%TD*%
D16*
%TO.C,F3*%
X161800000Y-117517500D03*
X163400000Y-112417500D03*
%TD*%
D20*
%TO.C,J2*%
X144210000Y-50920000D03*
D21*
X146750000Y-50920000D03*
X149290000Y-50920000D03*
X151830000Y-50920000D03*
X154370000Y-50920000D03*
%TD*%
D22*
%TO.C,PS1*%
X82400000Y-116302500D03*
D23*
X87400000Y-116302500D03*
X77400000Y-87222500D03*
X92400000Y-87222500D03*
%TD*%
D24*
%TO.C,U3*%
X128520000Y-50400000D03*
D25*
X131060000Y-50400000D03*
X133600000Y-50400000D03*
%TD*%
D15*
%TO.C,H2*%
X76600000Y-127650000D03*
%TD*%
D12*
%TO.C,D7*%
X149782500Y-87247500D03*
D13*
X142162500Y-87247500D03*
%TD*%
D12*
%TO.C,C13*%
X156600000Y-83835000D03*
D14*
X158600000Y-83835000D03*
%TD*%
D12*
%TO.C,D5*%
X115643750Y-65373750D03*
D13*
X108023750Y-65373750D03*
%TD*%
D16*
%TO.C,F2*%
X155250000Y-117700000D03*
X156850000Y-112600000D03*
%TD*%
D20*
%TO.C,J1*%
X158410000Y-63105000D03*
D21*
X160950000Y-63105000D03*
X163490000Y-63105000D03*
%TD*%
D26*
%TO.C,TH1*%
X97370000Y-125150000D03*
D27*
X89750000Y-125150000D03*
%TD*%
D14*
%TO.C,R22*%
X156100000Y-107265000D03*
D13*
X156100000Y-102185000D03*
%TD*%
D15*
%TO.C,H1*%
X76650000Y-49400000D03*
%TD*%
D26*
%TO.C,R21*%
X98507500Y-115702500D03*
D27*
X123907500Y-115702500D03*
%TD*%
D19*
%TO.C,K1*%
X120307500Y-86912500D03*
X102507500Y-97052500D03*
X102507500Y-89452500D03*
D28*
X116507500Y-74252500D03*
D29*
X106307500Y-74252500D03*
%TD*%
D14*
%TO.C,C11*%
X113457500Y-105052500D03*
D13*
X98457500Y-105052500D03*
%TD*%
D30*
%TO.C,U5*%
X162025000Y-96975000D03*
D31*
X164565000Y-96975000D03*
X164565000Y-89355000D03*
X162025000Y-89355000D03*
%TD*%
D32*
%TO.C,Y1*%
X159410000Y-57520000D03*
X159410000Y-52620000D03*
%TD*%
D12*
%TO.C,C14*%
X162994888Y-83800000D03*
D14*
X164994888Y-83800000D03*
%TD*%
D12*
%TO.C,C8*%
X127000000Y-55950000D03*
D14*
X129500000Y-55950000D03*
%TD*%
D10*
%TO.C,D1*%
X162442500Y-72005000D03*
D11*
X164982500Y-72005000D03*
%TD*%
D30*
%TO.C,U4*%
X155625000Y-96960000D03*
D31*
X158165000Y-96960000D03*
X158165000Y-89340000D03*
X155625000Y-89340000D03*
%TD*%
D19*
%TO.C,K3*%
X150120000Y-112520000D03*
X142500000Y-116020000D03*
X150120000Y-92200000D03*
X142500000Y-92200000D03*
%TD*%
D15*
%TO.C,H4*%
X166250000Y-128000000D03*
%TD*%
D10*
%TO.C,D4*%
X144947500Y-83097500D03*
D11*
X147487500Y-83097500D03*
%TD*%
D33*
%TO.C,Q4*%
X140172500Y-79697500D03*
X142072500Y-79697500D03*
X141122500Y-83097500D03*
%TD*%
D34*
%TO.C,U2*%
X152260000Y-54270000D03*
X152260000Y-54920000D03*
X152260000Y-55570000D03*
X152260000Y-56220000D03*
X152260000Y-56870000D03*
X152260000Y-57520000D03*
X152260000Y-58170000D03*
X152260000Y-58820000D03*
X152260000Y-59470000D03*
X152260000Y-60120000D03*
X146535000Y-60120000D03*
X146535000Y-59470000D03*
X146535000Y-58820000D03*
X146535000Y-58170000D03*
X146535000Y-57520000D03*
X146535000Y-56870000D03*
X146535000Y-56220000D03*
X146535000Y-55570000D03*
X146535000Y-54920000D03*
X146535000Y-54270000D03*
%TD*%
D35*
%TO.C,C12*%
X151062500Y-122750000D03*
X153137500Y-122750000D03*
%TD*%
D36*
%TO.C,R1*%
X149060000Y-48070000D03*
X151060000Y-48070000D03*
%TD*%
D35*
%TO.C,C7*%
X127112500Y-53500000D03*
X129187500Y-53500000D03*
%TD*%
D37*
%TO.C,R11*%
X167000000Y-75350000D03*
X165000000Y-75350000D03*
%TD*%
D35*
%TO.C,C3*%
X162072500Y-57520000D03*
X164147500Y-57520000D03*
%TD*%
D36*
%TO.C,R10*%
X161410000Y-66205000D03*
X163410000Y-66205000D03*
%TD*%
%TO.C,R20*%
X140172500Y-76947500D03*
X142172500Y-76947500D03*
%TD*%
D37*
%TO.C,R12*%
X142650000Y-61950000D03*
X140650000Y-61950000D03*
%TD*%
D33*
%TO.C,Q1*%
X158210000Y-70155000D03*
X160110000Y-70155000D03*
X159160000Y-73555000D03*
%TD*%
D37*
%TO.C,R16*%
X138027500Y-83232500D03*
X136027500Y-83232500D03*
%TD*%
D36*
%TO.C,R9*%
X157510000Y-66205000D03*
X159510000Y-66205000D03*
%TD*%
%TO.C,R25*%
X161000000Y-80265000D03*
X163000000Y-80265000D03*
%TD*%
D38*
%TO.C,R7*%
X149660000Y-63255000D03*
X152760000Y-63255000D03*
%TD*%
D37*
%TO.C,R15*%
X117998750Y-61073750D03*
X115998750Y-61073750D03*
%TD*%
D39*
%TO.C,C9*%
X134937500Y-53500000D03*
X132862500Y-53500000D03*
%TD*%
D40*
%TO.C,C4*%
X140800000Y-54112500D03*
X140800000Y-56187500D03*
%TD*%
D33*
%TO.C,Q3*%
X126677500Y-79882500D03*
X128577500Y-79882500D03*
X127627500Y-83282500D03*
%TD*%
D35*
%TO.C,C15*%
X145812500Y-122750000D03*
X147887500Y-122750000D03*
%TD*%
D36*
%TO.C,R19*%
X126677500Y-77152500D03*
X128677500Y-77152500D03*
%TD*%
D37*
%TO.C,R17*%
X151922500Y-83097500D03*
X149922500Y-83097500D03*
%TD*%
%TO.C,R13*%
X142650000Y-64100000D03*
X140650000Y-64100000D03*
%TD*%
D36*
%TO.C,R18*%
X106078750Y-54118750D03*
X108078750Y-54118750D03*
%TD*%
%TO.C,R2*%
X153060000Y-48070000D03*
X155060000Y-48070000D03*
%TD*%
D37*
%TO.C,R14*%
X142610000Y-59800000D03*
X140610000Y-59800000D03*
%TD*%
D35*
%TO.C,C6*%
X149572500Y-68105000D03*
X151647500Y-68105000D03*
%TD*%
D38*
%TO.C,R8*%
X149660000Y-65755000D03*
X152760000Y-65755000D03*
%TD*%
D35*
%TO.C,C1*%
X162122500Y-52620000D03*
X164197500Y-52620000D03*
%TD*%
D36*
%TO.C,R24*%
X154550000Y-80250000D03*
X156550000Y-80250000D03*
%TD*%
D33*
%TO.C,Q2*%
X106126250Y-57673750D03*
X108026250Y-57673750D03*
X107076250Y-61073750D03*
%TD*%
M02*
